<?xml version="1.0" encoding="UTF-8"?>
<svg width="444" height="483" viewBox="0 0 444 483" fill="none" xmlns="http://www.w3.org/2000/svg">
<path stroke="black" stroke-width="0.1500" d="
M 260.686984 481.043277
A 3.423933 0.719026 0 0 0 267.534851 481.043277
M 260.298152 480.909871
A 4.155917 0.872743 0 0 0 268.609986 480.909871
M 259.909321 480.776464
A 4.887900 1.026459 0 0 0 269.685121 480.776464
M 259.520489 480.643058
A 5.619883 1.180176 0 0 0 270.760256 480.643058
M 259.131657 480.509652
A 6.351867 1.333892 0 0 0 271.835391 480.509652
M 258.742825 480.376245
A 7.083850 1.487609 0 0 0 272.910526 480.376245
M 258.353994 480.242839
A 7.815833 1.641325 0 0 0 273.985661 480.242839
M 257.965162 480.109432
A 8.547817 1.795042 0 0 0 275.060796 480.109432
M 257.576330 479.976026
A 9.279800 1.948758 0 0 0 276.135931 479.976026
M 257.187499 479.842619
A 10.011783 2.102475 0 0 0 277.211066 479.842619
M 256.798667 479.709213
A 10.743767 2.256191 0 0 0 278.286201 479.709213
M 256.409835 479.575807
A 11.475750 2.409908 0 0 0 279.361336 479.575807
M 256.021004 479.442400
A 12.207733 2.563624 0 0 0 280.436471 479.442400
M 255.632172 479.308994
A 12.939717 2.717341 0 0 0 281.511606 479.308994
M 255.243340 479.175587
A 13.671700 2.871057 0 0 0 282.586741 479.175587
M 254.854509 479.042181
A 14.403683 3.024774 0 0 0 283.661876 479.042181
M 254.465677 478.908774
A 15.135667 3.178490 0 0 0 284.737011 478.908774
M 254.076845 478.775368
A 15.867650 3.332207 0 0 0 285.812146 478.775368
M 253.688014 478.641961
A 16.599633 3.485923 0 0 0 286.887281 478.641961
M 253.299182 478.508555
A 17.331617 3.639640 0 0 0 287.962416 478.508555
M 252.910350 478.375149
A 18.063600 3.793356 0 0 0 289.037551 478.375149
M 252.521519 478.241742
A 18.795583 3.947073 0 0 0 290.112686 478.241742
M 252.132687 478.108336
A 19.527567 4.100789 0 0 0 291.187821 478.108336
M 251.743855 477.974929
A 20.259550 4.254506 0 0 0 292.262956 477.974929
M 251.355024 477.841523
A 20.991533 4.408222 0 0 0 293.338091 477.841523
M 250.966192 477.708116
A 21.723517 4.561939 0 0 0 294.413226 477.708116
M 250.577360 477.574710
A 22.455500 4.715655 0 0 0 295.488361 477.574710
M 250.188529 477.441304
A 23.187483 4.869372 0 0 0 296.563496 477.441304
M 249.799697 477.307897
A 23.919467 5.023088 0 0 0 297.638631 477.307897
M 249.410865 477.174491
A 24.651450 5.176805 0 0 0 298.713766 477.174491
M 249.022034 477.041084
A 25.383433 5.330521 0 0 0 299.788901 477.041084
M 248.633202 476.907678
A 26.115417 5.484238 0 0 0 300.864036 476.907678
M 248.244370 476.774271
A 26.847400 5.637954 0 0 0 301.939171 476.774271
M 247.855539 476.640865
A 27.579383 5.791671 0 0 0 303.014306 476.640865
M 247.466707 476.507459
A 28.311367 5.945387 0 0 0 304.089441 476.507459
M 247.077875 476.374052
A 29.043350 6.099104 0 0 0 305.164576 476.374052
M 246.689044 476.240646
A 29.775334 6.252820 0 0 0 306.239711 476.240646
M 246.300212 476.107239
A 30.507317 6.406537 0 0 0 307.314846 476.107239
M 245.911380 475.973833
A 31.239300 6.560253 0 0 0 308.389981 475.973833
M 245.522549 475.840426
A 31.971284 6.713970 0 0 0 309.465116 475.840426
M 245.133717 475.707020
A 32.703267 6.867686 0 0 0 310.540251 475.707020
M 244.744885 475.573613
A 33.435250 7.021403 0 0 0 311.615386 475.573613
M 244.356054 475.440207
A 34.167234 7.175119 0 0 0 312.690521 475.440207
M 243.967222 475.306801
A 34.899217 7.328836 0 0 0 313.765656 475.306801
M 243.578390 475.173394
A 35.631200 7.482552 0 0 0 314.840791 475.173394
M 261.311845 327.165889
A 2.233678 0.500000 0 0 0 265.779202 327.165889
M 261.297644 330.663102
A 2.260729 0.500000 0 0 0 265.819103 330.663102
M 261.283443 334.160316
A 2.287781 0.500000 0 0 0 265.859004 334.160316
M 261.269241 337.657529
A 2.314832 0.500000 0 0 0 265.898905 337.657529
M 261.255040 341.154742
A 2.341883 0.500000 0 0 0 265.938806 341.154742
M 261.240838 344.651956
A 2.368934 0.500000 0 0 0 265.978707 344.651956
M 261.226637 348.149169
A 2.395986 0.503157 0 0 0 266.018608 348.149169
M 261.212436 351.646383
A 2.423037 0.508838 0 0 0 266.058510 351.646383
M 261.198234 355.143596
A 2.450088 0.514519 0 0 0 266.098411 355.143596
M 261.184033 358.640809
A 2.477140 0.520199 0 0 0 266.138312 358.640809
M 261.169831 362.138023
A 2.504191 0.525880 0 0 0 266.178213 362.138023
M 261.155630 365.635236
A 2.531242 0.531561 0 0 0 266.218114 365.635236
M 261.141429 369.132449
A 2.558293 0.537242 0 0 0 266.258015 369.132449
M 261.127227 372.629663
A 2.585345 0.542922 0 0 0 266.297916 372.629663
M 261.113026 376.126876
A 2.612396 0.548603 0 0 0 266.337817 376.126876
M 261.098824 379.624090
A 2.639447 0.554284 0 0 0 266.377718 379.624090
M 261.084623 383.121303
A 2.666498 0.559965 0 0 0 266.417620 383.121303
M 261.070422 386.618516
A 2.693550 0.565645 0 0 0 266.457521 386.618516
M 261.056220 390.115730
A 2.720601 0.571326 0 0 0 266.497422 390.115730
M 261.042019 393.612943
A 2.747652 0.577007 0 0 0 266.537323 393.612943
M 261.027817 397.110156
A 2.774703 0.582688 0 0 0 266.577224 397.110156
M 261.013616 400.607370
A 2.801755 0.588368 0 0 0 266.617125 400.607370
M 260.999415 404.104583
A 2.828806 0.594049 0 0 0 266.657026 404.104583
M 260.985213 407.601797
A 2.855857 0.599730 0 0 0 266.696927 407.601797
M 260.971012 411.099010
A 2.882908 0.605411 0 0 0 266.736828 411.099010
M 260.956810 414.596223
A 2.909960 0.611092 0 0 0 266.776730 414.596223
M 260.942609 418.093437
A 2.937011 0.616772 0 0 0 266.816631 418.093437
M 260.928408 421.590650
A 2.964062 0.622453 0 0 0 266.856532 421.590650
M 260.914206 425.087863
A 2.991113 0.628134 0 0 0 266.896433 425.087863
M 260.900005 428.585077
A 3.018165 0.633815 0 0 0 266.936334 428.585077
M 260.885803 432.082290
A 3.045216 0.639495 0 0 0 266.976235 432.082290
M 260.871602 435.579503
A 3.072267 0.645176 0 0 0 267.016136 435.579503
M 260.857401 439.076717
A 3.099318 0.650857 0 0 0 267.056037 439.076717
M 260.843199 442.573930
A 3.126370 0.656538 0 0 0 267.095938 442.573930
M 260.828998 446.071144
A 3.153421 0.662218 0 0 0 267.135840 446.071144
M 260.814796 449.568357
A 3.180472 0.667899 0 0 0 267.175741 449.568357
M 260.800595 453.065570
A 3.207523 0.673580 0 0 0 267.215642 453.065570
M 260.786394 456.562784
A 3.234575 0.679261 0 0 0 267.255543 456.562784
M 260.772192 460.059997
A 3.261626 0.684941 0 0 0 267.295444 460.059997
M 260.757991 463.557210
A 3.288677 0.690622 0 0 0 267.335345 463.557210
M 260.743789 467.054424
A 3.315728 0.696303 0 0 0 267.375246 467.054424
M 260.729588 470.551637
A 3.342780 0.701984 0 0 0 267.415147 470.551637
M 260.715387 474.048851
A 3.369831 0.707664 0 0 0 267.455048 474.048851
M 260.701185 477.546064
A 3.396882 0.713345 0 0 0 267.494949 477.546064
M 260.918601 327.623510
A 2.974022 0.624545 0 0 0 266.866644 327.623510
M 260.525357 328.081131
A 3.714365 0.780017 0 0 0 267.954087 328.081131
M 260.132113 328.538751
A 4.454708 0.935489 0 0 0 269.041530 328.538751
M 259.738869 328.996372
A 5.195052 1.090961 0 0 0 270.128972 328.996372
M 259.345625 329.453993
A 5.935395 1.246433 0 0 0 271.216415 329.453993
M 258.952381 329.911614
A 6.675738 1.401905 0 0 0 272.303858 329.911614
M 258.559137 330.369235
A 7.416082 1.557377 0 0 0 273.391300 330.369235
M 258.165893 330.826856
A 8.156425 1.712849 0 0 0 274.478743 330.826856
M 257.772649 331.284477
A 8.896768 1.868321 0 0 0 275.566185 331.284477
M 257.379405 331.742097
A 9.637112 2.023793 0 0 0 276.653628 331.742097
M 256.986161 332.199718
A 10.377455 2.179266 0 0 0 277.741071 332.199718
M 256.592917 332.657339
A 11.117798 2.334738 0 0 0 278.828513 332.657339
M 256.199673 333.114960
A 11.858142 2.490210 0 0 0 279.915956 333.114960
M 255.806429 333.572581
A 12.598485 2.645682 0 0 0 281.003399 333.572581
M 255.413185 334.030202
A 13.338828 2.801154 0 0 0 282.090841 334.030202
M 255.019941 334.487822
A 14.079172 2.956626 0 0 0 283.178284 334.487822
M 254.626697 334.945443
A 14.819515 3.112098 0 0 0 284.265726 334.945443
M 254.233452 335.403064
A 15.559858 3.267570 0 0 0 285.353169 335.403064
M 253.840208 335.860685
A 16.300202 3.423042 0 0 0 286.440612 335.860685
M 253.446964 336.318306
A 17.040545 3.578514 0 0 0 287.528054 336.318306
M 253.053720 336.775927
A 17.780888 3.733987 0 0 0 288.615497 336.775927
M 252.660476 337.233547
A 18.521232 3.889459 0 0 0 289.702940 337.233547
M 252.267232 337.691168
A 19.261575 4.044931 0 0 0 290.790382 337.691168
M 251.873988 338.148789
A 20.001918 4.200403 0 0 0 291.877825 338.148789
M 251.480744 338.606410
A 20.742262 4.355875 0 0 0 292.965268 338.606410
M 251.087500 339.064031
A 21.482605 4.511347 0 0 0 294.052710 339.064031
M 250.694256 339.521652
A 22.222948 4.666819 0 0 0 295.140153 339.521652
M 250.301012 339.979272
A 22.963292 4.822291 0 0 0 296.227595 339.979272
M 249.907768 340.436893
A 23.703635 4.977763 0 0 0 297.315038 340.436893
M 249.514524 340.894514
A 24.443978 5.133235 0 0 0 298.402481 340.894514
M 249.121280 341.352135
A 25.184322 5.288708 0 0 0 299.489923 341.352135
M 248.728036 341.809756
A 25.924665 5.444180 0 0 0 300.577366 341.809756
M 248.334792 342.267377
A 26.665008 5.599652 0 0 0 301.664809 342.267377
M 247.941548 342.724997
A 27.405352 5.755124 0 0 0 302.752251 342.724997
M 247.548304 343.182618
A 28.145695 5.910596 0 0 0 303.839694 343.182618
M 247.155060 343.640239
A 28.886038 6.066068 0 0 0 304.927136 343.640239
M 246.761816 344.097860
A 29.626382 6.221540 0 0 0 306.014579 344.097860
M 246.368572 344.555481
A 30.366725 6.377012 0 0 0 307.102022 344.555481
M 245.975327 345.013102
A 31.107068 6.532484 0 0 0 308.189464 345.013102
M 245.582083 345.470722
A 31.847412 6.687956 0 0 0 309.276907 345.470722
M 245.188839 345.928343
A 32.587755 6.843429 0 0 0 310.364350 345.928343
M 244.795595 346.385964
A 33.328098 6.998901 0 0 0 311.451792 346.385964
M 244.402351 346.843585
A 34.068442 7.154373 0 0 0 312.539235 346.843585
M 244.009107 347.301206
A 34.808785 7.309845 0 0 0 313.626677 347.301206
M 243.999318 350.207392
A 34.827476 7.313770 0 0 0 313.654271 350.207392
M 243.989529 353.113578
A 34.846168 7.317695 0 0 0 313.681864 353.113578
M 243.979740 356.019764
A 34.864859 7.321620 0 0 0 313.709458 356.019764
M 243.969951 358.925950
A 34.883550 7.325546 0 0 0 313.737051 358.925950
M 243.960162 361.832136
A 34.902241 7.329471 0 0 0 313.764645 361.832136
M 243.950373 364.738322
A 34.920933 7.333396 0 0 0 313.792238 364.738322
M 243.940584 367.644508
A 34.939624 7.337321 0 0 0 313.819832 367.644508
M 243.930795 370.550695
A 34.958315 7.341246 0 0 0 313.847425 370.550695
M 243.921006 373.456881
A 34.977006 7.345171 0 0 0 313.875019 373.456881
M 243.911217 376.363067
A 34.995698 7.349097 0 0 0 313.902612 376.363067
M 243.901428 379.269253
A 35.014389 7.353022 0 0 0 313.930206 379.269253
M 243.891639 382.175439
A 35.033080 7.356947 0 0 0 313.957799 382.175439
M 243.881850 385.081625
A 35.051771 7.360872 0 0 0 313.985393 385.081625
M 243.872061 387.987811
A 35.070463 7.364797 0 0 0 314.012986 387.987811
M 243.862272 390.893997
A 35.089154 7.368722 0 0 0 314.040580 390.893997
M 243.852483 393.800183
A 35.107845 7.372647 0 0 0 314.068173 393.800183
M 243.842694 396.706369
A 35.126536 7.376573 0 0 0 314.095767 396.706369
M 243.832905 399.612556
A 35.145228 7.380498 0 0 0 314.123360 399.612556
M 243.823116 402.518742
A 35.163919 7.384423 0 0 0 314.150954 402.518742
M 243.813327 405.424928
A 35.182610 7.388348 0 0 0 314.178547 405.424928
M 243.803538 408.331114
A 35.201301 7.392273 0 0 0 314.206141 408.331114
M 243.793749 411.237300
A 35.219993 7.396198 0 0 0 314.233734 411.237300
M 243.783960 414.143486
A 35.238684 7.400124 0 0 0 314.261328 414.143486
M 243.774171 417.049672
A 35.257375 7.404049 0 0 0 314.288921 417.049672
M 243.764382 419.955858
A 35.276066 7.407974 0 0 0 314.316515 419.955858
M 243.754593 422.862044
A 35.294758 7.411899 0 0 0 314.344108 422.862044
M 243.744804 425.768230
A 35.313449 7.415824 0 0 0 314.371702 425.768230
M 243.735015 428.674417
A 35.332140 7.419749 0 0 0 314.399295 428.674417
M 243.725226 431.580603
A 35.350831 7.423675 0 0 0 314.426889 431.580603
M 243.715437 434.486789
A 35.369523 7.427600 0 0 0 314.454482 434.486789
M 243.705648 437.392975
A 35.388214 7.431525 0 0 0 314.482075 437.392975
M 243.695859 440.299161
A 35.406905 7.435450 0 0 0 314.509669 440.299161
M 243.686070 443.205347
A 35.425596 7.439375 0 0 0 314.537262 443.205347
M 243.676281 446.111533
A 35.444288 7.443300 0 0 0 314.564856 446.111533
M 243.666492 449.017719
A 35.462979 7.447226 0 0 0 314.592449 449.017719
M 243.656703 451.923905
A 35.481670 7.451151 0 0 0 314.620043 451.923905
M 243.646914 454.830091
A 35.500361 7.455076 0 0 0 314.647636 454.830091
M 243.637125 457.736278
A 35.519053 7.459001 0 0 0 314.675230 457.736278
M 243.627335 460.642464
A 35.537744 7.462926 0 0 0 314.702823 460.642464
M 243.617546 463.548650
A 35.556435 7.466851 0 0 0 314.730417 463.548650
M 243.607757 466.454836
A 35.575126 7.470777 0 0 0 314.758010 466.454836
M 243.597968 469.361022
A 35.593818 7.474702 0 0 0 314.785604 469.361022
M 243.588179 472.267208
A 35.612509 7.478627 0 0 0 314.813197 472.267208
M 264.810494 327.166756
A 2.235080 0.500000 0 0 0 269.280655 327.166756
M 268.309143 327.167622
A 2.236483 0.500000 0 0 0 272.782108 327.167622
M 271.807791 327.168489
A 2.237885 0.500000 0 0 0 276.283561 327.168489
M 275.306440 327.169356
A 2.239287 0.500000 0 0 0 279.785014 327.169356
M 278.805089 327.170223
A 2.240689 0.500000 0 0 0 283.286467 327.170223
M 282.303737 327.171089
A 2.242092 0.500000 0 0 0 286.787920 327.171089
M 285.802386 327.171956
A 2.243494 0.500000 0 0 0 290.289374 327.171956
M 289.301035 327.172823
A 2.244896 0.500000 0 0 0 293.790827 327.172823
M 292.799683 327.173690
A 2.246298 0.500000 0 0 0 297.292280 327.173690
M 296.298332 327.174556
A 2.247701 0.500000 0 0 0 300.793733 327.174556
M 299.796981 327.175423
A 2.249103 0.500000 0 0 0 304.295186 327.175423
M 303.295629 327.176290
A 2.250505 0.500000 0 0 0 307.796639 327.176290
M 306.794278 327.177157
A 2.251907 0.500000 0 0 0 311.298092 327.177157
M 310.292926 327.178023
A 2.253309 0.500000 0 0 0 314.799545 327.178023
M 313.791575 327.178890
A 2.254712 0.500000 0 0 0 318.300998 327.178890
M 317.290224 327.179757
A 2.256114 0.500000 0 0 0 321.802452 327.179757
M 320.788872 327.180624
A 2.257516 0.500000 0 0 0 325.303905 327.180624
M 324.287521 327.181490
A 2.258918 0.500000 0 0 0 328.805358 327.181490
M 327.786170 327.182357
A 2.260321 0.500000 0 0 0 332.306811 327.182357
M 331.284818 327.183224
A 2.261723 0.500000 0 0 0 335.808264 327.183224
M 334.783467 327.184091
A 2.263125 0.500000 0 0 0 339.309717 327.184091
M 338.282116 327.184957
A 2.264527 0.500000 0 0 0 342.811170 327.184957
M 341.780764 327.185824
A 2.265929 0.500000 0 0 0 346.312623 327.185824
M 345.279413 327.186691
A 2.267332 0.500000 0 0 0 349.814076 327.186691
M 348.778062 327.187558
A 2.268734 0.500000 0 0 0 353.315530 327.187558
M 352.276710 327.188424
A 2.270136 0.500000 0 0 0 356.816983 327.188424
M 355.775359 327.189291
A 2.271538 0.500000 0 0 0 360.318436 327.189291
M 359.274008 327.190158
A 2.272941 0.500000 0 0 0 363.819889 327.190158
M 362.772656 327.191025
A 2.274343 0.500000 0 0 0 367.321342 327.191025
M 366.271305 327.191891
A 2.275745 0.500000 0 0 0 370.822795 327.191891
M 369.769954 327.192758
A 2.277147 0.500000 0 0 0 374.324248 327.192758
M 373.268602 327.193625
A 2.278550 0.500000 0 0 0 377.825701 327.193625
M 376.767251 327.194492
A 2.279952 0.500000 0 0 0 381.327154 327.194492
M 380.265900 327.195358
A 2.281354 0.500000 0 0 0 384.828607 327.195358
M 383.764548 327.196225
A 2.282756 0.500000 0 0 0 388.330061 327.196225
M 387.263197 327.197092
A 2.284158 0.500000 0 0 0 391.831514 327.197092
M 390.761845 327.197959
A 2.285561 0.500000 0 0 0 395.332967 327.197959
M 394.260494 327.198825
A 2.286963 0.500000 0 0 0 398.834420 327.198825
M 397.759143 327.199692
A 2.288365 0.500000 0 0 0 402.335873 327.199692
M 401.257791 327.200559
A 2.289767 0.500000 0 0 0 405.837326 327.200559
M 404.756440 327.201426
A 2.291170 0.500000 0 0 0 409.338779 327.201426
M 408.255089 327.202292
A 2.292572 0.500000 0 0 0 412.840232 327.202292
M 411.753737 327.203159
A 2.293974 0.500000 0 0 0 416.341685 327.203159
M 415.252386 327.204026
A 2.295376 0.500000 0 0 0 419.843139 327.204026
M 371.914968 347.327530
A 34.851374 7.318788 0 0 0 441.617715 347.327530
M 372.899909 346.870178
A 34.111464 7.163408 0 0 0 441.122838 346.870178
M 373.884851 346.412826
A 33.371555 7.008027 0 0 0 440.627962 346.412826
M 374.869792 345.955473
A 32.631646 6.852646 0 0 0 440.133085 345.955473
M 375.854733 345.498121
A 31.891737 6.697265 0 0 0 439.638208 345.498121
M 376.839675 345.040769
A 31.151828 6.541884 0 0 0 439.143331 345.040769
M 377.824616 344.583416
A 30.411919 6.386503 0 0 0 438.648455 344.583416
M 378.809557 344.126064
A 29.672010 6.231122 0 0 0 438.153578 344.126064
M 379.794499 343.668711
A 28.932101 6.075741 0 0 0 437.658701 343.668711
M 380.779440 343.211359
A 28.192192 5.920360 0 0 0 437.163825 343.211359
M 381.764381 342.754007
A 27.452283 5.764979 0 0 0 436.668948 342.754007
M 382.749323 342.296654
A 26.712374 5.609599 0 0 0 436.174071 342.296654
M 383.734264 341.839302
A 25.972465 5.454218 0 0 0 435.679194 341.839302
M 384.719205 341.381950
A 25.232556 5.298837 0 0 0 435.184318 341.381950
M 385.704147 340.924597
A 24.492647 5.143456 0 0 0 434.689441 340.924597
M 386.689088 340.467245
A 23.752738 4.988075 0 0 0 434.194564 340.467245
M 387.674029 340.009892
A 23.012829 4.832694 0 0 0 433.699687 340.009892
M 388.658971 339.552540
A 22.272920 4.677313 0 0 0 433.204811 339.552540
M 389.643912 339.095188
A 21.533011 4.521932 0 0 0 432.709934 339.095188
M 390.628853 338.637835
A 20.793102 4.366551 0 0 0 432.215057 338.637835
M 391.613794 338.180483
A 20.053193 4.211171 0 0 0 431.720180 338.180483
M 392.598736 337.723130
A 19.313284 4.055790 0 0 0 431.225304 337.723130
M 393.583677 337.265778
A 18.573375 3.900409 0 0 0 430.730427 337.265778
M 394.568618 336.808426
A 17.833466 3.745028 0 0 0 430.235550 336.808426
M 395.553560 336.351073
A 17.093557 3.589647 0 0 0 429.740673 336.351073
M 396.538501 335.893721
A 16.353648 3.434266 0 0 0 429.245797 335.893721
M 397.523442 335.436369
A 15.613739 3.278885 0 0 0 428.750920 335.436369
M 398.508384 334.979016
A 14.873830 3.123504 0 0 0 428.256043 334.979016
M 399.493325 334.521664
A 14.133921 2.968123 0 0 0 427.761166 334.521664
M 400.478266 334.064311
A 13.394012 2.812742 0 0 0 427.266290 334.064311
M 401.463208 333.606959
A 12.654103 2.657362 0 0 0 426.771413 333.606959
M 402.448149 333.149607
A 11.914194 2.501981 0 0 0 426.276536 333.149607
M 403.433090 332.692254
A 11.174285 2.346600 0 0 0 425.781659 332.692254
M 404.418032 332.234902
A 10.434376 2.191219 0 0 0 425.286783 332.234902
M 405.402973 331.777550
A 9.694467 2.035838 0 0 0 424.791906 331.777550
M 406.387914 331.320197
A 8.954558 1.880457 0 0 0 424.297029 331.320197
M 407.372855 330.862845
A 8.214649 1.725076 0 0 0 423.802152 330.862845
M 408.357797 330.405492
A 7.474739 1.569695 0 0 0 423.307276 330.405492
M 409.342738 329.948140
A 6.734830 1.414314 0 0 0 422.812399 329.948140
M 410.327679 329.490788
A 5.994921 1.258933 0 0 0 422.317522 329.490788
M 411.312621 329.033435
A 5.255012 1.103553 0 0 0 421.822646 329.033435
M 412.297562 328.576083
A 4.515103 0.948172 0 0 0 421.327769 328.576083
M 413.282503 328.118731
A 3.775194 0.792791 0 0 0 420.832892 328.118731
M 414.267445 327.661378
A 3.035285 0.637410 0 0 0 420.338015 327.661378
M 246.916059 347.301804
A 34.809753 7.310048 0 0 0 316.535565 347.301804
M 249.823010 347.302402
A 34.810721 7.310251 0 0 0 319.444452 347.302402
M 252.729961 347.303001
A 34.811689 7.310455 0 0 0 322.353339 347.303001
M 255.636913 347.303599
A 34.812657 7.310658 0 0 0 325.262226 347.303599
M 258.543864 347.304197
A 34.813625 7.310861 0 0 0 328.171114 347.304197
M 261.450816 347.304795
A 34.814593 7.311064 0 0 0 331.080001 347.304795
M 264.357767 347.305394
A 34.815561 7.311268 0 0 0 333.988888 347.305394
M 267.264718 347.305992
A 34.816528 7.311471 0 0 0 336.897775 347.305992
M 270.171670 347.306590
A 34.817496 7.311674 0 0 0 339.806662 347.306590
M 273.078621 347.307189
A 34.818464 7.311878 0 0 0 342.715550 347.307189
M 275.985572 347.307787
A 34.819432 7.312081 0 0 0 345.624437 347.307787
M 278.892524 347.308385
A 34.820400 7.312284 0 0 0 348.533324 347.308385
M 281.799475 347.308983
A 34.821368 7.312487 0 0 0 351.442211 347.308983
M 284.706427 347.309582
A 34.822336 7.312691 0 0 0 354.351099 347.309582
M 287.613378 347.310180
A 34.823304 7.312894 0 0 0 357.259986 347.310180
M 290.520329 347.310778
A 34.824272 7.313097 0 0 0 360.168873 347.310778
M 293.427281 347.311377
A 34.825240 7.313300 0 0 0 363.077760 347.311377
M 296.334232 347.311975
A 34.826208 7.313504 0 0 0 365.986647 347.311975
M 299.241184 347.312573
A 34.827176 7.313707 0 0 0 368.895535 347.312573
M 302.148135 347.313171
A 34.828143 7.313910 0 0 0 371.804422 347.313171
M 305.055086 347.313770
A 34.829111 7.314113 0 0 0 374.713309 347.313770
M 307.962038 347.314368
A 34.830079 7.314317 0 0 0 377.622196 347.314368
M 310.868989 347.314966
A 34.831047 7.314520 0 0 0 380.531084 347.314966
M 313.775940 347.315565
A 34.832015 7.314723 0 0 0 383.439971 347.315565
M 316.682892 347.316163
A 34.832983 7.314926 0 0 0 386.348858 347.316163
M 319.589843 347.316761
A 34.833951 7.315130 0 0 0 389.257745 347.316761
M 322.496795 347.317360
A 34.834919 7.315333 0 0 0 392.166632 347.317360
M 325.403746 347.317958
A 34.835887 7.315536 0 0 0 395.075520 347.317958
M 328.310697 347.318556
A 34.836855 7.315739 0 0 0 397.984407 347.318556
M 331.217649 347.319154
A 34.837823 7.315943 0 0 0 400.893294 347.319154
M 334.124600 347.319753
A 34.838791 7.316146 0 0 0 403.802181 347.319753
M 337.031552 347.320351
A 34.839758 7.316349 0 0 0 406.711069 347.320351
M 339.938503 347.320949
A 34.840726 7.316553 0 0 0 409.619956 347.320949
M 342.845454 347.321548
A 34.841694 7.316756 0 0 0 412.528843 347.321548
M 345.752406 347.322146
A 34.842662 7.316959 0 0 0 415.437730 347.322146
M 348.659357 347.322744
A 34.843630 7.317162 0 0 0 418.346617 347.322744
M 351.566308 347.323342
A 34.844598 7.317366 0 0 0 421.255505 347.323342
M 354.473260 347.323941
A 34.845566 7.317569 0 0 0 424.164392 347.323941
M 357.380211 347.324539
A 34.846534 7.317772 0 0 0 427.073279 347.324539
M 360.287163 347.325137
A 34.847502 7.317975 0 0 0 429.982166 347.325137
M 363.194114 347.325736
A 34.848470 7.318179 0 0 0 432.891054 347.325736
M 366.101065 347.326334
A 34.849438 7.318382 0 0 0 435.799941 347.326334
M 369.008017 347.326932
A 34.850406 7.318585 0 0 0 438.708828 347.326932
M 413.676329 481.032171
A 3.484871 0.731823 0 0 0 420.646071 481.032171
M 413.712149 477.536077
A 3.457837 0.726146 0 0 0 420.627823 477.536077
M 413.747968 474.039983
A 3.430803 0.720469 0 0 0 420.609574 474.039983
M 413.783787 470.543889
A 3.403769 0.714792 0 0 0 420.591326 470.543889
M 413.819607 467.047794
A 3.376735 0.709114 0 0 0 420.573077 467.047794
M 413.855426 463.551700
A 3.349701 0.703437 0 0 0 420.554829 463.551700
M 413.891246 460.055606
A 3.322667 0.697760 0 0 0 420.536580 460.055606
M 413.927065 456.559512
A 3.295633 0.692083 0 0 0 420.518332 456.559512
M 413.962885 453.063417
A 3.268599 0.686406 0 0 0 420.500083 453.063417
M 413.998704 449.567323
A 3.241565 0.680729 0 0 0 420.481835 449.567323
M 414.034524 446.071229
A 3.214531 0.675052 0 0 0 420.463586 446.071229
M 414.070343 442.575135
A 3.187497 0.669374 0 0 0 420.445338 442.575135
M 414.106163 439.079041
A 3.160463 0.663697 0 0 0 420.427090 439.079041
M 414.141982 435.582946
A 3.133429 0.658020 0 0 0 420.408841 435.582946
M 414.177802 432.086852
A 3.106395 0.652343 0 0 0 420.390593 432.086852
M 414.213621 428.590758
A 3.079361 0.646666 0 0 0 420.372344 428.590758
M 414.249441 425.094664
A 3.052327 0.640989 0 0 0 420.354096 425.094664
M 414.285260 421.598570
A 3.025294 0.635312 0 0 0 420.335847 421.598570
M 414.321080 418.102475
A 2.998260 0.629635 0 0 0 420.317599 418.102475
M 414.356899 414.606381
A 2.971226 0.623957 0 0 0 420.299350 414.606381
M 414.392719 411.110287
A 2.944192 0.618280 0 0 0 420.281102 411.110287
M 414.428538 407.614193
A 2.917158 0.612603 0 0 0 420.262853 407.614193
M 414.464358 404.118098
A 2.890124 0.606926 0 0 0 420.244605 404.118098
M 414.500177 400.622004
A 2.863090 0.601249 0 0 0 420.226356 400.622004
M 414.535996 397.125910
A 2.836056 0.595572 0 0 0 420.208108 397.125910
M 414.571816 393.629816
A 2.809022 0.589895 0 0 0 420.189859 393.629816
M 414.607635 390.133722
A 2.781988 0.584217 0 0 0 420.171611 390.133722
M 414.643455 386.637627
A 2.754954 0.578540 0 0 0 420.153363 386.637627
M 414.679274 383.141533
A 2.727920 0.572863 0 0 0 420.135114 383.141533
M 414.715094 379.645439
A 2.700886 0.567186 0 0 0 420.116866 379.645439
M 414.750913 376.149345
A 2.673852 0.561509 0 0 0 420.098617 376.149345
M 414.786733 372.653251
A 2.646818 0.555832 0 0 0 420.080369 372.653251
M 414.822552 369.157156
A 2.619784 0.550155 0 0 0 420.062120 369.157156
M 414.858372 365.661062
A 2.592750 0.544477 0 0 0 420.043872 365.661062
M 414.894191 362.164968
A 2.565716 0.538800 0 0 0 420.025623 362.164968
M 414.930011 358.668874
A 2.538682 0.533123 0 0 0 420.007375 358.668874
M 414.965830 355.172779
A 2.511648 0.527446 0 0 0 419.989126 355.172779
M 415.001650 351.676685
A 2.484614 0.521769 0 0 0 419.970878 351.676685
M 415.037469 348.180591
A 2.457580 0.516092 0 0 0 419.952629 348.180591
M 415.073289 344.684497
A 2.430546 0.510415 0 0 0 419.934381 344.684497
M 415.109108 341.188403
A 2.403512 0.504738 0 0 0 419.916132 341.188403
M 415.144928 337.692308
A 2.376478 0.500000 0 0 0 419.897884 337.692308
M 415.180747 334.196214
A 2.349444 0.500000 0 0 0 419.879635 334.196214
M 415.216567 330.700120
A 2.322410 0.500000 0 0 0 419.861387 330.700120
M 370.826898 475.165712
A 35.673352 7.491404 0 0 0 442.173602 475.165712
M 371.800749 475.299040
A 34.941795 7.337777 0 0 0 441.684340 475.299040
M 372.774600 475.432369
A 34.210239 7.184150 0 0 0 441.195078 475.432369
M 373.748450 475.565698
A 33.478683 7.030523 0 0 0 440.705816 475.565698
M 374.722301 475.699026
A 32.747126 6.876897 0 0 0 440.216554 475.699026
M 375.696152 475.832355
A 32.015570 6.723270 0 0 0 439.727292 475.832355
M 376.670002 475.965684
A 31.284014 6.569643 0 0 0 439.238030 475.965684
M 377.643853 476.099012
A 30.552457 6.416016 0 0 0 438.748768 476.099012
M 378.617704 476.232341
A 29.820901 6.262389 0 0 0 438.259505 476.232341
M 379.591555 476.365669
A 29.089344 6.108762 0 0 0 437.770243 476.365669
M 380.565405 476.498998
A 28.357788 5.955135 0 0 0 437.280981 476.498998
M 381.539256 476.632327
A 27.626232 5.801509 0 0 0 436.791719 476.632327
M 382.513107 476.765655
A 26.894675 5.647882 0 0 0 436.302457 476.765655
M 383.486957 476.898984
A 26.163119 5.494255 0 0 0 435.813195 476.898984
M 384.460808 477.032313
A 25.431563 5.340628 0 0 0 435.323933 477.032313
M 385.434659 477.165641
A 24.700006 5.187001 0 0 0 434.834671 477.165641
M 386.408509 477.298970
A 23.968450 5.033374 0 0 0 434.345409 477.298970
M 387.382360 477.432298
A 23.236893 4.879748 0 0 0 433.856147 477.432298
M 388.356211 477.565627
A 22.505337 4.726121 0 0 0 433.366885 477.565627
M 389.330062 477.698956
A 21.773781 4.572494 0 0 0 432.877623 477.698956
M 390.303912 477.832284
A 21.042224 4.418867 0 0 0 432.388361 477.832284
M 391.277763 477.965613
A 20.310668 4.265240 0 0 0 431.899099 477.965613
M 392.251614 478.098942
A 19.579111 4.111613 0 0 0 431.409837 478.098942
M 393.225464 478.232270
A 18.847555 3.957987 0 0 0 430.920574 478.232270
M 394.199315 478.365599
A 18.115999 3.804360 0 0 0 430.431312 478.365599
M 395.173166 478.498927
A 17.384442 3.650733 0 0 0 429.942050 478.498927
M 396.147016 478.632256
A 16.652886 3.497106 0 0 0 429.452788 478.632256
M 397.120867 478.765585
A 15.921330 3.343479 0 0 0 428.963526 478.765585
M 398.094718 478.898913
A 15.189773 3.189852 0 0 0 428.474264 478.898913
M 399.068569 479.032242
A 14.458217 3.036226 0 0 0 427.985002 479.032242
M 400.042419 479.165571
A 13.726660 2.882599 0 0 0 427.495740 479.165571
M 401.016270 479.298899
A 12.995104 2.728972 0 0 0 427.006478 479.298899
M 401.990121 479.432228
A 12.263548 2.575345 0 0 0 426.517216 479.432228
M 402.963971 479.565556
A 11.531991 2.421718 0 0 0 426.027954 479.565556
M 403.937822 479.698885
A 10.800435 2.268091 0 0 0 425.538692 479.698885
M 404.911673 479.832214
A 10.068878 2.114464 0 0 0 425.049430 479.832214
M 405.885523 479.965542
A 9.337322 1.960838 0 0 0 424.560168 479.965542
M 406.859374 480.098871
A 8.605766 1.807211 0 0 0 424.070906 480.098871
M 407.833225 480.232199
A 7.874209 1.653584 0 0 0 423.581644 480.232199
M 408.807076 480.365528
A 7.142653 1.499957 0 0 0 423.092381 480.365528
M 409.780926 480.498857
A 6.411097 1.346330 0 0 0 422.603119 480.498857
M 410.754777 480.632185
A 5.679540 1.192703 0 0 0 422.113857 480.632185
M 411.728628 480.765514
A 4.947984 1.039077 0 0 0 421.624595 480.765514
M 412.702478 480.898843
A 4.216427 0.885450 0 0 0 421.135333 480.898843
M 370.851627 472.260299
A 35.654671 7.487481 0 0 0 442.160968 472.260299
M 370.876356 469.354885
A 35.635989 7.483558 0 0 0 442.148334 469.354885
M 370.901085 466.449472
A 35.617308 7.479635 0 0 0 442.135701 466.449472
M 370.925814 463.544059
A 35.598627 7.475712 0 0 0 442.123067 463.544059
M 370.950543 460.638646
A 35.579945 7.471788 0 0 0 442.110433 460.638646
M 370.975271 457.733233
A 35.561264 7.467865 0 0 0 442.097799 457.733233
M 371.000000 454.827819
A 35.542583 7.463942 0 0 0 442.085165 454.827819
M 371.024729 451.922406
A 35.523901 7.460019 0 0 0 442.072532 451.922406
M 371.049458 449.016993
A 35.505220 7.456096 0 0 0 442.059898 449.016993
M 371.074187 446.111580
A 35.486539 7.452173 0 0 0 442.047264 446.111580
M 371.098916 443.206167
A 35.467857 7.448250 0 0 0 442.034630 443.206167
M 371.123645 440.300753
A 35.449176 7.444327 0 0 0 442.021996 440.300753
M 371.148373 437.395340
A 35.430495 7.440404 0 0 0 442.009363 437.395340
M 371.173102 434.489927
A 35.411813 7.436481 0 0 0 441.996729 434.489927
M 371.197831 431.584514
A 35.393132 7.432558 0 0 0 441.984095 431.584514
M 371.222560 428.679100
A 35.374451 7.428635 0 0 0 441.971461 428.679100
M 371.247289 425.773687
A 35.355769 7.424712 0 0 0 441.958828 425.773687
M 371.272018 422.868274
A 35.337088 7.420788 0 0 0 441.946194 422.868274
M 371.296747 419.962861
A 35.318407 7.416865 0 0 0 441.933560 419.962861
M 371.321475 417.057448
A 35.299725 7.412942 0 0 0 441.920926 417.057448
M 371.346204 414.152034
A 35.281044 7.409019 0 0 0 441.908292 414.152034
M 371.370933 411.246621
A 35.262363 7.405096 0 0 0 441.895659 411.246621
M 371.395662 408.341208
A 35.243681 7.401173 0 0 0 441.883025 408.341208
M 371.420391 405.435795
A 35.225000 7.397250 0 0 0 441.870391 405.435795
M 371.445120 402.530382
A 35.206319 7.393327 0 0 0 441.857757 402.530382
M 371.469849 399.624968
A 35.187637 7.389404 0 0 0 441.845123 399.624968
M 371.494578 396.719555
A 35.168956 7.385481 0 0 0 441.832490 396.719555
M 371.519306 393.814142
A 35.150275 7.381558 0 0 0 441.819856 393.814142
M 371.544035 390.908729
A 35.131593 7.377635 0 0 0 441.807222 390.908729
M 371.568764 388.003315
A 35.112912 7.373712 0 0 0 441.794588 388.003315
M 371.593493 385.097902
A 35.094231 7.369788 0 0 0 441.781954 385.097902
M 371.618222 382.192489
A 35.075549 7.365865 0 0 0 441.769321 382.192489
M 371.642951 379.287076
A 35.056868 7.361942 0 0 0 441.756687 379.287076
M 371.667680 376.381663
A 35.038187 7.358019 0 0 0 441.744053 376.381663
M 371.692408 373.476249
A 35.019505 7.354096 0 0 0 441.731419 373.476249
M 371.717137 370.570836
A 35.000824 7.350173 0 0 0 441.718786 370.570836
M 371.741866 367.665423
A 34.982143 7.346250 0 0 0 441.706152 367.665423
M 371.766595 364.760010
A 34.963461 7.342327 0 0 0 441.693518 364.760010
M 371.791324 361.854597
A 34.944780 7.338404 0 0 0 441.680884 361.854597
M 371.816053 358.949183
A 34.926099 7.334481 0 0 0 441.668250 358.949183
M 371.840782 356.043770
A 34.907417 7.330558 0 0 0 441.655617 356.043770
M 371.865510 353.138357
A 34.888736 7.326635 0 0 0 441.642983 353.138357
M 371.890239 350.232944
A 34.870055 7.322712 0 0 0 441.630349 350.232944
M 264.164014 481.043025
A 3.425318 0.719317 0 0 0 271.014651 481.043025
M 267.641045 481.042772
A 3.426703 0.719608 0 0 0 274.494452 481.042772
M 271.118076 481.042520
A 3.428088 0.719899 0 0 0 277.974252 481.042520
M 274.595106 481.042268
A 3.429473 0.720189 0 0 0 281.454052 481.042268
M 278.072137 481.042015
A 3.430858 0.720480 0 0 0 284.933853 481.042015
M 281.549167 481.041763
A 3.432243 0.720771 0 0 0 288.413653 481.041763
M 285.026198 481.041510
A 3.433628 0.721062 0 0 0 291.893454 481.041510
M 288.503228 481.041258
A 3.435013 0.721353 0 0 0 295.373254 481.041258
M 291.980259 481.041006
A 3.436398 0.721644 0 0 0 298.853055 481.041006
M 295.457290 481.040753
A 3.437783 0.721934 0 0 0 302.332855 481.040753
M 298.934320 481.040501
A 3.439168 0.722225 0 0 0 305.812656 481.040501
M 302.411351 481.040248
A 3.440553 0.722516 0 0 0 309.292456 481.040248
M 305.888381 481.039996
A 3.441938 0.722807 0 0 0 312.772257 481.039996
M 309.365412 481.039744
A 3.443323 0.723098 0 0 0 316.252057 481.039744
M 312.842442 481.039491
A 3.444708 0.723389 0 0 0 319.731858 481.039491
M 316.319473 481.039239
A 3.446093 0.723679 0 0 0 323.211658 481.039239
M 319.796504 481.038986
A 3.447477 0.723970 0 0 0 326.691459 481.038986
M 323.273534 481.038734
A 3.448862 0.724261 0 0 0 330.171259 481.038734
M 326.750565 481.038481
A 3.450247 0.724552 0 0 0 333.651059 481.038481
M 330.227595 481.038229
A 3.451632 0.724843 0 0 0 337.130860 481.038229
M 333.704626 481.037977
A 3.453017 0.725134 0 0 0 340.610660 481.037977
M 337.181656 481.037724
A 3.454402 0.725424 0 0 0 344.090461 481.037724
M 340.658687 481.037472
A 3.455787 0.725715 0 0 0 347.570261 481.037472
M 344.135718 481.037219
A 3.457172 0.726006 0 0 0 351.050062 481.037219
M 347.612748 481.036967
A 3.458557 0.726297 0 0 0 354.529862 481.036967
M 351.089779 481.036715
A 3.459942 0.726588 0 0 0 358.009663 481.036715
M 354.566809 481.036462
A 3.461327 0.726879 0 0 0 361.489463 481.036462
M 358.043840 481.036210
A 3.462712 0.727169 0 0 0 364.969264 481.036210
M 361.520870 481.035957
A 3.464097 0.727460 0 0 0 368.449064 481.035957
M 364.997901 481.035705
A 3.465482 0.727751 0 0 0 371.928865 481.035705
M 368.474932 481.035453
A 3.466867 0.728042 0 0 0 375.408665 481.035453
M 371.951962 481.035200
A 3.468252 0.728333 0 0 0 378.888466 481.035200
M 375.428993 481.034948
A 3.469637 0.728624 0 0 0 382.368266 481.034948
M 378.906023 481.034695
A 3.471022 0.728915 0 0 0 385.848066 481.034695
M 382.383054 481.034443
A 3.472407 0.729205 0 0 0 389.327867 481.034443
M 385.860084 481.034190
A 3.473791 0.729496 0 0 0 392.807667 481.034190
M 389.337115 481.033938
A 3.475176 0.729787 0 0 0 396.287468 481.033938
M 392.814146 481.033686
A 3.476561 0.730078 0 0 0 399.767268 481.033686
M 396.291176 481.033433
A 3.477946 0.730369 0 0 0 403.247069 481.033433
M 399.768207 481.033181
A 3.479331 0.730660 0 0 0 406.726869 481.033181
M 403.245237 481.032928
A 3.480716 0.730950 0 0 0 410.206670 481.032928
M 406.722268 481.032676
A 3.482101 0.731241 0 0 0 413.686470 481.032676
M 410.199298 481.032424
A 3.483486 0.731532 0 0 0 417.166271 481.032424
M 246.470402 475.173220
A 35.632158 7.482753 0 0 0 317.734718 475.173220
M 249.362413 475.173045
A 35.633116 7.482954 0 0 0 320.628646 475.173045
M 252.254425 475.172870
A 35.634074 7.483156 0 0 0 323.522573 475.172870
M 255.146437 475.172696
A 35.635032 7.483357 0 0 0 326.416501 475.172696
M 258.038448 475.172521
A 35.635990 7.483558 0 0 0 329.310428 475.172521
M 260.930460 475.172347
A 35.636948 7.483759 0 0 0 332.204356 475.172347
M 263.822471 475.172172
A 35.637906 7.483960 0 0 0 335.098283 475.172172
M 266.714483 475.171997
A 35.638864 7.484161 0 0 0 337.992211 475.171997
M 269.606494 475.171823
A 35.639822 7.484363 0 0 0 340.886139 475.171823
M 272.498506 475.171648
A 35.640780 7.484564 0 0 0 343.780066 475.171648
M 275.390517 475.171474
A 35.641738 7.484765 0 0 0 346.673994 475.171474
M 278.282529 475.171299
A 35.642696 7.484966 0 0 0 349.567921 475.171299
M 281.174540 475.171124
A 35.643654 7.485167 0 0 0 352.461849 475.171124
M 284.066552 475.170950
A 35.644612 7.485369 0 0 0 355.355776 475.170950
M 286.958564 475.170775
A 35.645570 7.485570 0 0 0 358.249704 475.170775
M 289.850575 475.170601
A 35.646528 7.485771 0 0 0 361.143631 475.170601
M 292.742587 475.170426
A 35.647486 7.485972 0 0 0 364.037559 475.170426
M 295.634598 475.170251
A 35.648444 7.486173 0 0 0 366.931486 475.170251
M 298.526610 475.170077
A 35.649402 7.486374 0 0 0 369.825414 475.170077
M 301.418621 475.169902
A 35.650360 7.486576 0 0 0 372.719341 475.169902
M 304.310633 475.169728
A 35.651318 7.486777 0 0 0 375.613269 475.169728
M 307.202644 475.169553
A 35.652276 7.486978 0 0 0 378.507196 475.169553
M 310.094656 475.169378
A 35.653234 7.487179 0 0 0 381.401124 475.169378
M 312.986667 475.169204
A 35.654192 7.487380 0 0 0 384.295051 475.169204
M 315.878679 475.169029
A 35.655150 7.487582 0 0 0 387.188979 475.169029
M 318.770690 475.168855
A 35.656108 7.487783 0 0 0 390.082906 475.168855
M 321.662702 475.168680
A 35.657066 7.487984 0 0 0 392.976834 475.168680
M 324.554714 475.168505
A 35.658024 7.488185 0 0 0 395.870762 475.168505
M 327.446725 475.168331
A 35.658982 7.488386 0 0 0 398.764689 475.168331
M 330.338737 475.168156
A 35.659940 7.488587 0 0 0 401.658617 475.168156
M 333.230748 475.167982
A 35.660898 7.488789 0 0 0 404.552544 475.167982
M 336.122760 475.167807
A 35.661856 7.488990 0 0 0 407.446472 475.167807
M 339.014771 475.167632
A 35.662814 7.489191 0 0 0 410.340399 475.167632
M 341.906783 475.167458
A 35.663772 7.489392 0 0 0 413.234327 475.167458
M 344.798794 475.167283
A 35.664730 7.489593 0 0 0 416.128254 475.167283
M 347.690806 475.167109
A 35.665688 7.489794 0 0 0 419.022182 475.167109
M 350.582817 475.166934
A 35.666646 7.489996 0 0 0 421.916109 475.166934
M 353.474829 475.166759
A 35.667604 7.490197 0 0 0 424.810037 475.166759
M 356.366841 475.166585
A 35.668562 7.490398 0 0 0 427.703964 475.166585
M 359.258852 475.166410
A 35.669520 7.490599 0 0 0 430.597892 475.166410
M 362.150864 475.166236
A 35.670478 7.490800 0 0 0 433.491819 475.166236
M 365.042875 475.166061
A 35.671436 7.491002 0 0 0 436.385747 475.166061
M 367.934887 475.165886
A 35.672394 7.491203 0 0 0 439.279674 475.165886
"/>
</svg>