<?xml version="1.0" encoding="UTF-8"?>
<svg width="442" height="480" viewBox="0 0 442 480" fill="none" xmlns="http://www.w3.org/2000/svg">
<path stroke="black" stroke-width="0.1500" d="
M 259.000000 480.500000
A 6.500000 6.500000 0 0 1 272.000000 480.500000
M 258.000000 480.500000
A 7.500000 7.500000 0 0 1 273.000000 480.500000
M 258.000000 479.500000
A 8.500000 8.500000 0 0 1 275.000000 479.500000
M 257.000000 479.500000
A 9.500000 9.500000 0 0 1 276.000000 479.500000
M 257.000000 479.500000
A 10.500000 10.500000 0 0 1 278.000000 479.500000
M 256.000000 479.500000
A 11.500000 11.500000 0 0 1 279.000000 479.500000
M 256.000000 480.000000
A 13.000000 13.000000 0 0 1 282.000000 480.000000
M 255.000000 479.000000
A 14.000000 14.000000 0 0 1 283.000000 479.000000
M 255.000000 479.000000
A 15.000000 15.000000 0 0 1 285.000000 479.000000
M 254.000000 479.000000
A 16.000000 16.000000 0 0 1 286.000000 479.000000
M 254.000000 479.000000
A 17.000000 17.000000 0 0 1 288.000000 479.000000
M 253.000000 478.000000
A 18.000000 18.000000 0 0 1 289.000000 478.000000
M 252.000000 478.000000
A 19.000000 19.000000 0 0 1 290.000000 478.000000
M 252.000000 478.000000
A 20.000000 20.000000 0 0 1 292.000000 478.000000
M 251.000000 478.000000
A 21.000000 21.000000 0 0 1 293.000000 478.000000
M 251.000000 478.000000
A 22.000000 22.000000 0 0 1 295.000000 478.000000
M 250.000000 477.000000
A 23.000000 23.000000 0 0 1 296.000000 477.000000
M 250.000000 477.000000
A 24.000000 24.000000 0 0 1 298.000000 477.000000
M 249.000000 477.000000
A 25.000000 25.000000 0 0 1 299.000000 477.000000
M 249.000000 477.500000
A 26.500000 26.500000 0 0 1 302.000000 477.500000
M 248.000000 476.500000
A 27.500000 27.500000 0 0 1 303.000000 476.500000
M 247.000000 476.500000
A 28.500000 28.500000 0 0 1 304.000000 476.500000
M 247.000000 476.500000
A 29.500000 29.500000 0 0 1 306.000000 476.500000
M 246.000000 476.500000
A 30.500000 30.500000 0 0 1 307.000000 476.500000
M 246.000000 475.500000
A 31.500000 31.500000 0 0 1 309.000000 475.500000
M 245.000000 475.500000
A 32.500000 32.500000 0 0 1 310.000000 475.500000
M 245.000000 475.500000
A 33.500000 33.500000 0 0 1 312.000000 475.500000
M 244.000000 475.500000
A 34.500000 34.500000 0 0 1 313.000000 475.500000
M 244.000000 475.500000
A 35.500000 35.500000 0 0 1 315.000000 475.500000
M 259.000000 329.500000
A 6.500000 6.500000 0 0 1 272.000000 329.500000
M 259.000000 330.500000
A 7.500000 7.500000 0 0 1 274.000000 330.500000
M 258.000000 331.500000
A 8.500000 8.500000 0 0 1 275.000000 331.500000
M 257.000000 331.500000
A 9.500000 9.500000 0 0 1 276.000000 331.500000
M 257.000000 332.500000
A 10.500000 10.500000 0 0 1 278.000000 332.500000
M 256.000000 332.500000
A 11.500000 11.500000 0 0 1 279.000000 332.500000
M 256.000000 333.500000
A 12.500000 12.500000 0 0 1 281.000000 333.500000
M 255.000000 335.000000
A 14.000000 14.000000 0 0 1 283.000000 335.000000
M 255.000000 335.000000
A 15.000000 15.000000 0 0 1 285.000000 335.000000
M 254.000000 336.000000
A 16.000000 16.000000 0 0 1 286.000000 336.000000
M 253.000000 336.000000
A 17.000000 17.000000 0 0 1 287.000000 336.000000
M 253.000000 337.000000
A 18.000000 18.000000 0 0 1 289.000000 337.000000
M 252.000000 338.000000
A 19.000000 19.000000 0 0 1 290.000000 338.000000
M 252.000000 338.000000
A 20.000000 20.000000 0 0 1 292.000000 338.000000
M 251.000000 339.000000
A 21.000000 21.000000 0 0 1 293.000000 339.000000
M 251.000000 339.000000
A 22.000000 22.000000 0 0 1 295.000000 339.000000
M 250.000000 340.000000
A 23.000000 23.000000 0 0 1 296.000000 340.000000
M 250.000000 341.500000
A 24.500000 24.500000 0 0 1 299.000000 341.500000
M 249.000000 341.500000
A 25.500000 25.500000 0 0 1 300.000000 341.500000
M 248.000000 342.500000
A 26.500000 26.500000 0 0 1 301.000000 342.500000
M 248.000000 342.500000
A 27.500000 27.500000 0 0 1 303.000000 342.500000
M 247.000000 343.500000
A 28.500000 28.500000 0 0 1 304.000000 343.500000
M 247.000000 343.500000
A 29.500000 29.500000 0 0 1 306.000000 343.500000
M 246.000000 344.500000
A 30.500000 30.500000 0 0 1 307.000000 344.500000
M 246.000000 345.500000
A 31.500000 31.500000 0 0 1 309.000000 345.500000
M 245.000000 345.500000
A 32.500000 32.500000 0 0 1 310.000000 345.500000
M 245.000000 347.000000
A 34.000000 34.000000 0 0 1 313.000000 347.000000
M 244.000000 347.000000
A 35.000000 35.000000 0 0 1 314.000000 347.000000
M 244.000000 352.000000
A 35.000000 35.000000 0 0 1 314.000000 352.000000
M 244.000000 356.000000
A 35.000000 35.000000 0 0 1 314.000000 356.000000
M 244.000000 360.000000
A 35.000000 35.000000 0 0 1 314.000000 360.000000
M 244.000000 364.000000
A 35.000000 35.000000 0 0 1 314.000000 364.000000
M 244.000000 368.000000
A 35.000000 35.000000 0 0 1 314.000000 368.000000
M 244.000000 372.000000
A 35.000000 35.000000 0 0 1 314.000000 372.000000
M 244.000000 376.000000
A 35.000000 35.000000 0 0 1 314.000000 376.000000
M 244.000000 380.000000
A 35.000000 35.000000 0 0 1 314.000000 380.000000
M 244.000000 384.000000
A 35.000000 35.000000 0 0 1 314.000000 384.000000
M 244.000000 388.000000
A 35.000000 35.000000 0 0 1 314.000000 388.000000
M 244.000000 393.000000
A 35.000000 35.000000 0 0 1 314.000000 393.000000
M 244.000000 397.000000
A 35.000000 35.000000 0 0 1 314.000000 397.000000
M 244.000000 401.000000
A 35.000000 35.000000 0 0 1 314.000000 401.000000
M 244.000000 405.000000
A 35.000000 35.000000 0 0 1 314.000000 405.000000
M 244.000000 409.000000
A 35.000000 35.000000 0 0 1 314.000000 409.000000
M 244.000000 413.000000
A 35.000000 35.000000 0 0 1 314.000000 413.000000
M 244.000000 417.500000
A 35.500000 35.500000 0 0 1 315.000000 417.500000
M 244.000000 421.500000
A 35.500000 35.500000 0 0 1 315.000000 421.500000
M 244.000000 425.500000
A 35.500000 35.500000 0 0 1 315.000000 425.500000
M 244.000000 429.500000
A 35.500000 35.500000 0 0 1 315.000000 429.500000
M 244.000000 434.500000
A 35.500000 35.500000 0 0 1 315.000000 434.500000
M 244.000000 438.500000
A 35.500000 35.500000 0 0 1 315.000000 438.500000
M 244.000000 442.500000
A 35.500000 35.500000 0 0 1 315.000000 442.500000
M 244.000000 446.500000
A 35.500000 35.500000 0 0 1 315.000000 446.500000
M 244.000000 450.500000
A 35.500000 35.500000 0 0 1 315.000000 450.500000
M 244.000000 454.500000
A 35.500000 35.500000 0 0 1 315.000000 454.500000
M 244.000000 458.500000
A 35.500000 35.500000 0 0 1 315.000000 458.500000
M 244.000000 462.500000
A 35.500000 35.500000 0 0 1 315.000000 462.500000
M 244.000000 466.500000
A 35.500000 35.500000 0 0 1 315.000000 466.500000
M 244.000000 470.500000
A 35.500000 35.500000 0 0 1 315.000000 470.500000
M 372.000000 347.000000
A 35.000000 35.000000 0 0 1 442.000000 347.000000
M 373.000000 347.000000
A 34.000000 34.000000 0 0 1 441.000000 347.000000
M 375.000000 346.000000
A 33.000000 33.000000 0 0 1 441.000000 346.000000
M 376.000000 345.500000
A 31.500000 31.500000 0 0 1 439.000000 345.500000
M 378.000000 344.500000
A 30.500000 30.500000 0 0 1 439.000000 344.500000
M 379.000000 343.500000
A 29.500000 29.500000 0 0 1 438.000000 343.500000
M 380.000000 343.500000
A 28.500000 28.500000 0 0 1 437.000000 343.500000
M 382.000000 342.500000
A 27.500000 27.500000 0 0 1 437.000000 342.500000
M 383.000000 342.500000
A 26.500000 26.500000 0 0 1 436.000000 342.500000
M 384.000000 341.500000
A 25.500000 25.500000 0 0 1 435.000000 341.500000
M 386.000000 340.500000
A 24.500000 24.500000 0 0 1 435.000000 340.500000
M 387.000000 340.500000
A 23.500000 23.500000 0 0 1 434.000000 340.500000
M 389.000000 339.000000
A 22.000000 22.000000 0 0 1 433.000000 339.000000
M 390.000000 339.000000
A 21.000000 21.000000 0 0 1 432.000000 339.000000
M 391.000000 338.000000
A 20.000000 20.000000 0 0 1 431.000000 338.000000
M 393.000000 337.000000
A 19.000000 19.000000 0 0 1 431.000000 337.000000
M 394.000000 337.000000
A 18.000000 18.000000 0 0 1 430.000000 337.000000
M 396.000000 336.000000
A 17.000000 17.000000 0 0 1 430.000000 336.000000
M 397.000000 336.000000
A 16.000000 16.000000 0 0 1 429.000000 336.000000
M 398.000000 335.000000
A 15.000000 15.000000 0 0 1 428.000000 335.000000
M 400.000000 334.000000
A 14.000000 14.000000 0 0 1 428.000000 334.000000
M 401.000000 334.000000
A 13.000000 13.000000 0 0 1 427.000000 334.000000
M 403.000000 332.500000
A 11.500000 11.500000 0 0 1 426.000000 332.500000
M 404.000000 332.500000
A 10.500000 10.500000 0 0 1 425.000000 332.500000
M 405.000000 331.500000
A 9.500000 9.500000 0 0 1 424.000000 331.500000
M 407.000000 331.500000
A 8.500000 8.500000 0 0 1 424.000000 331.500000
M 408.000000 330.500000
A 7.500000 7.500000 0 0 1 423.000000 330.500000
M 410.000000 329.500000
A 6.500000 6.500000 0 0 1 423.000000 329.500000
M 248.000000 347.000000
A 35.000000 35.000000 0 0 1 318.000000 347.000000
M 252.000000 347.000000
A 35.000000 35.000000 0 0 1 322.000000 347.000000
M 256.000000 347.000000
A 35.000000 35.000000 0 0 1 326.000000 347.000000
M 261.000000 347.000000
A 35.000000 35.000000 0 0 1 331.000000 347.000000
M 265.000000 347.000000
A 35.000000 35.000000 0 0 1 335.000000 347.000000
M 269.000000 347.000000
A 35.000000 35.000000 0 0 1 339.000000 347.000000
M 273.000000 347.000000
A 35.000000 35.000000 0 0 1 343.000000 347.000000
M 277.000000 347.000000
A 35.000000 35.000000 0 0 1 347.000000 347.000000
M 281.000000 347.000000
A 35.000000 35.000000 0 0 1 351.000000 347.000000
M 285.000000 347.000000
A 35.000000 35.000000 0 0 1 355.000000 347.000000
M 289.000000 347.000000
A 35.000000 35.000000 0 0 1 359.000000 347.000000
M 294.000000 347.000000
A 35.000000 35.000000 0 0 1 364.000000 347.000000
M 298.000000 347.000000
A 35.000000 35.000000 0 0 1 368.000000 347.000000
M 302.000000 347.000000
A 35.000000 35.000000 0 0 1 372.000000 347.000000
M 306.000000 347.000000
A 35.000000 35.000000 0 0 1 376.000000 347.000000
M 310.000000 347.000000
A 35.000000 35.000000 0 0 1 380.000000 347.000000
M 314.000000 347.000000
A 35.000000 35.000000 0 0 1 384.000000 347.000000
M 318.000000 347.000000
A 35.000000 35.000000 0 0 1 388.000000 347.000000
M 322.000000 347.000000
A 35.000000 35.000000 0 0 1 392.000000 347.000000
M 327.000000 347.000000
A 35.000000 35.000000 0 0 1 397.000000 347.000000
M 331.000000 347.000000
A 35.000000 35.000000 0 0 1 401.000000 347.000000
M 335.000000 347.000000
A 35.000000 35.000000 0 0 1 405.000000 347.000000
M 339.000000 347.000000
A 35.000000 35.000000 0 0 1 409.000000 347.000000
M 343.000000 347.000000
A 35.000000 35.000000 0 0 1 413.000000 347.000000
M 347.000000 347.000000
A 35.000000 35.000000 0 0 1 417.000000 347.000000
M 351.000000 347.000000
A 35.000000 35.000000 0 0 1 421.000000 347.000000
M 355.000000 347.000000
A 35.000000 35.000000 0 0 1 425.000000 347.000000
M 360.000000 347.000000
A 35.000000 35.000000 0 0 1 430.000000 347.000000
M 364.000000 347.000000
A 35.000000 35.000000 0 0 1 434.000000 347.000000
M 368.000000 347.000000
A 35.000000 35.000000 0 0 1 438.000000 347.000000
M 371.000000 474.500000
A 35.500000 35.500000 0 0 1 442.000000 474.500000
M 372.000000 475.500000
A 34.500000 34.500000 0 0 1 441.000000 475.500000
M 374.000000 475.500000
A 33.500000 33.500000 0 0 1 441.000000 475.500000
M 375.000000 475.500000
A 32.500000 32.500000 0 0 1 440.000000 475.500000
M 376.000000 475.500000
A 31.500000 31.500000 0 0 1 439.000000 475.500000
M 378.000000 476.500000
A 30.500000 30.500000 0 0 1 439.000000 476.500000
M 379.000000 476.500000
A 29.500000 29.500000 0 0 1 438.000000 476.500000
M 381.000000 476.500000
A 28.500000 28.500000 0 0 1 438.000000 476.500000
M 382.000000 476.500000
A 27.500000 27.500000 0 0 1 437.000000 476.500000
M 383.000000 477.500000
A 26.500000 26.500000 0 0 1 436.000000 477.500000
M 385.000000 477.500000
A 25.500000 25.500000 0 0 1 436.000000 477.500000
M 386.000000 477.500000
A 24.500000 24.500000 0 0 1 435.000000 477.500000
M 387.000000 477.000000
A 23.000000 23.000000 0 0 1 433.000000 477.000000
M 389.000000 477.000000
A 22.000000 22.000000 0 0 1 433.000000 477.000000
M 390.000000 478.000000
A 21.000000 21.000000 0 0 1 432.000000 478.000000
M 392.000000 478.000000
A 20.000000 20.000000 0 0 1 432.000000 478.000000
M 393.000000 478.000000
A 19.000000 19.000000 0 0 1 431.000000 478.000000
M 394.000000 478.000000
A 18.000000 18.000000 0 0 1 430.000000 478.000000
M 396.000000 479.000000
A 17.000000 17.000000 0 0 1 430.000000 479.000000
M 397.000000 479.000000
A 16.000000 16.000000 0 0 1 429.000000 479.000000
M 398.000000 479.000000
A 15.000000 15.000000 0 0 1 428.000000 479.000000
M 400.000000 479.000000
A 14.000000 14.000000 0 0 1 428.000000 479.000000
M 401.000000 479.000000
A 13.000000 13.000000 0 0 1 427.000000 479.000000
M 403.000000 480.000000
A 12.000000 12.000000 0 0 1 427.000000 480.000000
M 404.000000 480.000000
A 11.000000 11.000000 0 0 1 426.000000 480.000000
M 405.000000 479.500000
A 9.500000 9.500000 0 0 1 424.000000 479.500000
M 407.000000 479.500000
A 8.500000 8.500000 0 0 1 424.000000 479.500000
M 408.000000 480.500000
A 7.500000 7.500000 0 0 1 423.000000 480.500000
M 410.000000 480.500000
A 6.500000 6.500000 0 0 1 423.000000 480.500000
M 371.000000 470.500000
A 35.500000 35.500000 0 0 1 442.000000 470.500000
M 371.000000 466.500000
A 35.500000 35.500000 0 0 1 442.000000 466.500000
M 371.000000 462.500000
A 35.500000 35.500000 0 0 1 442.000000 462.500000
M 371.000000 458.500000
A 35.500000 35.500000 0 0 1 442.000000 458.500000
M 371.000000 454.500000
A 35.500000 35.500000 0 0 1 442.000000 454.500000
M 371.000000 450.500000
A 35.500000 35.500000 0 0 1 442.000000 450.500000
M 371.000000 446.500000
A 35.500000 35.500000 0 0 1 442.000000 446.500000
M 371.000000 442.500000
A 35.500000 35.500000 0 0 1 442.000000 442.500000
M 371.000000 438.500000
A 35.500000 35.500000 0 0 1 442.000000 438.500000
M 371.000000 434.500000
A 35.500000 35.500000 0 0 1 442.000000 434.500000
M 371.000000 429.500000
A 35.500000 35.500000 0 0 1 442.000000 429.500000
M 371.000000 425.500000
A 35.500000 35.500000 0 0 1 442.000000 425.500000
M 371.000000 421.500000
A 35.500000 35.500000 0 0 1 442.000000 421.500000
M 371.000000 417.500000
A 35.500000 35.500000 0 0 1 442.000000 417.500000
M 371.000000 413.500000
A 35.500000 35.500000 0 0 1 442.000000 413.500000
M 371.000000 409.000000
A 35.000000 35.000000 0 0 1 441.000000 409.000000
M 371.000000 405.000000
A 35.000000 35.000000 0 0 1 441.000000 405.000000
M 371.000000 401.000000
A 35.000000 35.000000 0 0 1 441.000000 401.000000
M 371.000000 397.000000
A 35.000000 35.000000 0 0 1 441.000000 397.000000
M 372.000000 393.000000
A 35.000000 35.000000 0 0 1 442.000000 393.000000
M 372.000000 388.000000
A 35.000000 35.000000 0 0 1 442.000000 388.000000
M 372.000000 384.000000
A 35.000000 35.000000 0 0 1 442.000000 384.000000
M 372.000000 380.000000
A 35.000000 35.000000 0 0 1 442.000000 380.000000
M 372.000000 376.000000
A 35.000000 35.000000 0 0 1 442.000000 376.000000
M 372.000000 372.000000
A 35.000000 35.000000 0 0 1 442.000000 372.000000
M 372.000000 368.000000
A 35.000000 35.000000 0 0 1 442.000000 368.000000
M 372.000000 364.000000
A 35.000000 35.000000 0 0 1 442.000000 364.000000
M 372.000000 360.000000
A 35.000000 35.000000 0 0 1 442.000000 360.000000
M 372.000000 356.000000
A 35.000000 35.000000 0 0 1 442.000000 356.000000
M 372.000000 352.000000
A 35.000000 35.000000 0 0 1 442.000000 352.000000
M 248.000000 475.500000
A 35.500000 35.500000 0 0 1 319.000000 475.500000
M 252.000000 475.500000
A 35.500000 35.500000 0 0 1 323.000000 475.500000
M 256.000000 475.500000
A 35.500000 35.500000 0 0 1 327.000000 475.500000
M 260.000000 475.500000
A 35.500000 35.500000 0 0 1 331.000000 475.500000
M 264.000000 475.500000
A 35.500000 35.500000 0 0 1 335.000000 475.500000
M 268.000000 475.500000
A 35.500000 35.500000 0 0 1 339.000000 475.500000
M 272.000000 475.500000
A 35.500000 35.500000 0 0 1 343.000000 475.500000
M 276.000000 475.500000
A 35.500000 35.500000 0 0 1 347.000000 475.500000
M 281.000000 475.500000
A 35.500000 35.500000 0 0 1 352.000000 475.500000
M 285.000000 475.500000
A 35.500000 35.500000 0 0 1 356.000000 475.500000
M 289.000000 475.500000
A 35.500000 35.500000 0 0 1 360.000000 475.500000
M 293.000000 475.500000
A 35.500000 35.500000 0 0 1 364.000000 475.500000
M 297.000000 475.500000
A 35.500000 35.500000 0 0 1 368.000000 475.500000
M 301.000000 475.500000
A 35.500000 35.500000 0 0 1 372.000000 475.500000
M 305.000000 475.500000
A 35.500000 35.500000 0 0 1 376.000000 475.500000
M 309.000000 475.500000
A 35.500000 35.500000 0 0 1 380.000000 475.500000
M 313.000000 475.500000
A 35.500000 35.500000 0 0 1 384.000000 475.500000
M 317.000000 475.500000
A 35.500000 35.500000 0 0 1 388.000000 475.500000
M 322.000000 475.500000
A 35.500000 35.500000 0 0 1 393.000000 475.500000
M 326.000000 475.500000
A 35.500000 35.500000 0 0 1 397.000000 475.500000
M 330.000000 475.500000
A 35.500000 35.500000 0 0 1 401.000000 475.500000
M 334.000000 475.500000
A 35.500000 35.500000 0 0 1 405.000000 475.500000
M 338.000000 475.500000
A 35.500000 35.500000 0 0 1 409.000000 475.500000
M 342.000000 475.500000
A 35.500000 35.500000 0 0 1 413.000000 475.500000
M 346.000000 475.500000
A 35.500000 35.500000 0 0 1 417.000000 475.500000
M 350.000000 475.500000
A 35.500000 35.500000 0 0 1 421.000000 475.500000
M 354.000000 474.500000
A 35.500000 35.500000 0 0 1 425.000000 474.500000
M 359.000000 474.500000
A 35.500000 35.500000 0 0 1 430.000000 474.500000
M 363.000000 474.500000
A 35.500000 35.500000 0 0 1 434.000000 474.500000
M 367.000000 474.500000
A 35.500000 35.500000 0 0 1 438.000000 474.500000
"/>
</svg>