<svg width="765" height="507" viewBox="0 0 765 507" fill="none" xmlns="http://www.w3.org/2000/svg">

<path stroke="Black" stroke-width="1" d="M 187 204
L 189 196

"/><path stroke="Black" stroke-width="1" d="M 171 204
L 187 204

"/><path stroke="Black" stroke-width="1" d="M 189 196
L 173 194

"/><path stroke="Black" stroke-width="1" d="M 110 404
L 187 204

"/><path stroke="Black" stroke-width="1" d="M 78 444
L 110 404

"/><path stroke="Black" stroke-width="1" d="M 104 411
L 72 452

"/><path stroke="Black" stroke-width="1" d="M 104 411
L 110 404

"/><path stroke="Black" stroke-width="1" d="M -37 175
L 14 180

"/><path stroke="Black" stroke-width="1" d="M 28 190
L 23 183

"/><path stroke="Black" stroke-width="1" d="M -19 186
L 28 190

"/><path stroke="Black" stroke-width="1" d="M 23 183
L -26 178

"/><path stroke="Black" stroke-width="1" d="M 23 183
L 14 180

"/><path stroke="Black" stroke-width="1" d="M 83 327
L 28 190

"/><path stroke="Black" stroke-width="1" d="M 161 177
L 179 181

"/><path stroke="Black" stroke-width="1" d="M 184 185
L 179 181

"/><path stroke="Black" stroke-width="1" d="M 167 181
L 184 185

"/><path stroke="Black" stroke-width="1" d="M 187 190
L 184 185

"/><path stroke="Black" stroke-width="1" d="M 172 187
L 187 190

"/><path stroke="Black" stroke-width="1" d="M 189 196
L 187 190

"/><path stroke="Black" stroke-width="1" d="M 382 337
L 368 321

"/><path stroke="Black" stroke-width="1" d="M 369 327
L 377 336

"/><path stroke="Black" stroke-width="1" d="M 432 315
L 368 315

"/><path stroke="Black" stroke-width="1" d="M 466 337
L 432 315

"/><path stroke="Black" stroke-width="1" d="M 438 317
L 473 339

"/><path stroke="Black" stroke-width="1" d="M 438 317
L 432 315

"/><path stroke="Black" stroke-width="1" d="M 487 347
L 479 346

"/><path stroke="Black" stroke-width="1" d="M 532 375
L 487 347

"/><path stroke="Black" stroke-width="1" d="M 484 353
L 516 374

"/><path stroke="Black" stroke-width="1" d="M 493 348
L 539 377

"/><path stroke="Black" stroke-width="1" d="M 493 348
L 487 347

"/><path stroke="Black" stroke-width="1" d="M 604 459
L 576 438

"/><path stroke="Black" stroke-width="1" d="M 581 447
L 599 461

"/><path stroke="Black" stroke-width="1" d="M 585 454
L 593 460

"/><path stroke="Black" stroke-width="1" d="M 616 452
L 563 414

"/><path stroke="Black" stroke-width="1" d="M 562 395
L 563 399

"/><path stroke="Black" stroke-width="1" d="M 622 433
L 562 395

"/><path stroke="Black" stroke-width="1" d="M 563 399
L 623 438

"/><path stroke="Black" stroke-width="1" d="M 563 399
L 563 404

"/><path stroke="Black" stroke-width="1" d="M 563 404
L 623 444

"/><path stroke="Black" stroke-width="1" d="M 563 404
L 561 408

"/><path stroke="Black" stroke-width="1" d="M 561 408
L 620 448

"/><path stroke="Black" stroke-width="1" d="M 561 408
L 559 409

"/><path stroke="Black" stroke-width="1" d="M 528 335
L 562 395

"/><path stroke="Black" stroke-width="1" d="M 581 361
L 528 335

"/><path stroke="Black" stroke-width="1" d="M 528 323
L 526 329

"/><path stroke="Black" stroke-width="1" d="M 582 347
L 528 323

"/><path stroke="Black" stroke-width="1" d="M 526 329
L 579 354

"/><path stroke="Black" stroke-width="1" d="M 526 329
L 528 335

"/><path stroke="Black" stroke-width="1" d="M 529 271
L 534 284

"/><path stroke="Black" stroke-width="1" d="M 583 285
L 529 271

"/><path stroke="Black" stroke-width="1" d="M 534 284
L 589 300

"/><path stroke="Black" stroke-width="1" d="M 534 284
L 536 297

"/><path stroke="Black" stroke-width="1" d="M 536 297
L 591 316

"/><path stroke="Black" stroke-width="1" d="M 536 297
L 534 311

"/><path stroke="Black" stroke-width="1" d="M 534 311
L 588 332

"/><path stroke="Black" stroke-width="1" d="M 534 311
L 528 323

"/><path stroke="Black" stroke-width="1" d="M 529 259
L 527 266

"/><path stroke="Black" stroke-width="1" d="M 583 271
L 529 259

"/><path stroke="Black" stroke-width="1" d="M 527 266
L 581 278

"/><path stroke="Black" stroke-width="1" d="M 527 266
L 529 271

"/><path stroke="Black" stroke-width="1" d="M 531 257
L 529 259

"/><path stroke="Black" stroke-width="1" d="M 626 198
L 577 199

"/><path stroke="Black" stroke-width="1" d="M 621 178
L 587 181

"/><path stroke="Black" stroke-width="1" d="M 585 185
L 626 182

"/><path stroke="Black" stroke-width="1" d="M 582 189
L 628 187

"/><path stroke="Black" stroke-width="1" d="M 579 194
L 628 192

"/><path stroke="Black" stroke-width="1" d="M 609 171
L 594 173

"/><path stroke="Black" stroke-width="1" d="M 538 134
L 582 123

"/><path stroke="Black" stroke-width="1" d="M 536 137
L 578 126

"/><path stroke="Black" stroke-width="1" d="M 323 333
L 326 340

"/><path stroke="Black" stroke-width="1" d="M 335 359
L 323 333

"/><path stroke="Black" stroke-width="1" d="M 326 340
L 338 368

"/><path stroke="Black" stroke-width="1" d="M 324 261
L 323 333

"/><path stroke="Black" stroke-width="1" d="M 336 273
L 324 261

"/><path stroke="Black" stroke-width="1" d="M 332 250
L 326 254

"/><path stroke="Black" stroke-width="1" d="M 346 259
L 332 250

"/><path stroke="Black" stroke-width="1" d="M 326 254
L 338 264

"/><path stroke="Black" stroke-width="1" d="M 326 254
L 324 261

"/><path stroke="Black" stroke-width="1" d="M 511 151
L 481 175

"/><path stroke="Black" stroke-width="1" d="M 481 175
L 526 169

"/><path stroke="Black" stroke-width="1" d="M 481 175
L 434 206

"/><path stroke="Black" stroke-width="1" d="M 434 206
L 469 206

"/><path stroke="Black" stroke-width="1" d="M 434 206
L 384 231

"/><path stroke="Black" stroke-width="1" d="M 384 231
L 409 236

"/><path stroke="Black" stroke-width="1" d="M 384 231
L 332 250

"/><path stroke="Black" stroke-width="1" d="M 731 463
L 667 428

"/><path stroke="Black" stroke-width="1" d="M 669 436
L 729 470

"/><path stroke="Black" stroke-width="1" d="M 670 443
L 725 476

"/><path stroke="Black" stroke-width="1" d="M 670 449
L 720 479

"/><path stroke="Black" stroke-width="1" d="M 669 454
L 713 481

"/><path stroke="Black" stroke-width="1" d="M 738 166
L 673 172

"/><path stroke="Black" stroke-width="1" d="M 721 148
L 651 157

"/><path stroke="Black" stroke-width="1" d="M 654 159
L 728 150

"/><path stroke="Black" stroke-width="1" d="M 659 162
L 733 154

"/><path stroke="Black" stroke-width="1" d="M 667 166
L 737 159

"/><path stroke="Black" stroke-width="1" d="M 676 148
L 644 153

"/><path stroke="Black" stroke-width="1" d="M 630 122
L 602 128

"/><path stroke="Black" stroke-width="1" d="M 623 506
L 607 493

"/><path stroke="Black" stroke-width="1" d="M 668 481
L 651 469

"/><path stroke="Black" stroke-width="1" d="M 500 456
L 548 506

"/><path stroke="Black" stroke-width="1" d="M 521 148
L 478 158

"/><path stroke="Black" stroke-width="1" d="M -9 158
L 478 158

"/><path stroke="Black" stroke-width="1" d="M -65 148
L -9 158

"/><path stroke="Black" stroke-width="1" d="M -24 173
L -23 167

"/><path stroke="Black" stroke-width="1" d="M -83 166
L -24 173

"/><path stroke="Black" stroke-width="1" d="M -23 167
L -82 159

"/><path stroke="Black" stroke-width="1" d="M -23 167
L -19 162

"/><path stroke="Black" stroke-width="1" d="M -19 162
L -78 153

"/><path stroke="Black" stroke-width="1" d="M -19 162
L -15 159

"/><path stroke="Black" stroke-width="1" d="M -15 159
L -72 150

"/><path stroke="Black" stroke-width="1" d="M -15 159
L -9 158

"/><path stroke="Black" stroke-width="1" d="M -20 420
L -22 279

"/><path stroke="Black" stroke-width="1" d="M -24 176
L -24 173

"/><path stroke="Black" stroke-width="1" d="M -77 464
L -20 420

"/><path stroke="Black" stroke-width="1" d="M -5 435
L -11 434

"/><path stroke="Black" stroke-width="1" d="M -59 481
L -5 435

"/><path stroke="Black" stroke-width="1" d="M -11 434
L -66 480

"/><path stroke="Black" stroke-width="1" d="M -11 434
L -15 431

"/><path stroke="Black" stroke-width="1" d="M -15 431
L -72 476

"/><path stroke="Black" stroke-width="1" d="M -15 431
L -18 426

"/><path stroke="Black" stroke-width="1" d="M -18 426
L -76 471

"/><path stroke="Black" stroke-width="1" d="M -18 426
L -20 420

"/><path stroke="Black" stroke-width="1" d="M 474 435
L 273 435

"/><path stroke="Black" stroke-width="1" d="M 237 435
L 85 435

"/><path stroke="Black" stroke-width="1" d="M 41 435
L -5 435

"/><path stroke="Black" stroke-width="1" d="M 517 481
L 474 435

"/><path stroke="Black" stroke-width="1" d="M 500 456
L 474 435

"/><path stroke="Purple" stroke-width="1" d="
"/><path stroke="Purple" stroke-width="1" d="M 51,48944 452,8385
L 44,78292 444,1729

"/><path stroke="Purple" stroke-width="1" d="M -26,53844 178,3954
L -19,57261 186,792

"/><path stroke="Purple" stroke-width="1" d="M 143,6632 178,4085
L 154,5549 175,6115

"/><path stroke="Purple" stroke-width="1" d="M 173,4547 194,4316
L 171,3772 204,0043
M 171,3772 204,0043
L 78,71682 444,1502
M 78,71682 444,1502
L 72,20647 452,8242
M 72,20647 452,8242
L 61,88076 455,7194
M 61,88076 455,7194
L 51,48944 452,8385
M 44,78292 444,1729
L -53,35228 204,0031
M -53,35228 204,0031
L -55,6481 194,4243
M -55,6481 194,4243
L -54,35438 187,1456
M -54,35438 187,1456
L -50,55408 181,1047
M -50,55408 181,1047
L -44,58563 177,0169
M -44,58563 177,0169
L -37,15003 175,5952
M -37,15003 175,5952
L -26,53844 178,3954
M -19,57261 186,792
L 61,10164 386,4923
M 61,10164 386,4923
L 137,2465 186,8004
M 137,2465 186,8004
L 143,6632 178,4085
M 154,5549 175,6115
L 161,8373 177,0336
M 161,8373 177,0336
L 167,8895 181,1199
M 167,8895 181,1199
L 172 187,1575
M 172 187,1575
L 173,4547 194,4316

"/><path stroke="Purple" stroke-width="1" d="M 377,2069 336,5171
L 382,6726 337,6137
M 372,7538 333,5239
L 377,2069 336,5171
M 369,765 329,08
L 372,7538 333,5239

"/><path stroke="Purple" stroke-width="1" d="M 473,7067 339,547
L 478,8085 344,8902

"/><path stroke="Purple" stroke-width="1" d="M 516,0869 374,0374
L 532,4665 375,8535
M 501,1529 367,9691
L 516,0869 374,0374
M 488,4597 358,1026
L 501,1529 367,9691

"/><path stroke="Purple" stroke-width="1" d="M 539,6653 377,6138
L 544,8826 382,7937

"/><path stroke="Purple" stroke-width="1" d="M 599,1036 461,0523
L 604,3853 459,3046
M 593,7762 460,6895
L 599,1036 461,0523
M 589,0114 458,377
L 593,7762 460,6895

"/><path stroke="Purple" stroke-width="1" d="M 623,7392 438,7513
L 622,0732 433,5549
M 623,2626 444,0287
L 623,7392 438,7513
M 620,8241 448,7823
L 623,2626 444,0287

"/><path stroke="Purple" stroke-width="1" d="M 579,8865 354,7574
L 582,0835 347,6497

"/><path stroke="Purple" stroke-width="1" d="M 589,5349 300,5261
L 583,1622 285,389
M 591,4611 316,5696
L 589,5349 300,5261
M 588,9678 332,5876
L 591,4611 316,5696

"/><path stroke="Purple" stroke-width="1" d="M 581,2048 278,2285
L 583,2175 271,0057

"/><path stroke="Purple" stroke-width="1" d="M 626,0337 182,3935
L 621,8889 178,6637
M 628,3167 187,2848
L 626,0337 182,3935
M 628,5878 192,7103
L 628,3167 187,2848

"/><path stroke="Purple" stroke-width="1" d="M 595,8519 171,4068
L 590,3062 176,759

"/><path stroke="Purple" stroke-width="1" d="M 541,5053 255,1456
L 534,206 256,9339

"/><path stroke="Purple" stroke-width="1" d="M 489,4747 274,911
L 479,4693 288,2322
M 502,4824 264,9343
L 489,4747 274,911
M 517,669 258,7825
L 502,4824 264,9343

"/><path stroke="Purple" stroke-width="1" d="M 467,0006 295,5869
L 382,9411 295,6081
M 382,9411 295,6081
L 377,4494 296,7119
M 369,9065 304,1778
L 368,7681 309,634
M 372,9514 299,72
L 369,9065 304,1778
M 377,4494 296,7119
L 372,9514 299,72
M 368,7681 309,634
L 368,6894 323,636
M 368,6894 323,636
L 369,765 329,08
M 382,6726 337,6137
L 466,5393 337,5827
M 466,5393 337,5827
L 473,7067 339,547
M 478,8085 344,8902
L 488,4597 358,1026
M 532,4665 375,8535
L 539,6653 377,6138
M 544,8826 382,7937
L 585,419 454,2757
M 585,419 454,2757
L 589,0114 458,377
M 604,3853 459,3046
L 616,5981 452,4072
M 616,5981 452,4072
L 620,8241 448,7823
M 622,0732 433,5549
L 581,6436 361,9108
M 581,6436 361,9108
L 579,8865 354,7574
M 582,0835 347,6497
L 588,9678 332,5876
M 583,1622 285,389
L 581,2048 278,2285
M 583,2175 271,0057
L 626,6913 198,0466
M 626,6913 198,0466
L 628,5878 192,7103
M 621,8889 178,6637
L 609,7549 171,5576
M 609,7549 171,5576
L 603,0858 169,6568
M 603,0858 169,6568
L 595,8519 171,4068
M 590,3062 176,759
L 546,918 249,8918
M 546,918 249,8918
L 541,5053 255,1456
M 534,206 256,9339
L 517,669 258,7825
M 474,2294 293,6087
L 467,0006 295,5869
M 479,4693 288,2322
L 474,2294 293,6087

"/><path stroke="Purple" stroke-width="1" d="M 660,7281 382,5059
L 670,7883 447,3214
M 658,308 316,5489
L 660,7281 382,5059
M 663,598 250,1111
L 658,308 316,5489

"/><path stroke="Purple" stroke-width="1" d="M 669,8241 455,9525
L 663,8524 462,4229

"/><path stroke="Purple" stroke-width="1" d="M 580,0528 506,5786
L 572,1838 502,9478

"/><path stroke="Purple" stroke-width="1" d="M 408,1693 395,6721
L 345,6649 373,0471
M 467,1672 425,1303
L 408,1693 395,6721
M 522,0398 461,024
L 467,1672 425,1303

"/><path stroke="Purple" stroke-width="1" d="M 338,4607 368,0262
L 335,7176 359,714

"/><path stroke="Purple" stroke-width="1" d="M 338,8704 264,9808
L 346,1596 259,8956

"/><path stroke="Purple" stroke-width="1" d="M 582,918 123,5175
L 587,837 122,4468
M 578,5587 126,3189
L 582,918 123,5175
M 587,837 122,4468
L 595,4371 124,3517
M 595,4371 124,3517
L 670,3067 168,304
M 670,3067 168,304
L 676,0803 174,9764
M 676,0803 174,9764
L 676,6656 183,8692
M 676,6656 183,8692
L 663,598 250,1111
M 670,7883 447,3214
L 669,8241 455,9525
M 663,8524 462,4229
L 588,65 504,8283
M 588,65 504,8283
L 580,0528 506,5786
M 572,1838 502,9478
L 522,0398 461,024
M 345,6649 373,0471
L 338,4607 368,0262
M 335,7176 359,714
L 336,0477 273,3814
M 336,0477 273,3814
L 338,8704 264,9808
M 526,1518 169,8353
L 578,5587 126,3189
M 469,585 206,7812
L 526,1518 169,8353
M 409,4099 236,8921
L 469,585 206,7812
M 346,1596 259,8956
L 409,4099 236,8921

"/><path stroke="Purple" stroke-width="1" d="M 762,1663 149,6179
L 765,2092 166,9039
M 752,9907 135,4158
L 762,1663 149,6179
M 739,1052 125,7943
L 752,9907 135,4158

"/><path stroke="Purple" stroke-width="1" d="M 729,4322 503,3577
L 712,4581 506,765
M 743,5266 494,1077
L 729,4322 503,3577
M 753,2665 480,4256
L 743,5266 494,1077

"/><path stroke="Purple" stroke-width="1" d="M 729,6285 470,6242
L 731,1541 463,7397
M 725,7706 476,1454
L 729,6285 470,6242
M 720,0893 479,8176
L 725,7706 476,1454
M 713,0903 481,1545
L 720,0893 479,8176
M 731,1541 463,7397
L 738,7705 166,901
M 738,7705 166,901
L 737,581 159,7847
M 728,3512 150,2694
L 721,2926 148,8876
M 733,9445 154,0713
L 728,3512 150,2694
M 737,581 159,7847
L 733,9445 154,0713
M 721,2926 148,8876
L 676,1473 148,8804
M 676,1473 148,8804
L 630,811 122,2314
M 630,811 122,2314
L 721,9501 122,2528
M 721,9501 122,2528
L 739,1052 125,7943
M 765,2092 166,9039
L 757,1674 463,7209
M 757,1674 463,7209
L 753,2665 480,4256
M 712,4581 506,765
L 623,2144 506,8404
M 623,2144 506,8404
L 668,7574 481,1888
M 668,7574 481,1888
L 713,0903 481,1545

"/><path stroke="Purple" stroke-width="1" d="M -83,40673 125,6094
L -66,15003 122,0678
M -97,42268 135,2475
L -83,40673 125,6094
M -106,7388 149,4807
L -97,42268 135,2475

"/><path stroke="Purple" stroke-width="1" d="M -82,10574 159,6786
L -83,3489 166,8111
M -78,4138 153,9532
L -82,10574 159,6786
M -72,76941 150,1444
L -78,4138 153,9532

"/><path stroke="Purple" stroke-width="1" d="M -66,70246 480,4227
L -59,68187 481,7518
M -72,38421 476,7511
L -66,70246 480,4227
M -76,22215 471,2233
L -72,38421 476,7511

"/><path stroke="Purple" stroke-width="1" d="M 548,181 506,9038
L -59,22033 507,4169
M -59,22033 507,4169
L -76,24668 504,0307
M -100,037 481,0834
L -103,8435 464,3443
M -90,3434 494,7825
L -100,037 481,0834
M -76,24668 504,0307
L -90,3434 494,7825
M -103,8435 464,3443
L -109,9138 166,8082
M -109,9138 166,8082
L -106,7388 149,4807
M -66,15003 122,0678
L 554,1797 122,2134
M 554,1797 122,2134
L 521,7652 148,8557
M 521,7652 148,8557
L -65,66999 148,7617
M -65,66999 148,7617
L -72,76941 150,1444
M -83,3489 166,8111
L -77,70803 464,3254
M -77,70803 464,3254
L -76,22215 471,2233
M -59,68187 481,7518
L 517,1584 481,306
M 517,1584 481,306
L 548,181 506,9038

"/><path stroke="Purple" stroke-width="1" d="M 262,92 177,1752
L 268,7695 181,304

"/><path stroke="Purple" stroke-width="1" d="M 272,7552 187,2513
L 274,0809 194,4348

"/><path stroke="Purple" stroke-width="1" d="M 272,6178 444,538
L 268,5548 450,4039

"/><path stroke="Purple" stroke-width="1" d="M 262,7039 454,2863
L 255,6327 455,5838

"/><path stroke="Purple" stroke-width="1" d="M 248,6468 454,2961
L 242,7049 450,4216

"/><path stroke="Purple" stroke-width="1" d="M 238,7658 444,5607
L 237,4444 437,6575

"/><path stroke="Purple" stroke-width="1" d="M 208,0588 225,0176
L 202,0756 221,1729
M 215,3585 226,298
L 208,0588 225,0176
M 202,0756 221,1729
L 198,2057 215,2032
M 198,2057 215,2032
L 196,8956 207,9002
M 196,8956 207,9002
L 199,6916 197,8018
M 199,6916 197,8018
L 208,7041 190,5302
M 208,7041 190,5302
L 249,2681 177,0406
M 249,2681 177,0406
L 255,6508 175,7973
M 255,6508 175,7973
L 262,92 177,1752
M 268,7695 181,304
L 272,7552 187,2513
M 274,0809 194,4348
L 273,9741 437,6338
M 273,9741 437,6338
L 272,6178 444,538
M 268,5548 450,4039
L 262,7039 454,2863
M 255,6327 455,5838
L 248,6468 454,2961
M 242,7049 450,4216
L 238,7658 444,5607
M 237,4444 437,6575
L 237,1023 220,1098
M 237,1023 220,1098
L 225,9652 224,1764
M 225,9652 224,1764
L 215,3585 226,298

"/>
</svg>
