<svg width="683" height="494" viewBox="0 0 683 494" fill="none" xmlns="http://www.w3.org/2000/svg">

<path stroke="Black" stroke-width="1" d="M 675 375
L 683 390

"/><path stroke="Black" stroke-width="1" d="M 683 390
L 641 305

"/><path stroke="Black" stroke-width="1" d="M 641 305
L 675 375

"/><path stroke="Black" stroke-width="1" d="M 683 390
L 646 314

"/><path stroke="Black" stroke-width="1" d="M 646 314
L 641 305

"/><path stroke="Black" stroke-width="1" d="M 561 273
L 641 305

"/><path stroke="Black" stroke-width="1" d="M 480 296
L 561 273

"/><path stroke="Black" stroke-width="1" d="M 470 304
L 480 296

"/><path stroke="Black" stroke-width="1" d="M 470 304
L 445 362

"/><path stroke="Black" stroke-width="1" d="M 445 362
L 480 296

"/><path stroke="Black" stroke-width="1" d="M 470 304
L 432 376

"/><path stroke="Black" stroke-width="1" d="M 432 376
L 445 362

"/><path stroke="Black" stroke-width="1" d="M 432 376
L 478 432

"/><path stroke="Black" stroke-width="1" d="M 478 432
L 445 362

"/><path stroke="Black" stroke-width="1" d="M 432 376
L 468 453

"/><path stroke="Black" stroke-width="1" d="M 468 453
L 478 432

"/><path stroke="Black" stroke-width="1" d="M 468 453
L 560 465

"/><path stroke="Black" stroke-width="1" d="M 560 465
L 478 432

"/><path stroke="Black" stroke-width="1" d="M 468 453
L 557 489

"/><path stroke="Black" stroke-width="1" d="M 557 489
L 560 465

"/><path stroke="Black" stroke-width="1" d="M 557 489
L 641 441

"/><path stroke="Black" stroke-width="1" d="M 641 441
L 560 465

"/><path stroke="Black" stroke-width="1" d="M 557 489
L 646 463

"/><path stroke="Black" stroke-width="1" d="M 646 463
L 641 441

"/><path stroke="Black" stroke-width="1" d="M 646 463
L 675 375

"/><path stroke="Black" stroke-width="1" d="M 675 375
L 641 441

"/><path stroke="Black" stroke-width="1" d="M 646 463
L 683 390

"/><path stroke="Black" stroke-width="1" d="M 649 367
L 675 375

"/><path stroke="Black" stroke-width="1" d="M 675 375
L 623 314

"/><path stroke="Black" stroke-width="1" d="M 641 305
L 623 314

"/><path stroke="Black" stroke-width="1" d="M 641 305
L 562 289

"/><path stroke="Black" stroke-width="1" d="M 561 273
L 562 289

"/><path stroke="Black" stroke-width="1" d="M 561 273
L 499 307

"/><path stroke="Black" stroke-width="1" d="M 480 296
L 499 307

"/><path stroke="Black" stroke-width="1" d="M 480 296
L 473 357

"/><path stroke="Black" stroke-width="1" d="M 445 362
L 473 357

"/><path stroke="Black" stroke-width="1" d="M 445 362
L 498 411

"/><path stroke="Black" stroke-width="1" d="M 478 432
L 498 411

"/><path stroke="Black" stroke-width="1" d="M 478 432
L 561 436

"/><path stroke="Black" stroke-width="1" d="M 560 465
L 561 436

"/><path stroke="Black" stroke-width="1" d="M 560 465
L 623 418

"/><path stroke="Black" stroke-width="1" d="M 641 441
L 623 418

"/><path stroke="Black" stroke-width="1" d="M 641 441
L 649 367

"/><path stroke="Black" stroke-width="1" d="M 621 372
L 649 367

"/><path stroke="Black" stroke-width="1" d="M 649 367
L 603 334

"/><path stroke="Black" stroke-width="1" d="M 603 334
L 621 372

"/><path stroke="Black" stroke-width="1" d="M 623 314
L 603 334

"/><path stroke="Black" stroke-width="1" d="M 623 314
L 560 317

"/><path stroke="Black" stroke-width="1" d="M 560 317
L 603 334

"/><path stroke="Black" stroke-width="1" d="M 562 289
L 560 317

"/><path stroke="Black" stroke-width="1" d="M 562 289
L 517 329

"/><path stroke="Black" stroke-width="1" d="M 517 329
L 560 317

"/><path stroke="Black" stroke-width="1" d="M 499 307
L 517 329

"/><path stroke="Black" stroke-width="1" d="M 499 307
L 499 365

"/><path stroke="Black" stroke-width="1" d="M 499 365
L 517 329

"/><path stroke="Black" stroke-width="1" d="M 473 357
L 499 365

"/><path stroke="Black" stroke-width="1" d="M 473 357
L 516 402

"/><path stroke="Black" stroke-width="1" d="M 516 402
L 499 365

"/><path stroke="Black" stroke-width="1" d="M 498 411
L 516 402

"/><path stroke="Black" stroke-width="1" d="M 498 411
L 560 420

"/><path stroke="Black" stroke-width="1" d="M 560 420
L 516 402

"/><path stroke="Black" stroke-width="1" d="M 561 436
L 560 420

"/><path stroke="Black" stroke-width="1" d="M 561 436
L 603 407

"/><path stroke="Black" stroke-width="1" d="M 603 407
L 560 420

"/><path stroke="Black" stroke-width="1" d="M 623 418
L 603 407

"/><path stroke="Black" stroke-width="1" d="M 623 418
L 621 372

"/><path stroke="Black" stroke-width="1" d="M 621 372
L 603 407

"/><path stroke="Black" stroke-width="1" d="M 608 386
L 621 372

"/><path stroke="Black" stroke-width="1" d="M 621 372
L 593 355

"/><path stroke="Black" stroke-width="1" d="M 593 355
L 608 386

"/><path stroke="Black" stroke-width="1" d="M 603 334
L 593 355

"/><path stroke="Black" stroke-width="1" d="M 603 334
L 558 341

"/><path stroke="Black" stroke-width="1" d="M 558 341
L 593 355

"/><path stroke="Black" stroke-width="1" d="M 560 317
L 558 341

"/><path stroke="Black" stroke-width="1" d="M 560 317
L 522 351

"/><path stroke="Black" stroke-width="1" d="M 522 351
L 558 341

"/><path stroke="Black" stroke-width="1" d="M 517 329
L 522 351

"/><path stroke="Black" stroke-width="1" d="M 517 329
L 507 380

"/><path stroke="Black" stroke-width="1" d="M 507 380
L 522 351

"/><path stroke="Black" stroke-width="1" d="M 499 365
L 507 380

"/><path stroke="Black" stroke-width="1" d="M 499 365
L 518 403

"/><path stroke="Black" stroke-width="1" d="M 518 403
L 507 380

"/><path stroke="Black" stroke-width="1" d="M 603 407
L 608 386

"/><path stroke="Black" stroke-width="1" d="M 608 386
L 596 409

"/><path stroke="Black" stroke-width="1" d="M 593 355
L 555 347

"/><path stroke="Black" stroke-width="1" d="M 555 347
L 597 363

"/><path stroke="Black" stroke-width="1" d="M 558 341
L 555 347

"/><path stroke="Black" stroke-width="1" d="M 558 341
L 520 356

"/><path stroke="Black" stroke-width="1" d="M 519 357
L 555 347

"/><path stroke="Black" stroke-width="1" d="M 554 494
L 473 461

"/><path stroke="Black" stroke-width="1" d="M 636 470
L 554 494

"/><path stroke="Black" stroke-width="1" d="M 473 461
L 468 453

"/><path stroke="Black" stroke-width="1" d="M 473 461
L 557 489

"/><path stroke="Black" stroke-width="1" d="M 554 494
L 557 489

"/><path stroke="Black" stroke-width="1" d="M 554 494
L 646 463

"/><path stroke="Black" stroke-width="1" d="M 636 470
L 646 463

"/><path stroke="Purple" stroke-width="1" d="M 623,9294 314,2148
L 649,6895 367,5741
M 562,0041 289,2439
L 623,9294 314,2148
M 499,8011 307,0151
L 562,0041 289,2439
M 473,4715 357,4411
L 499,8011 307,0151
M 498,8183 411,2453
L 473,4715 357,4411
M 561,3024 436,5919
L 498,8183 411,2453
M 623,9186 418,3759
L 561,3024 436,5919
M 649,6895 367,5741
L 623,9186 418,3759

"/>
</svg>
