<svg width="880" height="512" viewBox="0 0 880 512" fill="none" xmlns="http://www.w3.org/2000/svg">

<path stroke="Purple" stroke-width="1" d="
"/><path stroke="Purple" stroke-width="1" d="M 433,1603 478,0107
L 428,9705 472,5021

"/><path stroke="Purple" stroke-width="1" d="M 492,0008 305,1178
L 498,8167 303,3709
M 439,507 435,9266
L 509,2783 321,1122
M 439,507 435,9266
L 450,3681 472,494
M 385,616 305,1176
L 389,9198 310,3603
M 428,9705 472,5021
L 450,3681 472,494
M 433,1603 478,0107
L 450,3681 472,494
M 439,507 435,9266
L 428,9705 472,5021
M 439,507 435,9266
L 368,6924 321,1171
M 389,9198 310,3603
L 368,6924 321,1171
M 385,616 305,1176
L 368,6924 321,1171
M 379,0023 303,3703
L 368,6924 321,1171
M 374,3474 304,258
L 368,6924 321,1171
M 370,5914 306,8101
L 368,6924 321,1171
M 368,1768 310,5825
L 368,6924 321,1171
M 439,7022 479,8445
L 450,3681 472,494

"/><path stroke="Purple" stroke-width="1" d="M 510,5966 315,1267
L 509,2783 321,1122
M 509,2783 321,1122
L 450,3681 472,494
M 450,3681 472,494
L 446,2276 478,0056
M 446,2276 478,0056
L 439,7022 479,8445
M 439,7022 479,8445
L 433,1603 478,0107
M 428,9705 472,5021
L 368,6924 321,1171
M 368,6924 321,1171
L 367,32 315,1297
M 367,32 315,1297
L 368,1768 310,5825
M 368,1768 310,5825
L 370,5914 306,8101
M 370,5914 306,8101
L 374,3474 304,258
M 374,3474 304,258
L 379,0023 303,3703
M 379,0023 303,3703
L 385,616 305,1176
M 389,9198 310,3603
L 439,507 435,9266
M 439,507 435,9266
L 487,9669 310,3593
M 487,9669 310,3593
L 492,0008 305,1178
M 498,8167 303,3709
L 503,3664 304,2584
M 503,3664 304,2584
L 507,142 306,8098
M 507,142 306,8098
L 509,7007 310,581
M 509,7007 310,581
L 510,5966 315,1267
M 509,7007 310,581
L 509,2783 321,1122
M 507,142 306,8098
L 509,2783 321,1122
M 503,3664 304,2584
L 509,2783 321,1122
M 498,8167 303,3709
L 509,2783 321,1122
M 492,0008 305,1178
L 509,2783 321,1122
M 487,9669 310,3593
L 509,2783 321,1122

"/><path stroke="Purple" stroke-width="1" d="M 766,4317 270,8649
L 774,2597 271,383

"/><path stroke="Purple" stroke-width="1" d="M 638,4227 404,3759
L 641,8626 405,0685
M 635,6156 402,4865
L 638,4227 404,3759
M 633,7267 399,6826
L 635,6156 402,4865
M 766,4317 270,8649
L 769,4982 270,1978
M 763,7258 272,6093
L 766,4317 270,8649
M 769,4982 270,1978
L 774,2597 271,383
M 774,2597 271,383
L 821,4133 298,7813
M 821,4133 298,7813
L 825,0833 302,9484
M 825,0833 302,9484
L 825,5249 308,5054
M 825,5249 308,5054
L 817,8853 350,0016
M 824,0599 474,621
L 823,5239 480,1122
M 819,8045 484,2297
L 772,5684 511,2483
M 772,5684 511,2483
L 767,14 512,3637
M 762,1373 510,0439
L 730,1881 483,3105
M 618,6482 427,4553
L 614,1051 424,2786
M 612,3663 419,0229
L 612,4485 364,6102
M 612,4485 364,6102
L 614,2071 359,3322
M 731,2127 299,7455
L 763,7258 272,6093
M 695,9774 322,8425
L 731,2127 299,7455
M 658,3791 341,7055
L 695,9774 322,8425
M 618,7714 356,1388
L 658,3791 341,7055

"/><path stroke="Purple" stroke-width="1" d="M 614,2071 359,3322
L 618,7714 356,1388

"/><path stroke="Purple" stroke-width="1" d="M 725,9728 428,1029
L 736,3005 429,2543
M 716,5363 424,2617
L 725,9728 428,1029
M 708,4973 418,0212
L 716,5363 424,2617
M 699,13 406,2974
L 702,3633 409,6719
M 694,6128 405,0566
L 695,3751 460,4823
M 694,6128 405,0566
L 658,0701 441,7883
M 641,8626 405,0685
L 658,0701 441,7883
M 641,8626 405,0685
L 618,6482 427,4553
M 638,4227 404,3759
L 618,6482 427,4553
M 635,6156 402,4865
L 618,6482 427,4553
M 635,6156 402,4865
L 612,3663 419,0229
M 612,3663 419,0229
L 618,6482 427,4553
M 633,7267 399,6826
L 612,3663 419,0229

"/><path stroke="Purple" stroke-width="1" d="M 702,3633 409,6719
L 695,3751 460,4823
M 702,3633 409,6719
L 694,6128 405,0566
M 633,0389 396,249
L 612,3663 419,0229
M 633,0389 396,249
L 612,4485 364,6102
M 633,0585 387,4235
L 612,4485 364,6102
M 633,762 383,9867
L 612,4485 364,6102
M 635,6649 381,1799
L 612,4485 364,6102
M 635,6649 381,1799
L 618,7714 356,1388
M 618,7714 356,1388
L 612,4485 364,6102
M 638,4831 379,2865
L 618,7714 356,1388
M 641,9295 378,5919
L 618,7714 356,1388
M 641,9295 378,5919
L 658,3791 341,7055

"/><path stroke="Purple" stroke-width="1" d="M 778,8769 483,3441
L 782,2018 482,2326
M 775,5082 483,1121
L 778,8769 483,3441
M 772,4819 481,6393
L 775,5082 483,1121
M 614,1051 424,2786
L 612,3663 419,0229
M 740,8456 430,3694
L 744,1627 433,6495
M 736,3005 429,2543
L 730,1881 483,3105
M 725,9728 428,1029
L 730,1881 483,3105
M 725,9728 428,1029
L 695,3751 460,4823
M 716,5363 424,2617
L 695,3751 460,4823
M 708,4973 418,0212
L 695,3751 460,4823

"/><path stroke="Purple" stroke-width="1" d="M 794,2766 469,1631
L 793,1859 465,8603
M 794,0151 472,5181
L 794,2766 469,1631
M 792,5104 475,5408
L 794,0151 472,5181
M 789,8678 477,8459
L 772,5684 511,2483
M 782,2018 482,2326
L 772,5684 511,2483
M 778,8769 483,3441
L 772,5684 511,2483
M 775,5082 483,1121
L 772,5684 511,2483
M 658,0701 441,7883
L 618,6482 427,4553
M 695,3751 460,4823
L 658,0701 441,7883
M 730,1881 483,3105
L 695,3751 460,4823
M 770,1849 479,0286
L 762,1373 510,0439
M 770,1849 479,0286
L 730,1881 483,3105
M 744,1627 433,6495
L 730,1881 483,3105
M 744,1627 433,6495
L 736,3005 429,2543

"/><path stroke="Purple" stroke-width="1" d="M 767,3739 411,4252
L 767,1907 420,4394
M 767,14 512,3637
L 762,1373 510,0439

"/><path stroke="Purple" stroke-width="1" d="M 771,7475 381,7002
L 767,6427 372,171
M 773,0665 391,8103
L 771,7475 381,7002
M 771,6061 401,9146
L 773,0665 391,8103
M 766,0374 415,9166
L 767,3739 411,4252
M 767,1907 420,4394
L 771,6061 401,9146
M 767,1907 420,4394
L 817,1699 433,4825
M 817,1699 433,4825
L 771,6061 401,9146
M 793,1859 465,8603
L 817,1699 433,4825
M 793,1859 465,8603
L 824,0599 474,621
M 794,2766 469,1631
L 824,0599 474,621
M 794,0151 472,5181
L 824,0599 474,621
M 794,0151 472,5181
L 819,8045 484,2297
M 819,8045 484,2297
L 824,0599 474,621
M 792,5104 475,5408
L 819,8045 484,2297
M 789,8678 477,8459
L 819,8045 484,2297

"/><path stroke="Purple" stroke-width="1" d="M 793,8088 307,5852
L 791,1864 305,2547
M 795,2748 310,6425
L 793,8088 307,5852
M 795,485 314,035
L 795,2748 310,6425
M 823,5239 480,1122
L 819,8045 484,2297
M 766,3664 367,6667
L 767,5829 363,1255
M 771,7475 381,7002
L 817,8853 350,0016
M 767,5829 363,1255
L 767,6427 372,171
M 771,7475 381,7002
L 815,1057 391,8021
M 773,0665 391,8103
L 815,1057 391,8021
M 771,6061 401,9146
L 815,1057 391,8021

"/><path stroke="Purple" stroke-width="1" d="M 774,8378 300,723
L 771,4028 304,0662
M 783,54 300,8164
L 774,2597 271,383
M 791,1864 305,2547
L 774,2597 271,383
M 791,1864 305,2547
L 821,4133 298,7813
M 793,8088 307,5852
L 821,4133 298,7813
M 795,2748 310,6425
L 821,4133 298,7813
M 817,1699 433,4825
L 824,0599 474,621
M 815,1057 391,8021
L 817,1699 433,4825
M 817,8853 350,0016
L 815,1057 391,8021
M 795,2748 310,6425
L 825,5249 308,5054
M 825,5249 308,5054
L 821,4133 298,7813
M 795,485 314,035
L 825,5249 308,5054
M 794,3369 317,3729
L 825,5249 308,5054

"/><path stroke="Purple" stroke-width="1" d="M 736,734 354,2832
L 744,6699 349,8622

"/><path stroke="Purple" stroke-width="1" d="M 708,7502 365,5772
L 702,5279 373,9551
M 716,8676 359,3076
L 708,7502 365,5772
M 726,3669 355,4438
L 716,8676 359,3076
M 741,3041 353,1604
L 736,734 354,2832
M 744,6699 349,8622
L 731,2127 299,7455
M 771,4028 304,0662
L 731,2127 299,7455
M 771,4028 304,0662
L 763,7258 272,6093
M 774,8378 300,723
L 763,7258 272,6093
M 774,8378 300,723
L 774,2597 271,383
M 774,2597 271,383
L 763,7258 272,6093
M 779,3529 299,6298
L 774,2597 271,383

"/><path stroke="Purple" stroke-width="1" d="M 694,7277 378,5832
L 641,9295 378,5919
M 641,9295 378,5919
L 638,4831 379,2865
M 633,762 383,9867
L 633,0585 387,4235
M 635,6649 381,1799
L 633,762 383,9867
M 638,4831 379,2865
L 635,6649 381,1799
M 633,0585 387,4235
L 633,0389 396,249
M 633,0389 396,249
L 633,7267 399,6826
M 641,8626 405,0685
L 694,6128 405,0566
M 694,6128 405,0566
L 699,13 406,2974
M 702,3633 409,6719
L 708,4973 418,0212
M 736,3005 429,2543
L 740,8456 430,3694
M 744,1627 433,6495
L 770,1849 479,0286
M 770,1849 479,0286
L 772,4819 481,6393
M 782,2018 482,2326
L 789,8678 477,8459
M 789,8678 477,8459
L 792,5104 475,5408
M 793,1859 465,8603
L 767,1907 420,4394
M 767,1907 420,4394
L 766,0374 415,9166
M 767,3739 411,4252
L 771,6061 401,9146
M 767,6427 372,171
L 766,3664 367,6667
M 767,5829 363,1255
L 794,3369 317,3729
M 794,3369 317,3729
L 795,485 314,035
M 791,1864 305,2547
L 783,54 300,8164
M 783,54 300,8164
L 779,3529 299,6298
M 779,3529 299,6298
L 774,8378 300,723
M 771,4028 304,0662
L 744,6699 349,8622
M 744,6699 349,8622
L 741,3041 353,1604
M 736,734 354,2832
L 726,3669 355,4438
M 699,2602 377,3383
L 694,7277 378,5832
M 702,5279 373,9551
L 699,2602 377,3383
M 702,5279 373,9551
L 694,7277 378,5832
M 702,5279 373,9551
L 695,9774 322,8425
M 695,9774 322,8425
L 694,7277 378,5832
M 658,3791 341,7055
L 694,7277 378,5832
M 708,7502 365,5772
L 695,9774 322,8425
M 716,8676 359,3076
L 695,9774 322,8425
M 726,3669 355,4438
L 695,9774 322,8425
M 726,3669 355,4438
L 731,2127 299,7455
M 736,734 354,2832
L 731,2127 299,7455

"/><path stroke="Purple" stroke-width="1" d="M 794,3369 317,3729
L 817,8853 350,0016
M 767,5829 363,1255
L 817,8853 350,0016
M 767,5829 363,1255
L 771,7475 381,7002

"/><path stroke="Purple" stroke-width="1" d="M 775,5082 483,1121
L 767,14 512,3637
M 775,5082 483,1121
L 762,1373 510,0439
M 772,4819 481,6393
L 762,1373 510,0439

"/><path stroke="Purple" stroke-width="1" d="M 872,842 278,2603
L 863,4417 293,4589

"/><path stroke="Purple" stroke-width="1" d="M 861,6537 510,3432
L 850,9417 512,5148
M 870,4825 504,4424
L 861,6537 510,3432
M 876,5061 495,718
L 870,4825 504,4424
M 878,8013 485,0752
L 864,2553 297,9014
M 880,8063 297,9017
L 864,2553 297,9014
M 878,725 287,1138
L 864,2553 297,9014
M 872,842 278,2603
L 864,2553 297,9014
M 878,725 287,1138
L 880,8063 297,9017
M 872,842 278,2603
L 878,725 287,1138
M 864,0652 272,2679
L 872,842 278,2603
M 851,1011 496,174
L 850,9417 512,5148
M 864,0652 272,2679
L 863,4417 293,4589
M 864,0652 272,2679
L 861,1108 289,8939
M 864,0652 272,2679
L 857,5749 287,5226
M 853,3079 270,0643
L 857,5749 287,5226
M 853,3079 270,0643
L 853,1459 286,6613
M 853,3079 270,0643
L 824,9052 286,66

"/><path stroke="Purple" stroke-width="1" d="M 861,459 489,4665
L 862,3564 485,0818
M 859,073 492,9838
L 861,459 489,4665
M 855,5152 495,3232
L 859,073 492,9838
M 851,1011 496,174
L 855,5152 495,3232
M 862,3564 485,0818
L 864,2553 297,9014
M 864,2553 297,9014
L 863,4417 293,4589
M 857,5749 287,5226
L 853,1459 286,6613
M 861,1108 289,8939
L 857,5749 287,5226
M 863,4417 293,4589
L 861,1108 289,8939
M 853,1459 286,6613
L 824,9052 286,66
M 824,9052 286,66
L 796,349 270,0597
M 796,349 270,0597
L 853,3079 270,0643
M 853,3079 270,0643
L 864,0652 272,2679
M 880,8063 297,9017
L 878,8013 485,0752
M 878,8013 485,0752
L 876,5061 495,718
M 850,9417 512,5148
L 794,4557 512,5413
M 794,4557 512,5413
L 823,0632 496,1861
M 823,0632 496,1861
L 851,1011 496,174
M 850,9417 512,5148
L 855,5152 495,3232
M 823,0632 496,1861
L 850,9417 512,5148
M 861,6537 510,3432
L 855,5152 495,3232
M 861,6537 510,3432
L 859,073 492,9838
M 861,6537 510,3432
L 861,459 489,4665
M 870,4825 504,4424
L 861,459 489,4665
M 870,4825 504,4424
L 862,3564 485,0818
M 876,5061 495,718
L 862,3564 485,0818
M 878,8013 485,0752
L 862,3564 485,0818

"/><path stroke="Purple" stroke-width="1" d="M 362,8552 496,385
L 352,2409 510,5798

"/><path stroke="Purple" stroke-width="1" d="M 351,0282 293,4445
L 335,7253 287,0907

"/><path stroke="Purple" stroke-width="1" d="M 358,4336 495,537
L 362,8552 496,385
M 354,8739 493,1981
L 358,4336 495,537
M 352,4918 489,6787
L 354,8739 493,1981
M 351,604 485,2897
L 333,6099 297,8919
M 350,2008 297,8922
L 333,6099 297,8919
M 351,0282 293,4445
L 333,6099 297,8919
M 351,0282 293,4445
L 350,2008 297,8922
M 353,3741 289,8755
L 351,0282 293,4445
M 356,9244 287,5018
L 353,3741 289,8755
M 353,3741 289,8755
L 335,7253 287,0907
M 353,3741 289,8755
L 341,6462 278,227
M 356,9244 287,5018
L 341,6462 278,227
M 356,9244 287,5018
L 350,4598 272,2287
M 361,3656 286,6399
L 350,4598 272,2287
M 361,3656 286,6399
L 361,2476 270,0244
M 728,3578 286,6559
L 361,2476 270,0244

"/><path stroke="Purple" stroke-width="1" d="M 746,9747 512,5636
L 362,9714 512,7438
M 362,9714 512,7438
L 352,2409 510,5798
M 337,3922 495,9505
L 335,1198 485,2964
M 343,4071 504,6801
L 337,3922 495,9505
M 352,2409 510,5798
L 343,4071 504,6801
M 335,1198 485,2964
L 333,6099 297,8919
M 333,6099 297,8919
L 335,7253 287,0907
M 361,2476 270,0244
L 748,4681 270,0558
M 748,4681 270,0558
L 728,3578 286,6559
M 728,3578 286,6559
L 361,3656 286,6399
M 361,3656 286,6399
L 356,9244 287,5018
M 350,2008 297,8922
L 351,604 485,2897
M 351,604 485,2897
L 352,4918 489,6787
M 362,8552 496,385
L 727,2113 496,2275
M 727,2113 496,2275
L 746,9747 512,5636
M 727,2113 496,2275
L 362,9714 512,7438
M 362,8552 496,385
L 362,9714 512,7438
M 350,4598 272,2287
L 361,2476 270,0244
M 341,6462 278,227
L 350,4598 272,2287
M 335,7253 287,0907
L 341,6462 278,227
M 358,4336 495,537
L 352,2409 510,5798
M 358,4336 495,537
L 343,4071 504,6801
M 354,8739 493,1981
L 343,4071 504,6801
M 354,8739 493,1981
L 337,3922 495,9505
M 352,4918 489,6787
L 337,3922 495,9505
M 352,4918 489,6787
L 335,1198 485,2964
M 351,604 485,2897
L 335,1198 485,2964

"/><path stroke="Purple" stroke-width="1" d="M 550,4015 331,1903
L 566,5723 304,342
M 543,424 333,7371
L 532,6536 312,6871

"/><path stroke="Purple" stroke-width="1" d="M 566,4183 478,9724
L 561,9551 479,7962
M 573,5551 315,1254
L 566,5723 304,342
M 573,5551 315,1254
L 570,2307 306,9203

"/><path stroke="Purple" stroke-width="1" d="M 532,2088 334,2641
L 528,4668 331,8564
M 536,7791 335,0662
L 532,2088 334,2641
M 528,4668 331,8564
L 526,0519 328,1189
M 526,0519 328,1189
L 525,2421 323,5488
M 525,2421 323,5488
L 527,0059 317,2327
M 527,0059 317,2327
L 532,6536 312,6871
M 532,6536 312,6871
L 558,0349 304,2586
M 558,0349 304,2586
L 562,0266 303,482
M 562,0266 303,482
L 566,5723 304,342
M 570,2307 306,9203
L 572,7245 310,6356
M 573,5551 315,1254
L 573,5285 468,3896
M 573,5285 468,3896
L 572,6739 472,7766
M 570,1107 476,5047
L 566,4183 478,9724
M 561,9551 479,7962
L 557,5466 478,9759
M 553,7985 476,511
L 551,3163 472,7847
M 550,4868 468,3982
L 550,4015 331,1903
M 550,4015 331,1903
L 543,424 333,7371
M 543,424 333,7371
L 536,7791 335,0662
M 566,5723 304,342
L 570,2307 306,9203
M 536,7791 335,0662
L 532,6536 312,6871
M 543,424 333,7371
L 558,0349 304,2586
M 550,4015 331,1903
L 558,0349 304,2586
M 550,4015 331,1903
L 562,0266 303,482
M 572,7245 310,6356
L 573,5551 315,1254
M 532,6536 312,6871
L 532,2088 334,2641
M 572,6739 472,7766
L 570,1107 476,5047
M 557,5466 478,9759
L 553,7985 476,511
M 550,4015 331,1903
L 573,5551 315,1254
M 550,4868 468,3982
L 561,9551 479,7962
M 561,9551 479,7962
L 573,5285 468,3896
M 573,5285 468,3896
L 550,4015 331,1903
M 553,7985 476,511
L 550,4868 468,3982
M 532,6536 312,6871
L 528,4668 331,8564
M 527,0059 317,2327
L 528,4668 331,8564
M 527,0059 317,2327
L 526,0519 328,1189

"/><path stroke="Purple" stroke-width="1" d="M 551,3163 472,7847
L 550,4868 468,3982
M 561,9551 479,7962
L 550,4015 331,1903
M 557,5466 478,9759
L 550,4868 468,3982
M 566,4183 478,9724
L 573,5285 468,3896
M 570,1107 476,5047
L 573,5285 468,3896

"/>
</svg>
