<?xml version="1.0" encoding="UTF-8"?>
<svg width="1355" height="702" viewBox="0 0 1355 702" fill="none" xmlns="http://www.w3.org/2000/svg">
<path stroke="black" stroke-width="0.1500" d="
M 684.914095 616.699407
A 2.197809 2.197809 0 0 0 680.518476 616.699407
M 684.783708 609.450907
A 1.966859 1.966859 0 0 0 680.849990 609.450907
M 684.653321 602.202406
A 1.735908 1.735908 0 0 0 681.181504 602.202406
M 684.522933 594.953906
A 1.504958 1.504958 0 0 0 681.513018 594.953906
M 684.392546 587.705405
A 1.274007 1.274007 0 0 0 681.844532 587.705405
M 684.262159 580.456905
A 1.043056 1.043056 0 0 0 682.176046 580.456905
M 684.131772 573.208404
A 0.812106 0.812106 0 0 0 682.507561 573.208404
M 684.001385 565.959904
A 0.581155 0.581155 0 0 0 682.839075 565.959904
M 684.170589 558.861199
A 0.500000 0.500000 0 0 0 683.170589 558.861199
M 684.502103 551.843649
A 0.500000 0.500000 0 0 0 683.502103 551.843649
M 683.610224 544.602706
A 0.500000 0.500000 0 0 0 684.610224 544.602706
M 683.479837 537.123255
A 0.500000 0.500000 0 0 0 684.479837 537.123255
M 683.349450 529.717402
A 0.573598 0.573598 0 0 0 684.496645 529.717402
M 683.219063 522.468901
A 0.804548 0.804548 0 0 0 684.828159 522.468901
M 683.088676 515.220401
A 1.035499 1.035499 0 0 0 685.159674 515.220401
M 682.958289 507.971900
A 1.266450 1.266450 0 0 0 685.491188 507.971900
M 682.827901 500.723400
A 1.497400 1.497400 0 0 0 685.822702 500.723400
M 682.697514 493.474900
A 1.728351 1.728351 0 0 0 686.154216 493.474900
M 682.567127 486.226399
A 1.959301 1.959301 0 0 0 686.485730 486.226399
M 682.436740 478.977899
A 2.190252 2.190252 0 0 0 686.817244 478.977899
M 682.306353 471.729398
A 2.421203 2.421203 0 0 0 687.148758 471.729398
M 682.175966 464.480898
A 2.652153 2.652153 0 0 0 687.480273 464.480898
M 682.045579 457.232397
A 2.883104 2.883104 0 0 0 687.811787 457.232397
M 681.915192 449.983897
A 3.114054 3.114054 0 0 0 688.143301 449.983897
M 681.784805 442.735396
A 3.345005 3.345005 0 0 0 688.474815 442.735396
M 681.654418 435.486896
A 3.575956 3.575956 0 0 0 688.806329 435.486896
M 681.524031 428.238396
A 3.806906 3.806906 0 0 0 689.137843 428.238396
M 681.393644 420.989895
A 4.037857 4.037857 0 0 0 689.469357 420.989895
M 681.263257 413.741395
A 4.268807 4.268807 0 0 0 689.800872 413.741395
M 681.132869 406.492894
A 4.499758 4.499758 0 0 0 690.132386 406.492894
M 681.002482 399.244394
A 4.730709 4.730709 0 0 0 690.463900 399.244394
M 680.872095 391.995893
A 4.961659 4.961659 0 0 0 690.795414 391.995893
M 680.741708 384.747393
A 5.192610 5.192610 0 0 0 691.126928 384.747393
M 680.611321 377.498892
A 5.423561 5.423561 0 0 0 691.458442 377.498892
M 680.480934 370.250392
A 5.654511 5.654511 0 0 0 691.789956 370.250392
M 680.350547 363.001892
A 5.885462 5.885462 0 0 0 692.121471 363.001892
M 680.220160 355.753391
A 6.116412 6.116412 0 0 0 692.452985 355.753391
M 680.089773 348.504891
A 6.347363 6.347363 0 0 0 692.784499 348.504891
M 679.959386 341.256390
A 6.578314 6.578314 0 0 0 693.116013 341.256390
M 679.828999 334.007890
A 6.809264 6.809264 0 0 0 693.447527 334.007890
M 679.698612 326.759389
A 7.040215 7.040215 0 0 0 693.779041 326.759389
M 679.568225 319.510889
A 7.271165 7.271165 0 0 0 694.110555 319.510889
M 679.437837 312.262388
A 7.502116 7.502116 0 0 0 694.442069 312.262388
M 679.307450 305.013888
A 7.733067 7.733067 0 0 0 694.773584 305.013888
M 679.177063 297.765388
A 7.964017 7.964017 0 0 0 695.105098 297.765388
M 679.046676 290.516887
A 8.194968 8.194968 0 0 0 695.436612 290.516887
M 678.916289 283.268387
A 8.425918 8.425918 0 0 0 695.768126 283.268387
M 678.785902 276.019886
A 8.656869 8.656869 0 0 0 696.099640 276.019886
M 678.655515 268.771386
A 8.887820 8.887820 0 0 0 696.431154 268.771386
M 678.525128 261.522885
A 9.118770 9.118770 0 0 0 696.762668 261.522885
M 678.394741 254.274385
A 9.349721 9.349721 0 0 0 697.094183 254.274385
M 678.264354 247.025884
A 9.580671 9.580671 0 0 0 697.425697 247.025884
M 678.133967 239.777384
A 9.811622 9.811622 0 0 0 697.757211 239.777384
M 678.003580 232.528884
A 10.042573 10.042573 0 0 0 698.088725 232.528884
M 677.873193 225.280383
A 10.273523 10.273523 0 0 0 698.420239 225.280383
M 677.742805 218.031883
A 10.504474 10.504474 0 0 0 698.751753 218.031883
M 677.612418 210.783382
A 10.735424 10.735424 0 0 0 699.083267 210.783382
M 677.482031 203.534882
A 10.966375 10.966375 0 0 0 699.414782 203.534882
M 677.351644 196.286381
A 11.197326 11.197326 0 0 0 699.746296 196.286381
M 677.221257 189.037881
A 11.428276 11.428276 0 0 0 700.077810 189.037881
M 677.090870 181.789380
A 11.659227 11.659227 0 0 0 700.409324 181.789380
M 676.960483 174.540880
A 11.890178 11.890178 0 0 0 700.740838 174.540880
M 681.317839 176.590594
A 13.067410 13.067410 0 0 0 707.452660 176.590594
M 685.675196 178.640308
A 14.244643 14.244643 0 0 0 714.164482 178.640308
M 690.032552 180.690023
A 15.421876 15.421876 0 0 0 720.876304 180.690023
M 694.389908 182.739737
A 16.599109 16.599109 0 0 0 727.588126 182.739737
M 698.747264 184.789451
A 17.776342 17.776342 0 0 0 734.299948 184.789451
M 703.104621 186.839166
A 18.953575 18.953575 0 0 0 741.011771 186.839166
M 707.461977 188.888880
A 20.130808 20.130808 0 0 0 747.723593 188.888880
M 711.819333 190.938594
A 21.308041 21.308041 0 0 0 754.435415 190.938594
M 716.176689 192.988308
A 22.485274 22.485274 0 0 0 761.147237 192.988308
M 720.534046 195.038023
A 23.662507 23.662507 0 0 0 767.859059 195.038023
M 724.891402 197.087737
A 24.839739 24.839739 0 0 0 774.570881 197.087737
M 729.248758 199.137451
A 26.016972 26.016972 0 0 0 781.282703 199.137451
M 733.606115 201.187165
A 27.194205 27.194205 0 0 0 787.994525 201.187165
M 737.963471 203.236880
A 28.371438 28.371438 0 0 0 794.706347 203.236880
M 742.320827 205.286594
A 29.548671 29.548671 0 0 0 801.418169 205.286594
M 746.678183 207.336308
A 30.725904 30.725904 0 0 0 808.129991 207.336308
M 751.035540 209.386022
A 31.903137 31.903137 0 0 0 814.841813 209.386022
M 755.392896 211.435737
A 33.080370 33.080370 0 0 0 821.553635 211.435737
M 759.750252 213.485451
A 34.257603 34.257603 0 0 0 828.265458 213.485451
M 764.107608 215.535165
A 35.434836 35.434836 0 0 0 834.977280 215.535165
M 768.464965 217.584879
A 36.612069 36.612069 0 0 0 841.689102 217.584879
M 772.822321 219.634594
A 37.789301 37.789301 0 0 0 848.400924 219.634594
M 777.179677 221.684308
A 38.966534 38.966534 0 0 0 855.112746 221.684308
M 781.537033 223.734022
A 40.143767 40.143767 0 0 0 861.824568 223.734022
M 785.894390 225.783736
A 41.321000 41.321000 0 0 0 868.536390 225.783736
M 790.251746 227.833451
A 42.498233 42.498233 0 0 0 875.248212 227.833451
M 794.609102 229.883165
A 43.675466 43.675466 0 0 0 881.960034 229.883165
M 798.966459 231.932879
A 44.852699 44.852699 0 0 0 888.671856 231.932879
M 803.323815 233.982594
A 46.029932 46.029932 0 0 0 895.383678 233.982594
M 807.681171 236.032308
A 47.207165 47.207165 0 0 0 902.095500 236.032308
M 812.038527 238.082022
A 48.384398 48.384398 0 0 0 908.807322 238.082022
M 816.395884 240.131736
A 49.561630 49.561630 0 0 0 915.519145 240.131736
M 820.753240 242.181451
A 50.738863 50.738863 0 0 0 922.230967 242.181451
M 825.110596 244.231165
A 51.916096 51.916096 0 0 0 928.942789 244.231165
M 829.467952 246.280879
A 53.093329 53.093329 0 0 0 935.654611 246.280879
M 833.825309 248.330593
A 54.270562 54.270562 0 0 0 942.366433 248.330593
M 838.182665 250.380308
A 55.447795 55.447795 0 0 0 949.078255 250.380308
M 842.540021 252.430022
A 56.625028 56.625028 0 0 0 955.790077 252.430022
M 846.897377 254.479736
A 57.802261 57.802261 0 0 0 962.501899 254.479736
M 851.254734 256.529450
A 58.979494 58.979494 0 0 0 969.213721 256.529450
M 855.612090 258.579165
A 60.156727 60.156727 0 0 0 975.925543 258.579165
M 859.969446 260.628879
A 61.333960 61.333960 0 0 0 982.637365 260.628879
M 864.326803 262.678593
A 62.511192 62.511192 0 0 0 989.349187 262.678593
M 868.684159 264.728307
A 63.688425 63.688425 0 0 0 996.061009 264.728307
M 873.041515 266.778022
A 64.865658 64.865658 0 0 0 1002.772832 266.778022
M 877.398871 268.827736
A 66.042891 66.042891 0 0 0 1009.484654 268.827736
M 881.756228 270.877450
A 67.220124 67.220124 0 0 0 1016.196476 270.877450
M 886.113584 272.927165
A 68.397357 68.397357 0 0 0 1022.908298 272.927165
M 890.470940 274.976879
A 69.574590 69.574590 0 0 0 1029.620120 274.976879
M 894.828296 277.026593
A 70.751823 70.751823 0 0 0 1036.331942 277.026593
M 899.185653 279.076307
A 71.929056 71.929056 0 0 0 1043.043764 279.076307
M 903.543009 281.126022
A 73.106289 73.106289 0 0 0 1049.755586 281.126022
M 907.900365 283.175736
A 74.283521 74.283521 0 0 0 1056.467408 283.175736
M 912.257721 285.225450
A 75.460754 75.460754 0 0 0 1063.179230 285.225450
M 916.615078 287.275164
A 76.637987 76.637987 0 0 0 1069.891052 287.275164
M 920.972434 289.324879
A 77.815220 77.815220 0 0 0 1076.602874 289.324879
M 925.329790 291.374593
A 78.992453 78.992453 0 0 0 1083.314696 291.374593
M 929.687147 293.424307
A 80.169686 80.169686 0 0 0 1090.026519 293.424307
M 934.044503 295.474021
A 81.346919 81.346919 0 0 0 1096.738341 295.474021
M 938.401859 297.523736
A 82.524152 82.524152 0 0 0 1103.450163 297.523736
M 942.759215 299.573450
A 83.701385 83.701385 0 0 0 1110.161985 299.573450
M 942.951677 306.139323
A 83.513567 83.513567 0 0 0 1109.978811 306.139323
M 943.144138 312.705196
A 83.325750 83.325750 0 0 0 1109.795638 312.705196
M 943.336599 319.271069
A 83.137933 83.137933 0 0 0 1109.612464 319.271069
M 943.529060 325.836942
A 82.950115 82.950115 0 0 0 1109.429291 325.836942
M 943.721522 332.402815
A 82.762298 82.762298 0 0 0 1109.246118 332.402815
M 943.913983 338.968688
A 82.574481 82.574481 0 0 0 1109.062944 338.968688
M 944.106444 345.534561
A 82.386663 82.386663 0 0 0 1108.879771 345.534561
M 944.298905 352.100434
A 82.198846 82.198846 0 0 0 1108.696597 352.100434
M 944.491367 358.666307
A 82.011029 82.011029 0 0 0 1108.513424 358.666307
M 944.683828 365.232180
A 81.823211 81.823211 0 0 0 1108.330250 365.232180
M 944.876289 371.798053
A 81.635394 81.635394 0 0 0 1108.147077 371.798053
M 945.068750 378.363926
A 81.447577 81.447577 0 0 0 1107.963904 378.363926
M 945.261212 384.929799
A 81.259759 81.259759 0 0 0 1107.780730 384.929799
M 945.453673 391.495672
A 81.071942 81.071942 0 0 0 1107.597557 391.495672
M 945.646134 398.061545
A 80.884125 80.884125 0 0 0 1107.414383 398.061545
M 945.838595 404.627418
A 80.696307 80.696307 0 0 0 1107.231210 404.627418
M 946.031057 411.193290
A 80.508490 80.508490 0 0 0 1107.048036 411.193290
M 946.223518 417.759163
A 80.320673 80.320673 0 0 0 1106.864863 417.759163
M 946.415979 424.325036
A 80.132855 80.132855 0 0 0 1106.681690 424.325036
M 946.608440 430.890909
A 79.945038 79.945038 0 0 0 1106.498516 430.890909
M 946.800902 437.456782
A 79.757221 79.757221 0 0 0 1106.315343 437.456782
M 946.993363 444.022655
A 79.569403 79.569403 0 0 0 1106.132169 444.022655
M 947.185824 450.588528
A 79.381586 79.381586 0 0 0 1105.948996 450.588528
M 947.378285 457.154401
A 79.193769 79.193769 0 0 0 1105.765822 457.154401
M 947.570747 463.720274
A 79.005951 79.005951 0 0 0 1105.582649 463.720274
M 947.763208 470.286147
A 78.818134 78.818134 0 0 0 1105.399476 470.286147
M 947.955669 476.852020
A 78.630317 78.630317 0 0 0 1105.216302 476.852020
M 948.148130 483.417893
A 78.442499 78.442499 0 0 0 1105.033129 483.417893
M 948.340592 489.983766
A 78.254682 78.254682 0 0 0 1104.849955 489.983766
M 948.533053 496.549639
A 78.066865 78.066865 0 0 0 1104.666782 496.549639
M 948.725514 503.115512
A 77.879047 77.879047 0 0 0 1104.483608 503.115512
M 948.917975 509.681385
A 77.691230 77.691230 0 0 0 1104.300435 509.681385
M 949.110437 516.247258
A 77.503412 77.503412 0 0 0 1104.117262 516.247258
M 949.302898 522.813131
A 77.315595 77.315595 0 0 0 1103.934088 522.813131
M 949.495359 529.379004
A 77.127778 77.127778 0 0 0 1103.750915 529.379004
M 949.687820 535.944877
A 76.939960 76.939960 0 0 0 1103.567741 535.944877
M 949.880282 542.510750
A 76.752143 76.752143 0 0 0 1103.384568 542.510750
M 950.072743 549.076623
A 76.564326 76.564326 0 0 0 1103.201394 549.076623
M 950.265204 555.642496
A 76.376508 76.376508 0 0 0 1103.018221 555.642496
M 950.457665 562.208369
A 76.188691 76.188691 0 0 0 1102.835048 562.208369
M 950.650127 568.774242
A 76.000874 76.000874 0 0 0 1102.651874 568.774242
M 950.842588 575.340115
A 75.813056 75.813056 0 0 0 1102.468701 575.340115
M 951.035049 581.905988
A 75.625239 75.625239 0 0 0 1102.285527 581.905988
M 951.227510 588.471861
A 75.437422 75.437422 0 0 0 1102.102354 588.471861
M 951.419972 595.037734
A 75.249604 75.249604 0 0 0 1101.919180 595.037734
M 951.612433 601.603607
A 75.061787 75.061787 0 0 0 1101.736007 601.603607
M 951.804894 608.169480
A 74.873970 74.873970 0 0 0 1101.552834 608.169480
M 951.997355 614.735353
A 74.686152 74.686152 0 0 0 1101.369660 614.735353
M 952.189817 621.301226
A 74.498335 74.498335 0 0 0 1101.186487 621.301226
M 952.382278 627.867099
A 74.310518 74.310518 0 0 0 1101.003313 627.867099
M 952.574739 634.432972
A 74.122700 74.122700 0 0 0 1100.820140 634.432972
M 952.767200 640.998845
A 73.934883 73.934883 0 0 0 1100.636966 640.998845
M 952.959662 647.564718
A 73.747066 73.747066 0 0 0 1100.453793 647.564718
M 953.152123 654.130591
A 73.559248 73.559248 0 0 0 1100.270620 654.130591
M 953.344584 660.696464
A 73.371431 73.371431 0 0 0 1100.087446 660.696464
M 953.537045 667.262337
A 73.183614 73.183614 0 0 0 1099.904273 667.262337
M 953.729507 673.828210
A 72.995796 72.995796 0 0 0 1099.721099 673.828210
M 953.921968 680.394082
A 72.807979 72.807979 0 0 0 1099.537926 680.394082
M 954.114429 686.959955
A 72.620162 72.620162 0 0 0 1099.354752 686.959955
M 954.306890 693.525828
A 72.432344 72.432344 0 0 0 1099.171579 693.525828
M 954.499352 700.091701
A 72.244527 72.244527 0 0 0 1098.988406 700.091701
M 689.333525 618.066494
A 0.977443 0.977443 0 0 0 687.378638 618.066494
M 693.752956 619.690658
A 0.500000 0.500000 0 0 0 694.752956 619.690658
M 698.172386 620.800668
A 1.463289 1.463289 0 0 0 701.098964 620.800668
M 702.591816 622.167754
A 2.683655 2.683655 0 0 0 707.959127 622.167754
M 707.011247 623.534841
A 3.904021 3.904021 0 0 0 714.819290 623.534841
M 711.430677 624.901928
A 5.124388 5.124388 0 0 0 721.679452 624.901928
M 715.850108 626.269015
A 6.344754 6.344754 0 0 0 728.539615 626.269015
M 720.269538 627.636101
A 7.565120 7.565120 0 0 0 735.399778 627.636101
M 724.688969 629.003188
A 8.785486 8.785486 0 0 0 742.259941 629.003188
M 729.108399 630.370275
A 10.005852 10.005852 0 0 0 749.120104 630.370275
M 733.527830 631.737362
A 11.226218 11.226218 0 0 0 755.980266 631.737362
M 737.947260 633.104449
A 12.446585 12.446585 0 0 0 762.840429 633.104449
M 742.366690 634.471535
A 13.666951 13.666951 0 0 0 769.700592 634.471535
M 746.786121 635.838622
A 14.887317 14.887317 0 0 0 776.560755 635.838622
M 751.205551 637.205709
A 16.107683 16.107683 0 0 0 783.420917 637.205709
M 755.624982 638.572796
A 17.328049 17.328049 0 0 0 790.281080 638.572796
M 760.044412 639.939883
A 18.548415 18.548415 0 0 0 797.141243 639.939883
M 764.463843 641.306969
A 19.768782 19.768782 0 0 0 804.001406 641.306969
M 768.883273 642.674056
A 20.989148 20.989148 0 0 0 810.861569 642.674056
M 773.302704 644.041143
A 22.209514 22.209514 0 0 0 817.721731 644.041143
M 777.722134 645.408230
A 23.429880 23.429880 0 0 0 824.581894 645.408230
M 782.141564 646.775317
A 24.650246 24.650246 0 0 0 831.442057 646.775317
M 786.560995 648.142403
A 25.870612 25.870612 0 0 0 838.302220 648.142403
M 790.980425 649.509490
A 27.090979 27.090979 0 0 0 845.162383 649.509490
M 795.399856 650.876577
A 28.311345 28.311345 0 0 0 852.022545 650.876577
M 799.819286 652.243664
A 29.531711 29.531711 0 0 0 858.882708 652.243664
M 804.238717 653.610750
A 30.752077 30.752077 0 0 0 865.742871 653.610750
M 808.658147 654.977837
A 31.972443 31.972443 0 0 0 872.603034 654.977837
M 813.077578 656.344924
A 33.192809 33.192809 0 0 0 879.463196 656.344924
M 817.497008 657.712011
A 34.413176 34.413176 0 0 0 886.323359 657.712011
M 821.916438 659.079098
A 35.633542 35.633542 0 0 0 893.183522 659.079098
M 826.335869 660.446184
A 36.853908 36.853908 0 0 0 900.043685 660.446184
M 830.755299 661.813271
A 38.074274 38.074274 0 0 0 906.903848 661.813271
M 835.174730 663.180358
A 39.294640 39.294640 0 0 0 913.764010 663.180358
M 839.594160 664.547445
A 40.515007 40.515007 0 0 0 920.624173 664.547445
M 844.013591 665.914532
A 41.735373 41.735373 0 0 0 927.484336 665.914532
M 848.433021 667.281618
A 42.955739 42.955739 0 0 0 934.344499 667.281618
M 852.852451 668.648705
A 44.176105 44.176105 0 0 0 941.204662 668.648705
M 857.271882 670.015792
A 45.396471 45.396471 0 0 0 948.064824 670.015792
M 861.691312 671.382879
A 46.616837 46.616837 0 0 0 954.924987 671.382879
M 866.110743 672.749966
A 47.837204 47.837204 0 0 0 961.785150 672.749966
M 870.530173 674.117052
A 49.057570 49.057570 0 0 0 968.645313 674.117052
M 874.949604 675.484139
A 50.277936 50.277936 0 0 0 975.505475 675.484139
M 879.369034 676.851226
A 51.498302 51.498302 0 0 0 982.365638 676.851226
M 883.788465 678.218313
A 52.718668 52.718668 0 0 0 989.225801 678.218313
M 888.207895 679.585400
A 53.939034 53.939034 0 0 0 996.085964 679.585400
M 892.627325 680.952486
A 55.159401 55.159401 0 0 0 1002.946127 680.952486
M 897.046756 682.319573
A 56.379767 56.379767 0 0 0 1009.806289 682.319573
M 901.466186 683.686660
A 57.600133 57.600133 0 0 0 1016.666452 683.686660
M 905.885617 685.053747
A 58.820499 58.820499 0 0 0 1023.526615 685.053747
M 910.305047 686.420833
A 60.040865 60.040865 0 0 0 1030.386778 686.420833
M 914.724478 687.787920
A 61.261231 61.261231 0 0 0 1037.246941 687.787920
M 919.143908 689.155007
A 62.481598 62.481598 0 0 0 1044.107103 689.155007
M 923.563339 690.522094
A 63.701964 63.701964 0 0 0 1050.967266 690.522094
M 927.982769 691.889181
A 64.922330 64.922330 0 0 0 1057.827429 691.889181
M 932.402199 693.256267
A 66.142696 66.142696 0 0 0 1064.687592 693.256267
M 936.821630 694.623354
A 67.363062 67.363062 0 0 0 1071.547754 694.623354
M 941.241060 695.990441
A 68.583428 68.583428 0 0 0 1078.407917 695.990441
M 945.660491 697.357528
A 69.803795 69.803795 0 0 0 1085.268080 697.357528
M 950.079921 698.724615
A 71.024161 71.024161 0 0 0 1092.128243 698.724615
M 949.159725 297.246720
A 82.365050 82.365050 0 0 0 1113.889826 297.246720
M 955.560235 294.919989
A 81.028716 81.028716 0 0 0 1117.617667 294.919989
M 961.960744 292.593259
A 79.692382 79.692382 0 0 0 1121.345508 292.593259
M 968.361254 290.266529
A 78.356048 78.356048 0 0 0 1125.073349 290.266529
M 974.761764 287.939799
A 77.019713 77.019713 0 0 0 1128.801190 287.939799
M 981.162273 285.613068
A 75.683379 75.683379 0 0 0 1132.529031 285.613068
M 987.562783 283.286338
A 74.347045 74.347045 0 0 0 1136.256872 283.286338
M 993.963292 280.959608
A 73.010710 73.010710 0 0 0 1139.984713 280.959608
M 1000.363802 278.632878
A 71.674376 71.674376 0 0 0 1143.712555 278.632878
M 1006.764312 276.306147
A 70.338042 70.338042 0 0 0 1147.440396 276.306147
M 1013.164821 273.979417
A 69.001708 69.001708 0 0 0 1151.168237 273.979417
M 1019.565331 271.652687
A 67.665373 67.665373 0 0 0 1154.896078 271.652687
M 1025.965841 269.325957
A 66.329039 66.329039 0 0 0 1158.623919 269.325957
M 1032.366350 266.999226
A 64.992705 64.992705 0 0 0 1162.351760 266.999226
M 1038.766860 264.672496
A 63.656371 63.656371 0 0 0 1166.079601 264.672496
M 1045.167370 262.345766
A 62.320036 62.320036 0 0 0 1169.807442 262.345766
M 1051.567879 260.019035
A 60.983702 60.983702 0 0 0 1173.535283 260.019035
M 1057.968389 257.692305
A 59.647368 59.647368 0 0 0 1177.263124 257.692305
M 1064.368899 255.365575
A 58.311033 58.311033 0 0 0 1180.990965 255.365575
M 1070.769408 253.038845
A 56.974699 56.974699 0 0 0 1184.718807 253.038845
M 1077.169918 250.712114
A 55.638365 55.638365 0 0 0 1188.446648 250.712114
M 1083.570427 248.385384
A 54.302031 54.302031 0 0 0 1192.174489 248.385384
M 1089.970937 246.058654
A 52.965696 52.965696 0 0 0 1195.902330 246.058654
M 1096.371447 243.731924
A 51.629362 51.629362 0 0 0 1199.630171 243.731924
M 1102.771956 241.405193
A 50.293028 50.293028 0 0 0 1203.358012 241.405193
M 1109.172466 239.078463
A 48.956694 48.956694 0 0 0 1207.085853 239.078463
M 1115.572976 236.751733
A 47.620359 47.620359 0 0 0 1210.813694 236.751733
M 1121.973485 234.425003
A 46.284025 46.284025 0 0 0 1214.541535 234.425003
M 1128.373995 232.098272
A 44.947691 44.947691 0 0 0 1218.269376 232.098272
M 1134.774505 229.771542
A 43.611356 43.611356 0 0 0 1221.997217 229.771542
M 1141.175014 227.444812
A 42.275022 42.275022 0 0 0 1225.725059 227.444812
M 1147.575524 225.118082
A 40.938688 40.938688 0 0 0 1229.452900 225.118082
M 1153.976033 222.791351
A 39.602354 39.602354 0 0 0 1233.180741 222.791351
M 1160.376543 220.464621
A 38.266019 38.266019 0 0 0 1236.908582 220.464621
M 1166.777053 218.137891
A 36.929685 36.929685 0 0 0 1240.636423 218.137891
M 1173.177562 215.811161
A 35.593351 35.593351 0 0 0 1244.364264 215.811161
M 1179.578072 213.484430
A 34.257016 34.257016 0 0 0 1248.092105 213.484430
M 1185.978582 211.157700
A 32.920682 32.920682 0 0 0 1251.819946 211.157700
M 1192.379091 208.830970
A 31.584348 31.584348 0 0 0 1255.547787 208.830970
M 1198.779601 206.504239
A 30.248014 30.248014 0 0 0 1259.275628 206.504239
M 1205.180111 204.177509
A 28.911679 28.911679 0 0 0 1263.003469 204.177509
M 1211.580620 201.850779
A 27.575345 27.575345 0 0 0 1266.731310 201.850779
M 1217.981130 199.524049
A 26.239011 26.239011 0 0 0 1270.459152 199.524049
M 1224.381640 197.197318
A 24.902677 24.902677 0 0 0 1274.186993 197.197318
M 1230.782149 194.870588
A 23.566342 23.566342 0 0 0 1277.914834 194.870588
M 1237.182659 192.543858
A 22.230008 22.230008 0 0 0 1281.642675 192.543858
M 1243.583168 190.217128
A 20.893674 20.893674 0 0 0 1285.370516 190.217128
M 1249.983678 187.890397
A 19.557339 19.557339 0 0 0 1289.098357 187.890397
M 1256.384188 185.563667
A 18.221005 18.221005 0 0 0 1292.826198 185.563667
M 1262.784697 183.236937
A 16.884671 16.884671 0 0 0 1296.554039 183.236937
M 1269.185207 180.910207
A 15.548337 15.548337 0 0 0 1300.281880 180.910207
M 1275.585717 178.583476
A 14.212002 14.212002 0 0 0 1304.009721 178.583476
M 1281.986226 176.256746
A 12.875668 12.875668 0 0 0 1307.737562 176.256746
M 1288.386736 173.930016
A 11.539334 11.539334 0 0 0 1311.465404 173.930016
M 1294.787246 171.603286
A 10.203000 10.203000 0 0 0 1315.193245 171.603286
M 1301.187755 169.276555
A 8.866665 8.866665 0 0 0 1318.921086 169.276555
M 1307.588265 166.949825
A 7.530331 7.530331 0 0 0 1322.648927 166.949825
M 1313.988774 164.623095
A 6.193997 6.193997 0 0 0 1326.376768 164.623095
M 1320.389284 162.296365
A 4.857662 4.857662 0 0 0 1330.104609 162.296365
M 1326.789794 159.969634
A 3.521328 3.521328 0 0 0 1333.832450 159.969634
M 1333.190303 157.642904
A 2.184994 2.184994 0 0 0 1337.560291 157.642904
M 1333.530685 164.983270
A 1.947866 1.947866 0 0 0 1337.426416 164.983270
M 1333.871067 172.323637
A 1.710737 1.710737 0 0 0 1337.292542 172.323637
M 1334.211449 179.664003
A 1.473609 1.473609 0 0 0 1337.158667 179.664003
M 1334.551831 187.004370
A 1.236481 1.236481 0 0 0 1337.024792 187.004370
M 1334.892212 194.344736
A 0.999352 0.999352 0 0 0 1336.890917 194.344736
M 1335.232594 201.685103
A 0.762224 0.762224 0 0 0 1336.757042 201.685103
M 1335.572976 209.025469
A 0.525096 0.525096 0 0 0 1336.623168 209.025469
M 1335.913358 216.577868
A 0.500000 0.500000 0 0 0 1336.913358 216.577868
M 1336.253740 224.155363
A 0.500000 0.500000 0 0 0 1337.253740 224.155363
M 1337.221543 231.360279
A 0.500000 0.500000 0 0 0 1336.221543 231.360279
M 1337.087668 238.463517
A 0.500000 0.500000 0 0 0 1336.087668 238.463517
M 1337.274885 245.727301
A 0.660546 0.660546 0 0 0 1335.953794 245.727301
M 1337.615267 253.067668
A 0.897674 0.897674 0 0 0 1335.819919 253.067668
M 1337.955648 260.408034
A 1.134802 1.134802 0 0 0 1335.686044 260.408034
M 1338.296030 267.748400
A 1.371930 1.371930 0 0 0 1335.552169 267.748400
M 1338.636412 275.088767
A 1.609059 1.609059 0 0 0 1335.418295 275.088767
M 1338.976794 282.429133
A 1.846187 1.846187 0 0 0 1335.284420 282.429133
M 1339.317176 289.769500
A 2.083315 2.083315 0 0 0 1335.150545 289.769500
M 1339.657557 297.109866
A 2.320444 2.320444 0 0 0 1335.016670 297.109866
M 1339.997939 304.450233
A 2.557572 2.557572 0 0 0 1334.882795 304.450233
M 1340.338321 311.790599
A 2.794700 2.794700 0 0 0 1334.748921 311.790599
M 1340.678703 319.130965
A 3.031829 3.031829 0 0 0 1334.615046 319.130965
M 1341.019085 326.471332
A 3.268957 3.268957 0 0 0 1334.481171 326.471332
M 1341.359466 333.811698
A 3.506085 3.506085 0 0 0 1334.347296 333.811698
M 1341.699848 341.152065
A 3.743213 3.743213 0 0 0 1334.213421 341.152065
M 1342.040230 348.492431
A 3.980342 3.980342 0 0 0 1334.079547 348.492431
M 1342.380612 355.832798
A 4.217470 4.217470 0 0 0 1333.945672 355.832798
M 1342.720994 363.173164
A 4.454598 4.454598 0 0 0 1333.811797 363.173164
M 1343.061375 370.513531
A 4.691727 4.691727 0 0 0 1333.677922 370.513531
M 1343.401757 377.853897
A 4.928855 4.928855 0 0 0 1333.544047 377.853897
M 1343.742139 385.194263
A 5.165983 5.165983 0 0 0 1333.410173 385.194263
M 1344.082521 392.534630
A 5.403111 5.403111 0 0 0 1333.276298 392.534630
M 1344.422902 399.874996
A 5.640240 5.640240 0 0 0 1333.142423 399.874996
M 1344.763284 407.215363
A 5.877368 5.877368 0 0 0 1333.008548 407.215363
M 1345.103666 414.555729
A 6.114496 6.114496 0 0 0 1332.874673 414.555729
M 1345.444048 421.896096
A 6.351625 6.351625 0 0 0 1332.740799 421.896096
M 1345.784430 429.236462
A 6.588753 6.588753 0 0 0 1332.606924 429.236462
M 1346.124811 436.576828
A 6.825881 6.825881 0 0 0 1332.473049 436.576828
M 1346.465193 443.917195
A 7.063009 7.063009 0 0 0 1332.339174 443.917195
M 1346.805575 451.257561
A 7.300138 7.300138 0 0 0 1332.205299 451.257561
M 1347.145957 458.597928
A 7.537266 7.537266 0 0 0 1332.071425 458.597928
M 1347.486339 465.938294
A 7.774394 7.774394 0 0 0 1331.937550 465.938294
M 1347.826720 473.278661
A 8.011523 8.011523 0 0 0 1331.803675 473.278661
M 1348.167102 480.619027
A 8.248651 8.248651 0 0 0 1331.669800 480.619027
M 1348.507484 487.959393
A 8.485779 8.485779 0 0 0 1331.535926 487.959393
M 1348.847866 495.299760
A 8.722908 8.722908 0 0 0 1331.402051 495.299760
M 1349.188248 502.640126
A 8.960036 8.960036 0 0 0 1331.268176 502.640126
M 1349.528629 509.980493
A 9.197164 9.197164 0 0 0 1331.134301 509.980493
M 1349.869011 517.320859
A 9.434292 9.434292 0 0 0 1331.000426 517.320859
M 1350.209393 524.661226
A 9.671421 9.671421 0 0 0 1330.866552 524.661226
M 1350.549775 532.001592
A 9.908549 9.908549 0 0 0 1330.732677 532.001592
M 1350.890156 539.341958
A 10.145677 10.145677 0 0 0 1330.598802 539.341958
M 1351.230538 546.682325
A 10.382806 10.382806 0 0 0 1330.464927 546.682325
M 1351.570920 554.022691
A 10.619934 10.619934 0 0 0 1330.331052 554.022691
M 1351.911302 561.363058
A 10.857062 10.857062 0 0 0 1330.197178 561.363058
M 1352.251684 568.703424
A 11.094190 11.094190 0 0 0 1330.063303 568.703424
M 1352.592065 576.043791
A 11.331319 11.331319 0 0 0 1329.929428 576.043791
M 1352.932447 583.384157
A 11.568447 11.568447 0 0 0 1329.795553 583.384157
M 1353.272829 590.724523
A 11.805575 11.805575 0 0 0 1329.661678 590.724523
M 1353.613211 598.064890
A 12.042704 12.042704 0 0 0 1329.527804 598.064890
M 1353.953593 605.405256
A 12.279832 12.279832 0 0 0 1329.393929 605.405256
M 961.047782 698.539465
A 70.858882 70.858882 0 0 0 1102.765545 698.539465
M 967.596212 696.987228
A 69.473237 69.473237 0 0 0 1106.542685 696.987228
M 974.144642 695.434991
A 68.087591 68.087591 0 0 0 1110.319825 695.434991
M 980.693072 693.882754
A 66.701946 66.701946 0 0 0 1114.096965 693.882754
M 987.241503 692.330517
A 65.316301 65.316301 0 0 0 1117.874104 692.330517
M 993.789933 690.778281
A 63.930656 63.930656 0 0 0 1121.651244 690.778281
M 1000.338363 689.226044
A 62.545010 62.545010 0 0 0 1125.428384 689.226044
M 1006.886793 687.673807
A 61.159365 61.159365 0 0 0 1129.205523 687.673807
M 1013.435223 686.121570
A 59.773720 59.773720 0 0 0 1132.982663 686.121570
M 1019.983653 684.569333
A 58.388075 58.388075 0 0 0 1136.759803 684.569333
M 1026.532084 683.017097
A 57.002429 57.002429 0 0 0 1140.536943 683.017097
M 1033.080514 681.464860
A 55.616784 55.616784 0 0 0 1144.314082 681.464860
M 1039.628944 679.912623
A 54.231139 54.231139 0 0 0 1148.091222 679.912623
M 1046.177374 678.360386
A 52.845494 52.845494 0 0 0 1151.868362 678.360386
M 1052.725804 676.808149
A 51.459849 51.459849 0 0 0 1155.645502 676.808149
M 1059.274235 675.255913
A 50.074203 50.074203 0 0 0 1159.422641 675.255913
M 1065.822665 673.703676
A 48.688558 48.688558 0 0 0 1163.199781 673.703676
M 1072.371095 672.151439
A 47.302913 47.302913 0 0 0 1166.976921 672.151439
M 1078.919525 670.599202
A 45.917268 45.917268 0 0 0 1170.754060 670.599202
M 1085.467955 669.046965
A 44.531622 44.531622 0 0 0 1174.531200 669.046965
M 1092.016385 667.494728
A 43.145977 43.145977 0 0 0 1178.308340 667.494728
M 1098.564816 665.942492
A 41.760332 41.760332 0 0 0 1182.085480 665.942492
M 1105.113246 664.390255
A 40.374687 40.374687 0 0 0 1185.862619 664.390255
M 1111.661676 662.838018
A 38.989042 38.989042 0 0 0 1189.639759 662.838018
M 1118.210106 661.285781
A 37.603396 37.603396 0 0 0 1193.416899 661.285781
M 1124.758536 659.733544
A 36.217751 36.217751 0 0 0 1197.194038 659.733544
M 1131.306967 658.181308
A 34.832106 34.832106 0 0 0 1200.971178 658.181308
M 1137.855397 656.629071
A 33.446461 33.446461 0 0 0 1204.748318 656.629071
M 1144.403827 655.076834
A 32.060815 32.060815 0 0 0 1208.525458 655.076834
M 1150.952257 653.524597
A 30.675170 30.675170 0 0 0 1212.302597 653.524597
M 1157.500687 651.972360
A 29.289525 29.289525 0 0 0 1216.079737 651.972360
M 1164.049117 650.420124
A 27.903880 27.903880 0 0 0 1219.856877 650.420124
M 1170.597548 648.867887
A 26.518234 26.518234 0 0 0 1223.634017 648.867887
M 1177.145978 647.315650
A 25.132589 25.132589 0 0 0 1227.411156 647.315650
M 1183.694408 645.763413
A 23.746944 23.746944 0 0 0 1231.188296 645.763413
M 1190.242838 644.211176
A 22.361299 22.361299 0 0 0 1234.965436 644.211176
M 1196.791268 642.658940
A 20.975654 20.975654 0 0 0 1238.742575 642.658940
M 1203.339698 641.106703
A 19.590008 19.590008 0 0 0 1242.519715 641.106703
M 1209.888129 639.554466
A 18.204363 18.204363 0 0 0 1246.296855 639.554466
M 1216.436559 638.002229
A 16.818718 16.818718 0 0 0 1250.073995 638.002229
M 1222.984989 636.449992
A 15.433073 15.433073 0 0 0 1253.851134 636.449992
M 1229.533419 634.897756
A 14.047427 14.047427 0 0 0 1257.628274 634.897756
M 1236.081849 633.345519
A 12.661782 12.661782 0 0 0 1261.405414 633.345519
M 1242.630280 631.793282
A 11.276137 11.276137 0 0 0 1265.182554 631.793282
M 1249.178710 630.241045
A 9.890492 9.890492 0 0 0 1268.959693 630.241045
M 1255.727140 628.688808
A 8.504847 8.504847 0 0 0 1272.736833 628.688808
M 1262.275570 627.136572
A 7.119201 7.119201 0 0 0 1276.513973 627.136572
M 1268.824000 625.584335
A 5.733556 5.733556 0 0 0 1280.291112 625.584335
M 1275.372430 624.032098
A 4.347911 4.347911 0 0 0 1284.068252 624.032098
M 1281.920861 622.479861
A 2.962266 2.962266 0 0 0 1287.845392 622.479861
M 1288.469291 620.927624
A 1.576620 1.576620 0 0 0 1291.622532 620.927624
M 1295.017721 619.684412
A 0.500000 0.500000 0 0 0 1296.017721 619.684412
M 1301.566151 617.823151
A 1.194670 1.194670 0 0 0 1299.176811 617.823151
M 1308.114581 616.270914
A 2.580315 2.580315 0 0 0 1302.953951 616.270914
M 1314.663012 614.718677
A 3.965961 3.965961 0 0 0 1306.731090 614.718677
M 1321.211442 613.166440
A 5.351606 5.351606 0 0 0 1310.508230 613.166440
M 1327.759872 611.614204
A 6.737251 6.737251 0 0 0 1314.285370 611.614204
M 1334.308302 610.061967
A 8.122896 8.122896 0 0 0 1318.062510 610.061967
M 1340.856732 608.509730
A 9.508541 9.508541 0 0 0 1321.839649 608.509730
M 1347.405162 606.957493
A 10.894187 10.894187 0 0 0 1325.616789 606.957493
M 1078.756872 -1.992481
A 89.499994 89.499994 0 0 0 899.756883 -1.992481
M 1082.927912 0.624492
A 87.996962 87.996962 0 0 0 906.933988 0.624492
M 1087.098952 3.241466
A 86.493929 86.493929 0 0 0 914.111093 3.241466
M 1091.269992 5.858439
A 84.990897 84.990897 0 0 0 921.288199 5.858439
M 1095.441032 8.475413
A 83.487864 83.487864 0 0 0 928.465304 8.475413
M 1099.612072 11.092386
A 81.984831 81.984831 0 0 0 935.642409 11.092386
M 1103.783111 13.709360
A 80.481799 80.481799 0 0 0 942.819514 13.709360
M 1107.954151 16.326334
A 78.978766 78.978766 0 0 0 949.996619 16.326334
M 1112.125191 18.943307
A 77.475734 77.475734 0 0 0 957.173724 18.943307
M 1116.296231 21.560281
A 75.972701 75.972701 0 0 0 964.350829 21.560281
M 1120.467271 24.177254
A 74.469669 74.469669 0 0 0 971.527934 24.177254
M 1124.638311 26.794228
A 72.966636 72.966636 0 0 0 978.705039 26.794228
M 1128.809351 29.411201
A 71.463603 71.463603 0 0 0 985.882144 29.411201
M 1132.980390 32.028175
A 69.960571 69.960571 0 0 0 993.059249 32.028175
M 1137.151430 34.645148
A 68.457538 68.457538 0 0 0 1000.236354 34.645148
M 1141.322470 37.262122
A 66.954506 66.954506 0 0 0 1007.413459 37.262122
M 1145.493510 39.879095
A 65.451473 65.451473 0 0 0 1014.590564 39.879095
M 1149.664550 42.496069
A 63.948440 63.948440 0 0 0 1021.767669 42.496069
M 1153.835590 45.113042
A 62.445408 62.445408 0 0 0 1028.944774 45.113042
M 1158.006630 47.730016
A 60.942375 60.942375 0 0 0 1036.121879 47.730016
M 1162.177669 50.346989
A 59.439343 59.439343 0 0 0 1043.298984 50.346989
M 1166.348709 52.963963
A 57.936310 57.936310 0 0 0 1050.476089 52.963963
M 1170.519749 55.580936
A 56.433277 56.433277 0 0 0 1057.653194 55.580936
M 1174.690789 58.197910
A 54.930245 54.930245 0 0 0 1064.830299 58.197910
M 1178.861829 60.814883
A 53.427212 53.427212 0 0 0 1072.007404 60.814883
M 1183.032869 63.431857
A 51.924180 51.924180 0 0 0 1079.184510 63.431857
M 1187.203909 66.048831
A 50.421147 50.421147 0 0 0 1086.361615 66.048831
M 1191.374948 68.665804
A 48.918114 48.918114 0 0 0 1093.538720 68.665804
M 1195.545988 71.282778
A 47.415082 47.415082 0 0 0 1100.715825 71.282778
M 1199.717028 73.899751
A 45.912049 45.912049 0 0 0 1107.892930 73.899751
M 1203.888068 76.516725
A 44.409017 44.409017 0 0 0 1115.070035 76.516725
M 1208.059108 79.133698
A 42.905984 42.905984 0 0 0 1122.247140 79.133698
M 1212.230148 81.750672
A 41.402951 41.402951 0 0 0 1129.424245 81.750672
M 1216.401188 84.367645
A 39.899919 39.899919 0 0 0 1136.601350 84.367645
M 1220.572227 86.984619
A 38.396886 38.396886 0 0 0 1143.778455 86.984619
M 1224.743267 89.601592
A 36.893854 36.893854 0 0 0 1150.955560 89.601592
M 1228.914307 92.218566
A 35.390821 35.390821 0 0 0 1158.132665 92.218566
M 1233.085347 94.835539
A 33.887788 33.887788 0 0 0 1165.309770 94.835539
M 1237.256387 97.452513
A 32.384756 32.384756 0 0 0 1172.486875 97.452513
M 1241.427427 100.069486
A 30.881723 30.881723 0 0 0 1179.663980 100.069486
M 1245.598466 102.686460
A 29.378691 29.378691 0 0 0 1186.841085 102.686460
M 1249.769506 105.303433
A 27.875658 27.875658 0 0 0 1194.018190 105.303433
M 1253.940546 107.920407
A 26.372625 26.372625 0 0 0 1201.195295 107.920407
M 1258.111586 110.537381
A 24.869593 24.869593 0 0 0 1208.372400 110.537381
M 1262.282626 113.154354
A 23.366560 23.366560 0 0 0 1215.549505 113.154354
M 1266.453666 115.771328
A 21.863528 21.863528 0 0 0 1222.726610 115.771328
M 1270.624706 118.388301
A 20.360495 20.360495 0 0 0 1229.903716 118.388301
M 1274.795745 121.005275
A 18.857462 18.857462 0 0 0 1237.080821 121.005275
M 1278.966785 123.622248
A 17.354430 17.354430 0 0 0 1244.257926 123.622248
M 1283.137825 126.239222
A 15.851397 15.851397 0 0 0 1251.435031 126.239222
M 1287.308865 128.856195
A 14.348365 14.348365 0 0 0 1258.612136 128.856195
M 1291.479905 131.473169
A 12.845332 12.845332 0 0 0 1265.789241 131.473169
M 1295.650945 134.090142
A 11.342299 11.342299 0 0 0 1272.966346 134.090142
M 1299.821985 136.707116
A 9.839267 9.839267 0 0 0 1280.143451 136.707116
M 1303.993024 139.324089
A 8.336234 8.336234 0 0 0 1287.320556 139.324089
M 1308.164064 141.941063
A 6.833202 6.833202 0 0 0 1294.497661 141.941063
M 1312.335104 144.558036
A 5.330169 5.330169 0 0 0 1301.674766 144.558036
M 1316.506144 147.175010
A 3.827136 3.827136 0 0 0 1308.851871 147.175010
M 1320.677184 149.791983
A 2.324104 2.324104 0 0 0 1316.028976 149.791983
M 1324.848224 152.408957
A 0.821071 0.821071 0 0 0 1323.206081 152.408957
M 1329.019264 155.025930
A 0.681961 0.681961 0 0 0 1330.383186 155.025930
M 1096.580582 498.428368
A 107.775580 107.775580 0 0 0 881.029421 498.428368
M 1096.288390 490.224747
A 107.475980 107.475980 0 0 0 881.336429 490.224747
M 1095.996198 482.021127
A 107.176381 107.176381 0 0 0 881.643437 482.021127
M 1095.704006 473.817506
A 106.876781 106.876781 0 0 0 881.950444 473.817506
M 1095.411814 465.613886
A 106.577181 106.577181 0 0 0 882.257452 465.613886
M 1095.119622 457.410265
A 106.277581 106.277581 0 0 0 882.564459 457.410265
M 1094.827430 449.206645
A 105.977981 105.977981 0 0 0 882.871467 449.206645
M 1094.535238 441.003024
A 105.678382 105.678382 0 0 0 883.178474 441.003024
M 1094.243046 432.799404
A 105.378782 105.378782 0 0 0 883.485482 432.799404
M 1093.950854 424.595783
A 105.079182 105.079182 0 0 0 883.792490 424.595783
M 1093.658662 416.392163
A 104.779582 104.779582 0 0 0 884.099497 416.392163
M 1093.366470 408.188542
A 104.479983 104.479983 0 0 0 884.406505 408.188542
M 1093.074278 399.984922
A 104.180383 104.180383 0 0 0 884.713512 399.984922
M 1092.782086 391.781302
A 103.880783 103.880783 0 0 0 885.020520 391.781302
M 1092.489894 383.577681
A 103.581183 103.581183 0 0 0 885.327527 383.577681
M 1092.197702 375.374061
A 103.281584 103.281584 0 0 0 885.634535 375.374061
M 1091.905510 367.170440
A 102.981984 102.981984 0 0 0 885.941543 367.170440
M 1091.613318 358.966820
A 102.682384 102.682384 0 0 0 886.248550 358.966820
M 1091.321126 350.763199
A 102.382784 102.382784 0 0 0 886.555558 350.763199
M 1091.028934 342.559579
A 102.083185 102.083185 0 0 0 886.862565 342.559579
M 1090.736743 334.355958
A 101.783585 101.783585 0 0 0 887.169573 334.355958
M 1090.444551 326.152338
A 101.483985 101.483985 0 0 0 887.476581 326.152338
M 1090.152359 317.948717
A 101.184385 101.184385 0 0 0 887.783588 317.948717
M 1089.860167 309.745097
A 100.884786 100.884786 0 0 0 888.090596 309.745097
M 1089.567975 301.541476
A 100.585186 100.585186 0 0 0 888.397603 301.541476
M 1089.275783 293.337856
A 100.285586 100.285586 0 0 0 888.704611 293.337856
M 1088.983591 285.134235
A 99.985986 99.985986 0 0 0 889.011618 285.134235
M 1088.691399 276.930615
A 99.686386 99.686386 0 0 0 889.318626 276.930615
M 1088.399207 268.726994
A 99.386787 99.386787 0 0 0 889.625634 268.726994
M 1088.107015 260.523374
A 99.087187 99.087187 0 0 0 889.932641 260.523374
M 1087.814823 252.319753
A 98.787587 98.787587 0 0 0 890.239649 252.319753
M 1087.522631 244.116133
A 98.487987 98.487987 0 0 0 890.546656 244.116133
M 1087.230439 235.912513
A 98.188388 98.188388 0 0 0 890.853664 235.912513
M 1086.938247 227.708892
A 97.888788 97.888788 0 0 0 891.160671 227.708892
M 1086.646055 219.505272
A 97.589188 97.589188 0 0 0 891.467679 219.505272
M 1086.353863 211.301651
A 97.289588 97.289588 0 0 0 891.774687 211.301651
M 1086.061671 203.098031
A 96.989989 96.989989 0 0 0 892.081694 203.098031
M 1085.769479 194.894410
A 96.690389 96.690389 0 0 0 892.388702 194.894410
M 1085.477287 186.690790
A 96.390789 96.390789 0 0 0 892.695709 186.690790
M 1085.185095 178.487169
A 96.091189 96.091189 0 0 0 893.002717 178.487169
M 1084.892903 170.283549
A 95.791590 95.791590 0 0 0 893.309724 170.283549
M 1084.600711 162.079928
A 95.491990 95.491990 0 0 0 893.616732 162.079928
M 1084.308519 153.876308
A 95.192390 95.192390 0 0 0 893.923740 153.876308
M 1084.016328 145.672687
A 94.892790 94.892790 0 0 0 894.230747 145.672687
M 1083.724136 137.469067
A 94.593190 94.593190 0 0 0 894.537755 137.469067
M 1083.431944 129.265446
A 94.293591 94.293591 0 0 0 894.844762 129.265446
M 1083.139752 121.061826
A 93.993991 93.993991 0 0 0 895.151770 121.061826
M 1082.847560 112.858205
A 93.694391 93.694391 0 0 0 895.458777 112.858205
M 1082.555368 104.654585
A 93.394791 93.394791 0 0 0 895.765785 104.654585
M 1082.263176 96.450964
A 93.095192 93.095192 0 0 0 896.072793 96.450964
M 1081.970984 88.247344
A 92.795592 92.795592 0 0 0 896.379800 88.247344
M 1081.678792 80.043724
A 92.495992 92.495992 0 0 0 896.686808 80.043724
M 1081.386600 71.840103
A 92.196392 92.196392 0 0 0 896.993815 71.840103
M 1081.094408 63.636483
A 91.896793 91.896793 0 0 0 897.300823 63.636483
M 1080.802216 55.432862
A 91.597193 91.597193 0 0 0 897.607830 55.432862
M 1080.510024 47.229242
A 91.297593 91.297593 0 0 0 897.914838 47.229242
M 1080.217832 39.025621
A 90.997993 90.997993 0 0 0 898.221846 39.025621
M 1079.925640 30.822001
A 90.698394 90.698394 0 0 0 898.528853 30.822001
M 1079.633448 22.618380
A 90.398794 90.398794 0 0 0 898.835861 22.618380
M 1079.341256 14.414760
A 90.099194 90.099194 0 0 0 899.142868 14.414760
M 1079.049064 6.211139
A 89.799594 89.799594 0 0 0 899.449876 6.211139
M 1100.799811 500.182087
A 106.210076 106.210076 0 0 0 888.379659 500.182087
M 1105.019041 501.935807
A 104.644572 104.644572 0 0 0 895.729897 501.935807
M 1109.238271 503.689526
A 103.079068 103.079068 0 0 0 903.080135 503.689526
M 1113.457500 505.443246
A 101.513564 101.513564 0 0 0 910.430373 505.443246
M 1117.676730 507.196965
A 99.948060 99.948060 0 0 0 917.780611 507.196965
M 1121.895960 508.950685
A 98.382556 98.382556 0 0 0 925.130848 508.950685
M 1126.115189 510.704404
A 96.817052 96.817052 0 0 0 932.481086 510.704404
M 1130.334419 512.458124
A 95.251548 95.251548 0 0 0 939.831324 512.458124
M 1134.553649 514.211843
A 93.686043 93.686043 0 0 0 947.181562 514.211843
M 1138.772879 515.965563
A 92.120539 92.120539 0 0 0 954.531800 515.965563
M 1142.992108 517.719282
A 90.555035 90.555035 0 0 0 961.882038 517.719282
M 1147.211338 519.473002
A 88.989531 88.989531 0 0 0 969.232275 519.473002
M 1151.430568 521.226721
A 87.424027 87.424027 0 0 0 976.582513 521.226721
M 1155.649797 522.980440
A 85.858523 85.858523 0 0 0 983.932751 522.980440
M 1159.869027 524.734160
A 84.293019 84.293019 0 0 0 991.282989 524.734160
M 1164.088257 526.487879
A 82.727515 82.727515 0 0 0 998.633227 526.487879
M 1168.307486 528.241599
A 81.162011 81.162011 0 0 0 1005.983465 528.241599
M 1172.526716 529.995318
A 79.596507 79.596507 0 0 0 1013.333702 529.995318
M 1176.745946 531.749038
A 78.031003 78.031003 0 0 0 1020.683940 531.749038
M 1180.965175 533.502757
A 76.465499 76.465499 0 0 0 1028.034178 533.502757
M 1185.184405 535.256477
A 74.899995 74.899995 0 0 0 1035.384416 535.256477
M 1189.403635 537.010196
A 73.334491 73.334491 0 0 0 1042.734654 537.010196
M 1193.622864 538.763916
A 71.768986 71.768986 0 0 0 1050.084891 538.763916
M 1197.842094 540.517635
A 70.203482 70.203482 0 0 0 1057.435129 540.517635
M 1202.061324 542.271355
A 68.637978 68.637978 0 0 0 1064.785367 542.271355
M 1206.280554 544.025074
A 67.072474 67.072474 0 0 0 1072.135605 544.025074
M 1210.499783 545.778794
A 65.506970 65.506970 0 0 0 1079.485843 545.778794
M 1214.719013 547.532513
A 63.941466 63.941466 0 0 0 1086.836081 547.532513
M 1218.938243 549.286233
A 62.375962 62.375962 0 0 0 1094.186318 549.286233
M 1223.157472 551.039952
A 60.810458 60.810458 0 0 0 1101.536556 551.039952
M 1227.376702 552.793672
A 59.244954 59.244954 0 0 0 1108.886794 552.793672
M 1231.595932 554.547391
A 57.679450 57.679450 0 0 0 1116.237032 554.547391
M 1235.815161 556.301111
A 56.113946 56.113946 0 0 0 1123.587270 556.301111
M 1240.034391 558.054830
A 54.548442 54.548442 0 0 0 1130.937508 558.054830
M 1244.253621 559.808550
A 52.982938 52.982938 0 0 0 1138.287745 559.808550
M 1248.472850 561.562269
A 51.417434 51.417434 0 0 0 1145.637983 561.562269
M 1252.692080 563.315989
A 49.851930 49.851930 0 0 0 1152.988221 563.315989
M 1256.911310 565.069708
A 48.286425 48.286425 0 0 0 1160.338459 565.069708
M 1261.130539 566.823428
A 46.720921 46.720921 0 0 0 1167.688697 566.823428
M 1265.349769 568.577147
A 45.155417 45.155417 0 0 0 1175.038935 568.577147
M 1269.568999 570.330867
A 43.589913 43.589913 0 0 0 1182.389172 570.330867
M 1273.788229 572.084586
A 42.024409 42.024409 0 0 0 1189.739410 572.084586
M 1278.007458 573.838306
A 40.458905 40.458905 0 0 0 1197.089648 573.838306
M 1282.226688 575.592025
A 38.893401 38.893401 0 0 0 1204.439886 575.592025
M 1286.445918 577.345745
A 37.327897 37.327897 0 0 0 1211.790124 577.345745
M 1290.665147 579.099464
A 35.762393 35.762393 0 0 0 1219.140361 579.099464
M 1294.884377 580.853183
A 34.196889 34.196889 0 0 0 1226.490599 580.853183
M 1299.103607 582.606903
A 32.631385 32.631385 0 0 0 1233.840837 582.606903
M 1303.322836 584.360622
A 31.065881 31.065881 0 0 0 1241.191075 584.360622
M 1307.542066 586.114342
A 29.500377 29.500377 0 0 0 1248.541313 586.114342
M 1311.761296 587.868061
A 27.934873 27.934873 0 0 0 1255.891551 587.868061
M 1315.980525 589.621781
A 26.369368 26.369368 0 0 0 1263.241788 589.621781
M 1320.199755 591.375500
A 24.803864 24.803864 0 0 0 1270.592026 591.375500
M 1324.418985 593.129220
A 23.238360 23.238360 0 0 0 1277.942264 593.129220
M 1328.638214 594.882939
A 21.672856 21.672856 0 0 0 1285.292502 594.882939
M 1332.857444 596.636659
A 20.107352 20.107352 0 0 0 1292.642740 596.636659
M 1337.076674 598.390378
A 18.541848 18.541848 0 0 0 1299.992978 598.390378
M 1341.295904 600.144098
A 16.976344 16.976344 0 0 0 1307.343215 600.144098
M 1345.515133 601.897817
A 15.410840 15.410840 0 0 0 1314.693453 601.897817
M 1349.734363 603.651537
A 13.845336 13.845336 0 0 0 1322.043691 603.651537
M 683.547309 171.646890
A 10.228044 10.228044 0 0 0 704.003396 171.646890
M 690.134135 168.752901
A 8.565910 8.565910 0 0 0 707.265954 168.752901
M 696.720961 165.858911
A 6.903776 6.903776 0 0 0 710.528512 165.858911
M 703.307787 162.964922
A 5.241642 5.241642 0 0 0 713.791071 162.964922
M 709.894613 160.070932
A 3.579508 3.579508 0 0 0 717.053629 160.070932
M 716.481439 157.176943
A 1.917374 1.917374 0 0 0 720.316187 157.176943
M 723.068265 154.527714
A 0.500000 0.500000 0 0 0 724.068265 154.527714
M 729.655091 151.388964
A 1.406894 1.406894 0 0 0 726.841303 151.388964
M 736.241918 148.494974
A 3.069028 3.069028 0 0 0 730.103861 148.494974
M 742.828744 145.600985
A 4.731162 4.731162 0 0 0 733.366419 145.600985
M 749.415570 142.706995
A 6.393296 6.393296 0 0 0 736.628977 142.706995
M 756.002396 139.813006
A 8.055430 8.055430 0 0 0 739.891536 139.813006
M 762.589222 136.919016
A 9.717564 9.717564 0 0 0 743.154094 136.919016
M 769.176048 134.025027
A 11.379698 11.379698 0 0 0 746.416652 134.025027
M 775.762874 131.131037
A 13.041832 13.041832 0 0 0 749.679210 131.131037
M 782.349700 128.237048
A 14.703966 14.703966 0 0 0 752.941768 128.237048
M 788.936526 125.343058
A 16.366100 16.366100 0 0 0 756.204326 125.343058
M 795.523352 122.449068
A 18.028234 18.028234 0 0 0 759.466884 122.449068
M 802.110178 119.555079
A 19.690368 19.690368 0 0 0 762.729442 119.555079
M 808.697004 116.661089
A 21.352502 21.352502 0 0 0 765.992000 116.661089
M 815.283830 113.767100
A 23.014636 23.014636 0 0 0 769.254559 113.767100
M 821.870656 110.873110
A 24.676770 24.676770 0 0 0 772.517117 110.873110
M 828.457482 107.979121
A 26.338904 26.338904 0 0 0 775.779675 107.979121
M 835.044308 105.085131
A 28.001038 28.001038 0 0 0 779.042233 105.085131
M 841.631134 102.191142
A 29.663172 29.663172 0 0 0 782.304791 102.191142
M 848.217960 99.297152
A 31.325306 31.325306 0 0 0 785.567349 99.297152
M 854.804786 96.403163
A 32.987440 32.987440 0 0 0 788.829907 96.403163
M 861.391613 93.509173
A 34.649574 34.649574 0 0 0 792.092465 93.509173
M 867.978439 90.615184
A 36.311708 36.311708 0 0 0 795.355024 90.615184
M 874.565265 87.721194
A 37.973841 37.973841 0 0 0 798.617582 87.721194
M 881.152091 84.827205
A 39.635975 39.635975 0 0 0 801.880140 84.827205
M 887.738917 81.933215
A 41.298109 41.298109 0 0 0 805.142698 81.933215
M 894.325743 79.039226
A 42.960243 42.960243 0 0 0 808.405256 79.039226
M 900.912569 76.145236
A 44.622377 44.622377 0 0 0 811.667814 76.145236
M 907.499395 73.251247
A 46.284511 46.284511 0 0 0 814.930372 73.251247
M 914.086221 70.357257
A 47.946645 47.946645 0 0 0 818.192930 70.357257
M 920.673047 67.463267
A 49.608779 49.608779 0 0 0 821.455489 67.463267
M 927.259873 64.569278
A 51.270913 51.270913 0 0 0 824.718047 64.569278
M 933.846699 61.675288
A 52.933047 52.933047 0 0 0 827.980605 61.675288
M 940.433525 58.781299
A 54.595181 54.595181 0 0 0 831.243163 58.781299
M 947.020351 55.887309
A 56.257315 56.257315 0 0 0 834.505721 55.887309
M 953.607177 52.993320
A 57.919449 57.919449 0 0 0 837.768279 52.993320
M 960.194003 50.099330
A 59.581583 59.581583 0 0 0 841.030837 50.099330
M 966.780829 47.205341
A 61.243717 61.243717 0 0 0 844.293395 47.205341
M 973.367655 44.311351
A 62.905851 62.905851 0 0 0 847.555953 44.311351
M 979.954482 41.417362
A 64.567985 64.567985 0 0 0 850.818512 41.417362
M 986.541308 38.523372
A 66.230119 66.230119 0 0 0 854.081070 38.523372
M 993.128134 35.629383
A 67.892253 67.892253 0 0 0 857.343628 35.629383
M 999.714960 32.735393
A 69.554387 69.554387 0 0 0 860.606186 32.735393
M 1006.301786 29.841404
A 71.216521 71.216521 0 0 0 863.868744 29.841404
M 1012.888612 26.947414
A 72.878655 72.878655 0 0 0 867.131302 26.947414
M 1019.475438 24.053425
A 74.540789 74.540789 0 0 0 870.393860 24.053425
M 1026.062264 21.159435
A 76.202923 76.202923 0 0 0 873.656418 21.159435
M 1032.649090 18.265445
A 77.865057 77.865057 0 0 0 876.918977 18.265445
M 1039.235916 15.371456
A 79.527191 79.527191 0 0 0 880.181535 15.371456
M 1045.822742 12.477466
A 81.189325 81.189325 0 0 0 883.444093 12.477466
M 1052.409568 9.583477
A 82.851459 82.851459 0 0 0 886.706651 9.583477
M 1058.996394 6.689487
A 84.513593 84.513593 0 0 0 889.969209 6.689487
M 1065.583220 3.795498
A 86.175727 86.175727 0 0 0 893.231767 3.795498
M 1072.170046 0.901508
A 87.837860 87.837860 0 0 0 896.494325 0.901508
M 691.662726 614.760538
A 3.928593 3.928593 0 0 0 683.805540 614.760538
M 698.411357 612.821668
A 5.659376 5.659376 0 0 0 687.092605 612.821668
M 705.159987 610.882799
A 7.390159 7.390159 0 0 0 690.379670 610.882799
M 711.908618 608.943929
A 9.120942 9.120942 0 0 0 693.666734 608.943929
M 718.657249 607.005060
A 10.851725 10.851725 0 0 0 696.953799 607.005060
M 725.405880 605.066190
A 12.582508 12.582508 0 0 0 700.240864 605.066190
M 732.154511 603.127321
A 14.313291 14.313291 0 0 0 703.527928 603.127321
M 738.903142 601.188451
A 16.044074 16.044074 0 0 0 706.814993 601.188451
M 745.651773 599.249582
A 17.774858 17.774858 0 0 0 710.102058 599.249582
M 752.400404 597.310712
A 19.505641 19.505641 0 0 0 713.389123 597.310712
M 759.149035 595.371843
A 21.236424 21.236424 0 0 0 716.676187 595.371843
M 765.897666 593.432973
A 22.967207 22.967207 0 0 0 719.963252 593.432973
M 772.646297 591.494104
A 24.697990 24.697990 0 0 0 723.250317 591.494104
M 779.394928 589.555234
A 26.428773 26.428773 0 0 0 726.537381 589.555234
M 786.143559 587.616365
A 28.159556 28.159556 0 0 0 729.824446 587.616365
M 792.892190 585.677495
A 29.890339 29.890339 0 0 0 733.111511 585.677495
M 799.640821 583.738626
A 31.621123 31.621123 0 0 0 736.398575 583.738626
M 806.389451 581.799756
A 33.351906 33.351906 0 0 0 739.685640 581.799756
M 813.138082 579.860887
A 35.082689 35.082689 0 0 0 742.972705 579.860887
M 819.886713 577.922017
A 36.813472 36.813472 0 0 0 746.259769 577.922017
M 826.635344 575.983148
A 38.544255 38.544255 0 0 0 749.546834 575.983148
M 833.383975 574.044278
A 40.275038 40.275038 0 0 0 752.833899 574.044278
M 840.132606 572.105409
A 42.005821 42.005821 0 0 0 756.120963 572.105409
M 846.881237 570.166539
A 43.736604 43.736604 0 0 0 759.408028 570.166539
M 853.629868 568.227670
A 45.467388 45.467388 0 0 0 762.695093 568.227670
M 860.378499 566.288800
A 47.198171 47.198171 0 0 0 765.982158 566.288800
M 867.127130 564.349931
A 48.928954 48.928954 0 0 0 769.269222 564.349931
M 873.875761 562.411061
A 50.659737 50.659737 0 0 0 772.556287 562.411061
M 880.624392 560.472192
A 52.390520 52.390520 0 0 0 775.843352 560.472192
M 887.373023 558.533322
A 54.121303 54.121303 0 0 0 779.130416 558.533322
M 894.121654 556.594453
A 55.852086 55.852086 0 0 0 782.417481 556.594453
M 900.870285 554.655583
A 57.582869 57.582869 0 0 0 785.704546 554.655583
M 907.618915 552.716714
A 59.313653 59.313653 0 0 0 788.991610 552.716714
M 914.367546 550.777844
A 61.044436 61.044436 0 0 0 792.278675 550.777844
M 921.116177 548.838975
A 62.775219 62.775219 0 0 0 795.565740 548.838975
M 927.864808 546.900105
A 64.506002 64.506002 0 0 0 798.852804 546.900105
M 934.613439 544.961236
A 66.236785 66.236785 0 0 0 802.139869 544.961236
M 941.362070 543.022366
A 67.967568 67.967568 0 0 0 805.426934 543.022366
M 948.110701 541.083497
A 69.698351 69.698351 0 0 0 808.713998 541.083497
M 954.859332 539.144627
A 71.429134 71.429134 0 0 0 812.001063 539.144627
M 961.607963 537.205758
A 73.159918 73.159918 0 0 0 815.288128 537.205758
M 968.356594 535.266888
A 74.890701 74.890701 0 0 0 818.575192 535.266888
M 975.105225 533.328019
A 76.621484 76.621484 0 0 0 821.862257 533.328019
M 981.853856 531.389149
A 78.352267 78.352267 0 0 0 825.149322 531.389149
M 988.602487 529.450280
A 80.083050 80.083050 0 0 0 828.436387 529.450280
M 995.351118 527.511410
A 81.813833 81.813833 0 0 0 831.723451 527.511410
M 1002.099749 525.572541
A 83.544616 83.544616 0 0 0 835.010516 525.572541
M 1008.848379 523.633671
A 85.275399 85.275399 0 0 0 838.297581 523.633671
M 1015.597010 521.694802
A 87.006183 87.006183 0 0 0 841.584645 521.694802
M 1022.345641 519.755932
A 88.736966 88.736966 0 0 0 844.871710 519.755932
M 1029.094272 517.817063
A 90.467749 90.467749 0 0 0 848.158775 517.817063
M 1035.842903 515.878193
A 92.198532 92.198532 0 0 0 851.445839 515.878193
M 1042.591534 513.939324
A 93.929315 93.929315 0 0 0 854.732904 513.939324
M 1049.340165 512.000454
A 95.660098 95.660098 0 0 0 858.019969 512.000454
M 1056.088796 510.061585
A 97.390881 97.390881 0 0 0 861.307033 510.061585
M 1062.837427 508.122715
A 99.121664 99.121664 0 0 0 864.594098 508.122715
M 1069.586058 506.183846
A 100.852448 100.852448 0 0 0 867.881163 506.183846
M 1076.334689 504.244976
A 102.583231 102.583231 0 0 0 871.168227 504.244976
M 1083.083320 502.306107
A 104.314014 104.314014 0 0 0 874.455292 502.306107
M 1089.831951 500.367237
A 106.044797 106.044797 0 0 0 877.742357 500.367237
"/>
</svg>