<?xml version="1.0" encoding="UTF-8"?>
<svg width="1228" height="601" viewBox="0 0 1228 601" fill="none" xmlns="http://www.w3.org/2000/svg">
<path stroke="black" stroke-width="0.1500" d="
M 818.190412 242.772235
A 28.329748 11.882756 0 0 0 761.530915 242.772235
M 817.681036 252.024527
A 27.236534 11.424213 0 0 0 763.207969 252.024527
M 817.171661 261.276819
A 26.143319 10.965670 0 0 0 764.885024 261.276819
M 816.662286 270.529111
A 25.050104 10.507127 0 0 0 766.562078 270.529111
M 816.152910 279.781403
A 23.956889 10.048584 0 0 0 768.239133 279.781403
M 815.643535 289.033694
A 22.863674 9.590041 0 0 0 769.916187 289.033694
M 815.134159 298.285986
A 21.770459 9.131498 0 0 0 771.593242 298.285986
M 814.624784 307.538278
A 20.677244 8.672955 0 0 0 773.270296 307.538278
M 814.115409 316.790570
A 19.584029 8.214412 0 0 0 774.947351 316.790570
M 813.606033 326.042862
A 18.490814 7.755869 0 0 0 776.624405 326.042862
M 813.096658 335.295154
A 17.397599 7.297326 0 0 0 778.301459 335.295154
M 812.587282 344.547446
A 16.304384 6.838783 0 0 0 779.978514 344.547446
M 812.077907 353.799738
A 15.211169 6.380240 0 0 0 781.655568 353.799738
M 811.568532 363.052030
A 14.117954 5.921698 0 0 0 783.332623 363.052030
M 811.059156 372.304322
A 13.024739 5.463155 0 0 0 785.009677 372.304322
M 810.549781 381.556614
A 11.931525 5.004612 0 0 0 786.686732 381.556614
M 810.040405 390.808906
A 10.838310 4.546069 0 0 0 788.363786 390.808906
M 809.531030 400.061197
A 9.745095 4.087526 0 0 0 790.040841 400.061197
M 809.021655 409.313489
A 8.651880 3.628983 0 0 0 791.717895 409.313489
M 808.512279 418.565781
A 7.558665 3.170440 0 0 0 793.394949 418.565781
M 808.002904 427.818073
A 6.465450 2.711897 0 0 0 795.072004 427.818073
M 807.493528 437.070365
A 5.372235 2.253354 0 0 0 796.749058 437.070365
M 806.984153 446.322657
A 4.279020 1.794811 0 0 0 798.426113 446.322657
M 806.474778 455.574949
A 3.185805 1.336268 0 0 0 800.103167 455.574949
M 805.965402 464.827241
A 2.092590 0.877725 0 0 0 801.780222 464.827241
M 805.456027 474.079533
A 0.999375 0.500000 0 0 0 803.457276 474.079533
M 804.946651 483.737985
A 0.500000 0.500000 0 0 0 805.946651 483.737985
M 804.437276 492.584117
A 1.187055 0.500000 0 0 0 806.811385 492.584117
M 803.927900 501.836409
A 2.280270 0.956446 0 0 0 808.488440 501.836409
M 803.418525 511.088701
A 3.373484 1.414989 0 0 0 810.165494 511.088701
M 802.909150 520.340992
A 4.466699 1.873532 0 0 0 811.842548 520.340992
M 802.399774 529.593284
A 5.559914 2.332075 0 0 0 813.519603 529.593284
M 821.721634 239.367739
A 26.989645 11.320657 0 0 0 767.742344 239.367739
M 825.252856 235.963243
A 25.649542 10.758558 0 0 0 773.953773 235.963243
M 828.784079 232.558747
A 24.309438 10.196459 0 0 0 780.165202 232.558747
M 832.315301 229.154250
A 22.969335 9.634360 0 0 0 786.376631 229.154250
M 835.846523 225.749754
A 21.629231 9.072261 0 0 0 792.588060 225.749754
M 839.377746 222.345258
A 20.289128 8.510162 0 0 0 798.799489 222.345258
M 842.908968 218.940762
A 18.949025 7.948063 0 0 0 805.010918 218.940762
M 846.440190 215.536266
A 17.608921 7.385964 0 0 0 811.222348 215.536266
M 849.971412 212.131770
A 16.268818 6.823865 0 0 0 817.433777 212.131770
M 853.502635 208.727274
A 14.928715 6.261766 0 0 0 823.645206 208.727274
M 857.033857 205.322778
A 13.588611 5.699667 0 0 0 829.856635 205.322778
M 860.565079 201.918281
A 12.248508 5.137569 0 0 0 836.068064 201.918281
M 864.096302 198.513785
A 10.908404 4.575470 0 0 0 842.279493 198.513785
M 867.627524 195.109289
A 9.568301 4.013371 0 0 0 848.490922 195.109289
M 871.158746 191.704793
A 8.228198 3.451272 0 0 0 854.702351 191.704793
M 874.689968 188.300297
A 6.888094 2.889173 0 0 0 860.913780 188.300297
M 878.221191 184.895801
A 5.547991 2.327074 0 0 0 867.125209 184.895801
M 881.752413 181.491305
A 4.207887 1.764975 0 0 0 873.336638 181.491305
M 885.283635 178.086809
A 2.867784 1.202876 0 0 0 879.548067 178.086809
M 888.814858 174.682312
A 1.527681 0.640777 0 0 0 885.759496 174.682312
M 892.970925 171.590239
A 0.500000 0.500000 0 0 0 891.970925 171.590239
M 895.877302 167.873320
A 1.152526 0.500000 0 0 0 898.182355 167.873320
M 899.408524 164.468824
A 2.492630 1.045520 0 0 0 904.393784 164.468824
M 902.939747 161.064328
A 3.832733 1.607619 0 0 0 910.605213 161.064328
M 906.470969 157.659832
A 5.172836 2.169717 0 0 0 916.816642 157.659832
M 910.002191 154.255336
A 6.512940 2.731816 0 0 0 923.028071 154.255336
M 913.533414 150.850840
A 7.853043 3.293915 0 0 0 929.239500 150.850840
M 917.064636 147.446343
A 9.193147 3.856014 0 0 0 935.450929 147.446343
M 920.595858 144.041847
A 10.533250 4.418113 0 0 0 941.662358 144.041847
M 924.127080 140.637351
A 11.873353 4.980212 0 0 0 947.873787 140.637351
M 927.658303 137.232855
A 13.213457 5.542311 0 0 0 954.085216 137.232855
M 926.933192 145.875979
A 14.104805 5.916182 0 0 0 955.142802 145.875979
M 926.208081 154.519103
A 14.996153 6.290053 0 0 0 956.200388 154.519103
M 925.482970 163.162227
A 15.887502 6.663924 0 0 0 957.257974 163.162227
M 924.757859 171.805352
A 16.778850 7.037796 0 0 0 958.315560 171.805352
M 924.032749 180.448476
A 17.670199 7.411667 0 0 0 959.373146 180.448476
M 923.307638 189.091600
A 18.561547 7.785538 0 0 0 960.430732 189.091600
M 922.582527 197.734724
A 19.452895 8.159409 0 0 0 961.488318 197.734724
M 921.857416 206.377848
A 20.344244 8.533280 0 0 0 962.545903 206.377848
M 921.132305 215.020972
A 21.235592 8.907151 0 0 0 963.603489 215.020972
M 920.407194 223.664096
A 22.126940 9.281022 0 0 0 964.661075 223.664096
M 919.682083 232.307220
A 23.018289 9.654893 0 0 0 965.718661 232.307220
M 918.956973 240.950345
A 23.909637 10.028765 0 0 0 966.776247 240.950345
M 918.231862 249.593469
A 24.800986 10.402636 0 0 0 967.833833 249.593469
M 917.506751 258.236593
A 25.692334 10.776507 0 0 0 968.891419 258.236593
M 916.781640 266.879717
A 26.583682 11.150378 0 0 0 969.949005 266.879717
M 916.056529 275.522841
A 27.475031 11.524249 0 0 0 971.006591 275.522841
M 915.331418 284.165965
A 28.366379 11.898120 0 0 0 972.064177 284.165965
M 914.606308 292.809089
A 29.257727 12.271991 0 0 0 973.121763 292.809089
M 913.881197 301.452213
A 30.149076 12.645862 0 0 0 974.179348 301.452213
M 913.156086 310.095337
A 31.040424 13.019734 0 0 0 975.236934 310.095337
M 912.430975 318.738462
A 31.931773 13.393605 0 0 0 976.294520 318.738462
M 911.705864 327.381586
A 32.823121 13.767476 0 0 0 977.352106 327.381586
M 910.980753 336.024710
A 33.714469 14.141347 0 0 0 978.409692 336.024710
M 910.255643 344.667834
A 34.605818 14.515218 0 0 0 979.467278 344.667834
M 909.530532 353.310958
A 35.497166 14.889089 0 0 0 980.524864 353.310958
M 908.805421 361.954082
A 36.388514 15.262960 0 0 0 981.582450 361.954082
M 908.080310 370.597206
A 37.279863 15.636831 0 0 0 982.640036 370.597206
M 907.355199 379.240330
A 38.171211 16.010702 0 0 0 983.697622 379.240330
M 906.630088 387.883454
A 39.062560 16.384574 0 0 0 984.755208 387.883454
M 905.904978 396.526579
A 39.953908 16.758445 0 0 0 985.812794 396.526579
M 905.179867 405.169703
A 40.845256 17.132316 0 0 0 986.870379 405.169703
M 805.715261 525.579620
A 6.698151 2.809502 0 0 0 819.111563 525.579620
M 809.030748 521.565957
A 7.836388 3.286929 0 0 0 824.703524 521.565957
M 812.346235 517.552293
A 8.974625 3.764357 0 0 0 830.295484 517.552293
M 815.661722 513.538629
A 10.112862 4.241784 0 0 0 835.887445 513.538629
M 818.977209 509.524965
A 11.251099 4.719211 0 0 0 841.479406 509.524965
M 822.292695 505.511301
A 12.389335 5.196638 0 0 0 847.071366 505.511301
M 825.608182 501.497637
A 13.527572 5.674065 0 0 0 852.663327 501.497637
M 828.923669 497.483973
A 14.665809 6.151492 0 0 0 858.255287 497.483973
M 832.239156 493.470309
A 15.804046 6.628919 0 0 0 863.847248 493.470309
M 835.554643 489.456645
A 16.942283 7.106346 0 0 0 869.439208 489.456645
M 838.870130 485.442981
A 18.080520 7.583773 0 0 0 875.031169 485.442981
M 842.185616 481.429317
A 19.218756 8.061201 0 0 0 880.623129 481.429317
M 845.501103 477.415653
A 20.356993 8.538628 0 0 0 886.215090 477.415653
M 848.816590 473.401989
A 21.495230 9.016055 0 0 0 891.807050 473.401989
M 852.132077 469.388325
A 22.633467 9.493482 0 0 0 897.399011 469.388325
M 855.447564 465.374662
A 23.771704 9.970909 0 0 0 902.990971 465.374662
M 858.763051 461.360998
A 24.909941 10.448336 0 0 0 908.582932 461.360998
M 862.078538 457.347334
A 26.048177 10.925763 0 0 0 914.174892 457.347334
M 865.394024 453.333670
A 27.186414 11.403190 0 0 0 919.766853 453.333670
M 868.709511 449.320006
A 28.324651 11.880618 0 0 0 925.358814 449.320006
M 872.024998 445.306342
A 29.462888 12.358045 0 0 0 930.950774 445.306342
M 875.340485 441.292678
A 30.601125 12.835472 0 0 0 936.542735 441.292678
M 878.655972 437.279014
A 31.739362 13.312899 0 0 0 942.134695 437.279014
M 881.971459 433.265350
A 32.877598 13.790326 0 0 0 947.726656 433.265350
M 885.286946 429.251686
A 34.015835 14.267753 0 0 0 953.318616 429.251686
M 888.602432 425.238022
A 35.154072 14.745180 0 0 0 958.910577 425.238022
M 891.917919 421.224358
A 36.292309 15.222607 0 0 0 964.502537 421.224358
M 895.233406 417.210694
A 37.430546 15.700035 0 0 0 970.094498 417.210694
M 898.548893 413.197031
A 38.568783 16.177462 0 0 0 975.686458 413.197031
M 901.864380 409.183367
A 39.707020 16.654889 0 0 0 981.278419 409.183367
M 937.211044 138.784939
A 12.602514 5.286054 0 0 0 962.416072 138.784939
M 946.763786 140.337023
A 11.991571 5.029798 0 0 0 970.746927 140.337023
M 956.316528 141.889107
A 11.380628 4.773541 0 0 0 979.077783 141.889107
M 965.869269 143.441191
A 10.769685 4.517284 0 0 0 987.408639 143.441191
M 975.422011 144.993275
A 10.158742 4.261028 0 0 0 995.739494 144.993275
M 984.974753 146.545359
A 9.547799 4.004771 0 0 0 1004.070350 146.545359
M 994.527494 148.097443
A 8.936856 3.748515 0 0 0 1012.401206 148.097443
M 1004.080236 149.649527
A 8.325913 3.492258 0 0 0 1020.732061 149.649527
M 1013.632978 151.201611
A 7.714970 3.236001 0 0 0 1029.062917 151.201611
M 1023.185719 152.753695
A 7.104027 2.979745 0 0 0 1037.393773 152.753695
M 1032.738461 154.305779
A 6.493084 2.723488 0 0 0 1045.724628 154.305779
M 1042.291203 155.857863
A 5.882141 2.467231 0 0 0 1054.055484 155.857863
M 1051.843944 157.409947
A 5.271198 2.210975 0 0 0 1062.386340 157.409947
M 1061.396686 158.962031
A 4.660255 1.954718 0 0 0 1070.717195 158.962031
M 1070.949427 160.514115
A 4.049312 1.698461 0 0 0 1079.048051 160.514115
M 1080.502169 162.066199
A 3.438369 1.442205 0 0 0 1087.378907 162.066199
M 1090.054911 163.618283
A 2.827426 1.185948 0 0 0 1095.709762 163.618283
M 1099.607652 165.170367
A 2.216483 0.929691 0 0 0 1104.040618 165.170367
M 1109.160394 166.722451
A 1.605540 0.673435 0 0 0 1112.371474 166.722451
M 1118.713136 168.274535
A 0.994597 0.500000 0 0 0 1120.702329 168.274535
M 1128.265877 169.942965
A 0.500000 0.500000 0 0 0 1129.265877 169.942965
M 1138.364041 171.651414
A 0.500000 0.500000 0 0 0 1137.364041 171.651414
M 1147.371361 172.930787
A 0.838232 0.500000 0 0 0 1145.694896 172.930787
M 1156.924102 174.482871
A 1.449175 0.607848 0 0 0 1154.025752 174.482871
M 1166.476844 176.034955
A 2.060118 0.864105 0 0 0 1162.356608 176.034955
M 1176.029586 177.587039
A 2.671061 1.120362 0 0 0 1170.687463 177.587039
M 1185.582327 179.139123
A 3.282004 1.376618 0 0 0 1179.018319 179.139123
M 1195.135069 180.691207
A 3.892947 1.632875 0 0 0 1187.349175 180.691207
M 1204.687811 182.243291
A 4.503890 1.889132 0 0 0 1195.680031 182.243291
M 1214.240552 183.795375
A 5.114833 2.145388 0 0 0 1204.010886 183.795375
M 1223.793294 185.347459
A 5.725776 2.401645 0 0 0 1212.341742 185.347459
M 1177.139758 462.150369
A 24.686082 10.354440 0 0 0 1226.511922 462.150369
M 1178.644710 453.221243
A 23.705055 9.942953 0 0 0 1226.054820 453.221243
M 1180.149663 444.292117
A 22.724027 9.531467 0 0 0 1225.597717 444.292117
M 1181.654616 435.362991
A 21.742999 9.119980 0 0 0 1225.140614 435.362991
M 1183.159569 426.433865
A 20.761972 8.708494 0 0 0 1224.683512 426.433865
M 1184.664521 417.504739
A 19.780944 8.297007 0 0 0 1224.226409 417.504739
M 1186.169474 408.575612
A 18.799916 7.885520 0 0 0 1223.769307 408.575612
M 1187.674427 399.646486
A 17.818889 7.474034 0 0 0 1223.312204 399.646486
M 1189.179380 390.717360
A 16.837861 7.062547 0 0 0 1222.855101 390.717360
M 1190.684333 381.788234
A 15.856833 6.651061 0 0 0 1222.397999 381.788234
M 1192.189285 372.859108
A 14.875805 6.239574 0 0 0 1221.940896 372.859108
M 1193.694238 363.929982
A 13.894778 5.828087 0 0 0 1221.483794 363.929982
M 1195.199191 355.000856
A 12.913750 5.416601 0 0 0 1221.026691 355.000856
M 1196.704144 346.071730
A 11.932722 5.005114 0 0 0 1220.569589 346.071730
M 1198.209097 337.142603
A 10.951695 4.593628 0 0 0 1220.112486 337.142603
M 1199.714049 328.213477
A 9.970667 4.182141 0 0 0 1219.655383 328.213477
M 1201.219002 319.284351
A 8.989639 3.770654 0 0 0 1219.198281 319.284351
M 1202.723955 310.355225
A 8.008612 3.359168 0 0 0 1218.741178 310.355225
M 1204.228908 301.426099
A 7.027584 2.947681 0 0 0 1218.284076 301.426099
M 1205.733860 292.496973
A 6.046556 2.536194 0 0 0 1217.826973 292.496973
M 1207.238813 283.567847
A 5.065529 2.124708 0 0 0 1217.369870 283.567847
M 1208.743766 274.638721
A 4.084501 1.713221 0 0 0 1216.912768 274.638721
M 1210.248719 265.709594
A 3.103473 1.301735 0 0 0 1216.455665 265.709594
M 1211.753672 256.780468
A 2.122446 0.890248 0 0 0 1215.998563 256.780468
M 1213.258624 247.851342
A 1.141418 0.500000 0 0 0 1215.541460 247.851342
M 1214.763577 239.261826
A 0.500000 0.500000 0 0 0 1215.763577 239.261826
M 1216.268530 229.993090
A 0.820638 0.500000 0 0 0 1214.627255 229.993090
M 1217.773483 221.063964
A 1.801665 0.755698 0 0 0 1214.170152 221.063964
M 1219.278435 212.134838
A 2.782693 1.167185 0 0 0 1213.713050 212.134838
M 1220.783388 203.205712
A 3.763721 1.578672 0 0 0 1213.255947 203.205712
M 1222.288341 194.276585
A 4.744748 1.990158 0 0 0 1212.798844 194.276585
M 913.952766 407.007789
A 40.323993 16.913675 0 0 0 994.600752 407.007789
M 922.725666 408.845875
A 39.802729 16.695034 0 0 0 1002.331124 408.845875
M 931.498566 410.683961
A 39.281465 16.476392 0 0 0 1010.061496 410.683961
M 940.271465 412.522047
A 38.760202 16.257751 0 0 0 1017.791869 412.522047
M 949.044365 414.360133
A 38.238938 16.039110 0 0 0 1025.522241 414.360133
M 957.817265 416.198219
A 37.717674 15.820469 0 0 0 1033.252614 416.198219
M 966.590165 418.036305
A 37.196411 15.601828 0 0 0 1040.982986 418.036305
M 975.363064 419.874391
A 36.675147 15.383187 0 0 0 1048.713358 419.874391
M 984.135964 421.712477
A 36.153883 15.164545 0 0 0 1056.443731 421.712477
M 992.908864 423.550563
A 35.632620 14.945904 0 0 0 1064.174103 423.550563
M 1001.681763 425.388649
A 35.111356 14.727263 0 0 0 1071.904475 425.388649
M 1010.454663 427.226735
A 34.590092 14.508622 0 0 0 1079.634848 427.226735
M 1019.227563 429.064821
A 34.068829 14.289981 0 0 0 1087.365220 429.064821
M 1028.000463 430.902907
A 33.547565 14.071340 0 0 0 1095.095592 430.902907
M 1036.773362 432.740993
A 33.026301 13.852699 0 0 0 1102.825965 432.740993
M 1045.546262 434.579079
A 32.505038 13.634057 0 0 0 1110.556337 434.579079
M 1054.319162 436.417165
A 31.983774 13.415416 0 0 0 1118.286709 436.417165
M 1063.092061 438.255251
A 31.462510 13.196775 0 0 0 1126.017082 438.255251
M 1071.864961 440.093337
A 30.941246 12.978134 0 0 0 1133.747454 440.093337
M 1080.637861 441.931423
A 30.419983 12.759493 0 0 0 1141.477826 441.931423
M 1089.410760 443.769509
A 29.898719 12.540852 0 0 0 1149.208199 443.769509
M 1098.183660 445.607595
A 29.377455 12.322210 0 0 0 1156.938571 445.607595
M 1106.956560 447.445681
A 28.856192 12.103569 0 0 0 1164.668943 447.445681
M 1115.729460 449.283767
A 28.334928 11.884928 0 0 0 1172.399316 449.283767
M 1124.502359 451.121853
A 27.813664 11.666287 0 0 0 1180.129688 451.121853
M 1133.275259 452.959939
A 27.292401 11.447646 0 0 0 1187.860060 452.959939
M 1142.048159 454.798025
A 26.771137 11.229005 0 0 0 1195.590433 454.798025
M 1150.821058 456.636111
A 26.249873 11.010364 0 0 0 1203.320805 456.636111
M 1159.593958 458.474197
A 25.728610 10.791722 0 0 0 1211.051178 458.474197
M 1168.366858 460.312283
A 25.207346 10.573081 0 0 0 1218.781550 460.312283
M 1143.156791 302.619300
A 51.887201 21.763798 0 0 0 1039.382390 302.619300
M 1145.757969 298.836337
A 50.398122 21.139212 0 0 0 1044.961724 298.836337
M 1148.359146 295.053374
A 48.909044 20.514627 0 0 0 1050.541058 295.053374
M 1150.960324 291.270412
A 47.419966 19.890041 0 0 0 1056.120392 291.270412
M 1153.561501 287.487449
A 45.930888 19.265456 0 0 0 1061.699726 287.487449
M 1156.162679 283.704487
A 44.441810 18.640870 0 0 0 1067.279060 283.704487
M 1158.763856 279.921524
A 42.952731 18.016285 0 0 0 1072.858394 279.921524
M 1161.365034 276.138561
A 41.463653 17.391699 0 0 0 1078.437728 276.138561
M 1163.966211 272.355599
A 39.974575 16.767113 0 0 0 1084.017062 272.355599
M 1166.567389 268.572636
A 38.485497 16.142528 0 0 0 1089.596396 268.572636
M 1169.168566 264.789674
A 36.996418 15.517942 0 0 0 1095.175729 264.789674
M 1171.769744 261.006711
A 35.507340 14.893357 0 0 0 1100.755063 261.006711
M 1174.370921 257.223748
A 34.018262 14.268771 0 0 0 1106.334397 257.223748
M 1176.972099 253.440786
A 32.529184 13.644185 0 0 0 1111.913731 253.440786
M 1179.573276 249.657823
A 31.040106 13.019600 0 0 0 1117.493065 249.657823
M 1182.174454 245.874861
A 29.551027 12.395014 0 0 0 1123.072399 245.874861
M 1184.775631 242.091898
A 28.061949 11.770429 0 0 0 1128.651733 242.091898
M 1187.376809 238.308936
A 26.572871 11.145843 0 0 0 1134.231067 238.308936
M 1189.977986 234.525973
A 25.083793 10.521258 0 0 0 1139.810401 234.525973
M 1192.579164 230.743010
A 23.594715 9.896672 0 0 0 1145.389735 230.743010
M 1195.180341 226.960048
A 22.105636 9.272086 0 0 0 1150.969069 226.960048
M 1197.781519 223.177085
A 20.616558 8.647501 0 0 0 1156.548403 223.177085
M 1200.382696 219.394123
A 19.127480 8.022915 0 0 0 1162.127737 219.394123
M 1202.983874 215.611160
A 17.638402 7.398330 0 0 0 1167.707070 215.611160
M 1205.585051 211.828197
A 16.149323 6.773744 0 0 0 1173.286404 211.828197
M 1208.186229 208.045235
A 14.660245 6.149158 0 0 0 1178.865738 208.045235
M 1210.787406 204.262272
A 13.171167 5.524573 0 0 0 1184.445072 204.262272
M 1213.388584 200.479310
A 11.682089 4.899987 0 0 0 1190.024406 200.479310
M 1215.989761 196.696347
A 10.193011 4.275402 0 0 0 1195.603740 196.696347
M 1218.590939 192.913384
A 8.703932 3.650816 0 0 0 1201.183074 192.913384
M 1221.192116 189.130422
A 7.214854 3.026231 0 0 0 1206.762408 189.130422
M 1098.429451 599.236947
A 14.190365 5.952070 0 0 0 1070.048721 599.236947
M 1099.872268 589.668636
A 15.406392 6.462125 0 0 0 1069.059485 589.668636
M 1101.315086 580.100324
A 16.622419 6.972181 0 0 0 1068.070248 580.100324
M 1102.757903 570.532013
A 17.838446 7.482237 0 0 0 1067.081012 570.532013
M 1104.200720 560.963702
A 19.054473 7.992293 0 0 0 1066.091775 560.963702
M 1105.643538 551.395391
A 20.270500 8.502348 0 0 0 1065.102539 551.395391
M 1107.086355 541.827080
A 21.486527 9.012404 0 0 0 1064.113302 541.827080
M 1108.529173 532.258768
A 22.702553 9.522460 0 0 0 1063.124066 532.258768
M 1109.971990 522.690457
A 23.918580 10.032516 0 0 0 1062.134829 522.690457
M 1111.414808 513.122146
A 25.134607 10.542571 0 0 0 1061.145593 513.122146
M 1112.857625 503.553835
A 26.350634 11.052627 0 0 0 1060.156356 503.553835
M 1114.300443 493.985524
A 27.566661 11.562683 0 0 0 1059.167120 493.985524
M 1115.743260 484.417212
A 28.782688 12.072739 0 0 0 1058.177883 484.417212
M 1117.186077 474.848901
A 29.998715 12.582794 0 0 0 1057.188647 474.848901
M 1118.628895 465.280590
A 31.214742 13.092850 0 0 0 1056.199410 465.280590
M 1120.071712 455.712279
A 32.430769 13.602906 0 0 0 1055.210174 455.712279
M 1121.514530 446.143968
A 33.646796 14.112962 0 0 0 1054.220937 446.143968
M 1122.957347 436.575656
A 34.862823 14.623017 0 0 0 1053.231701 436.575656
M 1124.400165 427.007345
A 36.078850 15.133073 0 0 0 1052.242464 427.007345
M 1125.842982 417.439034
A 37.294877 15.643129 0 0 0 1051.253228 417.439034
M 1127.285799 407.870723
A 38.510904 16.153185 0 0 0 1050.263992 407.870723
M 1128.728617 398.302412
A 39.726931 16.663240 0 0 0 1049.274755 398.302412
M 1130.171434 388.734100
A 40.942958 17.173296 0 0 0 1048.285519 388.734100
M 1131.614252 379.165789
A 42.158985 17.683352 0 0 0 1047.296282 379.165789
M 1133.057069 369.597478
A 43.375012 18.193408 0 0 0 1046.307046 369.597478
M 1134.499887 360.029167
A 44.591039 18.703463 0 0 0 1045.317809 360.029167
M 1135.942704 350.460856
A 45.807066 19.213519 0 0 0 1044.328573 350.460856
M 1137.385522 340.892544
A 47.023093 19.723575 0 0 0 1043.339336 340.892544
M 1138.828339 331.324233
A 48.239120 20.233631 0 0 0 1042.350100 331.324233
M 1140.271156 321.755922
A 49.455147 20.743687 0 0 0 1041.360863 321.755922
M 1141.713974 312.187611
A 50.671174 21.253742 0 0 0 1040.371627 312.187611
M 1100.968493 594.814799
A 12.936286 5.426053 0 0 0 1075.095921 594.814799
M 1103.507535 590.392652
A 11.682207 4.900037 0 0 0 1080.143121 590.392652
M 1106.046577 585.970504
A 10.428128 4.374020 0 0 0 1085.190321 585.970504
M 1108.585619 581.548356
A 9.174049 3.848004 0 0 0 1090.237521 581.548356
M 1111.124661 577.126209
A 7.919970 3.321987 0 0 0 1095.284721 577.126209
M 1113.663704 572.704061
A 6.665891 2.795971 0 0 0 1100.331921 572.704061
M 1116.202746 568.281913
A 5.411812 2.269955 0 0 0 1105.379121 568.281913
M 1118.741788 563.859766
A 4.157733 1.743938 0 0 0 1110.426321 563.859766
M 1121.280830 559.437618
A 2.903654 1.217922 0 0 0 1115.473521 559.437618
M 1123.819872 555.015470
A 1.649575 0.691905 0 0 0 1120.520722 555.015470
M 1126.567922 550.697826
A 0.500000 0.500000 0 0 0 1125.567922 550.697826
M 1128.897957 546.171175
A 0.858583 0.500000 0 0 0 1130.615122 546.171175
M 1131.436999 541.749027
A 2.112661 0.886144 0 0 0 1135.662322 541.749027
M 1133.976041 537.326880
A 3.366740 1.412161 0 0 0 1140.709522 537.326880
M 1136.515083 532.904732
A 4.620819 1.938177 0 0 0 1145.756722 532.904732
M 1139.054125 528.482584
A 5.874898 2.464193 0 0 0 1150.803922 528.482584
M 1141.593167 524.060437
A 7.128977 2.990210 0 0 0 1155.851122 524.060437
M 1144.132209 519.638289
A 8.383056 3.516226 0 0 0 1160.898322 519.638289
M 1146.671252 515.216141
A 9.637135 4.042243 0 0 0 1165.945522 515.216141
M 1149.210294 510.793994
A 10.891214 4.568259 0 0 0 1170.992722 510.793994
M 1151.749336 506.371846
A 12.145293 5.094276 0 0 0 1176.039922 506.371846
M 1154.288378 501.949698
A 13.399372 5.620292 0 0 0 1181.087122 501.949698
M 1156.827420 497.527551
A 14.653451 6.146309 0 0 0 1186.134322 497.527551
M 1159.366462 493.105403
A 15.907530 6.672325 0 0 0 1191.181522 493.105403
M 1161.905505 488.683255
A 17.161609 7.198341 0 0 0 1196.228722 488.683255
M 1164.444547 484.261108
A 18.415688 7.724358 0 0 0 1201.275922 484.261108
M 1166.983589 479.838960
A 19.669767 8.250374 0 0 0 1206.323122 479.838960
M 1169.522631 475.416812
A 20.923846 8.776391 0 0 0 1211.370322 475.416812
M 1172.061673 470.994665
A 22.177924 9.302407 0 0 0 1216.417522 470.994665
M 1174.600715 466.572517
A 23.432003 9.828424 0 0 0 1221.464722 466.572517
M 828.673198 244.702785
A 29.089666 12.201499 0 0 0 770.493866 244.702785
M 839.155985 246.633336
A 29.849584 12.520242 0 0 0 779.456817 246.633336
M 849.638771 248.563886
A 30.609502 12.838986 0 0 0 788.419767 248.563886
M 860.121558 250.494437
A 31.369420 13.157729 0 0 0 797.382718 250.494437
M 870.604344 252.424987
A 32.129338 13.476472 0 0 0 806.345669 252.424987
M 881.087130 254.355538
A 32.889255 13.795215 0 0 0 815.308620 254.355538
M 891.569917 256.286088
A 33.649173 14.113959 0 0 0 824.271571 256.286088
M 902.052703 258.216639
A 34.409091 14.432702 0 0 0 833.234521 258.216639
M 912.535490 260.147189
A 35.169009 14.751445 0 0 0 842.197472 260.147189
M 923.018276 262.077740
A 35.928927 15.070189 0 0 0 851.160423 262.077740
M 933.501063 264.008290
A 36.688844 15.388932 0 0 0 860.123374 264.008290
M 943.983849 265.938841
A 37.448762 15.707675 0 0 0 869.086325 265.938841
M 954.466636 267.869391
A 38.208680 16.026419 0 0 0 878.049276 267.869391
M 964.949422 269.799941
A 38.968598 16.345162 0 0 0 887.012226 269.799941
M 975.432208 271.730492
A 39.728516 16.663905 0 0 0 895.975177 271.730492
M 985.914995 273.661042
A 40.488433 16.982648 0 0 0 904.938128 273.661042
M 996.397781 275.591593
A 41.248351 17.301392 0 0 0 913.901079 275.591593
M 1006.880568 277.522143
A 42.008269 17.620135 0 0 0 922.864030 277.522143
M 1017.363354 279.452694
A 42.768187 17.938878 0 0 0 931.826980 279.452694
M 1027.846141 281.383244
A 43.528105 18.257622 0 0 0 940.789931 281.383244
M 1038.328927 283.313795
A 44.288022 18.576365 0 0 0 949.752882 283.313795
M 1048.811713 285.244345
A 45.047940 18.895108 0 0 0 958.715833 285.244345
M 1059.294500 287.174896
A 45.807858 19.213852 0 0 0 967.678784 287.174896
M 1069.777286 289.105446
A 46.567776 19.532595 0 0 0 976.641735 289.105446
M 1080.260073 291.035997
A 47.327694 19.851338 0 0 0 985.604685 291.035997
M 1090.742859 292.966547
A 48.087612 20.170081 0 0 0 994.567636 292.966547
M 1101.225646 294.897098
A 48.847529 20.488825 0 0 0 1003.530587 294.897098
M 1111.708432 296.827648
A 49.607447 20.807568 0 0 0 1012.493538 296.827648
M 1122.191218 298.758199
A 50.367365 21.126311 0 0 0 1021.456489 298.758199
M 1132.674005 300.688749
A 51.127283 21.445055 0 0 0 1030.419439 300.688749
M 811.949119 531.839854
A 4.922809 2.064845 0 0 0 821.794736 531.839854
M 821.498463 534.086424
A 4.285703 1.797614 0 0 0 830.069869 534.086424
M 831.047807 536.332994
A 3.648597 1.530384 0 0 0 838.345001 536.332994
M 840.597152 538.579563
A 3.011491 1.263153 0 0 0 846.620134 538.579563
M 850.146496 540.826133
A 2.374385 0.995923 0 0 0 854.895267 540.826133
M 859.695841 543.072703
A 1.737280 0.728692 0 0 0 863.170400 543.072703
M 869.245185 545.319273
A 1.100174 0.500000 0 0 0 871.445533 545.319273
M 878.794529 547.602774
A 0.500000 0.500000 0 0 0 879.794529 547.602774
M 888.995799 550.138375
A 0.500000 0.500000 0 0 0 887.995799 550.138375
M 897.893218 552.058982
A 0.811143 0.500000 0 0 0 896.270931 552.058982
M 907.442563 554.305552
A 1.448249 0.607460 0 0 0 904.546064 554.305552
M 916.991907 556.552121
A 2.085355 0.874691 0 0 0 912.821197 556.552121
M 926.541251 558.798691
A 2.722461 1.141921 0 0 0 921.096330 558.798691
M 936.090596 561.045261
A 3.359567 1.409152 0 0 0 929.371463 561.045261
M 945.639940 563.291831
A 3.996672 1.676382 0 0 0 937.646596 563.291831
M 955.189285 565.538401
A 4.633778 1.943612 0 0 0 945.921728 565.538401
M 964.738629 567.784970
A 5.270884 2.210843 0 0 0 954.196861 567.784970
M 974.287973 570.031540
A 5.907990 2.478073 0 0 0 962.471994 570.031540
M 983.837318 572.278110
A 6.545095 2.745304 0 0 0 970.747127 572.278110
M 993.386662 574.524680
A 7.182201 3.012534 0 0 0 979.022260 574.524680
M 1002.936007 576.771249
A 7.819307 3.279765 0 0 0 987.297393 576.771249
M 1012.485351 579.017819
A 8.456413 3.546995 0 0 0 995.572526 579.017819
M 1022.034695 581.264389
A 9.093519 3.814226 0 0 0 1003.847658 581.264389
M 1031.584040 583.510959
A 9.730624 4.081456 0 0 0 1012.122791 583.510959
M 1041.133384 585.757528
A 10.367730 4.348687 0 0 0 1020.397924 585.757528
M 1050.682729 588.004098
A 11.004836 4.615917 0 0 0 1028.673057 588.004098
M 1060.232073 590.250668
A 11.641942 4.883148 0 0 0 1036.948190 590.250668
M 1069.781417 592.497238
A 12.279047 5.150378 0 0 0 1045.223323 592.497238
M 1079.330762 594.743807
A 12.916153 5.417609 0 0 0 1053.498455 594.743807
M 1088.880106 596.990377
A 13.553259 5.684839 0 0 0 1061.773588 596.990377
"/>
</svg>