<?xml version="1.0" encoding="UTF-8"?>
<svg width="1052" height="652" viewBox="0 0 1052 652" fill="none" xmlns="http://www.w3.org/2000/svg">
<path stroke="black" stroke-width="0.1500" d="
M 688.000000 188.500000
A 116.500000 116.500000 0 0 1 455.000000 188.500000
M 685.000000 202.500000
A 113.500000 113.500000 0 0 1 458.000000 202.500000
M 683.000000 217.000000
A 111.000000 111.000000 0 0 1 461.000000 217.000000
M 680.000000 231.000000
A 108.000000 108.000000 0 0 1 464.000000 231.000000
M 677.000000 245.000000
A 105.000000 105.000000 0 0 1 467.000000 245.000000
M 674.000000 259.000000
A 102.000000 102.000000 0 0 1 470.000000 259.000000
M 671.000000 273.000000
A 99.000000 99.000000 0 0 1 473.000000 273.000000
M 668.000000 287.000000
A 96.000000 96.000000 0 0 1 476.000000 287.000000
M 666.000000 301.500000
A 93.500000 93.500000 0 0 1 479.000000 301.500000
M 664.000000 315.500000
A 90.500000 90.500000 0 0 1 483.000000 315.500000
M 661.000000 329.500000
A 87.500000 87.500000 0 0 1 486.000000 329.500000
M 658.000000 343.500000
A 84.500000 84.500000 0 0 1 489.000000 343.500000
M 655.000000 357.500000
A 81.500000 81.500000 0 0 1 492.000000 357.500000
M 653.000000 372.000000
A 79.000000 79.000000 0 0 1 495.000000 372.000000
M 650.000000 386.000000
A 76.000000 76.000000 0 0 1 498.000000 386.000000
M 647.000000 400.000000
A 73.000000 73.000000 0 0 1 501.000000 400.000000
M 644.000000 414.000000
A 70.000000 70.000000 0 0 1 504.000000 414.000000
M 641.000000 428.000000
A 67.000000 67.000000 0 0 1 507.000000 428.000000
M 638.000000 441.000000
A 64.000000 64.000000 0 0 1 510.000000 441.000000
M 636.000000 455.500000
A 61.500000 61.500000 0 0 1 513.000000 455.500000
M 633.000000 469.500000
A 58.500000 58.500000 0 0 1 516.000000 469.500000
M 630.000000 483.500000
A 55.500000 55.500000 0 0 1 519.000000 483.500000
M 627.000000 497.500000
A 52.500000 52.500000 0 0 1 522.000000 497.500000
M 624.000000 511.500000
A 49.500000 49.500000 0 0 1 525.000000 511.500000
M 622.000000 526.000000
A 47.000000 47.000000 0 0 1 528.000000 526.000000
M 619.000000 540.000000
A 44.000000 44.000000 0 0 1 531.000000 540.000000
M 616.000000 554.000000
A 41.000000 41.000000 0 0 1 534.000000 554.000000
M 613.000000 568.000000
A 38.000000 38.000000 0 0 1 537.000000 568.000000
M 610.000000 582.000000
A 35.000000 35.000000 0 0 1 540.000000 582.000000
M 607.000000 596.000000
A 32.000000 32.000000 0 0 1 543.000000 596.000000
M 605.000000 610.500000
A 29.500000 29.500000 0 0 1 546.000000 610.500000
M 602.000000 624.500000
A 26.500000 26.500000 0 0 1 549.000000 624.500000
M 600.000000 638.500000
A 23.500000 23.500000 0 0 1 553.000000 638.500000
M 597.000000 652.500000
A 20.500000 20.500000 0 0 1 556.000000 652.500000
M 298.000000 -19.500000
A 34.500000 34.500000 0 0 1 229.000000 -19.500000
M 310.000000 -13.000000
A 37.000000 37.000000 0 0 1 236.000000 -13.000000
M 322.000000 -6.500000
A 39.500000 39.500000 0 0 1 243.000000 -6.500000
M 334.000000 0.000000
A 42.000000 42.000000 0 0 1 250.000000 0.000000
M 346.000000 5.500000
A 44.500000 44.500000 0 0 1 257.000000 5.500000
M 357.000000 12.000000
A 47.000000 47.000000 0 0 1 263.000000 12.000000
M 369.000000 18.500000
A 49.500000 49.500000 0 0 1 270.000000 18.500000
M 381.000000 25.000000
A 52.000000 52.000000 0 0 1 277.000000 25.000000
M 393.000000 31.500000
A 54.500000 54.500000 0 0 1 284.000000 31.500000
M 405.000000 38.000000
A 57.000000 57.000000 0 0 1 291.000000 38.000000
M 417.000000 44.500000
A 59.500000 59.500000 0 0 1 298.000000 44.500000
M 429.000000 50.000000
A 62.000000 62.000000 0 0 1 305.000000 50.000000
M 440.000000 56.500000
A 64.500000 64.500000 0 0 1 311.000000 56.500000
M 452.000000 63.000000
A 67.000000 67.000000 0 0 1 318.000000 63.000000
M 464.000000 69.500000
A 69.500000 69.500000 0 0 1 325.000000 69.500000
M 476.000000 75.000000
A 72.000000 72.000000 0 0 1 332.000000 75.000000
M 488.000000 81.500000
A 74.500000 74.500000 0 0 1 339.000000 81.500000
M 500.000000 88.000000
A 77.000000 77.000000 0 0 1 346.000000 88.000000
M 511.000000 93.500000
A 79.500000 79.500000 0 0 1 352.000000 93.500000
M 523.000000 100.000000
A 82.000000 82.000000 0 0 1 359.000000 100.000000
M 535.000000 106.500000
A 84.500000 84.500000 0 0 1 366.000000 106.500000
M 547.000000 113.000000
A 87.000000 87.000000 0 0 1 373.000000 113.000000
M 558.000000 119.000000
A 89.000000 89.000000 0 0 1 380.000000 119.000000
M 570.000000 125.500000
A 91.500000 91.500000 0 0 1 387.000000 125.500000
M 582.000000 132.000000
A 94.000000 94.000000 0 0 1 394.000000 132.000000
M 593.000000 137.500000
A 96.500000 96.500000 0 0 1 400.000000 137.500000
M 605.000000 144.000000
A 99.000000 99.000000 0 0 1 407.000000 144.000000
M 617.000000 150.500000
A 101.500000 101.500000 0 0 1 414.000000 150.500000
M 629.000000 157.000000
A 104.000000 104.000000 0 0 1 421.000000 157.000000
M 641.000000 163.500000
A 106.500000 106.500000 0 0 1 428.000000 163.500000
M 653.000000 170.000000
A 109.000000 109.000000 0 0 1 435.000000 170.000000
M 664.000000 176.500000
A 111.500000 111.500000 0 0 1 441.000000 176.500000
M 676.000000 182.000000
A 114.000000 114.000000 0 0 1 448.000000 182.000000
M 297.000000 -6.000000
A 32.000000 32.000000 0 0 1 233.000000 -6.000000
M 295.000000 7.500000
A 29.500000 29.500000 0 0 1 236.000000 7.500000
M 293.000000 22.000000
A 27.000000 27.000000 0 0 1 239.000000 22.000000
M 292.000000 34.500000
A 24.500000 24.500000 0 0 1 243.000000 34.500000
M 290.000000 48.000000
A 22.000000 22.000000 0 0 1 246.000000 48.000000
M 288.000000 61.500000
A 19.500000 19.500000 0 0 1 249.000000 61.500000
M 287.000000 75.000000
A 17.000000 17.000000 0 0 1 253.000000 75.000000
M 284.000000 88.000000
A 14.000000 14.000000 0 0 1 256.000000 88.000000
M 282.000000 102.500000
A 11.500000 11.500000 0 0 1 259.000000 102.500000
M 281.000000 116.000000
A 9.000000 9.000000 0 0 1 263.000000 116.000000
M 279.000000 129.500000
A 6.500000 6.500000 0 0 1 266.000000 129.500000
M 278.000000 143.000000
A 4.000000 4.000000 0 0 1 270.000000 143.000000
M 276.000000 156.500000
A 1.500000 1.500000 0 0 1 273.000000 156.500000
M 274.000000 170.000000
A 1.000000 1.000000 0 0 1 276.000000 170.000000
M 273.000000 184.500000
A 3.500000 3.500000 0 0 1 280.000000 184.500000
M 271.000000 198.000000
A 6.000000 6.000000 0 0 1 283.000000 198.000000
M 269.000000 211.500000
A 8.500000 8.500000 0 0 1 286.000000 211.500000
M 267.000000 225.000000
A 11.000000 11.000000 0 0 1 289.000000 225.000000
M 266.000000 238.500000
A 13.500000 13.500000 0 0 1 293.000000 238.500000
M 264.000000 252.000000
A 16.000000 16.000000 0 0 1 296.000000 252.000000
M 262.000000 266.000000
A 19.000000 19.000000 0 0 1 300.000000 266.000000
M 261.000000 279.500000
A 21.500000 21.500000 0 0 1 304.000000 279.500000
M 259.000000 293.000000
A 24.000000 24.000000 0 0 1 307.000000 293.000000
M 257.000000 306.500000
A 26.500000 26.500000 0 0 1 310.000000 306.500000
M 255.000000 320.000000
A 29.000000 29.000000 0 0 1 313.000000 320.000000
M 254.000000 334.500000
A 31.500000 31.500000 0 0 1 317.000000 334.500000
M 252.000000 348.000000
A 34.000000 34.000000 0 0 1 320.000000 348.000000
M 250.000000 361.500000
A 36.500000 36.500000 0 0 1 323.000000 361.500000
M 248.000000 375.000000
A 39.000000 39.000000 0 0 1 326.000000 375.000000
M 247.000000 388.500000
A 41.500000 41.500000 0 0 1 330.000000 388.500000
M 245.000000 402.000000
A 44.000000 44.000000 0 0 1 333.000000 402.000000
M 243.000000 415.500000
A 46.500000 46.500000 0 0 1 336.000000 415.500000
M 242.000000 429.500000
A 49.500000 49.500000 0 0 1 341.000000 429.500000
M 252.000000 436.000000
A 47.000000 47.000000 0 0 1 346.000000 436.000000
M 263.000000 443.000000
A 45.000000 45.000000 0 0 1 353.000000 443.000000
M 274.000000 450.000000
A 43.000000 43.000000 0 0 1 360.000000 450.000000
M 285.000000 457.000000
A 41.000000 41.000000 0 0 1 367.000000 457.000000
M 295.000000 463.500000
A 38.500000 38.500000 0 0 1 372.000000 463.500000
M 306.000000 469.500000
A 36.500000 36.500000 0 0 1 379.000000 469.500000
M 317.000000 476.500000
A 34.500000 34.500000 0 0 1 386.000000 476.500000
M 328.000000 483.500000
A 32.500000 32.500000 0 0 1 393.000000 483.500000
M 338.000000 490.000000
A 30.000000 30.000000 0 0 1 398.000000 490.000000
M 349.000000 497.000000
A 28.000000 28.000000 0 0 1 405.000000 497.000000
M 360.000000 504.000000
A 26.000000 26.000000 0 0 1 412.000000 504.000000
M 371.000000 511.000000
A 24.000000 24.000000 0 0 1 419.000000 511.000000
M 382.000000 518.000000
A 22.000000 22.000000 0 0 1 426.000000 518.000000
M 392.000000 523.500000
A 19.500000 19.500000 0 0 1 431.000000 523.500000
M 403.000000 530.500000
A 17.500000 17.500000 0 0 1 438.000000 530.500000
M 414.000000 537.500000
A 15.500000 15.500000 0 0 1 445.000000 537.500000
M 425.000000 544.500000
A 13.500000 13.500000 0 0 1 452.000000 544.500000
M 435.000000 551.000000
A 11.000000 11.000000 0 0 1 457.000000 551.000000
M 446.000000 558.000000
A 9.000000 9.000000 0 0 1 464.000000 558.000000
M 457.000000 565.000000
A 7.000000 7.000000 0 0 1 471.000000 565.000000
M 468.000000 572.000000
A 5.000000 5.000000 0 0 1 478.000000 572.000000
M 478.000000 577.500000
A 2.500000 2.500000 0 0 1 483.000000 577.500000
M 489.000000 584.500000
A 0.500000 0.500000 0 0 1 490.000000 584.500000
M 500.000000 591.500000
A 1.500000 1.500000 0 0 1 497.000000 591.500000
M 510.000000 598.500000
A 3.500000 3.500000 0 0 1 503.000000 598.500000
M 522.000000 605.000000
A 6.000000 6.000000 0 0 1 510.000000 605.000000
M 532.000000 612.000000
A 8.000000 8.000000 0 0 1 516.000000 612.000000
M 543.000000 619.000000
A 10.000000 10.000000 0 0 1 523.000000 619.000000
M 553.000000 625.000000
A 12.000000 12.000000 0 0 1 529.000000 625.000000
M 564.000000 632.000000
A 14.000000 14.000000 0 0 1 536.000000 632.000000
M 576.000000 639.500000
A 16.500000 16.500000 0 0 1 543.000000 639.500000
M 586.000000 645.500000
A 18.500000 18.500000 0 0 1 549.000000 645.500000
M 309.000000 -24.000000
A 33.000000 33.000000 0 0 1 243.000000 -24.000000
M 321.000000 -27.500000
A 31.500000 31.500000 0 0 1 258.000000 -27.500000
M 331.000000 -32.500000
A 29.500000 29.500000 0 0 1 272.000000 -32.500000
M 342.000000 -36.000000
A 28.000000 28.000000 0 0 1 286.000000 -36.000000
M 353.000000 -40.500000
A 26.500000 26.500000 0 0 1 300.000000 -40.500000
M 363.000000 -44.500000
A 24.500000 24.500000 0 0 1 314.000000 -44.500000
M 375.000000 -49.000000
A 23.000000 23.000000 0 0 1 329.000000 -49.000000
M 386.000000 -52.500000
A 21.500000 21.500000 0 0 1 343.000000 -52.500000
M 396.000000 -57.500000
A 19.500000 19.500000 0 0 1 357.000000 -57.500000
M 407.000000 -62.000000
A 18.000000 18.000000 0 0 1 371.000000 -62.000000
M 418.000000 -65.500000
A 16.500000 16.500000 0 0 1 385.000000 -65.500000
M 430.000000 -70.000000
A 15.000000 15.000000 0 0 1 400.000000 -70.000000
M 440.000000 -74.000000
A 13.000000 13.000000 0 0 1 414.000000 -74.000000
M 451.000000 -78.500000
A 11.500000 11.500000 0 0 1 428.000000 -78.500000
M 462.000000 -82.000000
A 10.000000 10.000000 0 0 1 442.000000 -82.000000
M 472.000000 -87.000000
A 8.000000 8.000000 0 0 1 456.000000 -87.000000
M 484.000000 -91.500000
A 6.500000 6.500000 0 0 1 471.000000 -91.500000
M 495.000000 -95.000000
A 5.000000 5.000000 0 0 1 485.000000 -95.000000
M 505.000000 -100.000000
A 3.000000 3.000000 0 0 1 499.000000 -100.000000
M 516.000000 -103.500000
A 1.500000 1.500000 0 0 1 513.000000 -103.500000
M 527.000000 -107.500000
A 0.500000 0.500000 0 0 1 528.000000 -107.500000
M 538.000000 -112.500000
A 1.500000 1.500000 0 0 1 541.000000 -112.500000
M 549.000000 -116.500000
A 3.500000 3.500000 0 0 1 556.000000 -116.500000
M 560.000000 -120.000000
A 5.000000 5.000000 0 0 1 570.000000 -120.000000
M 571.000000 -124.500000
A 6.500000 6.500000 0 0 1 584.000000 -124.500000
M 582.000000 -128.500000
A 8.500000 8.500000 0 0 1 599.000000 -128.500000
M 593.000000 -133.000000
A 10.000000 10.000000 0 0 1 613.000000 -133.000000
M 604.000000 -137.500000
A 11.500000 11.500000 0 0 1 627.000000 -137.500000
M 614.000000 -141.500000
A 13.500000 13.500000 0 0 1 641.000000 -141.500000
M 625.000000 -146.000000
A 15.000000 15.000000 0 0 1 655.000000 -146.000000
M 636.000000 -149.500000
A 16.500000 16.500000 0 0 1 669.000000 -149.500000
M 647.000000 -154.000000
A 18.000000 18.000000 0 0 1 683.000000 -154.000000
M 658.000000 -158.000000
A 20.000000 20.000000 0 0 1 698.000000 -158.000000
M 578.000000 280.000000
A 96.000000 96.000000 0 0 1 770.000000 280.000000
M 581.000000 267.000000
A 94.000000 94.000000 0 0 1 769.000000 267.000000
M 583.000000 253.500000
A 91.500000 91.500000 0 0 1 766.000000 253.500000
M 586.000000 240.000000
A 89.000000 89.000000 0 0 1 764.000000 240.000000
M 588.000000 227.000000
A 87.000000 87.000000 0 0 1 762.000000 227.000000
M 590.000000 213.500000
A 84.500000 84.500000 0 0 1 759.000000 213.500000
M 593.000000 200.000000
A 82.000000 82.000000 0 0 1 757.000000 200.000000
M 595.000000 187.000000
A 80.000000 80.000000 0 0 1 755.000000 187.000000
M 598.000000 173.500000
A 77.500000 77.500000 0 0 1 753.000000 173.500000
M 600.000000 160.500000
A 75.500000 75.500000 0 0 1 751.000000 160.500000
M 602.000000 147.000000
A 73.000000 73.000000 0 0 1 748.000000 147.000000
M 605.000000 133.500000
A 70.500000 70.500000 0 0 1 746.000000 133.500000
M 607.000000 120.500000
A 68.500000 68.500000 0 0 1 744.000000 120.500000
M 610.000000 107.000000
A 66.000000 66.000000 0 0 1 742.000000 107.000000
M 612.000000 93.500000
A 63.500000 63.500000 0 0 1 739.000000 93.500000
M 615.000000 80.500000
A 61.500000 61.500000 0 0 1 738.000000 80.500000
M 617.000000 67.000000
A 59.000000 59.000000 0 0 1 735.000000 67.000000
M 619.000000 55.000000
A 57.000000 57.000000 0 0 1 733.000000 55.000000
M 622.000000 41.500000
A 54.500000 54.500000 0 0 1 731.000000 41.500000
M 624.000000 28.000000
A 52.000000 52.000000 0 0 1 728.000000 28.000000
M 627.000000 15.000000
A 50.000000 50.000000 0 0 1 727.000000 15.000000
M 629.000000 1.500000
A 47.500000 47.500000 0 0 1 724.000000 1.500000
M 632.000000 -11.500000
A 45.500000 45.500000 0 0 1 723.000000 -11.500000
M 634.000000 -25.000000
A 43.000000 43.000000 0 0 1 720.000000 -25.000000
M 636.000000 -38.500000
A 40.500000 40.500000 0 0 1 717.000000 -38.500000
M 639.000000 -51.500000
A 38.500000 38.500000 0 0 1 716.000000 -51.500000
M 641.000000 -65.000000
A 36.000000 36.000000 0 0 1 713.000000 -65.000000
M 644.000000 -78.500000
A 33.500000 33.500000 0 0 1 711.000000 -78.500000
M 646.000000 -91.500000
A 31.500000 31.500000 0 0 1 709.000000 -91.500000
M 648.000000 -105.000000
A 29.000000 29.000000 0 0 1 706.000000 -105.000000
M 651.000000 -118.000000
A 27.000000 27.000000 0 0 1 705.000000 -118.000000
M 653.000000 -131.500000
A 24.500000 24.500000 0 0 1 702.000000 -131.500000
M 656.000000 -145.000000
A 22.000000 22.000000 0 0 1 700.000000 -145.000000
M 252.000000 424.500000
A 50.500000 50.500000 0 0 1 353.000000 424.500000
M 262.000000 420.000000
A 52.000000 52.000000 0 0 1 366.000000 420.000000
M 272.000000 415.500000
A 53.500000 53.500000 0 0 1 379.000000 415.500000
M 282.000000 411.000000
A 55.000000 55.000000 0 0 1 392.000000 411.000000
M 293.000000 407.500000
A 56.500000 56.500000 0 0 1 406.000000 407.500000
M 303.000000 403.000000
A 58.000000 58.000000 0 0 1 419.000000 403.000000
M 313.000000 398.000000
A 59.000000 59.000000 0 0 1 431.000000 398.000000
M 323.000000 393.500000
A 60.500000 60.500000 0 0 1 444.000000 393.500000
M 333.000000 389.000000
A 62.000000 62.000000 0 0 1 457.000000 389.000000
M 344.000000 384.500000
A 63.500000 63.500000 0 0 1 471.000000 384.500000
M 354.000000 380.000000
A 65.000000 65.000000 0 0 1 484.000000 380.000000
M 364.000000 375.500000
A 66.500000 66.500000 0 0 1 497.000000 375.500000
M 374.000000 370.500000
A 67.500000 67.500000 0 0 1 509.000000 370.500000
M 384.000000 366.000000
A 69.000000 69.000000 0 0 1 522.000000 366.000000
M 395.000000 361.500000
A 70.500000 70.500000 0 0 1 536.000000 361.500000
M 405.000000 357.000000
A 72.000000 72.000000 0 0 1 549.000000 357.000000
M 415.000000 352.500000
A 73.500000 73.500000 0 0 1 562.000000 352.500000
M 425.000000 348.000000
A 75.000000 75.000000 0 0 1 575.000000 348.000000
M 435.000000 343.000000
A 76.000000 76.000000 0 0 1 587.000000 343.000000
M 446.000000 338.500000
A 77.500000 77.500000 0 0 1 601.000000 338.500000
M 456.000000 335.000000
A 79.000000 79.000000 0 0 1 614.000000 335.000000
M 466.000000 330.500000
A 80.500000 80.500000 0 0 1 627.000000 330.500000
M 476.000000 326.000000
A 82.000000 82.000000 0 0 1 640.000000 326.000000
M 486.000000 321.500000
A 83.500000 83.500000 0 0 1 653.000000 321.500000
M 497.000000 316.500000
A 84.500000 84.500000 0 0 1 666.000000 316.500000
M 507.000000 312.000000
A 86.000000 86.000000 0 0 1 679.000000 312.000000
M 517.000000 307.500000
A 87.500000 87.500000 0 0 1 692.000000 307.500000
M 527.000000 303.000000
A 89.000000 89.000000 0 0 1 705.000000 303.000000
M 538.000000 298.500000
A 90.500000 90.500000 0 0 1 719.000000 298.500000
M 548.000000 294.000000
A 92.000000 92.000000 0 0 1 732.000000 294.000000
M 558.000000 289.000000
A 93.000000 93.000000 0 0 1 744.000000 289.000000
M 568.000000 284.500000
A 94.500000 94.500000 0 0 1 757.000000 284.500000
M 670.000000 -152.500000
A 17.500000 17.500000 0 0 1 705.000000 -152.500000
M 682.000000 -146.500000
A 15.500000 15.500000 0 0 1 713.000000 -146.500000
M 694.000000 -141.000000
A 13.000000 13.000000 0 0 1 720.000000 -141.000000
M 706.000000 -135.000000
A 11.000000 11.000000 0 0 1 728.000000 -135.000000
M 718.000000 -129.500000
A 8.500000 8.500000 0 0 1 735.000000 -129.500000
M 730.000000 -123.500000
A 6.500000 6.500000 0 0 1 743.000000 -123.500000
M 742.000000 -118.000000
A 4.000000 4.000000 0 0 1 750.000000 -118.000000
M 754.000000 -112.000000
A 2.000000 2.000000 0 0 1 758.000000 -112.000000
M 766.000000 -106.500000
A 0.500000 0.500000 0 0 1 765.000000 -106.500000
M 778.000000 -101.500000
A 2.500000 2.500000 0 0 1 773.000000 -101.500000
M 790.000000 -95.000000
A 5.000000 5.000000 0 0 1 780.000000 -95.000000
M 801.000000 -90.000000
A 7.000000 7.000000 0 0 1 787.000000 -90.000000
M 814.000000 -83.500000
A 9.500000 9.500000 0 0 1 795.000000 -83.500000
M 825.000000 -78.500000
A 11.500000 11.500000 0 0 1 802.000000 -78.500000
M 838.000000 -72.000000
A 14.000000 14.000000 0 0 1 810.000000 -72.000000
M 849.000000 -67.000000
A 16.000000 16.000000 0 0 1 817.000000 -67.000000
M 862.000000 -60.500000
A 18.500000 18.500000 0 0 1 825.000000 -60.500000
M 873.000000 -55.500000
A 20.500000 20.500000 0 0 1 832.000000 -55.500000
M 886.000000 -49.000000
A 23.000000 23.000000 0 0 1 840.000000 -49.000000
M 897.000000 -44.000000
A 25.000000 25.000000 0 0 1 847.000000 -44.000000
M 910.000000 -37.500000
A 27.500000 27.500000 0 0 1 855.000000 -37.500000
M 921.000000 -32.500000
A 29.500000 29.500000 0 0 1 862.000000 -32.500000
M 933.000000 -26.500000
A 31.500000 31.500000 0 0 1 870.000000 -26.500000
M 945.000000 -21.000000
A 34.000000 34.000000 0 0 1 877.000000 -21.000000
M 957.000000 -15.000000
A 36.000000 36.000000 0 0 1 885.000000 -15.000000
M 969.000000 -9.500000
A 38.500000 38.500000 0 0 1 892.000000 -9.500000
M 981.000000 -3.500000
A 40.500000 40.500000 0 0 1 900.000000 -3.500000
M 993.000000 2.000000
A 43.000000 43.000000 0 0 1 907.000000 2.000000
M 1004.000000 7.000000
A 45.000000 45.000000 0 0 1 914.000000 7.000000
M 1017.000000 13.500000
A 47.500000 47.500000 0 0 1 922.000000 13.500000
M 1028.000000 18.500000
A 49.500000 49.500000 0 0 1 929.000000 18.500000
M 1041.000000 25.000000
A 52.000000 52.000000 0 0 1 937.000000 25.000000
M 1052.000000 30.000000
A 54.000000 54.000000 0 0 1 944.000000 30.000000
M 938.000000 482.500000
A 32.500000 32.500000 0 0 1 1003.000000 482.500000
M 941.000000 469.000000
A 30.000000 30.000000 0 0 1 1001.000000 469.000000
M 945.000000 455.500000
A 27.500000 27.500000 0 0 1 1000.000000 455.500000
M 948.000000 441.500000
A 24.500000 24.500000 0 0 1 997.000000 441.500000
M 952.000000 428.000000
A 22.000000 22.000000 0 0 1 996.000000 428.000000
M 955.000000 414.500000
A 19.500000 19.500000 0 0 1 994.000000 414.500000
M 959.000000 401.000000
A 17.000000 17.000000 0 0 1 993.000000 401.000000
M 962.000000 387.000000
A 14.000000 14.000000 0 0 1 990.000000 387.000000
M 966.000000 373.500000
A 11.500000 11.500000 0 0 1 989.000000 373.500000
M 969.000000 359.000000
A 9.000000 9.000000 0 0 1 987.000000 359.000000
M 973.000000 345.000000
A 6.000000 6.000000 0 0 1 985.000000 345.000000
M 976.000000 331.500000
A 3.500000 3.500000 0 0 1 983.000000 331.500000
M 980.000000 318.000000
A 1.000000 1.000000 0 0 1 982.000000 318.000000
M 983.000000 304.500000
A 1.500000 1.500000 0 0 1 980.000000 304.500000
M 987.000000 290.500000
A 4.500000 4.500000 0 0 1 978.000000 290.500000
M 990.000000 277.000000
A 7.000000 7.000000 0 0 1 976.000000 277.000000
M 994.000000 263.500000
A 9.500000 9.500000 0 0 1 975.000000 263.500000
M 997.000000 249.000000
A 12.000000 12.000000 0 0 1 973.000000 249.000000
M 1001.000000 236.000000
A 15.000000 15.000000 0 0 1 971.000000 236.000000
M 1004.000000 222.500000
A 17.500000 17.500000 0 0 1 969.000000 222.500000
M 1007.000000 208.000000
A 20.000000 20.000000 0 0 1 967.000000 208.000000
M 1011.000000 194.500000
A 22.500000 22.500000 0 0 1 966.000000 194.500000
M 1015.000000 180.500000
A 25.500000 25.500000 0 0 1 964.000000 180.500000
M 1018.000000 167.000000
A 28.000000 28.000000 0 0 1 962.000000 167.000000
M 1021.000000 153.500000
A 30.500000 30.500000 0 0 1 960.000000 153.500000
M 1025.000000 139.000000
A 33.000000 33.000000 0 0 1 959.000000 139.000000
M 1029.000000 126.000000
A 36.000000 36.000000 0 0 1 957.000000 126.000000
M 1032.000000 112.500000
A 38.500000 38.500000 0 0 1 955.000000 112.500000
M 1035.000000 98.000000
A 41.000000 41.000000 0 0 1 953.000000 98.000000
M 1038.000000 84.500000
A 43.500000 43.500000 0 0 1 951.000000 84.500000
M 1043.000000 71.500000
A 46.500000 46.500000 0 0 1 950.000000 71.500000
M 1046.000000 57.000000
A 49.000000 49.000000 0 0 1 948.000000 57.000000
M 1049.000000 44.500000
A 51.500000 51.500000 0 0 1 946.000000 44.500000
M 589.000000 286.000000
A 94.000000 94.000000 0 0 1 777.000000 286.000000
M 600.000000 292.000000
A 92.000000 92.000000 0 0 1 784.000000 292.000000
M 611.000000 298.500000
A 90.500000 90.500000 0 0 1 792.000000 298.500000
M 622.000000 304.500000
A 88.500000 88.500000 0 0 1 799.000000 304.500000
M 633.000000 311.500000
A 86.500000 86.500000 0 0 1 806.000000 311.500000
M 644.000000 317.500000
A 84.500000 84.500000 0 0 1 813.000000 317.500000
M 655.000000 323.500000
A 82.500000 82.500000 0 0 1 820.000000 323.500000
M 666.000000 329.500000
A 80.500000 80.500000 0 0 1 827.000000 329.500000
M 676.000000 335.500000
A 78.500000 78.500000 0 0 1 833.000000 335.500000
M 687.000000 342.000000
A 77.000000 77.000000 0 0 1 841.000000 342.000000
M 698.000000 348.000000
A 75.000000 75.000000 0 0 1 848.000000 348.000000
M 709.000000 354.000000
A 73.000000 73.000000 0 0 1 855.000000 354.000000
M 720.000000 360.000000
A 71.000000 71.000000 0 0 1 862.000000 360.000000
M 731.000000 366.000000
A 69.000000 69.000000 0 0 1 869.000000 366.000000
M 742.000000 372.000000
A 67.000000 67.000000 0 0 1 876.000000 372.000000
M 753.000000 378.500000
A 65.500000 65.500000 0 0 1 884.000000 378.500000
M 764.000000 384.500000
A 63.500000 63.500000 0 0 1 891.000000 384.500000
M 775.000000 390.500000
A 61.500000 61.500000 0 0 1 898.000000 390.500000
M 785.000000 397.500000
A 59.500000 59.500000 0 0 1 904.000000 397.500000
M 796.000000 403.500000
A 57.500000 57.500000 0 0 1 911.000000 403.500000
M 807.000000 409.500000
A 55.500000 55.500000 0 0 1 918.000000 409.500000
M 818.000000 415.500000
A 53.500000 53.500000 0 0 1 925.000000 415.500000
M 829.000000 422.000000
A 52.000000 52.000000 0 0 1 933.000000 422.000000
M 840.000000 428.000000
A 50.000000 50.000000 0 0 1 940.000000 428.000000
M 851.000000 434.000000
A 48.000000 48.000000 0 0 1 947.000000 434.000000
M 862.000000 440.000000
A 46.000000 46.000000 0 0 1 954.000000 440.000000
M 873.000000 446.000000
A 44.000000 44.000000 0 0 1 961.000000 446.000000
M 884.000000 452.000000
A 42.000000 42.000000 0 0 1 968.000000 452.000000
M 894.000000 458.000000
A 40.000000 40.000000 0 0 1 974.000000 458.000000
M 905.000000 464.500000
A 38.500000 38.500000 0 0 1 982.000000 464.500000
M 916.000000 470.500000
A 36.500000 36.500000 0 0 1 989.000000 470.500000
M 927.000000 476.500000
A 34.500000 34.500000 0 0 1 996.000000 476.500000
M 699.000000 183.500000
A 114.500000 114.500000 0 0 1 470.000000 183.500000
M 711.000000 179.000000
A 113.000000 113.000000 0 0 1 485.000000 179.000000
M 722.000000 175.000000
A 111.000000 111.000000 0 0 1 500.000000 175.000000
M 732.000000 170.000000
A 109.000000 109.000000 0 0 1 514.000000 170.000000
M 743.000000 165.000000
A 107.000000 107.000000 0 0 1 529.000000 165.000000
M 754.000000 160.000000
A 105.000000 105.000000 0 0 1 544.000000 160.000000
M 766.000000 155.500000
A 103.500000 103.500000 0 0 1 559.000000 155.500000
M 777.000000 150.500000
A 101.500000 101.500000 0 0 1 574.000000 150.500000
M 788.000000 145.500000
A 99.500000 99.500000 0 0 1 589.000000 145.500000
M 798.000000 140.500000
A 97.500000 97.500000 0 0 1 603.000000 140.500000
M 810.000000 136.000000
A 96.000000 96.000000 0 0 1 618.000000 136.000000
M 821.000000 131.000000
A 94.000000 94.000000 0 0 1 633.000000 131.000000
M 832.000000 126.000000
A 92.000000 92.000000 0 0 1 648.000000 126.000000
M 843.000000 121.000000
A 90.000000 90.000000 0 0 1 663.000000 121.000000
M 854.000000 116.000000
A 88.000000 88.000000 0 0 1 678.000000 116.000000
M 865.000000 111.500000
A 86.500000 86.500000 0 0 1 692.000000 111.500000
M 876.000000 106.500000
A 84.500000 84.500000 0 0 1 707.000000 106.500000
M 887.000000 101.500000
A 82.500000 82.500000 0 0 1 722.000000 101.500000
M 898.000000 97.500000
A 80.500000 80.500000 0 0 1 737.000000 97.500000
M 910.000000 93.000000
A 79.000000 79.000000 0 0 1 752.000000 93.000000
M 920.000000 88.000000
A 77.000000 77.000000 0 0 1 766.000000 88.000000
M 931.000000 83.000000
A 75.000000 75.000000 0 0 1 781.000000 83.000000
M 942.000000 78.000000
A 73.000000 73.000000 0 0 1 796.000000 78.000000
M 953.000000 73.000000
A 71.000000 71.000000 0 0 1 811.000000 73.000000
M 965.000000 69.500000
A 69.500000 69.500000 0 0 1 826.000000 69.500000
M 976.000000 64.500000
A 67.500000 67.500000 0 0 1 841.000000 64.500000
M 986.000000 59.500000
A 65.500000 65.500000 0 0 1 855.000000 59.500000
M 997.000000 54.500000
A 63.500000 63.500000 0 0 1 870.000000 54.500000
M 1008.000000 49.500000
A 61.500000 61.500000 0 0 1 885.000000 49.500000
M 1020.000000 45.000000
A 60.000000 60.000000 0 0 1 900.000000 45.000000
M 1031.000000 40.000000
A 58.000000 58.000000 0 0 1 915.000000 40.000000
M 1042.000000 35.000000
A 56.000000 56.000000 0 0 1 930.000000 35.000000
M 607.000000 647.000000
A 19.000000 19.000000 0 0 1 569.000000 647.000000
M 618.000000 642.500000
A 17.500000 17.500000 0 0 1 583.000000 642.500000
M 628.000000 637.000000
A 16.000000 16.000000 0 0 1 596.000000 637.000000
M 638.000000 632.000000
A 14.000000 14.000000 0 0 1 610.000000 632.000000
M 648.000000 626.500000
A 12.500000 12.500000 0 0 1 623.000000 626.500000
M 659.000000 622.000000
A 11.000000 11.000000 0 0 1 637.000000 622.000000
M 669.000000 616.500000
A 9.500000 9.500000 0 0 1 650.000000 616.500000
M 679.000000 611.500000
A 7.500000 7.500000 0 0 1 664.000000 611.500000
M 690.000000 606.000000
A 6.000000 6.000000 0 0 1 678.000000 606.000000
M 700.000000 601.500000
A 4.500000 4.500000 0 0 1 691.000000 601.500000
M 711.000000 596.000000
A 3.000000 3.000000 0 0 1 705.000000 596.000000
M 721.000000 591.500000
A 1.500000 1.500000 0 0 1 718.000000 591.500000
M 731.000000 585.500000
A 0.500000 0.500000 0 0 1 732.000000 585.500000
M 742.000000 581.000000
A 2.000000 2.000000 0 0 1 746.000000 581.000000
M 752.000000 575.500000
A 3.500000 3.500000 0 0 1 759.000000 575.500000
M 762.000000 570.000000
A 5.000000 5.000000 0 0 1 772.000000 570.000000
M 773.000000 565.000000
A 7.000000 7.000000 0 0 1 787.000000 565.000000
M 783.000000 560.500000
A 8.500000 8.500000 0 0 1 800.000000 560.500000
M 793.000000 555.000000
A 10.000000 10.000000 0 0 1 813.000000 555.000000
M 804.000000 549.500000
A 11.500000 11.500000 0 0 1 827.000000 549.500000
M 814.000000 544.000000
A 13.000000 13.000000 0 0 1 840.000000 544.000000
M 824.000000 540.000000
A 15.000000 15.000000 0 0 1 854.000000 540.000000
M 835.000000 534.500000
A 16.500000 16.500000 0 0 1 868.000000 534.500000
M 845.000000 529.000000
A 18.000000 18.000000 0 0 1 881.000000 529.000000
M 855.000000 523.500000
A 19.500000 19.500000 0 0 1 894.000000 523.500000
M 866.000000 519.000000
A 21.000000 21.000000 0 0 1 908.000000 519.000000
M 876.000000 514.000000
A 23.000000 23.000000 0 0 1 922.000000 514.000000
M 886.000000 508.500000
A 24.500000 24.500000 0 0 1 935.000000 508.500000
M 897.000000 503.000000
A 26.000000 26.000000 0 0 1 949.000000 503.000000
M 907.000000 498.500000
A 27.500000 27.500000 0 0 1 962.000000 498.500000
M 917.000000 493.500000
A 29.500000 29.500000 0 0 1 976.000000 493.500000
M 928.000000 488.000000
A 31.000000 31.000000 0 0 1 990.000000 488.000000
"/>
</svg>