<?xml version="1.0" encoding="UTF-8"?>
<svg width="781" height="393" viewBox="0 0 781 393" fill="none" xmlns="http://www.w3.org/2000/svg">
<path stroke="black" stroke-width="0.1500" d="
M 610.000000 260.000000
A 26.000000 26.000000 0 0 1 662.000000 260.000000
M 610.000000 255.500000
A 25.500000 25.500000 0 0 1 661.000000 255.500000
M 611.000000 250.000000
A 25.000000 25.000000 0 0 1 661.000000 250.000000
M 611.000000 244.500000
A 24.500000 24.500000 0 0 1 660.000000 244.500000
M 612.000000 239.000000
A 24.000000 24.000000 0 0 1 660.000000 239.000000
M 612.000000 234.500000
A 23.500000 23.500000 0 0 1 659.000000 234.500000
M 613.000000 229.000000
A 23.000000 23.000000 0 0 1 659.000000 229.000000
M 614.000000 223.000000
A 22.000000 22.000000 0 0 1 658.000000 223.000000
M 614.000000 217.500000
A 21.500000 21.500000 0 0 1 657.000000 217.500000
M 615.000000 213.000000
A 21.000000 21.000000 0 0 1 657.000000 213.000000
M 615.000000 207.500000
A 20.500000 20.500000 0 0 1 656.000000 207.500000
M 616.000000 202.000000
A 20.000000 20.000000 0 0 1 656.000000 202.000000
M 617.000000 196.500000
A 19.500000 19.500000 0 0 1 656.000000 196.500000
M 617.000000 192.000000
A 19.000000 19.000000 0 0 1 655.000000 192.000000
M 618.000000 186.000000
A 18.000000 18.000000 0 0 1 654.000000 186.000000
M 618.000000 180.500000
A 17.500000 17.500000 0 0 1 653.000000 180.500000
M 619.000000 175.000000
A 17.000000 17.000000 0 0 1 653.000000 175.000000
M 620.000000 170.500000
A 16.500000 16.500000 0 0 1 653.000000 170.500000
M 620.000000 165.000000
A 16.000000 16.000000 0 0 1 652.000000 165.000000
M 621.000000 159.500000
A 15.500000 15.500000 0 0 1 652.000000 159.500000
M 621.000000 154.000000
A 15.000000 15.000000 0 0 1 651.000000 154.000000
M 622.000000 149.500000
A 14.500000 14.500000 0 0 1 651.000000 149.500000
M 623.000000 143.500000
A 13.500000 13.500000 0 0 1 650.000000 143.500000
M 623.000000 138.000000
A 13.000000 13.000000 0 0 1 649.000000 138.000000
M 624.000000 132.500000
A 12.500000 12.500000 0 0 1 649.000000 132.500000
M 624.000000 128.000000
A 12.000000 12.000000 0 0 1 648.000000 128.000000
M 625.000000 122.500000
A 11.500000 11.500000 0 0 1 648.000000 122.500000
M 625.000000 117.000000
A 11.000000 11.000000 0 0 1 647.000000 117.000000
M 626.000000 111.500000
A 10.500000 10.500000 0 0 1 647.000000 111.500000
M 627.000000 106.500000
A 9.500000 9.500000 0 0 1 646.000000 106.500000
M 627.000000 101.000000
A 9.000000 9.000000 0 0 1 645.000000 101.000000
M 628.000000 95.500000
A 8.500000 8.500000 0 0 1 645.000000 95.500000
M 633.000000 98.000000
A 8.000000 8.000000 0 0 1 649.000000 98.000000
M 638.000000 99.000000
A 7.000000 7.000000 0 0 1 652.000000 99.000000
M 643.000000 101.500000
A 6.500000 6.500000 0 0 1 656.000000 101.500000
M 648.000000 103.000000
A 6.000000 6.000000 0 0 1 660.000000 103.000000
M 653.000000 105.000000
A 5.000000 5.000000 0 0 1 663.000000 105.000000
M 658.000000 106.500000
A 4.500000 4.500000 0 0 1 667.000000 106.500000
M 663.000000 109.000000
A 4.000000 4.000000 0 0 1 671.000000 109.000000
M 668.000000 110.000000
A 3.000000 3.000000 0 0 1 674.000000 110.000000
M 673.000000 112.500000
A 2.500000 2.500000 0 0 1 678.000000 112.500000
M 677.000000 114.000000
A 2.000000 2.000000 0 0 1 681.000000 114.000000
M 682.000000 116.000000
A 1.000000 1.000000 0 0 1 684.000000 116.000000
M 687.000000 117.500000
A 0.500000 0.500000 0 0 1 688.000000 117.500000
M 693.000000 119.500000
A 0.500000 0.500000 0 0 1 692.000000 119.500000
M 698.000000 122.000000
A 1.000000 1.000000 0 0 1 696.000000 122.000000
M 702.000000 123.500000
A 1.500000 1.500000 0 0 1 699.000000 123.500000
M 707.000000 125.000000
A 2.000000 2.000000 0 0 1 703.000000 125.000000
M 713.000000 127.000000
A 3.000000 3.000000 0 0 1 707.000000 127.000000
M 717.000000 128.500000
A 3.500000 3.500000 0 0 1 710.000000 128.500000
M 722.000000 130.000000
A 4.000000 4.000000 0 0 1 714.000000 130.000000
M 728.000000 133.000000
A 5.000000 5.000000 0 0 1 718.000000 133.000000
M 732.000000 134.500000
A 5.500000 5.500000 0 0 1 721.000000 134.500000
M 737.000000 136.000000
A 6.000000 6.000000 0 0 1 725.000000 136.000000
M 742.000000 138.000000
A 7.000000 7.000000 0 0 1 728.000000 138.000000
M 747.000000 139.500000
A 7.500000 7.500000 0 0 1 732.000000 139.500000
M 752.000000 141.000000
A 8.000000 8.000000 0 0 1 736.000000 141.000000
M 757.000000 144.000000
A 9.000000 9.000000 0 0 1 739.000000 144.000000
M 762.000000 145.500000
A 9.500000 9.500000 0 0 1 743.000000 145.500000
M 767.000000 147.000000
A 10.000000 10.000000 0 0 1 747.000000 147.000000
M 772.000000 149.000000
A 11.000000 11.000000 0 0 1 750.000000 149.000000
M 777.000000 150.500000
A 11.500000 11.500000 0 0 1 754.000000 150.500000
M 781.000000 152.000000
A 12.000000 12.000000 0 0 1 757.000000 152.000000
M 749.000000 325.500000
A 8.500000 8.500000 0 0 1 766.000000 325.500000
M 750.000000 320.000000
A 8.000000 8.000000 0 0 1 766.000000 320.000000
M 751.000000 315.500000
A 7.500000 7.500000 0 0 1 766.000000 315.500000
M 752.000000 309.500000
A 6.500000 6.500000 0 0 1 765.000000 309.500000
M 753.000000 304.000000
A 6.000000 6.000000 0 0 1 765.000000 304.000000
M 754.000000 298.500000
A 5.500000 5.500000 0 0 1 765.000000 298.500000
M 755.000000 292.500000
A 4.500000 4.500000 0 0 1 764.000000 292.500000
M 756.000000 287.000000
A 4.000000 4.000000 0 0 1 764.000000 287.000000
M 758.000000 281.500000
A 3.500000 3.500000 0 0 1 765.000000 281.500000
M 759.000000 275.500000
A 2.500000 2.500000 0 0 1 764.000000 275.500000
M 760.000000 270.000000
A 2.000000 2.000000 0 0 1 764.000000 270.000000
M 761.000000 264.500000
A 1.500000 1.500000 0 0 1 764.000000 264.500000
M 762.000000 258.500000
A 0.500000 0.500000 0 0 1 763.000000 258.500000
M 764.000000 253.500000
A 0.500000 0.500000 0 0 1 763.000000 253.500000
M 763.000000 247.500000
A 0.500000 0.500000 0 0 1 762.000000 247.500000
M 765.000000 242.500000
A 1.500000 1.500000 0 0 1 762.000000 242.500000
M 766.000000 236.000000
A 2.000000 2.000000 0 0 1 762.000000 236.000000
M 767.000000 230.500000
A 2.500000 2.500000 0 0 1 762.000000 230.500000
M 768.000000 225.500000
A 3.500000 3.500000 0 0 1 761.000000 225.500000
M 769.000000 220.000000
A 4.000000 4.000000 0 0 1 761.000000 220.000000
M 770.000000 213.500000
A 4.500000 4.500000 0 0 1 761.000000 213.500000
M 771.000000 208.500000
A 5.500000 5.500000 0 0 1 760.000000 208.500000
M 772.000000 203.000000
A 6.000000 6.000000 0 0 1 760.000000 203.000000
M 773.000000 197.500000
A 6.500000 6.500000 0 0 1 760.000000 197.500000
M 775.000000 191.500000
A 7.500000 7.500000 0 0 1 760.000000 191.500000
M 775.000000 186.000000
A 8.000000 8.000000 0 0 1 759.000000 186.000000
M 777.000000 181.000000
A 9.000000 9.000000 0 0 1 759.000000 181.000000
M 778.000000 174.500000
A 9.500000 9.500000 0 0 1 759.000000 174.500000
M 778.000000 169.000000
A 10.000000 10.000000 0 0 1 758.000000 169.000000
M 780.000000 164.000000
A 11.000000 11.000000 0 0 1 758.000000 164.000000
M 781.000000 158.500000
A 11.500000 11.500000 0 0 1 758.000000 158.500000
M 614.000000 262.500000
A 25.500000 25.500000 0 0 1 665.000000 262.500000
M 619.000000 265.000000
A 25.000000 25.000000 0 0 1 669.000000 265.000000
M 623.000000 266.500000
A 24.500000 24.500000 0 0 1 672.000000 266.500000
M 628.000000 269.000000
A 24.000000 24.000000 0 0 1 676.000000 269.000000
M 632.000000 271.500000
A 23.500000 23.500000 0 0 1 679.000000 271.500000
M 637.000000 273.000000
A 23.000000 23.000000 0 0 1 683.000000 273.000000
M 641.000000 275.500000
A 22.500000 22.500000 0 0 1 686.000000 275.500000
M 646.000000 277.500000
A 21.500000 21.500000 0 0 1 689.000000 277.500000
M 650.000000 279.000000
A 21.000000 21.000000 0 0 1 692.000000 279.000000
M 655.000000 281.500000
A 20.500000 20.500000 0 0 1 696.000000 281.500000
M 659.000000 284.000000
A 20.000000 20.000000 0 0 1 699.000000 284.000000
M 664.000000 285.500000
A 19.500000 19.500000 0 0 1 703.000000 285.500000
M 668.000000 288.000000
A 19.000000 19.000000 0 0 1 706.000000 288.000000
M 673.000000 290.500000
A 18.500000 18.500000 0 0 1 710.000000 290.500000
M 677.000000 293.000000
A 18.000000 18.000000 0 0 1 713.000000 293.000000
M 682.000000 294.000000
A 17.000000 17.000000 0 0 1 716.000000 294.000000
M 686.000000 296.500000
A 16.500000 16.500000 0 0 1 719.000000 296.500000
M 691.000000 299.000000
A 16.000000 16.000000 0 0 1 723.000000 299.000000
M 695.000000 300.500000
A 15.500000 15.500000 0 0 1 726.000000 300.500000
M 700.000000 303.000000
A 15.000000 15.000000 0 0 1 730.000000 303.000000
M 704.000000 305.500000
A 14.500000 14.500000 0 0 1 733.000000 305.500000
M 709.000000 307.000000
A 14.000000 14.000000 0 0 1 737.000000 307.000000
M 713.000000 309.000000
A 13.000000 13.000000 0 0 1 739.000000 309.000000
M 718.000000 311.500000
A 12.500000 12.500000 0 0 1 743.000000 311.500000
M 722.000000 313.000000
A 12.000000 12.000000 0 0 1 746.000000 313.000000
M 727.000000 315.500000
A 11.500000 11.500000 0 0 1 750.000000 315.500000
M 731.000000 318.000000
A 11.000000 11.000000 0 0 1 753.000000 318.000000
M 736.000000 319.500000
A 10.500000 10.500000 0 0 1 757.000000 319.500000
M 740.000000 322.000000
A 10.000000 10.000000 0 0 1 760.000000 322.000000
M 745.000000 324.500000
A 9.500000 9.500000 0 0 1 764.000000 324.500000
M 651.000000 211.500000
A 33.500000 33.500000 0 0 1 584.000000 211.500000
M 656.000000 210.000000
A 33.000000 33.000000 0 0 1 590.000000 210.000000
M 660.000000 207.000000
A 32.000000 32.000000 0 0 1 596.000000 207.000000
M 664.000000 205.500000
A 31.500000 31.500000 0 0 1 601.000000 205.500000
M 669.000000 204.000000
A 31.000000 31.000000 0 0 1 607.000000 204.000000
M 672.000000 202.000000
A 30.000000 30.000000 0 0 1 612.000000 202.000000
M 677.000000 200.500000
A 29.500000 29.500000 0 0 1 618.000000 200.500000
M 682.000000 198.000000
A 29.000000 29.000000 0 0 1 624.000000 198.000000
M 685.000000 196.000000
A 28.000000 28.000000 0 0 1 629.000000 196.000000
M 690.000000 194.500000
A 27.500000 27.500000 0 0 1 635.000000 194.500000
M 693.000000 192.500000
A 26.500000 26.500000 0 0 1 640.000000 192.500000
M 698.000000 191.000000
A 26.000000 26.000000 0 0 1 646.000000 191.000000
M 702.000000 188.500000
A 25.500000 25.500000 0 0 1 651.000000 188.500000
M 706.000000 186.500000
A 24.500000 24.500000 0 0 1 657.000000 186.500000
M 711.000000 185.000000
A 24.000000 24.000000 0 0 1 663.000000 185.000000
M 714.000000 183.000000
A 23.000000 23.000000 0 0 1 668.000000 183.000000
M 719.000000 180.500000
A 22.500000 22.500000 0 0 1 674.000000 180.500000
M 723.000000 179.000000
A 22.000000 22.000000 0 0 1 679.000000 179.000000
M 727.000000 177.000000
A 21.000000 21.000000 0 0 1 685.000000 177.000000
M 731.000000 175.500000
A 20.500000 20.500000 0 0 1 690.000000 175.500000
M 735.000000 173.500000
A 19.500000 19.500000 0 0 1 696.000000 173.500000
M 740.000000 171.000000
A 19.000000 19.000000 0 0 1 702.000000 171.000000
M 744.000000 169.500000
A 18.500000 18.500000 0 0 1 707.000000 169.500000
M 748.000000 167.500000
A 17.500000 17.500000 0 0 1 713.000000 167.500000
M 752.000000 166.000000
A 17.000000 17.000000 0 0 1 718.000000 166.000000
M 757.000000 164.500000
A 16.500000 16.500000 0 0 1 724.000000 164.500000
M 761.000000 161.500000
A 15.500000 15.500000 0 0 1 730.000000 161.500000
M 765.000000 160.000000
A 15.000000 15.000000 0 0 1 735.000000 160.000000
M 769.000000 158.000000
A 14.000000 14.000000 0 0 1 741.000000 158.000000
M 773.000000 156.500000
A 13.500000 13.500000 0 0 1 746.000000 156.500000
M 778.000000 155.000000
A 13.000000 13.000000 0 0 1 752.000000 155.000000
M 651.000000 217.000000
A 33.000000 33.000000 0 0 1 585.000000 217.000000
M 650.000000 223.000000
A 32.000000 32.000000 0 0 1 586.000000 223.000000
M 649.000000 229.000000
A 31.000000 31.000000 0 0 1 587.000000 229.000000
M 649.000000 234.500000
A 30.500000 30.500000 0 0 1 588.000000 234.500000
M 648.000000 240.500000
A 29.500000 29.500000 0 0 1 589.000000 240.500000
M 647.000000 247.000000
A 29.000000 29.000000 0 0 1 589.000000 247.000000
M 646.000000 252.000000
A 28.000000 28.000000 0 0 1 590.000000 252.000000
M 646.000000 258.500000
A 27.500000 27.500000 0 0 1 591.000000 258.500000
M 645.000000 264.500000
A 26.500000 26.500000 0 0 1 592.000000 264.500000
M 644.000000 269.500000
A 25.500000 25.500000 0 0 1 593.000000 269.500000
M 643.000000 276.000000
A 25.000000 25.000000 0 0 1 593.000000 276.000000
M 642.000000 282.000000
A 24.000000 24.000000 0 0 1 594.000000 282.000000
M 642.000000 287.500000
A 23.500000 23.500000 0 0 1 595.000000 287.500000
M 641.000000 293.500000
A 22.500000 22.500000 0 0 1 596.000000 293.500000
M 641.000000 300.000000
A 22.000000 22.000000 0 0 1 597.000000 300.000000
M 639.000000 305.000000
A 21.000000 21.000000 0 0 1 597.000000 305.000000
M 638.000000 311.000000
A 20.000000 20.000000 0 0 1 598.000000 311.000000
M 638.000000 317.500000
A 19.500000 19.500000 0 0 1 599.000000 317.500000
M 637.000000 322.500000
A 18.500000 18.500000 0 0 1 600.000000 322.500000
M 637.000000 329.000000
A 18.000000 18.000000 0 0 1 601.000000 329.000000
M 636.000000 335.000000
A 17.000000 17.000000 0 0 1 602.000000 335.000000
M 635.000000 340.500000
A 16.500000 16.500000 0 0 1 602.000000 340.500000
M 634.000000 346.500000
A 15.500000 15.500000 0 0 1 603.000000 346.500000
M 633.000000 352.500000
A 14.500000 14.500000 0 0 1 604.000000 352.500000
M 633.000000 358.000000
A 14.000000 14.000000 0 0 1 605.000000 358.000000
M 632.000000 364.000000
A 13.000000 13.000000 0 0 1 606.000000 364.000000
M 631.000000 369.500000
A 12.500000 12.500000 0 0 1 606.000000 369.500000
M 630.000000 375.500000
A 11.500000 11.500000 0 0 1 607.000000 375.500000
M 630.000000 382.000000
A 11.000000 11.000000 0 0 1 608.000000 382.000000
M 629.000000 387.000000
A 10.000000 10.000000 0 0 1 609.000000 387.000000
M 628.000000 393.000000
A 9.000000 9.000000 0 0 1 610.000000 393.000000
M 632.000000 391.500000
A 8.500000 8.500000 0 0 1 615.000000 391.500000
M 636.000000 389.000000
A 8.000000 8.000000 0 0 1 620.000000 389.000000
M 640.000000 386.500000
A 7.500000 7.500000 0 0 1 625.000000 386.500000
M 644.000000 385.000000
A 7.000000 7.000000 0 0 1 630.000000 385.000000
M 648.000000 382.500000
A 6.500000 6.500000 0 0 1 635.000000 382.500000
M 651.000000 380.500000
A 5.500000 5.500000 0 0 1 640.000000 380.500000
M 655.000000 378.000000
A 5.000000 5.000000 0 0 1 645.000000 378.000000
M 659.000000 375.500000
A 4.500000 4.500000 0 0 1 650.000000 375.500000
M 663.000000 374.000000
A 4.000000 4.000000 0 0 1 655.000000 374.000000
M 667.000000 371.500000
A 3.500000 3.500000 0 0 1 660.000000 371.500000
M 671.000000 370.000000
A 3.000000 3.000000 0 0 1 665.000000 370.000000
M 675.000000 367.500000
A 2.500000 2.500000 0 0 1 670.000000 367.500000
M 678.000000 364.500000
A 1.500000 1.500000 0 0 1 675.000000 364.500000
M 683.000000 363.000000
A 1.000000 1.000000 0 0 1 681.000000 363.000000
M 687.000000 360.500000
A 0.500000 0.500000 0 0 1 686.000000 360.500000
M 691.000000 359.500000
A 0.500000 0.500000 0 0 1 692.000000 359.500000
M 694.000000 356.500000
A 0.500000 0.500000 0 0 1 695.000000 356.500000
M 698.000000 354.000000
A 1.000000 1.000000 0 0 1 700.000000 354.000000
M 702.000000 352.000000
A 2.000000 2.000000 0 0 1 706.000000 352.000000
M 706.000000 350.500000
A 2.500000 2.500000 0 0 1 711.000000 350.500000
M 710.000000 348.000000
A 3.000000 3.000000 0 0 1 716.000000 348.000000
M 714.000000 345.500000
A 3.500000 3.500000 0 0 1 721.000000 345.500000
M 718.000000 343.000000
A 4.000000 4.000000 0 0 1 726.000000 343.000000
M 722.000000 341.500000
A 4.500000 4.500000 0 0 1 731.000000 341.500000
M 726.000000 339.000000
A 5.000000 5.000000 0 0 1 736.000000 339.000000
M 730.000000 337.000000
A 6.000000 6.000000 0 0 1 742.000000 337.000000
M 733.000000 334.500000
A 6.500000 6.500000 0 0 1 746.000000 334.500000
M 737.000000 333.000000
A 7.000000 7.000000 0 0 1 751.000000 333.000000
M 741.000000 330.500000
A 7.500000 7.500000 0 0 1 756.000000 330.500000
M 745.000000 328.000000
A 8.000000 8.000000 0 0 1 761.000000 328.000000
M 498.000000 145.500000
A 9.500000 9.500000 0 0 1 479.000000 145.500000
M 502.000000 147.000000
A 10.000000 10.000000 0 0 1 482.000000 147.000000
M 507.000000 149.000000
A 11.000000 11.000000 0 0 1 485.000000 149.000000
M 513.000000 152.000000
A 12.000000 12.000000 0 0 1 489.000000 152.000000
M 517.000000 153.500000
A 12.500000 12.500000 0 0 1 492.000000 153.500000
M 523.000000 155.500000
A 13.500000 13.500000 0 0 1 496.000000 155.500000
M 527.000000 158.000000
A 14.000000 14.000000 0 0 1 499.000000 158.000000
M 532.000000 160.000000
A 15.000000 15.000000 0 0 1 502.000000 160.000000
M 537.000000 162.500000
A 15.500000 15.500000 0 0 1 506.000000 162.500000
M 542.000000 164.500000
A 16.500000 16.500000 0 0 1 509.000000 164.500000
M 547.000000 166.000000
A 17.000000 17.000000 0 0 1 513.000000 166.000000
M 552.000000 169.000000
A 18.000000 18.000000 0 0 1 516.000000 169.000000
M 558.000000 171.000000
A 19.000000 19.000000 0 0 1 520.000000 171.000000
M 562.000000 172.500000
A 19.500000 19.500000 0 0 1 523.000000 172.500000
M 567.000000 175.500000
A 20.500000 20.500000 0 0 1 526.000000 175.500000
M 572.000000 177.000000
A 21.000000 21.000000 0 0 1 530.000000 177.000000
M 577.000000 179.000000
A 22.000000 22.000000 0 0 1 533.000000 179.000000
M 582.000000 181.500000
A 22.500000 22.500000 0 0 1 537.000000 181.500000
M 587.000000 183.500000
A 23.500000 23.500000 0 0 1 540.000000 183.500000
M 591.000000 185.000000
A 24.000000 24.000000 0 0 1 543.000000 185.000000
M 597.000000 188.000000
A 25.000000 25.000000 0 0 1 547.000000 188.000000
M 602.000000 190.000000
A 26.000000 26.000000 0 0 1 550.000000 190.000000
M 607.000000 192.500000
A 26.500000 26.500000 0 0 1 554.000000 192.500000
M 612.000000 194.500000
A 27.500000 27.500000 0 0 1 557.000000 194.500000
M 617.000000 196.000000
A 28.000000 28.000000 0 0 1 561.000000 196.000000
M 622.000000 199.000000
A 29.000000 29.000000 0 0 1 564.000000 199.000000
M 626.000000 200.500000
A 29.500000 29.500000 0 0 1 567.000000 200.500000
M 632.000000 202.500000
A 30.500000 30.500000 0 0 1 571.000000 202.500000
M 637.000000 205.500000
A 31.500000 31.500000 0 0 1 574.000000 205.500000
M 642.000000 207.000000
A 32.000000 32.000000 0 0 1 578.000000 207.000000
M 647.000000 209.000000
A 33.000000 33.000000 0 0 1 581.000000 209.000000
M 497.000000 150.500000
A 8.500000 8.500000 0 0 1 480.000000 150.500000
M 497.000000 156.000000
A 8.000000 8.000000 0 0 1 481.000000 156.000000
M 497.000000 161.500000
A 7.500000 7.500000 0 0 1 482.000000 161.500000
M 497.000000 168.000000
A 7.000000 7.000000 0 0 1 483.000000 168.000000
M 496.000000 173.000000
A 6.000000 6.000000 0 0 1 484.000000 173.000000
M 496.000000 178.500000
A 5.500000 5.500000 0 0 1 485.000000 178.500000
M 496.000000 184.000000
A 5.000000 5.000000 0 0 1 486.000000 184.000000
M 495.000000 189.000000
A 4.000000 4.000000 0 0 1 487.000000 189.000000
M 495.000000 195.500000
A 3.500000 3.500000 0 0 1 488.000000 195.500000
M 495.000000 201.000000
A 3.000000 3.000000 0 0 1 489.000000 201.000000
M 494.000000 206.000000
A 2.000000 2.000000 0 0 1 490.000000 206.000000
M 494.000000 211.500000
A 1.500000 1.500000 0 0 1 491.000000 211.500000
M 494.000000 218.000000
A 1.000000 1.000000 0 0 1 492.000000 218.000000
M 494.000000 223.500000
A 0.500000 0.500000 0 0 1 493.000000 223.500000
M 493.000000 228.500000
A 0.500000 0.500000 0 0 1 494.000000 228.500000
M 493.000000 234.000000
A 1.000000 1.000000 0 0 1 495.000000 234.000000
M 492.000000 240.000000
A 2.000000 2.000000 0 0 1 496.000000 240.000000
M 492.000000 245.500000
A 2.500000 2.500000 0 0 1 497.000000 245.500000
M 492.000000 251.000000
A 3.000000 3.000000 0 0 1 498.000000 251.000000
M 492.000000 257.000000
A 4.000000 4.000000 0 0 1 500.000000 257.000000
M 491.000000 261.500000
A 4.500000 4.500000 0 0 1 500.000000 261.500000
M 491.000000 267.000000
A 5.000000 5.000000 0 0 1 501.000000 267.000000
M 491.000000 272.500000
A 5.500000 5.500000 0 0 1 502.000000 272.500000
M 490.000000 278.500000
A 6.500000 6.500000 0 0 1 503.000000 278.500000
M 490.000000 284.000000
A 7.000000 7.000000 0 0 1 504.000000 284.000000
M 490.000000 289.500000
A 7.500000 7.500000 0 0 1 505.000000 289.500000
M 490.000000 295.500000
A 8.500000 8.500000 0 0 1 507.000000 295.500000
M 489.000000 301.000000
A 9.000000 9.000000 0 0 1 507.000000 301.000000
M 489.000000 306.500000
A 9.500000 9.500000 0 0 1 508.000000 306.500000
M 489.000000 312.500000
A 10.500000 10.500000 0 0 1 510.000000 312.500000
M 488.000000 318.000000
A 11.000000 11.000000 0 0 1 510.000000 318.000000
M 493.000000 320.500000
A 10.500000 10.500000 0 0 1 514.000000 320.500000
M 497.000000 322.500000
A 9.500000 9.500000 0 0 1 516.000000 322.500000
M 502.000000 325.000000
A 9.000000 9.000000 0 0 1 520.000000 325.000000
M 506.000000 327.500000
A 8.500000 8.500000 0 0 1 523.000000 327.500000
M 511.000000 329.500000
A 7.500000 7.500000 0 0 1 526.000000 329.500000
M 516.000000 332.000000
A 7.000000 7.000000 0 0 1 530.000000 332.000000
M 520.000000 334.500000
A 6.500000 6.500000 0 0 1 533.000000 334.500000
M 525.000000 337.000000
A 6.000000 6.000000 0 0 1 537.000000 337.000000
M 529.000000 339.000000
A 5.000000 5.000000 0 0 1 539.000000 339.000000
M 534.000000 342.500000
A 4.500000 4.500000 0 0 1 543.000000 342.500000
M 538.000000 345.000000
A 4.000000 4.000000 0 0 1 546.000000 345.000000
M 543.000000 347.000000
A 3.000000 3.000000 0 0 1 549.000000 347.000000
M 547.000000 349.500000
A 2.500000 2.500000 0 0 1 552.000000 349.500000
M 552.000000 352.000000
A 2.000000 2.000000 0 0 1 556.000000 352.000000
M 556.000000 354.000000
A 1.000000 1.000000 0 0 1 558.000000 354.000000
M 561.000000 356.500000
A 0.500000 0.500000 0 0 1 562.000000 356.500000
M 566.000000 359.500000
A 0.500000 0.500000 0 0 1 565.000000 359.500000
M 569.000000 361.500000
A 0.500000 0.500000 0 0 1 568.000000 361.500000
M 574.000000 364.500000
A 1.500000 1.500000 0 0 1 571.000000 364.500000
M 579.000000 366.000000
A 2.000000 2.000000 0 0 1 575.000000 366.000000
M 583.000000 368.500000
A 2.500000 2.500000 0 0 1 578.000000 368.500000
M 588.000000 371.500000
A 3.500000 3.500000 0 0 1 581.000000 371.500000
M 592.000000 374.000000
A 4.000000 4.000000 0 0 1 584.000000 374.000000
M 596.000000 376.500000
A 4.500000 4.500000 0 0 1 587.000000 376.500000
M 602.000000 378.500000
A 5.500000 5.500000 0 0 1 591.000000 378.500000
M 606.000000 381.000000
A 6.000000 6.000000 0 0 1 594.000000 381.000000
M 610.000000 383.500000
A 6.500000 6.500000 0 0 1 597.000000 383.500000
M 615.000000 386.500000
A 7.500000 7.500000 0 0 1 600.000000 386.500000
M 619.000000 389.000000
A 8.000000 8.000000 0 0 1 603.000000 389.000000
M 624.000000 390.500000
A 8.500000 8.500000 0 0 1 607.000000 390.500000
M 502.000000 144.000000
A 9.000000 9.000000 0 0 1 484.000000 144.000000
M 505.000000 142.000000
A 8.000000 8.000000 0 0 1 489.000000 142.000000
M 510.000000 140.500000
A 7.500000 7.500000 0 0 1 495.000000 140.500000
M 514.000000 139.000000
A 7.000000 7.000000 0 0 1 500.000000 139.000000
M 518.000000 137.500000
A 6.500000 6.500000 0 0 1 505.000000 137.500000
M 523.000000 136.000000
A 6.000000 6.000000 0 0 1 511.000000 136.000000
M 527.000000 134.500000
A 5.500000 5.500000 0 0 1 516.000000 134.500000
M 531.000000 133.000000
A 5.000000 5.000000 0 0 1 521.000000 133.000000
M 535.000000 131.000000
A 4.000000 4.000000 0 0 1 527.000000 131.000000
M 539.000000 129.500000
A 3.500000 3.500000 0 0 1 532.000000 129.500000
M 544.000000 128.000000
A 3.000000 3.000000 0 0 1 538.000000 128.000000
M 548.000000 125.500000
A 2.500000 2.500000 0 0 1 543.000000 125.500000
M 552.000000 124.000000
A 2.000000 2.000000 0 0 1 548.000000 124.000000
M 557.000000 122.500000
A 1.500000 1.500000 0 0 1 554.000000 122.500000
M 560.000000 120.500000
A 0.500000 0.500000 0 0 1 559.000000 120.500000
M 565.000000 119.500000
A 0.500000 0.500000 0 0 1 564.000000 119.500000
M 569.000000 118.500000
A 0.500000 0.500000 0 0 1 570.000000 118.500000
M 573.000000 116.000000
A 1.000000 1.000000 0 0 1 575.000000 116.000000
M 577.000000 114.500000
A 1.500000 1.500000 0 0 1 580.000000 114.500000
M 582.000000 113.000000
A 2.000000 2.000000 0 0 1 586.000000 113.000000
M 586.000000 112.000000
A 3.000000 3.000000 0 0 1 592.000000 112.000000
M 590.000000 110.500000
A 3.500000 3.500000 0 0 1 597.000000 110.500000
M 594.000000 109.000000
A 4.000000 4.000000 0 0 1 602.000000 109.000000
M 598.000000 106.500000
A 4.500000 4.500000 0 0 1 607.000000 106.500000
M 603.000000 105.000000
A 5.000000 5.000000 0 0 1 613.000000 105.000000
M 607.000000 103.500000
A 5.500000 5.500000 0 0 1 618.000000 103.500000
M 611.000000 102.000000
A 6.000000 6.000000 0 0 1 623.000000 102.000000
M 615.000000 101.000000
A 7.000000 7.000000 0 0 1 629.000000 101.000000
M 619.000000 99.500000
A 7.500000 7.500000 0 0 1 634.000000 99.500000
M 624.000000 97.000000
A 8.000000 8.000000 0 0 1 640.000000 97.000000
M 492.000000 315.500000
A 11.500000 11.500000 0 0 1 515.000000 315.500000
M 496.000000 314.000000
A 12.000000 12.000000 0 0 1 520.000000 314.000000
M 500.000000 312.500000
A 12.500000 12.500000 0 0 1 525.000000 312.500000
M 504.000000 310.000000
A 13.000000 13.000000 0 0 1 530.000000 310.000000
M 508.000000 308.500000
A 13.500000 13.500000 0 0 1 535.000000 308.500000
M 512.000000 307.000000
A 14.000000 14.000000 0 0 1 540.000000 307.000000
M 516.000000 304.500000
A 14.500000 14.500000 0 0 1 545.000000 304.500000
M 520.000000 303.000000
A 15.000000 15.000000 0 0 1 550.000000 303.000000
M 524.000000 301.500000
A 15.500000 15.500000 0 0 1 555.000000 301.500000
M 528.000000 299.000000
A 16.000000 16.000000 0 0 1 560.000000 299.000000
M 531.000000 297.500000
A 16.500000 16.500000 0 0 1 564.000000 297.500000
M 535.000000 296.000000
A 17.000000 17.000000 0 0 1 569.000000 296.000000
M 539.000000 293.500000
A 17.500000 17.500000 0 0 1 574.000000 293.500000
M 543.000000 292.000000
A 18.000000 18.000000 0 0 1 579.000000 292.000000
M 547.000000 290.500000
A 18.500000 18.500000 0 0 1 584.000000 290.500000
M 551.000000 288.000000
A 19.000000 19.000000 0 0 1 589.000000 288.000000
M 555.000000 286.500000
A 19.500000 19.500000 0 0 1 594.000000 286.500000
M 559.000000 285.000000
A 20.000000 20.000000 0 0 1 599.000000 285.000000
M 563.000000 282.500000
A 20.500000 20.500000 0 0 1 604.000000 282.500000
M 567.000000 281.000000
A 21.000000 21.000000 0 0 1 609.000000 281.000000
M 570.000000 279.500000
A 21.500000 21.500000 0 0 1 613.000000 279.500000
M 574.000000 277.000000
A 22.000000 22.000000 0 0 1 618.000000 277.000000
M 578.000000 275.500000
A 22.500000 22.500000 0 0 1 623.000000 275.500000
M 582.000000 274.000000
A 23.000000 23.000000 0 0 1 628.000000 274.000000
M 586.000000 271.500000
A 23.500000 23.500000 0 0 1 633.000000 271.500000
M 590.000000 270.000000
A 24.000000 24.000000 0 0 1 638.000000 270.000000
M 594.000000 268.500000
A 24.500000 24.500000 0 0 1 643.000000 268.500000
M 598.000000 265.500000
A 24.500000 24.500000 0 0 1 647.000000 265.500000
M 602.000000 264.000000
A 25.000000 25.000000 0 0 1 652.000000 264.000000
M 606.000000 262.500000
A 25.500000 25.500000 0 0 1 657.000000 262.500000
"/>
</svg>