<?xml version="1.0" encoding="UTF-8"?>
<svg width="823" height="446" viewBox="0 0 823 446" fill="none" xmlns="http://www.w3.org/2000/svg">
<path stroke="black" stroke-width="0.0500" d="
M 756.000000 193.500000
A 20.500000 20.500000 0 0 1 797.000000 193.500000
M 757.000000 195.500000
A 19.500000 19.500000 0 0 1 796.000000 195.500000
M 758.000000 198.000000
A 19.000000 19.000000 0 0 1 796.000000 198.000000
M 759.000000 200.000000
A 18.000000 18.000000 0 0 1 795.000000 200.000000
M 760.000000 202.500000
A 17.500000 17.500000 0 0 1 795.000000 202.500000
M 761.000000 204.500000
A 16.500000 16.500000 0 0 1 794.000000 204.500000
M 763.000000 207.000000
A 16.000000 16.000000 0 0 1 795.000000 207.000000
M 764.000000 209.000000
A 15.000000 15.000000 0 0 1 794.000000 209.000000
M 765.000000 211.500000
A 14.500000 14.500000 0 0 1 794.000000 211.500000
M 766.000000 213.500000
A 13.500000 13.500000 0 0 1 793.000000 213.500000
M 767.000000 216.000000
A 13.000000 13.000000 0 0 1 793.000000 216.000000
M 768.000000 218.000000
A 12.000000 12.000000 0 0 1 792.000000 218.000000
M 770.000000 220.500000
A 11.500000 11.500000 0 0 1 793.000000 220.500000
M 771.000000 223.000000
A 11.000000 11.000000 0 0 1 793.000000 223.000000
M 772.000000 226.000000
A 10.000000 10.000000 0 0 1 792.000000 226.000000
M 773.000000 228.500000
A 9.500000 9.500000 0 0 1 792.000000 228.500000
M 774.000000 230.500000
A 8.500000 8.500000 0 0 1 791.000000 230.500000
M 775.000000 233.000000
A 8.000000 8.000000 0 0 1 791.000000 233.000000
M 777.000000 235.000000
A 7.000000 7.000000 0 0 1 791.000000 235.000000
M 778.000000 237.500000
A 6.500000 6.500000 0 0 1 791.000000 237.500000
M 779.000000 239.500000
A 5.500000 5.500000 0 0 1 790.000000 239.500000
M 780.000000 242.000000
A 5.000000 5.000000 0 0 1 790.000000 242.000000
M 781.000000 244.000000
A 4.000000 4.000000 0 0 1 789.000000 244.000000
M 782.000000 246.500000
A 3.500000 3.500000 0 0 1 789.000000 246.500000
M 784.000000 248.500000
A 2.500000 2.500000 0 0 1 789.000000 248.500000
M 785.000000 251.000000
A 2.000000 2.000000 0 0 1 789.000000 251.000000
M 786.000000 253.000000
A 1.000000 1.000000 0 0 1 788.000000 253.000000
M 787.000000 255.500000
A 0.500000 0.500000 0 0 1 788.000000 255.500000
M 788.000000 258.500000
A 0.500000 0.500000 0 0 1 787.000000 258.500000
M 789.000000 260.000000
A 1.000000 1.000000 0 0 1 787.000000 260.000000
M 791.000000 263.000000
A 2.000000 2.000000 0 0 1 787.000000 263.000000
M 791.000000 265.500000
A 2.500000 2.500000 0 0 1 786.000000 265.500000
M 793.000000 267.500000
A 3.500000 3.500000 0 0 1 786.000000 267.500000
M 794.000000 270.000000
A 4.000000 4.000000 0 0 1 786.000000 270.000000
M 796.000000 272.000000
A 5.000000 5.000000 0 0 1 786.000000 272.000000
M 796.000000 274.500000
A 5.500000 5.500000 0 0 1 785.000000 274.500000
M 798.000000 277.500000
A 6.500000 6.500000 0 0 1 785.000000 277.500000
M 799.000000 279.000000
A 7.000000 7.000000 0 0 1 785.000000 279.000000
M 800.000000 282.000000
A 8.000000 8.000000 0 0 1 784.000000 282.000000
M 801.000000 283.500000
A 8.500000 8.500000 0 0 1 784.000000 283.500000
M 802.000000 286.000000
A 9.000000 9.000000 0 0 1 784.000000 286.000000
M 803.000000 289.000000
A 10.000000 10.000000 0 0 1 783.000000 289.000000
M 804.000000 290.500000
A 10.500000 10.500000 0 0 1 783.000000 290.500000
M 806.000000 293.500000
A 11.500000 11.500000 0 0 1 783.000000 293.500000
M 806.000000 295.000000
A 12.000000 12.000000 0 0 1 782.000000 295.000000
M 808.000000 298.000000
A 13.000000 13.000000 0 0 1 782.000000 298.000000
M 809.000000 299.500000
A 13.500000 13.500000 0 0 1 782.000000 299.500000
M 810.000000 302.500000
A 14.500000 14.500000 0 0 1 781.000000 302.500000
M 811.000000 305.000000
A 15.000000 15.000000 0 0 1 781.000000 305.000000
M 813.000000 307.000000
A 16.000000 16.000000 0 0 1 781.000000 307.000000
M 813.000000 309.500000
A 16.500000 16.500000 0 0 1 780.000000 309.500000
M 815.000000 311.500000
A 17.500000 17.500000 0 0 1 780.000000 311.500000
M 816.000000 314.000000
A 18.000000 18.000000 0 0 1 780.000000 314.000000
M 817.000000 317.000000
A 19.000000 19.000000 0 0 1 779.000000 317.000000
M 818.000000 318.500000
A 19.500000 19.500000 0 0 1 779.000000 318.500000
M 820.000000 321.500000
A 20.500000 20.500000 0 0 1 779.000000 321.500000
M 820.000000 323.000000
A 21.000000 21.000000 0 0 1 778.000000 323.000000
M 822.000000 326.000000
A 22.000000 22.000000 0 0 1 778.000000 326.000000
M 823.000000 328.500000
A 22.500000 22.500000 0 0 1 778.000000 328.500000
M 648.000000 36.000000
A 18.000000 18.000000 0 0 1 612.000000 36.000000
M 650.000000 38.500000
A 17.500000 17.500000 0 0 1 615.000000 38.500000
M 653.000000 42.000000
A 17.000000 17.000000 0 0 1 619.000000 42.000000
M 654.000000 44.000000
A 16.000000 16.000000 0 0 1 622.000000 44.000000
M 656.000000 46.500000
A 15.500000 15.500000 0 0 1 625.000000 46.500000
M 658.000000 50.000000
A 15.000000 15.000000 0 0 1 628.000000 50.000000
M 659.000000 52.000000
A 14.000000 14.000000 0 0 1 631.000000 52.000000
M 662.000000 54.500000
A 13.500000 13.500000 0 0 1 635.000000 54.500000
M 664.000000 58.000000
A 13.000000 13.000000 0 0 1 638.000000 58.000000
M 665.000000 60.000000
A 12.000000 12.000000 0 0 1 641.000000 60.000000
M 667.000000 63.500000
A 11.500000 11.500000 0 0 1 644.000000 63.500000
M 669.000000 66.000000
A 11.000000 11.000000 0 0 1 647.000000 66.000000
M 670.000000 68.000000
A 10.000000 10.000000 0 0 1 650.000000 68.000000
M 673.000000 71.500000
A 9.500000 9.500000 0 0 1 654.000000 71.500000
M 675.000000 74.000000
A 9.000000 9.000000 0 0 1 657.000000 74.000000
M 676.000000 76.000000
A 8.000000 8.000000 0 0 1 660.000000 76.000000
M 678.000000 79.500000
A 7.500000 7.500000 0 0 1 663.000000 79.500000
M 680.000000 82.000000
A 7.000000 7.000000 0 0 1 666.000000 82.000000
M 681.000000 84.000000
A 6.000000 6.000000 0 0 1 669.000000 84.000000
M 684.000000 87.500000
A 5.500000 5.500000 0 0 1 673.000000 87.500000
M 686.000000 90.000000
A 5.000000 5.000000 0 0 1 676.000000 90.000000
M 687.000000 93.000000
A 4.000000 4.000000 0 0 1 679.000000 93.000000
M 689.000000 95.500000
A 3.500000 3.500000 0 0 1 682.000000 95.500000
M 691.000000 98.000000
A 3.000000 3.000000 0 0 1 685.000000 98.000000
M 692.000000 101.000000
A 2.000000 2.000000 0 0 1 688.000000 101.000000
M 695.000000 103.500000
A 1.500000 1.500000 0 0 1 692.000000 103.500000
M 697.000000 106.000000
A 1.000000 1.000000 0 0 1 695.000000 106.000000
M 699.000000 109.500000
A 0.500000 0.500000 0 0 1 698.000000 109.500000
M 700.000000 111.500000
A 0.500000 0.500000 0 0 1 701.000000 111.500000
M 702.000000 114.000000
A 1.000000 1.000000 0 0 1 704.000000 114.000000
M 704.000000 117.000000
A 2.000000 2.000000 0 0 1 708.000000 117.000000
M 706.000000 119.500000
A 2.500000 2.500000 0 0 1 711.000000 119.500000
M 708.000000 122.000000
A 3.000000 3.000000 0 0 1 714.000000 122.000000
M 709.000000 125.000000
A 4.000000 4.000000 0 0 1 717.000000 125.000000
M 711.000000 128.500000
A 4.500000 4.500000 0 0 1 720.000000 128.500000
M 713.000000 131.000000
A 5.000000 5.000000 0 0 1 723.000000 131.000000
M 715.000000 134.000000
A 6.000000 6.000000 0 0 1 727.000000 134.000000
M 717.000000 136.500000
A 6.500000 6.500000 0 0 1 730.000000 136.500000
M 719.000000 139.000000
A 7.000000 7.000000 0 0 1 733.000000 139.000000
M 721.000000 142.000000
A 8.000000 8.000000 0 0 1 737.000000 142.000000
M 722.000000 144.500000
A 8.500000 8.500000 0 0 1 739.000000 144.500000
M 724.000000 147.000000
A 9.000000 9.000000 0 0 1 742.000000 147.000000
M 726.000000 150.000000
A 10.000000 10.000000 0 0 1 746.000000 150.000000
M 728.000000 152.500000
A 10.500000 10.500000 0 0 1 749.000000 152.500000
M 730.000000 155.000000
A 11.000000 11.000000 0 0 1 752.000000 155.000000
M 732.000000 158.000000
A 12.000000 12.000000 0 0 1 756.000000 158.000000
M 734.000000 160.500000
A 12.500000 12.500000 0 0 1 759.000000 160.500000
M 735.000000 163.000000
A 13.000000 13.000000 0 0 1 761.000000 163.000000
M 737.000000 165.500000
A 13.500000 13.500000 0 0 1 764.000000 165.500000
M 739.000000 168.500000
A 14.500000 14.500000 0 0 1 768.000000 168.500000
M 741.000000 171.000000
A 15.000000 15.000000 0 0 1 771.000000 171.000000
M 743.000000 173.500000
A 15.500000 15.500000 0 0 1 774.000000 173.500000
M 745.000000 176.500000
A 16.500000 16.500000 0 0 1 778.000000 176.500000
M 746.000000 179.000000
A 17.000000 17.000000 0 0 1 780.000000 179.000000
M 748.000000 181.500000
A 17.500000 17.500000 0 0 1 783.000000 181.500000
M 750.000000 184.500000
A 18.500000 18.500000 0 0 1 787.000000 184.500000
M 752.000000 187.000000
A 19.000000 19.000000 0 0 1 790.000000 187.000000
M 754.000000 190.500000
A 19.500000 19.500000 0 0 1 793.000000 190.500000
M 649.000000 38.000000
A 19.000000 19.000000 0 0 1 611.000000 38.000000
M 650.000000 40.000000
A 20.000000 20.000000 0 0 1 610.000000 40.000000
M 651.000000 42.000000
A 21.000000 21.000000 0 0 1 609.000000 42.000000
M 652.000000 45.000000
A 22.000000 22.000000 0 0 1 608.000000 45.000000
M 653.000000 47.000000
A 23.000000 23.000000 0 0 1 607.000000 47.000000
M 654.000000 49.000000
A 24.000000 24.000000 0 0 1 606.000000 49.000000
M 655.000000 51.000000
A 25.000000 25.000000 0 0 1 605.000000 51.000000
M 656.000000 54.000000
A 26.000000 26.000000 0 0 1 604.000000 54.000000
M 657.000000 56.000000
A 27.000000 27.000000 0 0 1 603.000000 56.000000
M 658.000000 58.000000
A 28.000000 28.000000 0 0 1 602.000000 58.000000
M 659.000000 60.000000
A 29.000000 29.000000 0 0 1 601.000000 60.000000
M 660.000000 62.000000
A 30.000000 30.000000 0 0 1 600.000000 62.000000
M 661.000000 65.000000
A 31.000000 31.000000 0 0 1 599.000000 65.000000
M 662.000000 67.000000
A 32.000000 32.000000 0 0 1 598.000000 67.000000
M 663.000000 69.000000
A 33.000000 33.000000 0 0 1 597.000000 69.000000
M 664.000000 71.000000
A 34.000000 34.000000 0 0 1 596.000000 71.000000
M 665.000000 74.000000
A 35.000000 35.000000 0 0 1 595.000000 74.000000
M 666.000000 76.000000
A 36.000000 36.000000 0 0 1 594.000000 76.000000
M 667.000000 78.000000
A 37.000000 37.000000 0 0 1 593.000000 78.000000
M 668.000000 80.000000
A 38.000000 38.000000 0 0 1 592.000000 80.000000
M 669.000000 82.000000
A 39.000000 39.000000 0 0 1 591.000000 82.000000
M 670.000000 85.000000
A 40.000000 40.000000 0 0 1 590.000000 85.000000
M 671.000000 87.000000
A 41.000000 41.000000 0 0 1 589.000000 87.000000
M 673.000000 89.000000
A 42.000000 42.000000 0 0 1 589.000000 89.000000
M 674.000000 91.000000
A 43.000000 43.000000 0 0 1 588.000000 91.000000
M 675.000000 94.000000
A 44.000000 44.000000 0 0 1 587.000000 94.000000
M 676.000000 96.000000
A 45.000000 45.000000 0 0 1 586.000000 96.000000
M 677.000000 98.000000
A 46.000000 46.000000 0 0 1 585.000000 98.000000
M 678.000000 100.000000
A 47.000000 47.000000 0 0 1 584.000000 100.000000
M 679.000000 102.000000
A 48.000000 48.000000 0 0 1 583.000000 102.000000
M 680.000000 105.000000
A 49.000000 49.000000 0 0 1 582.000000 105.000000
M 681.000000 107.000000
A 50.000000 50.000000 0 0 1 581.000000 107.000000
M 682.000000 109.000000
A 51.000000 51.000000 0 0 1 580.000000 109.000000
M 683.000000 111.000000
A 52.000000 52.000000 0 0 1 579.000000 111.000000
M 684.000000 114.000000
A 53.000000 53.000000 0 0 1 578.000000 114.000000
M 685.000000 116.000000
A 54.000000 54.000000 0 0 1 577.000000 116.000000
M 686.000000 118.000000
A 55.000000 55.000000 0 0 1 576.000000 118.000000
M 687.000000 120.000000
A 56.000000 56.000000 0 0 1 575.000000 120.000000
M 688.000000 122.000000
A 57.000000 57.000000 0 0 1 574.000000 122.000000
M 689.000000 125.000000
A 58.000000 58.000000 0 0 1 573.000000 125.000000
M 690.000000 127.000000
A 59.000000 59.000000 0 0 1 572.000000 127.000000
M 691.000000 129.000000
A 60.000000 60.000000 0 0 1 571.000000 129.000000
M 692.000000 131.000000
A 61.000000 61.000000 0 0 1 570.000000 131.000000
M 693.000000 134.000000
A 62.000000 62.000000 0 0 1 569.000000 134.000000
M 694.000000 136.000000
A 63.000000 63.000000 0 0 1 568.000000 136.000000
M 695.000000 138.000000
A 64.000000 64.000000 0 0 1 567.000000 138.000000
M 696.000000 140.000000
A 65.000000 65.000000 0 0 1 566.000000 140.000000
M 697.000000 142.000000
A 66.000000 66.000000 0 0 1 565.000000 142.000000
M 698.000000 145.000000
A 67.000000 67.000000 0 0 1 564.000000 145.000000
M 699.000000 147.000000
A 68.000000 68.000000 0 0 1 563.000000 147.000000
M 700.000000 149.000000
A 69.000000 69.000000 0 0 1 562.000000 149.000000
M 701.000000 151.000000
A 70.000000 70.000000 0 0 1 561.000000 151.000000
M 702.000000 154.000000
A 71.000000 71.000000 0 0 1 560.000000 154.000000
M 703.000000 156.000000
A 72.000000 72.000000 0 0 1 559.000000 156.000000
M 704.000000 158.000000
A 73.000000 73.000000 0 0 1 558.000000 158.000000
M 705.000000 160.000000
A 74.000000 74.000000 0 0 1 557.000000 160.000000
M 706.000000 162.000000
A 75.000000 75.000000 0 0 1 556.000000 162.000000
M 707.000000 165.000000
A 76.000000 76.000000 0 0 1 555.000000 165.000000
M 709.000000 167.000000
A 75.000000 75.000000 0 0 1 559.000000 167.000000
M 711.000000 170.000000
A 74.000000 74.000000 0 0 1 563.000000 170.000000
M 712.000000 173.000000
A 73.000000 73.000000 0 0 1 566.000000 173.000000
M 715.000000 176.500000
A 72.500000 72.500000 0 0 1 570.000000 176.500000
M 717.000000 178.500000
A 71.500000 71.500000 0 0 1 574.000000 178.500000
M 719.000000 181.500000
A 70.500000 70.500000 0 0 1 578.000000 181.500000
M 721.000000 184.500000
A 69.500000 69.500000 0 0 1 582.000000 184.500000
M 723.000000 187.500000
A 68.500000 68.500000 0 0 1 586.000000 187.500000
M 724.000000 189.500000
A 67.500000 67.500000 0 0 1 589.000000 189.500000
M 727.000000 193.000000
A 67.000000 67.000000 0 0 1 593.000000 193.000000
M 729.000000 196.000000
A 66.000000 66.000000 0 0 1 597.000000 196.000000
M 731.000000 199.000000
A 65.000000 65.000000 0 0 1 601.000000 199.000000
M 733.000000 201.000000
A 64.000000 64.000000 0 0 1 605.000000 201.000000
M 735.000000 204.000000
A 63.000000 63.000000 0 0 1 609.000000 204.000000
M 737.000000 207.000000
A 62.000000 62.000000 0 0 1 613.000000 207.000000
M 738.000000 209.000000
A 61.000000 61.000000 0 0 1 616.000000 209.000000
M 741.000000 212.500000
A 60.500000 60.500000 0 0 1 620.000000 212.500000
M 743.000000 215.500000
A 59.500000 59.500000 0 0 1 624.000000 215.500000
M 745.000000 218.500000
A 58.500000 58.500000 0 0 1 628.000000 218.500000
M 747.000000 220.500000
A 57.500000 57.500000 0 0 1 632.000000 220.500000
M 749.000000 223.500000
A 56.500000 56.500000 0 0 1 636.000000 223.500000
M 750.000000 226.500000
A 55.500000 55.500000 0 0 1 639.000000 226.500000
M 753.000000 230.000000
A 55.000000 55.000000 0 0 1 643.000000 230.000000
M 755.000000 232.000000
A 54.000000 54.000000 0 0 1 647.000000 232.000000
M 757.000000 235.000000
A 53.000000 53.000000 0 0 1 651.000000 235.000000
M 759.000000 238.000000
A 52.000000 52.000000 0 0 1 655.000000 238.000000
M 761.000000 241.000000
A 51.000000 51.000000 0 0 1 659.000000 241.000000
M 762.000000 243.000000
A 50.000000 50.000000 0 0 1 662.000000 243.000000
M 765.000000 246.500000
A 49.500000 49.500000 0 0 1 666.000000 246.500000
M 767.000000 249.500000
A 48.500000 48.500000 0 0 1 670.000000 249.500000
M 769.000000 252.500000
A 47.500000 47.500000 0 0 1 674.000000 252.500000
M 771.000000 254.500000
A 46.500000 46.500000 0 0 1 678.000000 254.500000
M 773.000000 257.500000
A 45.500000 45.500000 0 0 1 682.000000 257.500000
M 775.000000 260.500000
A 44.500000 44.500000 0 0 1 686.000000 260.500000
M 776.000000 263.500000
A 43.500000 43.500000 0 0 1 689.000000 263.500000
M 779.000000 266.000000
A 43.000000 43.000000 0 0 1 693.000000 266.000000
M 781.000000 269.000000
A 42.000000 42.000000 0 0 1 697.000000 269.000000
M 783.000000 272.000000
A 41.000000 41.000000 0 0 1 701.000000 272.000000
M 785.000000 275.000000
A 40.000000 40.000000 0 0 1 705.000000 275.000000
M 787.000000 277.000000
A 39.000000 39.000000 0 0 1 709.000000 277.000000
M 788.000000 280.000000
A 38.000000 38.000000 0 0 1 712.000000 280.000000
M 791.000000 283.500000
A 37.500000 37.500000 0 0 1 716.000000 283.500000
M 793.000000 285.500000
A 36.500000 36.500000 0 0 1 720.000000 285.500000
M 795.000000 288.500000
A 35.500000 35.500000 0 0 1 724.000000 288.500000
M 797.000000 291.500000
A 34.500000 34.500000 0 0 1 728.000000 291.500000
M 799.000000 294.500000
A 33.500000 33.500000 0 0 1 732.000000 294.500000
M 801.000000 296.500000
A 32.500000 32.500000 0 0 1 736.000000 296.500000
M 803.000000 300.000000
A 32.000000 32.000000 0 0 1 739.000000 300.000000
M 805.000000 303.000000
A 31.000000 31.000000 0 0 1 743.000000 303.000000
M 807.000000 306.000000
A 30.000000 30.000000 0 0 1 747.000000 306.000000
M 809.000000 308.000000
A 29.000000 29.000000 0 0 1 751.000000 308.000000
M 811.000000 311.000000
A 28.000000 28.000000 0 0 1 755.000000 311.000000
M 813.000000 314.000000
A 27.000000 27.000000 0 0 1 759.000000 314.000000
M 814.000000 317.000000
A 26.000000 26.000000 0 0 1 762.000000 317.000000
M 817.000000 319.500000
A 25.500000 25.500000 0 0 1 766.000000 319.500000
M 819.000000 322.500000
A 24.500000 24.500000 0 0 1 770.000000 322.500000
M 821.000000 325.500000
A 23.500000 23.500000 0 0 1 774.000000 325.500000
M 460.000000 189.500000
A 19.500000 19.500000 0 0 1 499.000000 189.500000
M 463.000000 187.000000
A 19.000000 19.000000 0 0 1 501.000000 187.000000
M 466.000000 184.000000
A 18.000000 18.000000 0 0 1 502.000000 184.000000
M 470.000000 181.500000
A 17.500000 17.500000 0 0 1 505.000000 181.500000
M 473.000000 179.000000
A 17.000000 17.000000 0 0 1 507.000000 179.000000
M 476.000000 176.000000
A 16.000000 16.000000 0 0 1 508.000000 176.000000
M 479.000000 173.500000
A 15.500000 15.500000 0 0 1 510.000000 173.500000
M 483.000000 171.000000
A 15.000000 15.000000 0 0 1 513.000000 171.000000
M 486.000000 168.500000
A 14.500000 14.500000 0 0 1 515.000000 168.500000
M 489.000000 165.500000
A 13.500000 13.500000 0 0 1 516.000000 165.500000
M 492.000000 163.000000
A 13.000000 13.000000 0 0 1 518.000000 163.000000
M 496.000000 160.500000
A 12.500000 12.500000 0 0 1 521.000000 160.500000
M 499.000000 157.500000
A 11.500000 11.500000 0 0 1 522.000000 157.500000
M 502.000000 155.000000
A 11.000000 11.000000 0 0 1 524.000000 155.000000
M 505.000000 152.500000
A 10.500000 10.500000 0 0 1 526.000000 152.500000
M 509.000000 149.500000
A 9.500000 9.500000 0 0 1 528.000000 149.500000
M 512.000000 147.000000
A 9.000000 9.000000 0 0 1 530.000000 147.000000
M 515.000000 144.500000
A 8.500000 8.500000 0 0 1 532.000000 144.500000
M 518.000000 142.000000
A 8.000000 8.000000 0 0 1 534.000000 142.000000
M 522.000000 139.000000
A 7.000000 7.000000 0 0 1 536.000000 139.000000
M 525.000000 136.500000
A 6.500000 6.500000 0 0 1 538.000000 136.500000
M 528.000000 134.000000
A 6.000000 6.000000 0 0 1 540.000000 134.000000
M 531.000000 131.000000
A 5.000000 5.000000 0 0 1 541.000000 131.000000
M 535.000000 128.500000
A 4.500000 4.500000 0 0 1 544.000000 128.500000
M 538.000000 126.000000
A 4.000000 4.000000 0 0 1 546.000000 126.000000
M 541.000000 123.500000
A 3.500000 3.500000 0 0 1 548.000000 123.500000
M 544.000000 120.500000
A 2.500000 2.500000 0 0 1 549.000000 120.500000
M 548.000000 118.000000
A 2.000000 2.000000 0 0 1 552.000000 118.000000
M 551.000000 115.500000
A 1.500000 1.500000 0 0 1 554.000000 115.500000
M 554.000000 112.500000
A 0.500000 0.500000 0 0 1 555.000000 112.500000
M 557.000000 110.500000
A 0.500000 0.500000 0 0 1 558.000000 110.500000
M 560.000000 107.500000
A 0.500000 0.500000 0 0 1 559.000000 107.500000
M 564.000000 104.500000
A 1.500000 1.500000 0 0 1 561.000000 104.500000
M 567.000000 102.000000
A 2.000000 2.000000 0 0 1 563.000000 102.000000
M 570.000000 99.500000
A 2.500000 2.500000 0 0 1 565.000000 99.500000
M 573.000000 96.000000
A 3.000000 3.000000 0 0 1 567.000000 96.000000
M 577.000000 94.000000
A 4.000000 4.000000 0 0 1 569.000000 94.000000
M 580.000000 91.500000
A 4.500000 4.500000 0 0 1 571.000000 91.500000
M 583.000000 89.000000
A 5.000000 5.000000 0 0 1 573.000000 89.000000
M 587.000000 86.000000
A 6.000000 6.000000 0 0 1 575.000000 86.000000
M 590.000000 83.500000
A 6.500000 6.500000 0 0 1 577.000000 83.500000
M 593.000000 81.000000
A 7.000000 7.000000 0 0 1 579.000000 81.000000
M 596.000000 77.500000
A 7.500000 7.500000 0 0 1 581.000000 77.500000
M 600.000000 75.500000
A 8.500000 8.500000 0 0 1 583.000000 75.500000
M 603.000000 73.000000
A 9.000000 9.000000 0 0 1 585.000000 73.000000
M 606.000000 70.500000
A 9.500000 9.500000 0 0 1 587.000000 70.500000
M 610.000000 67.500000
A 10.500000 10.500000 0 0 1 589.000000 67.500000
M 613.000000 65.000000
A 11.000000 11.000000 0 0 1 591.000000 65.000000
M 616.000000 62.500000
A 11.500000 11.500000 0 0 1 593.000000 62.500000
M 620.000000 59.500000
A 12.500000 12.500000 0 0 1 595.000000 59.500000
M 623.000000 57.000000
A 13.000000 13.000000 0 0 1 597.000000 57.000000
M 626.000000 54.500000
A 13.500000 13.500000 0 0 1 599.000000 54.500000
M 629.000000 52.000000
A 14.000000 14.000000 0 0 1 601.000000 52.000000
M 632.000000 49.000000
A 15.000000 15.000000 0 0 1 602.000000 49.000000
M 635.000000 46.500000
A 15.500000 15.500000 0 0 1 604.000000 46.500000
M 638.000000 44.000000
A 16.000000 16.000000 0 0 1 606.000000 44.000000
M 642.000000 41.000000
A 17.000000 17.000000 0 0 1 608.000000 41.000000
M 645.000000 38.500000
A 17.500000 17.500000 0 0 1 610.000000 38.500000
M 479.000000 324.000000
A 24.000000 24.000000 0 0 1 431.000000 324.000000
M 478.000000 322.000000
A 23.000000 23.000000 0 0 1 432.000000 322.000000
M 478.000000 319.500000
A 22.500000 22.500000 0 0 1 433.000000 319.500000
M 478.000000 317.500000
A 21.500000 21.500000 0 0 1 435.000000 317.500000
M 478.000000 315.000000
A 21.000000 21.000000 0 0 1 436.000000 315.000000
M 477.000000 313.000000
A 20.000000 20.000000 0 0 1 437.000000 313.000000
M 477.000000 310.500000
A 19.500000 19.500000 0 0 1 438.000000 310.500000
M 476.000000 307.500000
A 18.500000 18.500000 0 0 1 439.000000 307.500000
M 476.000000 306.000000
A 18.000000 18.000000 0 0 1 440.000000 306.000000
M 476.000000 303.000000
A 17.000000 17.000000 0 0 1 442.000000 303.000000
M 476.000000 301.500000
A 16.500000 16.500000 0 0 1 443.000000 301.500000
M 475.000000 298.500000
A 15.500000 15.500000 0 0 1 444.000000 298.500000
M 475.000000 296.000000
A 15.000000 15.000000 0 0 1 445.000000 296.000000
M 474.000000 294.000000
A 14.000000 14.000000 0 0 1 446.000000 294.000000
M 474.000000 291.500000
A 13.500000 13.500000 0 0 1 447.000000 291.500000
M 474.000000 289.500000
A 12.500000 12.500000 0 0 1 449.000000 289.500000
M 474.000000 287.000000
A 12.000000 12.000000 0 0 1 450.000000 287.000000
M 473.000000 285.000000
A 11.000000 11.000000 0 0 1 451.000000 285.000000
M 473.000000 282.500000
A 10.500000 10.500000 0 0 1 452.000000 282.500000
M 472.000000 279.500000
A 9.500000 9.500000 0 0 1 453.000000 279.500000
M 472.000000 278.000000
A 9.000000 9.000000 0 0 1 454.000000 278.000000
M 472.000000 275.000000
A 8.000000 8.000000 0 0 1 456.000000 275.000000
M 472.000000 273.500000
A 7.500000 7.500000 0 0 1 457.000000 273.500000
M 471.000000 270.500000
A 6.500000 6.500000 0 0 1 458.000000 270.500000
M 471.000000 268.000000
A 6.000000 6.000000 0 0 1 459.000000 268.000000
M 470.000000 266.000000
A 5.000000 5.000000 0 0 1 460.000000 266.000000
M 470.000000 263.500000
A 4.500000 4.500000 0 0 1 461.000000 263.500000
M 470.000000 261.500000
A 3.500000 3.500000 0 0 1 463.000000 261.500000
M 470.000000 259.000000
A 3.000000 3.000000 0 0 1 464.000000 259.000000
M 469.000000 257.000000
A 2.000000 2.000000 0 0 1 465.000000 257.000000
M 469.000000 254.500000
A 1.500000 1.500000 0 0 1 466.000000 254.500000
M 468.000000 251.500000
A 0.500000 0.500000 0 0 1 467.000000 251.500000
M 468.000000 250.500000
A 0.500000 0.500000 0 0 1 469.000000 250.500000
M 468.000000 248.000000
A 1.000000 1.000000 0 0 1 470.000000 248.000000
M 468.000000 245.500000
A 1.500000 1.500000 0 0 1 471.000000 245.500000
M 467.000000 242.500000
A 2.500000 2.500000 0 0 1 472.000000 242.500000
M 467.000000 240.000000
A 3.000000 3.000000 0 0 1 473.000000 240.000000
M 467.000000 238.000000
A 4.000000 4.000000 0 0 1 475.000000 238.000000
M 466.000000 235.500000
A 4.500000 4.500000 0 0 1 475.000000 235.500000
M 466.000000 233.500000
A 5.500000 5.500000 0 0 1 477.000000 233.500000
M 466.000000 231.000000
A 6.000000 6.000000 0 0 1 478.000000 231.000000
M 465.000000 229.000000
A 7.000000 7.000000 0 0 1 479.000000 229.000000
M 465.000000 226.500000
A 7.500000 7.500000 0 0 1 480.000000 226.500000
M 465.000000 224.500000
A 8.500000 8.500000 0 0 1 482.000000 224.500000
M 464.000000 222.000000
A 9.000000 9.000000 0 0 1 482.000000 222.000000
M 464.000000 220.000000
A 10.000000 10.000000 0 0 1 484.000000 220.000000
M 464.000000 217.500000
A 10.500000 10.500000 0 0 1 485.000000 217.500000
M 464.000000 215.000000
A 11.000000 11.000000 0 0 1 486.000000 215.000000
M 463.000000 212.000000
A 12.000000 12.000000 0 0 1 487.000000 212.000000
M 463.000000 209.500000
A 12.500000 12.500000 0 0 1 488.000000 209.500000
M 463.000000 207.500000
A 13.500000 13.500000 0 0 1 490.000000 207.500000
M 462.000000 205.000000
A 14.000000 14.000000 0 0 1 490.000000 205.000000
M 462.000000 203.000000
A 15.000000 15.000000 0 0 1 492.000000 203.000000
M 462.000000 200.500000
A 15.500000 15.500000 0 0 1 493.000000 200.500000
M 461.000000 198.500000
A 16.500000 16.500000 0 0 1 494.000000 198.500000
M 461.000000 196.000000
A 17.000000 17.000000 0 0 1 495.000000 196.000000
M 461.000000 194.000000
A 18.000000 18.000000 0 0 1 497.000000 194.000000
M 460.000000 191.500000
A 18.500000 18.500000 0 0 1 497.000000 191.500000
M 482.000000 321.500000
A 24.500000 24.500000 0 0 1 433.000000 321.500000
M 486.000000 318.500000
A 25.500000 25.500000 0 0 1 435.000000 318.500000
M 491.000000 316.500000
A 26.500000 26.500000 0 0 1 438.000000 316.500000
M 495.000000 313.500000
A 27.500000 27.500000 0 0 1 440.000000 313.500000
M 499.000000 310.500000
A 28.500000 28.500000 0 0 1 442.000000 310.500000
M 502.000000 308.000000
A 29.000000 29.000000 0 0 1 444.000000 308.000000
M 506.000000 305.000000
A 30.000000 30.000000 0 0 1 446.000000 305.000000
M 510.000000 302.000000
A 31.000000 31.000000 0 0 1 448.000000 302.000000
M 514.000000 300.000000
A 32.000000 32.000000 0 0 1 450.000000 300.000000
M 518.000000 297.000000
A 33.000000 33.000000 0 0 1 452.000000 297.000000
M 522.000000 293.500000
A 33.500000 33.500000 0 0 1 455.000000 293.500000
M 526.000000 291.500000
A 34.500000 34.500000 0 0 1 457.000000 291.500000
M 530.000000 288.500000
A 35.500000 35.500000 0 0 1 459.000000 288.500000
M 534.000000 285.500000
A 36.500000 36.500000 0 0 1 461.000000 285.500000
M 538.000000 283.500000
A 37.500000 37.500000 0 0 1 463.000000 283.500000
M 541.000000 280.000000
A 38.000000 38.000000 0 0 1 465.000000 280.000000
M 545.000000 277.000000
A 39.000000 39.000000 0 0 1 467.000000 277.000000
M 550.000000 275.000000
A 40.000000 40.000000 0 0 1 470.000000 275.000000
M 554.000000 272.000000
A 41.000000 41.000000 0 0 1 472.000000 272.000000
M 558.000000 269.000000
A 42.000000 42.000000 0 0 1 474.000000 269.000000
M 561.000000 266.500000
A 42.500000 42.500000 0 0 1 476.000000 266.500000
M 565.000000 263.500000
A 43.500000 43.500000 0 0 1 478.000000 263.500000
M 569.000000 260.500000
A 44.500000 44.500000 0 0 1 480.000000 260.500000
M 573.000000 258.500000
A 45.500000 45.500000 0 0 1 482.000000 258.500000
M 577.000000 255.500000
A 46.500000 46.500000 0 0 1 484.000000 255.500000
M 581.000000 253.000000
A 47.000000 47.000000 0 0 1 487.000000 253.000000
M 585.000000 250.000000
A 48.000000 48.000000 0 0 1 489.000000 250.000000
M 589.000000 247.000000
A 49.000000 49.000000 0 0 1 491.000000 247.000000
M 593.000000 245.000000
A 50.000000 50.000000 0 0 1 493.000000 245.000000
M 597.000000 242.000000
A 51.000000 51.000000 0 0 1 495.000000 242.000000
M 600.000000 238.500000
A 51.500000 51.500000 0 0 1 497.000000 238.500000
M 604.000000 236.500000
A 52.500000 52.500000 0 0 1 499.000000 236.500000
M 609.000000 233.500000
A 53.500000 53.500000 0 0 1 502.000000 233.500000
M 613.000000 230.500000
A 54.500000 54.500000 0 0 1 504.000000 230.500000
M 617.000000 228.500000
A 55.500000 55.500000 0 0 1 506.000000 228.500000
M 620.000000 225.000000
A 56.000000 56.000000 0 0 1 508.000000 225.000000
M 624.000000 222.000000
A 57.000000 57.000000 0 0 1 510.000000 222.000000
M 628.000000 220.000000
A 58.000000 58.000000 0 0 1 512.000000 220.000000
M 632.000000 217.000000
A 59.000000 59.000000 0 0 1 514.000000 217.000000
M 636.000000 214.000000
A 60.000000 60.000000 0 0 1 516.000000 214.000000
M 640.000000 211.500000
A 60.500000 60.500000 0 0 1 519.000000 211.500000
M 644.000000 208.500000
A 61.500000 61.500000 0 0 1 521.000000 208.500000
M 648.000000 205.500000
A 62.500000 62.500000 0 0 1 523.000000 205.500000
M 652.000000 203.500000
A 63.500000 63.500000 0 0 1 525.000000 203.500000
M 656.000000 200.500000
A 64.500000 64.500000 0 0 1 527.000000 200.500000
M 659.000000 197.000000
A 65.000000 65.000000 0 0 1 529.000000 197.000000
M 663.000000 195.000000
A 66.000000 66.000000 0 0 1 531.000000 195.000000
M 668.000000 192.000000
A 67.000000 67.000000 0 0 1 534.000000 192.000000
M 672.000000 189.000000
A 68.000000 68.000000 0 0 1 536.000000 189.000000
M 676.000000 187.000000
A 69.000000 69.000000 0 0 1 538.000000 187.000000
M 679.000000 183.500000
A 69.500000 69.500000 0 0 1 540.000000 183.500000
M 683.000000 181.500000
A 70.500000 70.500000 0 0 1 542.000000 181.500000
M 687.000000 178.500000
A 71.500000 71.500000 0 0 1 544.000000 178.500000
M 691.000000 175.500000
A 72.500000 72.500000 0 0 1 546.000000 175.500000
M 695.000000 173.500000
A 73.500000 73.500000 0 0 1 548.000000 173.500000
M 699.000000 170.000000
A 74.000000 74.000000 0 0 1 551.000000 170.000000
M 703.000000 167.000000
A 75.000000 75.000000 0 0 1 553.000000 167.000000
M 462.000000 191.000000
A 20.000000 20.000000 0 0 1 502.000000 191.000000
M 464.000000 193.500000
A 20.500000 20.500000 0 0 1 505.000000 193.500000
M 466.000000 195.000000
A 21.000000 21.000000 0 0 1 508.000000 195.000000
M 468.000000 197.500000
A 21.500000 21.500000 0 0 1 511.000000 197.500000
M 470.000000 200.000000
A 22.000000 22.000000 0 0 1 514.000000 200.000000
M 472.000000 201.500000
A 22.500000 22.500000 0 0 1 517.000000 201.500000
M 474.000000 204.000000
A 23.000000 23.000000 0 0 1 520.000000 204.000000
M 476.000000 205.500000
A 23.500000 23.500000 0 0 1 523.000000 205.500000
M 478.000000 208.000000
A 24.000000 24.000000 0 0 1 526.000000 208.000000
M 480.000000 210.500000
A 24.500000 24.500000 0 0 1 529.000000 210.500000
M 482.000000 212.000000
A 25.000000 25.000000 0 0 1 532.000000 212.000000
M 484.000000 214.500000
A 25.500000 25.500000 0 0 1 535.000000 214.500000
M 486.000000 216.000000
A 26.000000 26.000000 0 0 1 538.000000 216.000000
M 488.000000 218.500000
A 26.500000 26.500000 0 0 1 541.000000 218.500000
M 490.000000 221.000000
A 27.000000 27.000000 0 0 1 544.000000 221.000000
M 492.000000 222.500000
A 27.500000 27.500000 0 0 1 547.000000 222.500000
M 494.000000 225.000000
A 28.000000 28.000000 0 0 1 550.000000 225.000000
M 496.000000 226.500000
A 28.500000 28.500000 0 0 1 553.000000 226.500000
M 498.000000 229.500000
A 29.500000 29.500000 0 0 1 557.000000 229.500000
M 500.000000 231.000000
A 30.000000 30.000000 0 0 1 560.000000 231.000000
M 502.000000 233.500000
A 30.500000 30.500000 0 0 1 563.000000 233.500000
M 504.000000 236.000000
A 31.000000 31.000000 0 0 1 566.000000 236.000000
M 506.000000 237.500000
A 31.500000 31.500000 0 0 1 569.000000 237.500000
M 508.000000 240.000000
A 32.000000 32.000000 0 0 1 572.000000 240.000000
M 510.000000 241.500000
A 32.500000 32.500000 0 0 1 575.000000 241.500000
M 512.000000 244.000000
A 33.000000 33.000000 0 0 1 578.000000 244.000000
M 514.000000 246.500000
A 33.500000 33.500000 0 0 1 581.000000 246.500000
M 516.000000 248.000000
A 34.000000 34.000000 0 0 1 584.000000 248.000000
M 518.000000 250.500000
A 34.500000 34.500000 0 0 1 587.000000 250.500000
M 520.000000 252.000000
A 35.000000 35.000000 0 0 1 590.000000 252.000000
M 522.000000 254.500000
A 35.500000 35.500000 0 0 1 593.000000 254.500000
M 524.000000 257.000000
A 36.000000 36.000000 0 0 1 596.000000 257.000000
M 526.000000 258.500000
A 36.500000 36.500000 0 0 1 599.000000 258.500000
M 528.000000 261.000000
A 37.000000 37.000000 0 0 1 602.000000 261.000000
M 530.000000 262.500000
A 37.500000 37.500000 0 0 1 605.000000 262.500000
M 532.000000 265.000000
A 38.000000 38.000000 0 0 1 608.000000 265.000000
M 534.000000 267.500000
A 38.500000 38.500000 0 0 1 611.000000 267.500000
M 536.000000 269.000000
A 39.000000 39.000000 0 0 1 614.000000 269.000000
M 539.000000 271.500000
A 39.500000 39.500000 0 0 1 618.000000 271.500000
M 541.000000 273.000000
A 40.000000 40.000000 0 0 1 621.000000 273.000000
M 543.000000 275.500000
A 40.500000 40.500000 0 0 1 624.000000 275.500000
M 545.000000 277.000000
A 41.000000 41.000000 0 0 1 627.000000 277.000000
M 547.000000 279.500000
A 41.500000 41.500000 0 0 1 630.000000 279.500000
M 549.000000 282.000000
A 42.000000 42.000000 0 0 1 633.000000 282.000000
M 551.000000 283.500000
A 42.500000 42.500000 0 0 1 636.000000 283.500000
M 553.000000 286.000000
A 43.000000 43.000000 0 0 1 639.000000 286.000000
M 555.000000 287.500000
A 43.500000 43.500000 0 0 1 642.000000 287.500000
M 557.000000 290.000000
A 44.000000 44.000000 0 0 1 645.000000 290.000000
M 559.000000 292.500000
A 44.500000 44.500000 0 0 1 648.000000 292.500000
M 561.000000 294.500000
A 45.500000 45.500000 0 0 1 652.000000 294.500000
M 563.000000 297.000000
A 46.000000 46.000000 0 0 1 655.000000 297.000000
M 565.000000 298.500000
A 46.500000 46.500000 0 0 1 658.000000 298.500000
M 567.000000 301.000000
A 47.000000 47.000000 0 0 1 661.000000 301.000000
M 569.000000 303.500000
A 47.500000 47.500000 0 0 1 664.000000 303.500000
M 571.000000 305.000000
A 48.000000 48.000000 0 0 1 667.000000 305.000000
M 573.000000 307.500000
A 48.500000 48.500000 0 0 1 670.000000 307.500000
M 575.000000 309.000000
A 49.000000 49.000000 0 0 1 673.000000 309.000000
M 577.000000 311.500000
A 49.500000 49.500000 0 0 1 676.000000 311.500000
M 610.000000 446.000000
A 16.000000 16.000000 0 0 1 642.000000 446.000000
M 609.000000 443.500000
A 16.500000 16.500000 0 0 1 642.000000 443.500000
M 609.000000 441.000000
A 17.000000 17.000000 0 0 1 643.000000 441.000000
M 608.000000 440.000000
A 18.000000 18.000000 0 0 1 644.000000 440.000000
M 608.000000 437.500000
A 18.500000 18.500000 0 0 1 645.000000 437.500000
M 607.000000 435.000000
A 19.000000 19.000000 0 0 1 645.000000 435.000000
M 606.000000 432.500000
A 19.500000 19.500000 0 0 1 645.000000 432.500000
M 606.000000 430.000000
A 20.000000 20.000000 0 0 1 646.000000 430.000000
M 605.000000 427.500000
A 20.500000 20.500000 0 0 1 646.000000 427.500000
M 605.000000 425.000000
A 21.000000 21.000000 0 0 1 647.000000 425.000000
M 604.000000 423.000000
A 22.000000 22.000000 0 0 1 648.000000 423.000000
M 604.000000 420.500000
A 22.500000 22.500000 0 0 1 649.000000 420.500000
M 603.000000 418.000000
A 23.000000 23.000000 0 0 1 649.000000 418.000000
M 602.000000 416.500000
A 23.500000 23.500000 0 0 1 649.000000 416.500000
M 602.000000 414.000000
A 24.000000 24.000000 0 0 1 650.000000 414.000000
M 601.000000 411.500000
A 24.500000 24.500000 0 0 1 650.000000 411.500000
M 601.000000 409.000000
A 25.000000 25.000000 0 0 1 651.000000 409.000000
M 600.000000 407.000000
A 26.000000 26.000000 0 0 1 652.000000 407.000000
M 600.000000 404.500000
A 26.500000 26.500000 0 0 1 653.000000 404.500000
M 599.000000 402.000000
A 27.000000 27.000000 0 0 1 653.000000 402.000000
M 598.000000 399.500000
A 27.500000 27.500000 0 0 1 653.000000 399.500000
M 598.000000 397.000000
A 28.000000 28.000000 0 0 1 654.000000 397.000000
M 597.000000 394.500000
A 28.500000 28.500000 0 0 1 654.000000 394.500000
M 597.000000 393.500000
A 29.500000 29.500000 0 0 1 656.000000 393.500000
M 596.000000 391.000000
A 30.000000 30.000000 0 0 1 656.000000 391.000000
M 596.000000 388.500000
A 30.500000 30.500000 0 0 1 657.000000 388.500000
M 595.000000 386.000000
A 31.000000 31.000000 0 0 1 657.000000 386.000000
M 594.000000 383.500000
A 31.500000 31.500000 0 0 1 657.000000 383.500000
M 594.000000 381.000000
A 32.000000 32.000000 0 0 1 658.000000 381.000000
M 593.000000 378.500000
A 32.500000 32.500000 0 0 1 658.000000 378.500000
M 593.000000 376.500000
A 33.500000 33.500000 0 0 1 660.000000 376.500000
M 592.000000 374.000000
A 34.000000 34.000000 0 0 1 660.000000 374.000000
M 592.000000 371.500000
A 34.500000 34.500000 0 0 1 661.000000 371.500000
M 591.000000 369.000000
A 35.000000 35.000000 0 0 1 661.000000 369.000000
M 590.000000 367.500000
A 35.500000 35.500000 0 0 1 661.000000 367.500000
M 590.000000 365.000000
A 36.000000 36.000000 0 0 1 662.000000 365.000000
M 589.000000 362.500000
A 36.500000 36.500000 0 0 1 662.000000 362.500000
M 589.000000 360.500000
A 37.500000 37.500000 0 0 1 664.000000 360.500000
M 588.000000 358.000000
A 38.000000 38.000000 0 0 1 664.000000 358.000000
M 588.000000 355.500000
A 38.500000 38.500000 0 0 1 665.000000 355.500000
M 587.000000 353.000000
A 39.000000 39.000000 0 0 1 665.000000 353.000000
M 586.000000 350.500000
A 39.500000 39.500000 0 0 1 665.000000 350.500000
M 586.000000 348.000000
A 40.000000 40.000000 0 0 1 666.000000 348.000000
M 585.000000 346.000000
A 41.000000 41.000000 0 0 1 667.000000 346.000000
M 585.000000 344.500000
A 41.500000 41.500000 0 0 1 668.000000 344.500000
M 584.000000 342.000000
A 42.000000 42.000000 0 0 1 668.000000 342.000000
M 584.000000 339.500000
A 42.500000 42.500000 0 0 1 669.000000 339.500000
M 583.000000 337.000000
A 43.000000 43.000000 0 0 1 669.000000 337.000000
M 582.000000 334.500000
A 43.500000 43.500000 0 0 1 669.000000 334.500000
M 582.000000 332.000000
A 44.000000 44.000000 0 0 1 670.000000 332.000000
M 581.000000 330.000000
A 45.000000 45.000000 0 0 1 671.000000 330.000000
M 581.000000 327.500000
A 45.500000 45.500000 0 0 1 672.000000 327.500000
M 580.000000 325.000000
A 46.000000 46.000000 0 0 1 672.000000 325.000000
M 580.000000 322.500000
A 46.500000 46.500000 0 0 1 673.000000 322.500000
M 579.000000 321.000000
A 47.000000 47.000000 0 0 1 673.000000 321.000000
M 578.000000 318.500000
A 47.500000 47.500000 0 0 1 673.000000 318.500000
M 578.000000 316.000000
A 48.000000 48.000000 0 0 1 674.000000 316.000000
M 577.000000 314.000000
A 49.000000 49.000000 0 0 1 675.000000 314.000000
M 481.000000 326.000000
A 23.000000 23.000000 0 0 1 435.000000 326.000000
M 483.000000 328.500000
A 22.500000 22.500000 0 0 1 438.000000 328.500000
M 486.000000 331.000000
A 22.000000 22.000000 0 0 1 442.000000 331.000000
M 488.000000 333.000000
A 21.000000 21.000000 0 0 1 446.000000 333.000000
M 490.000000 334.500000
A 20.500000 20.500000 0 0 1 449.000000 334.500000
M 492.000000 336.500000
A 19.500000 19.500000 0 0 1 453.000000 336.500000
M 495.000000 339.000000
A 19.000000 19.000000 0 0 1 457.000000 339.000000
M 497.000000 341.500000
A 18.500000 18.500000 0 0 1 460.000000 341.500000
M 499.000000 343.500000
A 17.500000 17.500000 0 0 1 464.000000 343.500000
M 501.000000 345.000000
A 17.000000 17.000000 0 0 1 467.000000 345.000000
M 504.000000 347.500000
A 16.500000 16.500000 0 0 1 471.000000 347.500000
M 506.000000 349.500000
A 15.500000 15.500000 0 0 1 475.000000 349.500000
M 508.000000 352.000000
A 15.000000 15.000000 0 0 1 478.000000 352.000000
M 510.000000 354.000000
A 14.000000 14.000000 0 0 1 482.000000 354.000000
M 513.000000 355.500000
A 13.500000 13.500000 0 0 1 486.000000 355.500000
M 515.000000 358.000000
A 13.000000 13.000000 0 0 1 489.000000 358.000000
M 517.000000 360.000000
A 12.000000 12.000000 0 0 1 493.000000 360.000000
M 520.000000 362.500000
A 11.500000 11.500000 0 0 1 497.000000 362.500000
M 522.000000 365.000000
A 11.000000 11.000000 0 0 1 500.000000 365.000000
M 524.000000 366.000000
A 10.000000 10.000000 0 0 1 504.000000 366.000000
M 526.000000 368.500000
A 9.500000 9.500000 0 0 1 507.000000 368.500000
M 528.000000 370.500000
A 8.500000 8.500000 0 0 1 511.000000 370.500000
M 531.000000 373.000000
A 8.000000 8.000000 0 0 1 515.000000 373.000000
M 533.000000 374.500000
A 7.500000 7.500000 0 0 1 518.000000 374.500000
M 535.000000 376.500000
A 6.500000 6.500000 0 0 1 522.000000 376.500000
M 538.000000 379.000000
A 6.000000 6.000000 0 0 1 526.000000 379.000000
M 540.000000 381.500000
A 5.500000 5.500000 0 0 1 529.000000 381.500000
M 542.000000 383.500000
A 4.500000 4.500000 0 0 1 533.000000 383.500000
M 545.000000 385.000000
A 4.000000 4.000000 0 0 1 537.000000 385.000000
M 546.000000 387.000000
A 3.000000 3.000000 0 0 1 540.000000 387.000000
M 549.000000 389.500000
A 2.500000 2.500000 0 0 1 544.000000 389.500000
M 551.000000 392.000000
A 2.000000 2.000000 0 0 1 547.000000 392.000000
M 553.000000 394.000000
A 1.000000 1.000000 0 0 1 551.000000 394.000000
M 556.000000 395.500000
A 0.500000 0.500000 0 0 1 555.000000 395.500000
M 558.000000 398.500000
A 0.500000 0.500000 0 0 1 559.000000 398.500000
M 560.000000 400.000000
A 1.000000 1.000000 0 0 1 562.000000 400.000000
M 562.000000 402.500000
A 1.500000 1.500000 0 0 1 565.000000 402.500000
M 565.000000 404.500000
A 2.500000 2.500000 0 0 1 570.000000 404.500000
M 567.000000 406.000000
A 3.000000 3.000000 0 0 1 573.000000 406.000000
M 569.000000 408.500000
A 3.500000 3.500000 0 0 1 576.000000 408.500000
M 571.000000 410.500000
A 4.500000 4.500000 0 0 1 580.000000 410.500000
M 574.000000 413.000000
A 5.000000 5.000000 0 0 1 584.000000 413.000000
M 576.000000 414.500000
A 5.500000 5.500000 0 0 1 587.000000 414.500000
M 578.000000 416.500000
A 6.500000 6.500000 0 0 1 591.000000 416.500000
M 580.000000 419.000000
A 7.000000 7.000000 0 0 1 594.000000 419.000000
M 583.000000 421.000000
A 8.000000 8.000000 0 0 1 599.000000 421.000000
M 585.000000 423.500000
A 8.500000 8.500000 0 0 1 602.000000 423.500000
M 587.000000 425.000000
A 9.000000 9.000000 0 0 1 605.000000 425.000000
M 590.000000 428.000000
A 10.000000 10.000000 0 0 1 610.000000 428.000000
M 592.000000 429.500000
A 10.500000 10.500000 0 0 1 613.000000 429.500000
M 594.000000 431.000000
A 11.000000 11.000000 0 0 1 616.000000 431.000000
M 596.000000 434.000000
A 12.000000 12.000000 0 0 1 620.000000 434.000000
M 599.000000 435.500000
A 12.500000 12.500000 0 0 1 624.000000 435.500000
M 601.000000 438.500000
A 13.500000 13.500000 0 0 1 628.000000 438.500000
M 603.000000 440.000000
A 14.000000 14.000000 0 0 1 631.000000 440.000000
M 605.000000 441.500000
A 14.500000 14.500000 0 0 1 634.000000 441.500000
M 608.000000 444.500000
A 15.500000 15.500000 0 0 1 639.000000 444.500000
M 580.000000 309.000000
A 49.000000 49.000000 0 0 1 678.000000 309.000000
M 583.000000 307.500000
A 48.500000 48.500000 0 0 1 680.000000 307.500000
M 586.000000 305.000000
A 48.000000 48.000000 0 0 1 682.000000 305.000000
M 589.000000 303.500000
A 47.500000 47.500000 0 0 1 684.000000 303.500000
M 592.000000 301.000000
A 47.000000 47.000000 0 0 1 686.000000 301.000000
M 595.000000 299.500000
A 46.500000 46.500000 0 0 1 688.000000 299.500000
M 598.000000 297.000000
A 46.000000 46.000000 0 0 1 690.000000 297.000000
M 601.000000 295.500000
A 45.500000 45.500000 0 0 1 692.000000 295.500000
M 605.000000 293.000000
A 45.000000 45.000000 0 0 1 695.000000 293.000000
M 608.000000 290.500000
A 44.500000 44.500000 0 0 1 697.000000 290.500000
M 611.000000 289.000000
A 44.000000 44.000000 0 0 1 699.000000 289.000000
M 614.000000 286.500000
A 43.500000 43.500000 0 0 1 701.000000 286.500000
M 617.000000 285.000000
A 43.000000 43.000000 0 0 1 703.000000 285.000000
M 620.000000 282.500000
A 42.500000 42.500000 0 0 1 705.000000 282.500000
M 623.000000 281.000000
A 42.000000 42.000000 0 0 1 707.000000 281.000000
M 626.000000 278.500000
A 41.500000 41.500000 0 0 1 709.000000 278.500000
M 629.000000 277.000000
A 41.000000 41.000000 0 0 1 711.000000 277.000000
M 632.000000 274.500000
A 40.500000 40.500000 0 0 1 713.000000 274.500000
M 635.000000 273.000000
A 40.000000 40.000000 0 0 1 715.000000 273.000000
M 638.000000 270.500000
A 39.500000 39.500000 0 0 1 717.000000 270.500000
M 642.000000 269.000000
A 39.000000 39.000000 0 0 1 720.000000 269.000000
M 645.000000 266.500000
A 38.500000 38.500000 0 0 1 722.000000 266.500000
M 648.000000 264.000000
A 38.000000 38.000000 0 0 1 724.000000 264.000000
M 651.000000 262.500000
A 37.500000 37.500000 0 0 1 726.000000 262.500000
M 654.000000 260.000000
A 37.000000 37.000000 0 0 1 728.000000 260.000000
M 657.000000 258.500000
A 36.500000 36.500000 0 0 1 730.000000 258.500000
M 660.000000 256.000000
A 36.000000 36.000000 0 0 1 732.000000 256.000000
M 663.000000 254.500000
A 35.500000 35.500000 0 0 1 734.000000 254.500000
M 666.000000 252.000000
A 35.000000 35.000000 0 0 1 736.000000 252.000000
M 669.000000 250.500000
A 34.500000 34.500000 0 0 1 738.000000 250.500000
M 672.000000 248.000000
A 34.000000 34.000000 0 0 1 740.000000 248.000000
M 675.000000 246.500000
A 33.500000 33.500000 0 0 1 742.000000 246.500000
M 679.000000 244.000000
A 33.000000 33.000000 0 0 1 745.000000 244.000000
M 682.000000 242.500000
A 32.500000 32.500000 0 0 1 747.000000 242.500000
M 685.000000 240.000000
A 32.000000 32.000000 0 0 1 749.000000 240.000000
M 688.000000 237.500000
A 31.500000 31.500000 0 0 1 751.000000 237.500000
M 691.000000 236.000000
A 31.000000 31.000000 0 0 1 753.000000 236.000000
M 694.000000 233.500000
A 30.500000 30.500000 0 0 1 755.000000 233.500000
M 697.000000 232.000000
A 30.000000 30.000000 0 0 1 757.000000 232.000000
M 700.000000 229.500000
A 29.500000 29.500000 0 0 1 759.000000 229.500000
M 703.000000 228.000000
A 29.000000 29.000000 0 0 1 761.000000 228.000000
M 706.000000 225.500000
A 28.500000 28.500000 0 0 1 763.000000 225.500000
M 709.000000 224.000000
A 28.000000 28.000000 0 0 1 765.000000 224.000000
M 713.000000 221.500000
A 27.500000 27.500000 0 0 1 768.000000 221.500000
M 716.000000 220.000000
A 27.000000 27.000000 0 0 1 770.000000 220.000000
M 719.000000 217.500000
A 26.500000 26.500000 0 0 1 772.000000 217.500000
M 722.000000 215.000000
A 26.000000 26.000000 0 0 1 774.000000 215.000000
M 725.000000 213.500000
A 25.500000 25.500000 0 0 1 776.000000 213.500000
M 728.000000 211.000000
A 25.000000 25.000000 0 0 1 778.000000 211.000000
M 731.000000 209.500000
A 24.500000 24.500000 0 0 1 780.000000 209.500000
M 734.000000 207.000000
A 24.000000 24.000000 0 0 1 782.000000 207.000000
M 737.000000 205.500000
A 23.500000 23.500000 0 0 1 784.000000 205.500000
M 740.000000 203.000000
A 23.000000 23.000000 0 0 1 786.000000 203.000000
M 743.000000 201.500000
A 22.500000 22.500000 0 0 1 788.000000 201.500000
M 746.000000 199.000000
A 22.000000 22.000000 0 0 1 790.000000 199.000000
M 750.000000 197.500000
A 21.500000 21.500000 0 0 1 793.000000 197.500000
M 753.000000 195.000000
A 21.000000 21.000000 0 0 1 795.000000 195.000000
M 614.000000 444.500000
A 15.500000 15.500000 0 0 1 645.000000 444.500000
M 617.000000 442.500000
A 14.500000 14.500000 0 0 1 646.000000 442.500000
M 621.000000 440.000000
A 14.000000 14.000000 0 0 1 649.000000 440.000000
M 625.000000 438.500000
A 13.500000 13.500000 0 0 1 652.000000 438.500000
M 628.000000 435.500000
A 12.500000 12.500000 0 0 1 653.000000 435.500000
M 632.000000 434.000000
A 12.000000 12.000000 0 0 1 656.000000 434.000000
M 636.000000 432.500000
A 11.500000 11.500000 0 0 1 659.000000 432.500000
M 639.000000 429.500000
A 10.500000 10.500000 0 0 1 660.000000 429.500000
M 643.000000 428.000000
A 10.000000 10.000000 0 0 1 663.000000 428.000000
M 647.000000 426.500000
A 9.500000 9.500000 0 0 1 666.000000 426.500000
M 650.000000 423.500000
A 8.500000 8.500000 0 0 1 667.000000 423.500000
M 654.000000 422.000000
A 8.000000 8.000000 0 0 1 670.000000 422.000000
M 658.000000 419.500000
A 7.500000 7.500000 0 0 1 673.000000 419.500000
M 661.000000 417.500000
A 6.500000 6.500000 0 0 1 674.000000 417.500000
M 665.000000 416.000000
A 6.000000 6.000000 0 0 1 677.000000 416.000000
M 669.000000 413.500000
A 5.500000 5.500000 0 0 1 680.000000 413.500000
M 672.000000 411.500000
A 4.500000 4.500000 0 0 1 681.000000 411.500000
M 676.000000 410.000000
A 4.000000 4.000000 0 0 1 684.000000 410.000000
M 680.000000 407.500000
A 3.500000 3.500000 0 0 1 687.000000 407.500000
M 683.000000 405.500000
A 2.500000 2.500000 0 0 1 688.000000 405.500000
M 687.000000 403.000000
A 2.000000 2.000000 0 0 1 691.000000 403.000000
M 691.000000 401.500000
A 1.500000 1.500000 0 0 1 694.000000 401.500000
M 694.000000 399.500000
A 0.500000 0.500000 0 0 1 695.000000 399.500000
M 698.000000 397.500000
A 0.500000 0.500000 0 0 1 699.000000 397.500000
M 702.000000 395.500000
A 0.500000 0.500000 0 0 1 701.000000 395.500000
M 706.000000 393.500000
A 1.500000 1.500000 0 0 1 703.000000 393.500000
M 709.000000 391.000000
A 2.000000 2.000000 0 0 1 705.000000 391.000000
M 713.000000 389.500000
A 2.500000 2.500000 0 0 1 708.000000 389.500000
M 717.000000 387.500000
A 3.500000 3.500000 0 0 1 710.000000 387.500000
M 720.000000 385.000000
A 4.000000 4.000000 0 0 1 712.000000 385.000000
M 724.000000 383.500000
A 4.500000 4.500000 0 0 1 715.000000 383.500000
M 728.000000 381.500000
A 5.500000 5.500000 0 0 1 717.000000 381.500000
M 731.000000 379.000000
A 6.000000 6.000000 0 0 1 719.000000 379.000000
M 735.000000 376.500000
A 6.500000 6.500000 0 0 1 722.000000 376.500000
M 739.000000 375.500000
A 7.500000 7.500000 0 0 1 724.000000 375.500000
M 742.000000 373.000000
A 8.000000 8.000000 0 0 1 726.000000 373.000000
M 746.000000 370.500000
A 8.500000 8.500000 0 0 1 729.000000 370.500000
M 750.000000 369.500000
A 9.500000 9.500000 0 0 1 731.000000 369.500000
M 753.000000 367.000000
A 10.000000 10.000000 0 0 1 733.000000 367.000000
M 757.000000 364.500000
A 10.500000 10.500000 0 0 1 736.000000 364.500000
M 760.000000 363.000000
A 11.000000 11.000000 0 0 1 738.000000 363.000000
M 764.000000 361.000000
A 12.000000 12.000000 0 0 1 740.000000 361.000000
M 768.000000 358.500000
A 12.500000 12.500000 0 0 1 743.000000 358.500000
M 771.000000 356.000000
A 13.000000 13.000000 0 0 1 745.000000 356.000000
M 775.000000 355.000000
A 14.000000 14.000000 0 0 1 747.000000 355.000000
M 779.000000 352.500000
A 14.500000 14.500000 0 0 1 750.000000 352.500000
M 782.000000 350.000000
A 15.000000 15.000000 0 0 1 752.000000 350.000000
M 786.000000 349.000000
A 16.000000 16.000000 0 0 1 754.000000 349.000000
M 790.000000 346.500000
A 16.500000 16.500000 0 0 1 757.000000 346.500000
M 793.000000 344.000000
A 17.000000 17.000000 0 0 1 759.000000 344.000000
M 797.000000 343.000000
A 18.000000 18.000000 0 0 1 761.000000 343.000000
M 801.000000 340.500000
A 18.500000 18.500000 0 0 1 764.000000 340.500000
M 804.000000 338.000000
A 19.000000 19.000000 0 0 1 766.000000 338.000000
M 808.000000 336.000000
A 20.000000 20.000000 0 0 1 768.000000 336.000000
M 812.000000 334.500000
A 20.500000 20.500000 0 0 1 771.000000 334.500000
M 815.000000 332.000000
A 21.000000 21.000000 0 0 1 773.000000 332.000000
M 819.000000 330.000000
A 22.000000 22.000000 0 0 1 775.000000 330.000000
"/>
</svg>