<?xml version="1.0" encoding="UTF-8"?>
<svg width="760" height="364" viewBox="0 0 760 364" fill="none" xmlns="http://www.w3.org/2000/svg">
<path stroke="black" stroke-width="0.1500" d="
M 511.000000 146.500000
A 15.500000 15.500000 0 0 1 480.000000 146.500000
M 510.000000 152.000000
A 15.000000 15.000000 0 0 1 480.000000 152.000000
M 510.000000 157.500000
A 14.500000 14.500000 0 0 1 481.000000 157.500000
M 510.000000 163.500000
A 14.500000 14.500000 0 0 1 481.000000 163.500000
M 510.000000 168.000000
A 14.000000 14.000000 0 0 1 482.000000 168.000000
M 509.000000 173.500000
A 13.500000 13.500000 0 0 1 482.000000 173.500000
M 510.000000 179.500000
A 13.500000 13.500000 0 0 1 483.000000 179.500000
M 509.000000 184.000000
A 13.000000 13.000000 0 0 1 483.000000 184.000000
M 509.000000 189.500000
A 12.500000 12.500000 0 0 1 484.000000 189.500000
M 509.000000 195.500000
A 12.500000 12.500000 0 0 1 484.000000 195.500000
M 509.000000 200.000000
A 12.000000 12.000000 0 0 1 485.000000 200.000000
M 508.000000 205.500000
A 11.500000 11.500000 0 0 1 485.000000 205.500000
M 509.000000 211.500000
A 11.500000 11.500000 0 0 1 486.000000 211.500000
M 508.000000 216.000000
A 11.000000 11.000000 0 0 1 486.000000 216.000000
M 508.000000 221.500000
A 10.500000 10.500000 0 0 1 487.000000 221.500000
M 508.000000 227.500000
A 10.500000 10.500000 0 0 1 487.000000 227.500000
M 508.000000 232.000000
A 10.000000 10.000000 0 0 1 488.000000 232.000000
M 508.000000 237.500000
A 9.500000 9.500000 0 0 1 489.000000 237.500000
M 508.000000 243.500000
A 9.500000 9.500000 0 0 1 489.000000 243.500000
M 508.000000 249.000000
A 9.000000 9.000000 0 0 1 490.000000 249.000000
M 507.000000 253.500000
A 8.500000 8.500000 0 0 1 490.000000 253.500000
M 508.000000 259.500000
A 8.500000 8.500000 0 0 1 491.000000 259.500000
M 507.000000 265.000000
A 8.000000 8.000000 0 0 1 491.000000 265.000000
M 507.000000 269.500000
A 7.500000 7.500000 0 0 1 492.000000 269.500000
M 506.000000 275.000000
A 7.000000 7.000000 0 0 1 492.000000 275.000000
M 507.000000 281.000000
A 7.000000 7.000000 0 0 1 493.000000 281.000000
M 506.000000 285.500000
A 6.500000 6.500000 0 0 1 493.000000 285.500000
M 506.000000 291.000000
A 6.000000 6.000000 0 0 1 494.000000 291.000000
M 506.000000 297.000000
A 6.000000 6.000000 0 0 1 494.000000 297.000000
M 512.000000 146.500000
A 14.500000 14.500000 0 0 1 483.000000 146.500000
M 514.000000 146.000000
A 14.000000 14.000000 0 0 1 486.000000 146.000000
M 515.000000 145.000000
A 13.000000 13.000000 0 0 1 489.000000 145.000000
M 516.000000 145.000000
A 12.000000 12.000000 0 0 1 492.000000 145.000000
M 518.000000 144.500000
A 11.500000 11.500000 0 0 1 495.000000 144.500000
M 519.000000 143.500000
A 10.500000 10.500000 0 0 1 498.000000 143.500000
M 521.000000 144.000000
A 10.000000 10.000000 0 0 1 501.000000 144.000000
M 522.000000 143.000000
A 9.000000 9.000000 0 0 1 504.000000 143.000000
M 523.000000 142.000000
A 8.000000 8.000000 0 0 1 507.000000 142.000000
M 526.000000 142.500000
A 7.500000 7.500000 0 0 1 511.000000 142.500000
M 527.000000 141.500000
A 6.500000 6.500000 0 0 1 514.000000 141.500000
M 529.000000 141.000000
A 6.000000 6.000000 0 0 1 517.000000 141.000000
M 551.000000 133.000000
A 6.000000 6.000000 0 0 1 563.000000 133.000000
M 552.000000 133.000000
A 7.000000 7.000000 0 0 1 566.000000 133.000000
M 554.000000 133.000000
A 8.000000 8.000000 0 0 1 570.000000 133.000000
M 555.000000 132.500000
A 8.500000 8.500000 0 0 1 572.000000 132.500000
M 556.000000 131.500000
A 9.500000 9.500000 0 0 1 575.000000 131.500000
M 558.000000 131.000000
A 10.000000 10.000000 0 0 1 578.000000 131.000000
M 559.000000 131.000000
A 11.000000 11.000000 0 0 1 581.000000 131.000000
M 561.000000 130.000000
A 12.000000 12.000000 0 0 1 585.000000 130.000000
M 562.000000 129.500000
A 12.500000 12.500000 0 0 1 587.000000 129.500000
M 564.000000 129.500000
A 13.500000 13.500000 0 0 1 591.000000 129.500000
M 565.000000 128.000000
A 14.000000 14.000000 0 0 1 593.000000 128.000000
M 565.000000 133.500000
A 14.500000 14.500000 0 0 1 594.000000 133.500000
M 565.000000 137.500000
A 14.500000 14.500000 0 0 1 594.000000 137.500000
M 565.000000 143.000000
A 15.000000 15.000000 0 0 1 595.000000 143.000000
M 565.000000 148.500000
A 15.500000 15.500000 0 0 1 596.000000 148.500000
M 564.000000 152.500000
A 15.500000 15.500000 0 0 1 595.000000 152.500000
M 564.000000 158.000000
A 16.000000 16.000000 0 0 1 596.000000 158.000000
M 564.000000 162.000000
A 16.000000 16.000000 0 0 1 596.000000 162.000000
M 564.000000 167.500000
A 16.500000 16.500000 0 0 1 597.000000 167.500000
M 564.000000 171.500000
A 16.500000 16.500000 0 0 1 597.000000 171.500000
M 563.000000 177.000000
A 17.000000 17.000000 0 0 1 597.000000 177.000000
M 563.000000 181.000000
A 17.000000 17.000000 0 0 1 597.000000 181.000000
M 563.000000 186.500000
A 17.500000 17.500000 0 0 1 598.000000 186.500000
M 563.000000 190.500000
A 17.500000 17.500000 0 0 1 598.000000 190.500000
M 562.000000 196.000000
A 18.000000 18.000000 0 0 1 598.000000 196.000000
M 562.000000 200.000000
A 18.000000 18.000000 0 0 1 598.000000 200.000000
M 562.000000 205.500000
A 18.500000 18.500000 0 0 1 599.000000 205.500000
M 562.000000 209.500000
A 18.500000 18.500000 0 0 1 599.000000 209.500000
M 562.000000 215.000000
A 19.000000 19.000000 0 0 1 600.000000 215.000000
M 561.000000 219.500000
A 19.500000 19.500000 0 0 1 600.000000 219.500000
M 561.000000 224.500000
A 19.500000 19.500000 0 0 1 600.000000 224.500000
M 561.000000 229.000000
A 20.000000 20.000000 0 0 1 601.000000 229.000000
M 561.000000 234.000000
A 20.000000 20.000000 0 0 1 601.000000 234.000000
M 561.000000 238.500000
A 20.500000 20.500000 0 0 1 602.000000 238.500000
M 560.000000 243.500000
A 20.500000 20.500000 0 0 1 601.000000 243.500000
M 560.000000 248.000000
A 21.000000 21.000000 0 0 1 602.000000 248.000000
M 560.000000 253.000000
A 21.000000 21.000000 0 0 1 602.000000 253.000000
M 560.000000 257.500000
A 21.500000 21.500000 0 0 1 603.000000 257.500000
M 560.000000 262.500000
A 21.500000 21.500000 0 0 1 603.000000 262.500000
M 559.000000 267.000000
A 22.000000 22.000000 0 0 1 603.000000 267.000000
M 559.000000 272.000000
A 22.000000 22.000000 0 0 1 603.000000 272.000000
M 559.000000 276.500000
A 22.500000 22.500000 0 0 1 604.000000 276.500000
M 559.000000 281.500000
A 22.500000 22.500000 0 0 1 604.000000 281.500000
M 559.000000 286.000000
A 23.000000 23.000000 0 0 1 605.000000 286.000000
M 558.000000 291.500000
A 23.500000 23.500000 0 0 1 605.000000 291.500000
M 558.000000 295.500000
A 23.500000 23.500000 0 0 1 605.000000 295.500000
M 558.000000 301.000000
A 24.000000 24.000000 0 0 1 606.000000 301.000000
M 558.000000 305.000000
A 24.000000 24.000000 0 0 1 606.000000 305.000000
M 522.000000 332.000000
A 6.000000 6.000000 0 0 1 534.000000 332.000000
M 523.000000 330.500000
A 6.500000 6.500000 0 0 1 536.000000 330.500000
M 525.000000 329.500000
A 7.500000 7.500000 0 0 1 540.000000 329.500000
M 526.000000 329.000000
A 8.000000 8.000000 0 0 1 542.000000 329.000000
M 528.000000 328.000000
A 9.000000 9.000000 0 0 1 546.000000 328.000000
M 529.000000 326.500000
A 9.500000 9.500000 0 0 1 548.000000 326.500000
M 530.000000 325.500000
A 10.500000 10.500000 0 0 1 551.000000 325.500000
M 532.000000 325.000000
A 11.000000 11.000000 0 0 1 554.000000 325.000000
M 533.000000 323.500000
A 11.500000 11.500000 0 0 1 556.000000 323.500000
M 535.000000 322.500000
A 12.500000 12.500000 0 0 1 560.000000 322.500000
M 536.000000 321.000000
A 13.000000 13.000000 0 0 1 562.000000 321.000000
M 538.000000 320.000000
A 14.000000 14.000000 0 0 1 566.000000 320.000000
M 539.000000 319.500000
A 14.500000 14.500000 0 0 1 568.000000 319.500000
M 540.000000 318.500000
A 15.500000 15.500000 0 0 1 571.000000 318.500000
M 542.000000 317.000000
A 16.000000 16.000000 0 0 1 574.000000 317.000000
M 543.000000 316.000000
A 17.000000 17.000000 0 0 1 577.000000 316.000000
M 545.000000 314.500000
A 17.500000 17.500000 0 0 1 580.000000 314.500000
M 546.000000 314.500000
A 18.500000 18.500000 0 0 1 583.000000 314.500000
M 548.000000 313.000000
A 19.000000 19.000000 0 0 1 586.000000 313.000000
M 549.000000 311.500000
A 19.500000 19.500000 0 0 1 588.000000 311.500000
M 550.000000 310.500000
A 20.500000 20.500000 0 0 1 591.000000 310.500000
M 552.000000 309.000000
A 21.000000 21.000000 0 0 1 594.000000 309.000000
M 553.000000 309.000000
A 22.000000 22.000000 0 0 1 597.000000 309.000000
M 555.000000 307.500000
A 22.500000 22.500000 0 0 1 600.000000 307.500000
M 556.000000 306.500000
A 23.500000 23.500000 0 0 1 603.000000 306.500000
M 570.000000 129.000000
A 14.000000 14.000000 0 0 1 598.000000 129.000000
M 575.000000 128.500000
A 13.500000 13.500000 0 0 1 602.000000 128.500000
M 580.000000 129.500000
A 13.500000 13.500000 0 0 1 607.000000 129.500000
M 585.000000 129.000000
A 13.000000 13.000000 0 0 1 611.000000 129.000000
M 590.000000 129.500000
A 12.500000 12.500000 0 0 1 615.000000 129.500000
M 595.000000 129.500000
A 12.500000 12.500000 0 0 1 620.000000 129.500000
M 600.000000 130.000000
A 12.000000 12.000000 0 0 1 624.000000 130.000000
M 605.000000 129.500000
A 11.500000 11.500000 0 0 1 628.000000 129.500000
M 610.000000 130.500000
A 11.500000 11.500000 0 0 1 633.000000 130.500000
M 615.000000 130.000000
A 11.000000 11.000000 0 0 1 637.000000 130.000000
M 620.000000 131.000000
A 11.000000 11.000000 0 0 1 642.000000 131.000000
M 625.000000 130.500000
A 10.500000 10.500000 0 0 1 646.000000 130.500000
M 630.000000 131.000000
A 10.000000 10.000000 0 0 1 650.000000 131.000000
M 635.000000 131.000000
A 10.000000 10.000000 0 0 1 655.000000 131.000000
M 640.000000 131.500000
A 9.500000 9.500000 0 0 1 659.000000 131.500000
M 645.000000 131.500000
A 9.500000 9.500000 0 0 1 664.000000 131.500000
M 650.000000 132.000000
A 9.000000 9.000000 0 0 1 668.000000 132.000000
M 655.000000 131.500000
A 8.500000 8.500000 0 0 1 672.000000 131.500000
M 659.000000 132.500000
A 8.500000 8.500000 0 0 1 676.000000 132.500000
M 664.000000 132.000000
A 8.000000 8.000000 0 0 1 680.000000 132.000000
M 669.000000 132.500000
A 7.500000 7.500000 0 0 1 684.000000 132.500000
M 674.000000 132.500000
A 7.500000 7.500000 0 0 1 689.000000 132.500000
M 679.000000 133.000000
A 7.000000 7.000000 0 0 1 693.000000 133.000000
M 684.000000 133.000000
A 7.000000 7.000000 0 0 1 698.000000 133.000000
M 689.000000 133.500000
A 6.500000 6.500000 0 0 1 702.000000 133.500000
M 694.000000 133.000000
A 6.000000 6.000000 0 0 1 706.000000 133.000000
M 699.000000 134.000000
A 6.000000 6.000000 0 0 1 711.000000 134.000000
M 732.000000 320.500000
A 13.500000 13.500000 0 0 1 759.000000 320.500000
M 733.000000 315.500000
A 13.500000 13.500000 0 0 1 760.000000 315.500000
M 733.000000 311.000000
A 13.000000 13.000000 0 0 1 759.000000 311.000000
M 733.000000 306.000000
A 13.000000 13.000000 0 0 1 759.000000 306.000000
M 734.000000 300.500000
A 12.500000 12.500000 0 0 1 759.000000 300.500000
M 734.000000 295.000000
A 12.000000 12.000000 0 0 1 758.000000 295.000000
M 735.000000 291.000000
A 12.000000 12.000000 0 0 1 759.000000 291.000000
M 735.000000 285.500000
A 11.500000 11.500000 0 0 1 758.000000 285.500000
M 736.000000 280.500000
A 11.500000 11.500000 0 0 1 759.000000 280.500000
M 736.000000 276.000000
A 11.000000 11.000000 0 0 1 758.000000 276.000000
M 737.000000 270.500000
A 10.500000 10.500000 0 0 1 758.000000 270.500000
M 737.000000 265.500000
A 10.500000 10.500000 0 0 1 758.000000 265.500000
M 737.000000 261.000000
A 10.000000 10.000000 0 0 1 757.000000 261.000000
M 738.000000 256.000000
A 10.000000 10.000000 0 0 1 758.000000 256.000000
M 738.000000 250.500000
A 9.500000 9.500000 0 0 1 757.000000 250.500000
M 739.000000 245.000000
A 9.000000 9.000000 0 0 1 757.000000 245.000000
M 739.000000 241.000000
A 9.000000 9.000000 0 0 1 757.000000 241.000000
M 740.000000 235.500000
A 8.500000 8.500000 0 0 1 757.000000 235.500000
M 740.000000 230.500000
A 8.500000 8.500000 0 0 1 757.000000 230.500000
M 741.000000 226.000000
A 8.000000 8.000000 0 0 1 757.000000 226.000000
M 741.000000 221.000000
A 8.000000 8.000000 0 0 1 757.000000 221.000000
M 741.000000 215.500000
A 7.500000 7.500000 0 0 1 756.000000 215.500000
M 742.000000 210.000000
A 7.000000 7.000000 0 0 1 756.000000 210.000000
M 742.000000 206.000000
A 7.000000 7.000000 0 0 1 756.000000 206.000000
M 743.000000 200.500000
A 6.500000 6.500000 0 0 1 756.000000 200.500000
M 743.000000 195.500000
A 6.500000 6.500000 0 0 1 756.000000 195.500000
M 744.000000 191.000000
A 6.000000 6.000000 0 0 1 756.000000 191.000000
M 562.000000 306.000000
A 24.000000 24.000000 0 0 1 610.000000 306.000000
M 567.000000 306.500000
A 23.500000 23.500000 0 0 1 614.000000 306.500000
M 572.000000 306.000000
A 23.000000 23.000000 0 0 1 618.000000 306.000000
M 577.000000 307.000000
A 23.000000 23.000000 0 0 1 623.000000 307.000000
M 581.000000 307.500000
A 22.500000 22.500000 0 0 1 626.000000 307.500000
M 586.000000 307.500000
A 22.500000 22.500000 0 0 1 631.000000 307.500000
M 591.000000 308.000000
A 22.000000 22.000000 0 0 1 635.000000 308.000000
M 595.000000 309.000000
A 22.000000 22.000000 0 0 1 639.000000 309.000000
M 600.000000 309.500000
A 21.500000 21.500000 0 0 1 643.000000 309.500000
M 605.000000 309.000000
A 21.000000 21.000000 0 0 1 647.000000 309.000000
M 610.000000 310.000000
A 21.000000 21.000000 0 0 1 652.000000 310.000000
M 614.000000 310.500000
A 20.500000 20.500000 0 0 1 655.000000 310.500000
M 619.000000 310.500000
A 20.500000 20.500000 0 0 1 660.000000 310.500000
M 624.000000 311.000000
A 20.000000 20.000000 0 0 1 664.000000 311.000000
M 628.000000 312.000000
A 20.000000 20.000000 0 0 1 668.000000 312.000000
M 633.000000 311.500000
A 19.500000 19.500000 0 0 1 672.000000 311.500000
M 638.000000 312.500000
A 19.500000 19.500000 0 0 1 677.000000 312.500000
M 643.000000 313.000000
A 19.000000 19.000000 0 0 1 681.000000 313.000000
M 647.000000 312.500000
A 18.500000 18.500000 0 0 1 684.000000 312.500000
M 652.000000 313.500000
A 18.500000 18.500000 0 0 1 689.000000 313.500000
M 657.000000 314.000000
A 18.000000 18.000000 0 0 1 693.000000 314.000000
M 661.000000 315.000000
A 18.000000 18.000000 0 0 1 697.000000 315.000000
M 666.000000 314.500000
A 17.500000 17.500000 0 0 1 701.000000 314.500000
M 671.000000 315.500000
A 17.500000 17.500000 0 0 1 706.000000 315.500000
M 676.000000 316.000000
A 17.000000 17.000000 0 0 1 710.000000 316.000000
M 680.000000 315.500000
A 16.500000 16.500000 0 0 1 713.000000 315.500000
M 685.000000 316.500000
A 16.500000 16.500000 0 0 1 718.000000 316.500000
M 690.000000 317.000000
A 16.000000 16.000000 0 0 1 722.000000 317.000000
M 694.000000 317.000000
A 16.000000 16.000000 0 0 1 726.000000 317.000000
M 699.000000 317.500000
A 15.500000 15.500000 0 0 1 730.000000 317.500000
M 704.000000 318.500000
A 15.500000 15.500000 0 0 1 735.000000 318.500000
M 709.000000 319.000000
A 15.000000 15.000000 0 0 1 739.000000 319.000000
M 713.000000 319.000000
A 15.000000 15.000000 0 0 1 743.000000 319.000000
M 718.000000 319.500000
A 14.500000 14.500000 0 0 1 747.000000 319.500000
M 723.000000 320.000000
A 14.000000 14.000000 0 0 1 751.000000 320.000000
M 727.000000 320.000000
A 14.000000 14.000000 0 0 1 755.000000 320.000000
M 716.000000 156.000000
A 30.000000 30.000000 0 0 1 656.000000 156.000000
M 717.000000 155.500000
A 29.500000 29.500000 0 0 1 658.000000 155.500000
M 718.000000 154.500000
A 28.500000 28.500000 0 0 1 661.000000 154.500000
M 719.000000 154.500000
A 27.500000 27.500000 0 0 1 664.000000 154.500000
M 719.000000 153.500000
A 26.500000 26.500000 0 0 1 666.000000 153.500000
M 720.000000 152.500000
A 25.500000 25.500000 0 0 1 669.000000 152.500000
M 722.000000 153.000000
A 25.000000 25.000000 0 0 1 672.000000 153.000000
M 722.000000 152.000000
A 24.000000 24.000000 0 0 1 674.000000 152.000000
M 723.000000 151.000000
A 23.000000 23.000000 0 0 1 677.000000 151.000000
M 724.000000 151.000000
A 22.000000 22.000000 0 0 1 680.000000 151.000000
M 725.000000 150.500000
A 21.500000 21.500000 0 0 1 682.000000 150.500000
M 726.000000 150.500000
A 20.500000 20.500000 0 0 1 685.000000 150.500000
M 727.000000 149.500000
A 19.500000 19.500000 0 0 1 688.000000 149.500000
M 727.000000 148.500000
A 18.500000 18.500000 0 0 1 690.000000 148.500000
M 728.000000 148.500000
A 17.500000 17.500000 0 0 1 693.000000 148.500000
M 730.000000 148.000000
A 17.000000 17.000000 0 0 1 696.000000 148.000000
M 730.000000 147.000000
A 16.000000 16.000000 0 0 1 698.000000 147.000000
M 731.000000 147.000000
A 15.000000 15.000000 0 0 1 701.000000 147.000000
M 732.000000 146.000000
A 14.000000 14.000000 0 0 1 704.000000 146.000000
M 732.000000 145.000000
A 13.000000 13.000000 0 0 1 706.000000 145.000000
M 734.000000 145.500000
A 12.500000 12.500000 0 0 1 709.000000 145.500000
M 735.000000 144.500000
A 11.500000 11.500000 0 0 1 712.000000 144.500000
M 735.000000 143.500000
A 10.500000 10.500000 0 0 1 714.000000 143.500000
M 736.000000 143.500000
A 9.500000 9.500000 0 0 1 717.000000 143.500000
M 738.000000 143.000000
A 9.000000 9.000000 0 0 1 720.000000 143.000000
M 738.000000 142.000000
A 8.000000 8.000000 0 0 1 722.000000 142.000000
M 739.000000 142.000000
A 7.000000 7.000000 0 0 1 725.000000 142.000000
M 740.000000 141.000000
A 6.000000 6.000000 0 0 1 728.000000 141.000000
M 699.000000 364.000000
A 16.000000 16.000000 0 0 1 667.000000 364.000000
M 700.000000 358.500000
A 16.500000 16.500000 0 0 1 667.000000 358.500000
M 700.000000 353.000000
A 17.000000 17.000000 0 0 1 666.000000 353.000000
M 701.000000 347.500000
A 17.500000 17.500000 0 0 1 666.000000 347.500000
M 701.000000 341.500000
A 17.500000 17.500000 0 0 1 666.000000 341.500000
M 701.000000 336.000000
A 18.000000 18.000000 0 0 1 665.000000 336.000000
M 702.000000 330.500000
A 18.500000 18.500000 0 0 1 665.000000 330.500000
M 703.000000 325.000000
A 19.000000 19.000000 0 0 1 665.000000 325.000000
M 702.000000 319.000000
A 19.000000 19.000000 0 0 1 664.000000 319.000000
M 703.000000 313.500000
A 19.500000 19.500000 0 0 1 664.000000 313.500000
M 704.000000 308.000000
A 20.000000 20.000000 0 0 1 664.000000 308.000000
M 705.000000 302.500000
A 20.500000 20.500000 0 0 1 664.000000 302.500000
M 704.000000 296.500000
A 20.500000 20.500000 0 0 1 663.000000 296.500000
M 705.000000 291.000000
A 21.000000 21.000000 0 0 1 663.000000 291.000000
M 706.000000 285.500000
A 21.500000 21.500000 0 0 1 663.000000 285.500000
M 706.000000 280.000000
A 22.000000 22.000000 0 0 1 662.000000 280.000000
M 706.000000 274.000000
A 22.000000 22.000000 0 0 1 662.000000 274.000000
M 707.000000 268.500000
A 22.500000 22.500000 0 0 1 662.000000 268.500000
M 707.000000 263.000000
A 23.000000 23.000000 0 0 1 661.000000 263.000000
M 708.000000 257.500000
A 23.500000 23.500000 0 0 1 661.000000 257.500000
M 708.000000 251.500000
A 23.500000 23.500000 0 0 1 661.000000 251.500000
M 709.000000 246.000000
A 24.000000 24.000000 0 0 1 661.000000 246.000000
M 709.000000 240.500000
A 24.500000 24.500000 0 0 1 660.000000 240.500000
M 710.000000 235.000000
A 25.000000 25.000000 0 0 1 660.000000 235.000000
M 710.000000 229.000000
A 25.000000 25.000000 0 0 1 660.000000 229.000000
M 710.000000 223.500000
A 25.500000 25.500000 0 0 1 659.000000 223.500000
M 711.000000 218.000000
A 26.000000 26.000000 0 0 1 659.000000 218.000000
M 712.000000 212.500000
A 26.500000 26.500000 0 0 1 659.000000 212.500000
M 711.000000 206.500000
A 26.500000 26.500000 0 0 1 658.000000 206.500000
M 712.000000 201.000000
A 27.000000 27.000000 0 0 1 658.000000 201.000000
M 713.000000 195.500000
A 27.500000 27.500000 0 0 1 658.000000 195.500000
M 714.000000 190.000000
A 28.000000 28.000000 0 0 1 658.000000 190.000000
M 714.000000 184.500000
A 28.500000 28.500000 0 0 1 657.000000 184.500000
M 714.000000 178.500000
A 28.500000 28.500000 0 0 1 657.000000 178.500000
M 715.000000 173.000000
A 29.000000 29.000000 0 0 1 657.000000 173.000000
M 715.000000 167.500000
A 29.500000 29.500000 0 0 1 656.000000 167.500000
M 716.000000 162.000000
A 30.000000 30.000000 0 0 1 656.000000 162.000000
M 700.000000 363.500000
A 15.500000 15.500000 0 0 1 669.000000 363.500000
M 701.000000 361.500000
A 14.500000 14.500000 0 0 1 672.000000 361.500000
M 701.000000 360.500000
A 13.500000 13.500000 0 0 1 674.000000 360.500000
M 703.000000 360.000000
A 13.000000 13.000000 0 0 1 677.000000 360.000000
M 703.000000 358.000000
A 12.000000 12.000000 0 0 1 679.000000 358.000000
M 705.000000 357.500000
A 11.500000 11.500000 0 0 1 682.000000 357.500000
M 705.000000 355.500000
A 10.500000 10.500000 0 0 1 684.000000 355.500000
M 706.000000 354.500000
A 9.500000 9.500000 0 0 1 687.000000 354.500000
M 707.000000 354.000000
A 9.000000 9.000000 0 0 1 689.000000 354.000000
M 708.000000 352.000000
A 8.000000 8.000000 0 0 1 692.000000 352.000000
M 709.000000 351.500000
A 7.500000 7.500000 0 0 1 694.000000 351.500000
M 710.000000 350.500000
A 6.500000 6.500000 0 0 1 697.000000 350.500000
M 724.000000 331.500000
A 6.500000 6.500000 0 0 1 737.000000 331.500000
M 725.000000 330.000000
A 7.000000 7.000000 0 0 1 739.000000 330.000000
M 726.000000 329.000000
A 8.000000 8.000000 0 0 1 742.000000 329.000000
M 727.000000 328.000000
A 9.000000 9.000000 0 0 1 745.000000 328.000000
M 728.000000 326.500000
A 9.500000 9.500000 0 0 1 747.000000 326.500000
M 729.000000 325.500000
A 10.500000 10.500000 0 0 1 750.000000 325.500000
M 729.000000 324.000000
A 11.000000 11.000000 0 0 1 751.000000 324.000000
M 730.000000 323.000000
A 12.000000 12.000000 0 0 1 754.000000 323.000000
M 731.000000 322.000000
A 13.000000 13.000000 0 0 1 757.000000 322.000000
M 516.000000 147.000000
A 16.000000 16.000000 0 0 1 484.000000 147.000000
M 521.000000 147.000000
A 16.000000 16.000000 0 0 1 489.000000 147.000000
M 527.000000 147.500000
A 16.500000 16.500000 0 0 1 494.000000 147.500000
M 533.000000 148.000000
A 17.000000 17.000000 0 0 1 499.000000 148.000000
M 539.000000 148.500000
A 17.500000 17.500000 0 0 1 504.000000 148.500000
M 544.000000 149.000000
A 18.000000 18.000000 0 0 1 508.000000 149.000000
M 549.000000 148.000000
A 18.000000 18.000000 0 0 1 513.000000 148.000000
M 555.000000 148.500000
A 18.500000 18.500000 0 0 1 518.000000 148.500000
M 561.000000 149.000000
A 19.000000 19.000000 0 0 1 523.000000 149.000000
M 566.000000 149.500000
A 19.500000 19.500000 0 0 1 527.000000 149.500000
M 572.000000 150.000000
A 20.000000 20.000000 0 0 1 532.000000 150.000000
M 577.000000 150.000000
A 20.000000 20.000000 0 0 1 537.000000 150.000000
M 583.000000 149.500000
A 20.500000 20.500000 0 0 1 542.000000 149.500000
M 588.000000 150.000000
A 21.000000 21.000000 0 0 1 546.000000 150.000000
M 594.000000 150.500000
A 21.500000 21.500000 0 0 1 551.000000 150.500000
M 600.000000 151.000000
A 22.000000 22.000000 0 0 1 556.000000 151.000000
M 605.000000 151.000000
A 22.000000 22.000000 0 0 1 561.000000 151.000000
M 610.000000 151.500000
A 22.500000 22.500000 0 0 1 565.000000 151.500000
M 616.000000 152.000000
A 23.000000 23.000000 0 0 1 570.000000 152.000000
M 622.000000 151.500000
A 23.500000 23.500000 0 0 1 575.000000 151.500000
M 628.000000 152.000000
A 24.000000 24.000000 0 0 1 580.000000 152.000000
M 632.000000 152.000000
A 24.000000 24.000000 0 0 1 584.000000 152.000000
M 638.000000 152.500000
A 24.500000 24.500000 0 0 1 589.000000 152.500000
M 644.000000 153.000000
A 25.000000 25.000000 0 0 1 594.000000 153.000000
M 650.000000 153.500000
A 25.500000 25.500000 0 0 1 599.000000 153.500000
M 655.000000 153.000000
A 26.000000 26.000000 0 0 1 603.000000 153.000000
M 660.000000 153.000000
A 26.000000 26.000000 0 0 1 608.000000 153.000000
M 666.000000 153.500000
A 26.500000 26.500000 0 0 1 613.000000 153.500000
M 672.000000 154.000000
A 27.000000 27.000000 0 0 1 618.000000 154.000000
M 677.000000 154.500000
A 27.500000 27.500000 0 0 1 622.000000 154.500000
M 683.000000 155.000000
A 28.000000 28.000000 0 0 1 627.000000 155.000000
M 688.000000 155.000000
A 28.000000 28.000000 0 0 1 632.000000 155.000000
M 694.000000 154.500000
A 28.500000 28.500000 0 0 1 637.000000 154.500000
M 700.000000 155.000000
A 29.000000 29.000000 0 0 1 642.000000 155.000000
M 705.000000 155.500000
A 29.500000 29.500000 0 0 1 646.000000 155.500000
M 710.000000 155.500000
A 29.500000 29.500000 0 0 1 651.000000 155.500000
M 552.000000 349.000000
A 6.000000 6.000000 0 0 1 540.000000 349.000000
M 557.000000 350.500000
A 6.500000 6.500000 0 0 1 544.000000 350.500000
M 563.000000 351.000000
A 7.000000 7.000000 0 0 1 549.000000 351.000000
M 567.000000 351.000000
A 7.000000 7.000000 0 0 1 553.000000 351.000000
M 573.000000 351.500000
A 7.500000 7.500000 0 0 1 558.000000 351.500000
M 578.000000 352.000000
A 8.000000 8.000000 0 0 1 562.000000 352.000000
M 583.000000 352.000000
A 8.000000 8.000000 0 0 1 567.000000 352.000000
M 588.000000 353.500000
A 8.500000 8.500000 0 0 1 571.000000 353.500000
M 594.000000 354.000000
A 9.000000 9.000000 0 0 1 576.000000 354.000000
M 600.000000 354.500000
A 9.500000 9.500000 0 0 1 581.000000 354.500000
M 604.000000 354.500000
A 9.500000 9.500000 0 0 1 585.000000 354.500000
M 610.000000 355.000000
A 10.000000 10.000000 0 0 1 590.000000 355.000000
M 615.000000 355.500000
A 10.500000 10.500000 0 0 1 594.000000 355.500000
M 620.000000 356.500000
A 10.500000 10.500000 0 0 1 599.000000 356.500000
M 625.000000 357.000000
A 11.000000 11.000000 0 0 1 603.000000 357.000000
M 631.000000 357.500000
A 11.500000 11.500000 0 0 1 608.000000 357.500000
M 636.000000 358.000000
A 12.000000 12.000000 0 0 1 612.000000 358.000000
M 641.000000 358.000000
A 12.000000 12.000000 0 0 1 617.000000 358.000000
M 646.000000 358.500000
A 12.500000 12.500000 0 0 1 621.000000 358.500000
M 652.000000 360.000000
A 13.000000 13.000000 0 0 1 626.000000 360.000000
M 657.000000 360.500000
A 13.500000 13.500000 0 0 1 630.000000 360.500000
M 662.000000 360.500000
A 13.500000 13.500000 0 0 1 635.000000 360.500000
M 668.000000 361.000000
A 14.000000 14.000000 0 0 1 640.000000 361.000000
M 673.000000 361.500000
A 14.500000 14.500000 0 0 1 644.000000 361.500000
M 678.000000 361.500000
A 14.500000 14.500000 0 0 1 649.000000 361.500000
M 683.000000 363.000000
A 15.000000 15.000000 0 0 1 653.000000 363.000000
M 689.000000 363.500000
A 15.500000 15.500000 0 0 1 658.000000 363.500000
M 694.000000 364.000000
A 16.000000 16.000000 0 0 1 662.000000 364.000000
"/>
</svg>