solid shape
  facet normal 0.862856195497302 0.35740680538236747 0.35740671700220233
    outer loop
      vertex 1.293958306312561 0 0.3009323179721832
      vertex 1.418608546257019 0 0
      vertex 0.9149666428565979 0.9149666428565979 0.3009323179721832
    endloop
  endfacet
  facet normal 0.8628561962638213 0.35740680691801313 0.3574067136160145
    outer loop
      vertex 1.418608546257019 0 0
      vertex 1.0031076669692993 1.0031076669692993 0
      vertex 0.9149666428565979 0.9149666428565979 0.3009323179721832
    endloop
  endfacet
  facet normal 0.35740680590105106 0.8628561967495147 0.35740671346040953
    outer loop
      vertex 0.9149666428565979 0.9149666428565979 0.3009323179721832
      vertex 1.0031076669692993 1.0031076669692993 0
      vertex 7.92320905434328e-17 1.293958306312561 0.3009323179721832
    endloop
  endfacet
  facet normal 0.35740680644490525 0.862856195121638 0.35740671684659725
    outer loop
      vertex 1.0031076669692993 1.0031076669692993 0
      vertex 8.68647176660311e-17 1.418608546257019 0
      vertex 7.92320905434328e-17 1.293958306312561 0.3009323179721832
    endloop
  endfacet
  facet normal -0.3574068053823674 0.8628561954973021 0.35740671700220233
    outer loop
      vertex 7.92320905434328e-17 1.293958306312561 0.3009323179721832
      vertex 8.68647176660311e-17 1.418608546257019 0
      vertex -0.9149666428565979 0.9149666428565979 0.3009323179721832
    endloop
  endfacet
  facet normal -0.35740680691801313 0.8628561962638213 0.3574067136160145
    outer loop
      vertex 8.68647176660311e-17 1.418608546257019 0
      vertex -1.0031076669692993 1.0031076669692993 0
      vertex -0.9149666428565979 0.9149666428565979 0.3009323179721832
    endloop
  endfacet
  facet normal -0.8628561967495145 0.35740680590105106 0.35740671346040953
    outer loop
      vertex -0.9149666428565979 0.9149666428565979 0.3009323179721832
      vertex -1.0031076669692993 1.0031076669692993 0
      vertex -1.293958306312561 1.584641810868656e-16 0.3009323179721832
    endloop
  endfacet
  facet normal -0.862856195121638 0.3574068064449053 0.3574067168465972
    outer loop
      vertex -1.0031076669692993 1.0031076669692993 0
      vertex -1.418608546257019 1.737294353320622e-16 0
      vertex -1.293958306312561 1.584641810868656e-16 0.3009323179721832
    endloop
  endfacet
  facet normal -0.8628561954973021 -0.3574068053823674 0.35740671700220233
    outer loop
      vertex -1.293958306312561 1.584641810868656e-16 0.3009323179721832
      vertex -1.418608546257019 1.737294353320622e-16 0
      vertex -0.9149666428565979 -0.9149666428565979 0.3009323179721832
    endloop
  endfacet
  facet normal -0.8628561962638214 -0.35740680691801313 0.3574067136160145
    outer loop
      vertex -1.418608546257019 1.737294353320622e-16 0
      vertex -1.0031076669692993 -1.0031076669692993 0
      vertex -0.9149666428565979 -0.9149666428565979 0.3009323179721832
    endloop
  endfacet
  facet normal -0.35740680590105106 -0.8628561967495145 0.35740671346040953
    outer loop
      vertex -0.9149666428565979 -0.9149666428565979 0.3009323179721832
      vertex -1.0031076669692993 -1.0031076669692993 0
      vertex -2.376962914826331e-16 -1.293958306312561 0.3009323179721832
    endloop
  endfacet
  facet normal -0.3574068064449053 -0.862856195121638 0.3574067168465972
    outer loop
      vertex -1.0031076669692993 -1.0031076669692993 0
      vertex -2.605941596155382e-16 -1.418608546257019 0
      vertex -2.376962914826331e-16 -1.293958306312561 0.3009323179721832
    endloop
  endfacet
  facet normal 0.3574068053823674 -0.8628561954973021 0.35740671700220233
    outer loop
      vertex -2.376962914826331e-16 -1.293958306312561 0.3009323179721832
      vertex -2.605941596155382e-16 -1.418608546257019 0
      vertex 0.9149666428565979 -0.9149666428565979 0.3009323179721832
    endloop
  endfacet
  facet normal 0.35740680691801313 -0.8628561962638214 0.3574067136160145
    outer loop
      vertex -2.605941596155382e-16 -1.418608546257019 0
      vertex 1.0031076669692993 -1.0031076669692993 0
      vertex 0.9149666428565979 -0.9149666428565979 0.3009323179721832
    endloop
  endfacet
  facet normal 0.8628561967495145 -0.35740680590105106 0.35740671346040953
    outer loop
      vertex 0.9149666428565979 -0.9149666428565979 0.3009323179721832
      vertex 1.0031076669692993 -1.0031076669692993 0
      vertex 1.293958306312561 -3.169283621737312e-16 0.3009323179721832
    endloop
  endfacet
  facet normal 0.8628561951216381 -0.3574068064449054 0.35740671684659725
    outer loop
      vertex 1.0031076669692993 -1.0031076669692993 0
      vertex 1.418608546257019 -3.474588706641244e-16 0
      vertex 1.293958306312561 -3.169283621737312e-16 0.3009323179721832
    endloop
  endfacet
  facet normal 0.3779644223997816 0.156557997751937 0.9124869800385669
    outer loop
      vertex 0.9930259585380554 0 0.42558255791664124
      vertex 1.293958306312561 0 0.3009323179721832
      vertex 0.7021753787994385 0.7021753787994385 0.42558255791664124
    endloop
  endfacet
  facet normal 0.37796446266169753 0.1565580358035487 0.9124869568329123
    outer loop
      vertex 1.293958306312561 0 0.3009323179721832
      vertex 0.9149666428565979 0.9149666428565979 0.3009323179721832
      vertex 0.7021753787994385 0.7021753787994385 0.42558255791664124
    endloop
  endfacet
  facet normal 0.15655802016553932 0.37796447651100157 0.9124869537794013
    outer loop
      vertex 0.7021753787994385 0.7021753787994385 0.42558255791664124
      vertex 0.9149666428565979 0.9149666428565979 0.3009323179721832
      vertex 6.080530567494422e-17 0.9930259585380554 0.42558255791664124
    endloop
  endfacet
  facet normal 0.15655801860261434 0.3779644211349762 0.9124869769850559
    outer loop
      vertex 0.9149666428565979 0.9149666428565979 0.3009323179721832
      vertex 7.92320905434328e-17 1.293958306312561 0.3009323179721832
      vertex 6.080530567494422e-17 0.9930259585380554 0.42558255791664124
    endloop
  endfacet
  facet normal -0.15655799775193693 0.3779644223997816 0.9124869800385669
    outer loop
      vertex 6.080530567494422e-17 0.9930259585380554 0.42558255791664124
      vertex 7.92320905434328e-17 1.293958306312561 0.3009323179721832
      vertex -0.7021753787994385 0.7021753787994385 0.42558255791664124
    endloop
  endfacet
  facet normal -0.1565580358035487 0.3779644626616976 0.9124869568329123
    outer loop
      vertex 7.92320905434328e-17 1.293958306312561 0.3009323179721832
      vertex -0.9149666428565979 0.9149666428565979 0.3009323179721832
      vertex -0.7021753787994385 0.7021753787994385 0.42558255791664124
    endloop
  endfacet
  facet normal -0.37796447651100157 0.15655802016553932 0.9124869537794013
    outer loop
      vertex -0.7021753787994385 0.7021753787994385 0.42558255791664124
      vertex -0.9149666428565979 0.9149666428565979 0.3009323179721832
      vertex -0.9930259585380554 1.2161061134988843e-16 0.42558255791664124
    endloop
  endfacet
  facet normal -0.3779644211349762 0.15655801860261434 0.9124869769850559
    outer loop
      vertex -0.9149666428565979 0.9149666428565979 0.3009323179721832
      vertex -1.293958306312561 1.584641810868656e-16 0.3009323179721832
      vertex -0.9930259585380554 1.2161061134988843e-16 0.42558255791664124
    endloop
  endfacet
  facet normal -0.3779644223997817 -0.156557997751937 0.9124869800385669
    outer loop
      vertex -0.9930259585380554 1.2161061134988843e-16 0.42558255791664124
      vertex -1.293958306312561 1.584641810868656e-16 0.3009323179721832
      vertex -0.7021753787994385 -0.7021753787994385 0.42558255791664124
    endloop
  endfacet
  facet normal -0.3779644626616976 -0.1565580358035487 0.9124869568329123
    outer loop
      vertex -1.293958306312561 1.584641810868656e-16 0.3009323179721832
      vertex -0.9149666428565979 -0.9149666428565979 0.3009323179721832
      vertex -0.7021753787994385 -0.7021753787994385 0.42558255791664124
    endloop
  endfacet
  facet normal -0.15655802016553932 -0.3779644765110015 0.9124869537794011
    outer loop
      vertex -0.7021753787994385 -0.7021753787994385 0.42558255791664124
      vertex -0.9149666428565979 -0.9149666428565979 0.3009323179721832
      vertex -1.8241590378994285e-16 -0.9930259585380554 0.42558255791664124
    endloop
  endfacet
  facet normal -0.15655801860261434 -0.37796442113497614 0.9124869769850559
    outer loop
      vertex -0.9149666428565979 -0.9149666428565979 0.3009323179721832
      vertex -2.376962914826331e-16 -1.293958306312561 0.3009323179721832
      vertex -1.8241590378994285e-16 -0.9930259585380554 0.42558255791664124
    endloop
  endfacet
  facet normal 0.15655799775193693 -0.3779644223997817 0.9124869800385669
    outer loop
      vertex -1.8241590378994285e-16 -0.9930259585380554 0.42558255791664124
      vertex -2.376962914826331e-16 -1.293958306312561 0.3009323179721832
      vertex 0.7021753787994385 -0.7021753787994385 0.42558255791664124
    endloop
  endfacet
  facet normal 0.15655803580354868 -0.37796446266169753 0.9124869568329123
    outer loop
      vertex -2.376962914826331e-16 -1.293958306312561 0.3009323179721832
      vertex 0.9149666428565979 -0.9149666428565979 0.3009323179721832
      vertex 0.7021753787994385 -0.7021753787994385 0.42558255791664124
    endloop
  endfacet
  facet normal 0.3779644765110015 -0.15655802016553932 0.9124869537794011
    outer loop
      vertex 0.7021753787994385 -0.7021753787994385 0.42558255791664124
      vertex 0.9149666428565979 -0.9149666428565979 0.3009323179721832
      vertex 0.9930259585380554 -2.4322122269977687e-16 0.42558255791664124
    endloop
  endfacet
  facet normal 0.37796442113497614 -0.15655801860261434 0.9124869769850559
    outer loop
      vertex 0.9149666428565979 -0.9149666428565979 0.3009323179721832
      vertex 1.293958306312561 -3.169283621737312e-16 0.3009323179721832
      vertex 0.9930259585380554 -2.4322122269977687e-16 0.42558255791664124
    endloop
  endfacet
  facet normal -0.37796448437314356 -0.15655802949388029 0.9124869489223049
    outer loop
      vertex 0.6920936703681946 0 0.3009323179721832
      vertex 0.9930259585380554 0 0.42558255791664124
      vertex 0.48938411474227905 0.48938411474227905 0.3009323179721832
    endloop
  endfacet
  facet normal -0.37796447651100157 -0.1565580201655393 0.9124869537794013
    outer loop
      vertex 0.9930259585380554 0 0.42558255791664124
      vertex 0.7021753787994385 0.7021753787994385 0.42558255791664124
      vertex 0.48938411474227905 0.48938411474227905 0.3009323179721832
    endloop
  endfacet
  facet normal -0.1565580246077248 -0.37796447257692173 0.9124869546467919
    outer loop
      vertex 0.48938411474227905 0.48938411474227905 0.3009323179721832
      vertex 0.7021753787994385 0.7021753787994385 0.42558255791664124
      vertex 4.237851418901074e-17 0.6920936703681946 0.3009323179721832
    endloop
  endfacet
  facet normal -0.15655802357096607 -0.3779644847324286 0.9124869497896957
    outer loop
      vertex 0.7021753787994385 0.7021753787994385 0.42558255791664124
      vertex 6.080530567494422e-17 0.9930259585380554 0.42558255791664124
      vertex 4.237851418901074e-17 0.6920936703681946 0.3009323179721832
    endloop
  endfacet
  facet normal 0.15655802949388029 -0.37796448437314356 0.9124869489223049
    outer loop
      vertex 4.237851418901074e-17 0.6920936703681946 0.3009323179721832
      vertex 6.080530567494422e-17 0.9930259585380554 0.42558255791664124
      vertex -0.48938411474227905 0.48938411474227905 0.3009323179721832
    endloop
  endfacet
  facet normal 0.1565580201655393 -0.3779644765110016 0.9124869537794014
    outer loop
      vertex 6.080530567494422e-17 0.9930259585380554 0.42558255791664124
      vertex -0.7021753787994385 0.7021753787994385 0.42558255791664124
      vertex -0.48938411474227905 0.48938411474227905 0.3009323179721832
    endloop
  endfacet
  facet normal 0.37796447257692173 -0.15655802460772483 0.9124869546467919
    outer loop
      vertex -0.48938411474227905 0.48938411474227905 0.3009323179721832
      vertex -0.7021753787994385 0.7021753787994385 0.42558255791664124
      vertex -0.6920936703681946 8.475702837802148e-17 0.3009323179721832
    endloop
  endfacet
  facet normal 0.3779644847324286 -0.15655802357096607 0.9124869497896957
    outer loop
      vertex -0.7021753787994385 0.7021753787994385 0.42558255791664124
      vertex -0.9930259585380554 1.2161061134988843e-16 0.42558255791664124
      vertex -0.6920936703681946 8.475702837802148e-17 0.3009323179721832
    endloop
  endfacet
  facet normal 0.3779644843731436 0.15655802949388029 0.9124869489223049
    outer loop
      vertex -0.6920936703681946 8.475702837802148e-17 0.3009323179721832
      vertex -0.9930259585380554 1.2161061134988843e-16 0.42558255791664124
      vertex -0.48938411474227905 -0.48938411474227905 0.3009323179721832
    endloop
  endfacet
  facet normal 0.3779644765110016 0.1565580201655393 0.9124869537794014
    outer loop
      vertex -0.9930259585380554 1.2161061134988843e-16 0.42558255791664124
      vertex -0.7021753787994385 -0.7021753787994385 0.42558255791664124
      vertex -0.48938411474227905 -0.48938411474227905 0.3009323179721832
    endloop
  endfacet
  facet normal 0.15655802460772483 0.37796447257692173 0.9124869546467919
    outer loop
      vertex -0.48938411474227905 -0.48938411474227905 0.3009323179721832
      vertex -0.7021753787994385 -0.7021753787994385 0.42558255791664124
      vertex -1.2713554256703222e-16 -0.6920936703681946 0.3009323179721832
    endloop
  endfacet
  facet normal 0.15655802357096607 0.37796448473242855 0.9124869497896957
    outer loop
      vertex -0.7021753787994385 -0.7021753787994385 0.42558255791664124
      vertex -1.8241590378994285e-16 -0.9930259585380554 0.42558255791664124
      vertex -1.2713554256703222e-16 -0.6920936703681946 0.3009323179721832
    endloop
  endfacet
  facet normal -0.15655802949388029 0.37796448437314356 0.9124869489223049
    outer loop
      vertex -1.2713554256703222e-16 -0.6920936703681946 0.3009323179721832
      vertex -1.8241590378994285e-16 -0.9930259585380554 0.42558255791664124
      vertex 0.48938411474227905 -0.48938411474227905 0.3009323179721832
    endloop
  endfacet
  facet normal -0.15655802016553924 0.3779644765110016 0.9124869537794013
    outer loop
      vertex -1.8241590378994285e-16 -0.9930259585380554 0.42558255791664124
      vertex 0.7021753787994385 -0.7021753787994385 0.42558255791664124
      vertex 0.48938411474227905 -0.48938411474227905 0.3009323179721832
    endloop
  endfacet
  facet normal -0.37796447257692173 0.15655802460772486 0.912486954646792
    outer loop
      vertex 0.48938411474227905 -0.48938411474227905 0.3009323179721832
      vertex 0.7021753787994385 -0.7021753787994385 0.42558255791664124
      vertex 0.6920936703681946 -1.6951405675604296e-16 0.3009323179721832
    endloop
  endfacet
  facet normal -0.37796448473242855 0.15655802357096607 0.9124869497896957
    outer loop
      vertex 0.7021753787994385 -0.7021753787994385 0.42558255791664124
      vertex 0.9930259585380554 -2.4322122269977687e-16 0.42558255791664124
      vertex 0.6920936703681946 -1.6951405675604296e-16 0.3009323179721832
    endloop
  endfacet
  facet normal -0.8628562095766971 -0.35740676555983003 0.3574067228340785
    outer loop
      vertex 0.5674434304237366 0 5.211883059961866e-17
      vertex 0.6920936703681946 0 0.3009323179721832
      vertex 0.40124309062957764 0.40124309062957764 5.211883059961866e-17
    endloop
  endfacet
  facet normal -0.862856210678628 -0.3574067767357697 0.35740670899783994
    outer loop
      vertex 0.6920936703681946 0 0.3009323179721832
      vertex 0.48938411474227905 0.48938411474227905 0.3009323179721832
      vertex 0.40124309062957764 0.40124309062957764 5.211883059961866e-17
    endloop
  endfacet
  facet normal -0.3574067677866303 -0.862856214952668 0.35740670762853516
    outer loop
      vertex 0.40124309062957764 0.40124309062957764 5.211883059961866e-17
      vertex 0.48938411474227905 0.48938411474227905 0.3009323179721832
      vertex 3.474588706641244e-17 0.5674434304237366 5.211883059961866e-17
    endloop
  endfacet
  facet normal -0.3574067749100297 -0.862856206270902 0.35740672146477337
    outer loop
      vertex 0.48938411474227905 0.48938411474227905 0.3009323179721832
      vertex 4.237851418901074e-17 0.6920936703681946 0.3009323179721832
      vertex 3.474588706641244e-17 0.5674434304237366 5.211883059961866e-17
    endloop
  endfacet
  facet normal 0.3574067655598299 -0.8628562095766971 0.3574067228340784
    outer loop
      vertex 3.474588706641244e-17 0.5674434304237366 5.211883059961866e-17
      vertex 4.237851418901074e-17 0.6920936703681946 0.3009323179721832
      vertex -0.40124309062957764 0.40124309062957764 5.211883059961866e-17
    endloop
  endfacet
  facet normal 0.35740677673576965 -0.8628562106786282 0.3574067089978399
    outer loop
      vertex 4.237851418901074e-17 0.6920936703681946 0.3009323179721832
      vertex -0.48938411474227905 0.48938411474227905 0.3009323179721832
      vertex -0.40124309062957764 0.40124309062957764 5.211883059961866e-17
    endloop
  endfacet
  facet normal 0.862856214952668 -0.3574067677866303 0.35740670762853516
    outer loop
      vertex -0.40124309062957764 0.40124309062957764 5.211883059961866e-17
      vertex -0.48938411474227905 0.48938411474227905 0.3009323179721832
      vertex -0.5674434304237366 6.949177413282488e-17 5.211883059961866e-17
    endloop
  endfacet
  facet normal 0.862856206270902 -0.3574067749100297 0.35740672146477337
    outer loop
      vertex -0.48938411474227905 0.48938411474227905 0.3009323179721832
      vertex -0.6920936703681946 8.475702837802148e-17 0.3009323179721832
      vertex -0.5674434304237366 6.949177413282488e-17 5.211883059961866e-17
    endloop
  endfacet
  facet normal 0.8628562095766972 0.3574067655598299 0.3574067228340784
    outer loop
      vertex -0.5674434304237366 6.949177413282488e-17 5.211883059961866e-17
      vertex -0.6920936703681946 8.475702837802148e-17 0.3009323179721832
      vertex -0.40124309062957764 -0.40124309062957764 5.211883059961866e-17
    endloop
  endfacet
  facet normal 0.8628562106786282 0.35740677673576965 0.3574067089978399
    outer loop
      vertex -0.6920936703681946 8.475702837802148e-17 0.3009323179721832
      vertex -0.48938411474227905 -0.48938411474227905 0.3009323179721832
      vertex -0.40124309062957764 -0.40124309062957764 5.211883059961866e-17
    endloop
  endfacet
  facet normal 0.3574067677866303 0.862856214952668 0.35740670762853516
    outer loop
      vertex -0.40124309062957764 -0.40124309062957764 5.211883059961866e-17
      vertex -0.48938411474227905 -0.48938411474227905 0.3009323179721832
      vertex -1.0423766119923731e-16 -0.5674434304237366 5.211883059961866e-17
    endloop
  endfacet
  facet normal 0.3574067749100297 0.862856206270902 0.35740672146477337
    outer loop
      vertex -0.48938411474227905 -0.48938411474227905 0.3009323179721832
      vertex -1.2713554256703222e-16 -0.6920936703681946 0.3009323179721832
      vertex -1.0423766119923731e-16 -0.5674434304237366 5.211883059961866e-17
    endloop
  endfacet
  facet normal -0.3574067655598299 0.8628562095766972 0.3574067228340784
    outer loop
      vertex -1.0423766119923731e-16 -0.5674434304237366 5.211883059961866e-17
      vertex -1.2713554256703222e-16 -0.6920936703681946 0.3009323179721832
      vertex 0.40124309062957764 -0.40124309062957764 5.211883059961866e-17
    endloop
  endfacet
  facet normal -0.35740677673576965 0.8628562106786282 0.3574067089978399
    outer loop
      vertex -1.2713554256703222e-16 -0.6920936703681946 0.3009323179721832
      vertex 0.48938411474227905 -0.48938411474227905 0.3009323179721832
      vertex 0.40124309062957764 -0.40124309062957764 5.211883059961866e-17
    endloop
  endfacet
  facet normal -0.8628562149526677 0.3574067677866303 0.3574067076285351
    outer loop
      vertex 0.40124309062957764 -0.40124309062957764 5.211883059961866e-17
      vertex 0.48938411474227905 -0.48938411474227905 0.3009323179721832
      vertex 0.5674434304237366 -1.3898354826564975e-16 5.211883059961866e-17
    endloop
  endfacet
  facet normal -0.8628562062709019 0.35740677491002976 0.3574067214647734
    outer loop
      vertex 0.48938411474227905 -0.48938411474227905 0.3009323179721832
      vertex 0.6920936703681946 -1.6951405675604296e-16 0.3009323179721832
      vertex 0.5674434304237366 -1.3898354826564975e-16 5.211883059961866e-17
    endloop
  endfacet
  facet normal -0.8628562062709021 -0.3574067749100297 -0.35740672146477326
    outer loop
      vertex 0.6920936703681946 0 -0.3009323179721832
      vertex 0.5674434304237366 0 5.211883059961866e-17
      vertex 0.48938411474227905 0.48938411474227905 -0.3009323179721832
    endloop
  endfacet
  facet normal -0.8628562149526681 -0.35740676778663016 -0.357406707628535
    outer loop
      vertex 0.5674434304237366 0 5.211883059961866e-17
      vertex 0.40124309062957764 0.40124309062957764 5.211883059961866e-17
      vertex 0.48938411474227905 0.48938411474227905 -0.3009323179721832
    endloop
  endfacet
  facet normal -0.3574067767357698 -0.8628562106786282 -0.35740670899783983
    outer loop
      vertex 0.48938411474227905 0.48938411474227905 -0.3009323179721832
      vertex 0.40124309062957764 0.40124309062957764 5.211883059961866e-17
      vertex 4.237851418901074e-17 0.6920936703681946 -0.3009323179721832
    endloop
  endfacet
  facet normal -0.35740676555983003 -0.8628562095766971 -0.3574067228340783
    outer loop
      vertex 0.40124309062957764 0.40124309062957764 5.211883059961866e-17
      vertex 3.474588706641244e-17 0.5674434304237366 5.211883059961866e-17
      vertex 4.237851418901074e-17 0.6920936703681946 -0.3009323179721832
    endloop
  endfacet
  facet normal 0.35740677491002965 -0.8628562062709021 -0.35740672146477326
    outer loop
      vertex 4.237851418901074e-17 0.6920936703681946 -0.3009323179721832
      vertex 3.474588706641244e-17 0.5674434304237366 5.211883059961866e-17
      vertex -0.48938411474227905 0.48938411474227905 -0.3009323179721832
    endloop
  endfacet
  facet normal 0.35740676778663005 -0.8628562149526678 -0.35740670762853494
    outer loop
      vertex 3.474588706641244e-17 0.5674434304237366 5.211883059961866e-17
      vertex -0.40124309062957764 0.40124309062957764 5.211883059961866e-17
      vertex -0.48938411474227905 0.48938411474227905 -0.3009323179721832
    endloop
  endfacet
  facet normal 0.8628562106786282 -0.3574067767357698 -0.35740670899783983
    outer loop
      vertex -0.48938411474227905 0.48938411474227905 -0.3009323179721832
      vertex -0.40124309062957764 0.40124309062957764 5.211883059961866e-17
      vertex -0.6920936703681946 8.475702837802148e-17 -0.3009323179721832
    endloop
  endfacet
  facet normal 0.8628562095766971 -0.35740676555983003 -0.3574067228340783
    outer loop
      vertex -0.40124309062957764 0.40124309062957764 5.211883059961866e-17
      vertex -0.5674434304237366 6.949177413282488e-17 5.211883059961866e-17
      vertex -0.6920936703681946 8.475702837802148e-17 -0.3009323179721832
    endloop
  endfacet
  facet normal 0.8628562062709021 0.35740677491002965 -0.35740672146477326
    outer loop
      vertex -0.6920936703681946 8.475702837802148e-17 -0.3009323179721832
      vertex -0.5674434304237366 6.949177413282488e-17 5.211883059961866e-17
      vertex -0.48938411474227905 -0.48938411474227905 -0.3009323179721832
    endloop
  endfacet
  facet normal 0.8628562149526678 0.35740676778663005 -0.35740670762853494
    outer loop
      vertex -0.5674434304237366 6.949177413282488e-17 5.211883059961866e-17
      vertex -0.40124309062957764 -0.40124309062957764 5.211883059961866e-17
      vertex -0.48938411474227905 -0.48938411474227905 -0.3009323179721832
    endloop
  endfacet
  facet normal 0.3574067767357698 0.8628562106786282 -0.35740670899783983
    outer loop
      vertex -0.48938411474227905 -0.48938411474227905 -0.3009323179721832
      vertex -0.40124309062957764 -0.40124309062957764 5.211883059961866e-17
      vertex -1.2713554256703222e-16 -0.6920936703681946 -0.3009323179721832
    endloop
  endfacet
  facet normal 0.35740676555983003 0.862856209576697 -0.3574067228340783
    outer loop
      vertex -0.40124309062957764 -0.40124309062957764 5.211883059961866e-17
      vertex -1.0423766119923731e-16 -0.5674434304237366 5.211883059961866e-17
      vertex -1.2713554256703222e-16 -0.6920936703681946 -0.3009323179721832
    endloop
  endfacet
  facet normal -0.35740677491002965 0.8628562062709021 -0.3574067214647733
    outer loop
      vertex -1.2713554256703222e-16 -0.6920936703681946 -0.3009323179721832
      vertex -1.0423766119923731e-16 -0.5674434304237366 5.211883059961866e-17
      vertex 0.48938411474227905 -0.48938411474227905 -0.3009323179721832
    endloop
  endfacet
  facet normal -0.35740676778663005 0.862856214952668 -0.35740670762853494
    outer loop
      vertex -1.0423766119923731e-16 -0.5674434304237366 5.211883059961866e-17
      vertex 0.40124309062957764 -0.40124309062957764 5.211883059961866e-17
      vertex 0.48938411474227905 -0.48938411474227905 -0.3009323179721832
    endloop
  endfacet
  facet normal -0.862856210678628 0.35740677673576987 -0.35740670899783983
    outer loop
      vertex 0.48938411474227905 -0.48938411474227905 -0.3009323179721832
      vertex 0.40124309062957764 -0.40124309062957764 5.211883059961866e-17
      vertex 0.6920936703681946 -1.6951405675604296e-16 -0.3009323179721832
    endloop
  endfacet
  facet normal -0.8628562095766971 0.35740676555983014 -0.35740672283407837
    outer loop
      vertex 0.40124309062957764 -0.40124309062957764 5.211883059961866e-17
      vertex 0.5674434304237366 -1.3898354826564975e-16 5.211883059961866e-17
      vertex 0.6920936703681946 -1.6951405675604296e-16 -0.3009323179721832
    endloop
  endfacet
  facet normal -0.3779644847324286 -0.15655802357096602 -0.9124869497896956
    outer loop
      vertex 0.9930259585380554 0 -0.42558255791664124
      vertex 0.6920936703681946 0 -0.3009323179721832
      vertex 0.7021753787994385 0.7021753787994385 -0.42558255791664124
    endloop
  endfacet
  facet normal -0.37796447257692173 -0.1565580246077248 -0.9124869546467919
    outer loop
      vertex 0.6920936703681946 0 -0.3009323179721832
      vertex 0.48938411474227905 0.48938411474227905 -0.3009323179721832
      vertex 0.7021753787994385 0.7021753787994385 -0.42558255791664124
    endloop
  endfacet
  facet normal -0.1565580201655393 -0.37796447651100157 -0.9124869537794013
    outer loop
      vertex 0.7021753787994385 0.7021753787994385 -0.42558255791664124
      vertex 0.48938411474227905 0.48938411474227905 -0.3009323179721832
      vertex 6.080530567494422e-17 0.9930259585380554 -0.42558255791664124
    endloop
  endfacet
  facet normal -0.1565580294938803 -0.37796448437314356 -0.9124869489223049
    outer loop
      vertex 0.48938411474227905 0.48938411474227905 -0.3009323179721832
      vertex 4.237851418901074e-17 0.6920936703681946 -0.3009323179721832
      vertex 6.080530567494422e-17 0.9930259585380554 -0.42558255791664124
    endloop
  endfacet
  facet normal 0.15655802357096602 -0.3779644847324286 -0.9124869497896956
    outer loop
      vertex 6.080530567494422e-17 0.9930259585380554 -0.42558255791664124
      vertex 4.237851418901074e-17 0.6920936703681946 -0.3009323179721832
      vertex -0.7021753787994385 0.7021753787994385 -0.42558255791664124
    endloop
  endfacet
  facet normal 0.15655802460772478 -0.37796447257692173 -0.9124869546467917
    outer loop
      vertex 4.237851418901074e-17 0.6920936703681946 -0.3009323179721832
      vertex -0.48938411474227905 0.48938411474227905 -0.3009323179721832
      vertex -0.7021753787994385 0.7021753787994385 -0.42558255791664124
    endloop
  endfacet
  facet normal 0.37796447651100157 -0.15655802016553932 -0.9124869537794013
    outer loop
      vertex -0.7021753787994385 0.7021753787994385 -0.42558255791664124
      vertex -0.48938411474227905 0.48938411474227905 -0.3009323179721832
      vertex -0.9930259585380554 1.2161061134988843e-16 -0.42558255791664124
    endloop
  endfacet
  facet normal 0.3779644843731435 -0.1565580294938803 -0.9124869489223049
    outer loop
      vertex -0.48938411474227905 0.48938411474227905 -0.3009323179721832
      vertex -0.6920936703681946 8.475702837802148e-17 -0.3009323179721832
      vertex -0.9930259585380554 1.2161061134988843e-16 -0.42558255791664124
    endloop
  endfacet
  facet normal 0.37796448473242855 0.156558023570966 -0.9124869497896956
    outer loop
      vertex -0.9930259585380554 1.2161061134988843e-16 -0.42558255791664124
      vertex -0.6920936703681946 8.475702837802148e-17 -0.3009323179721832
      vertex -0.7021753787994385 -0.7021753787994385 -0.42558255791664124
    endloop
  endfacet
  facet normal 0.3779644725769218 0.15655802460772478 -0.912486954646792
    outer loop
      vertex -0.6920936703681946 8.475702837802148e-17 -0.3009323179721832
      vertex -0.48938411474227905 -0.48938411474227905 -0.3009323179721832
      vertex -0.7021753787994385 -0.7021753787994385 -0.42558255791664124
    endloop
  endfacet
  facet normal 0.15655802016553932 0.3779644765110015 -0.9124869537794011
    outer loop
      vertex -0.7021753787994385 -0.7021753787994385 -0.42558255791664124
      vertex -0.48938411474227905 -0.48938411474227905 -0.3009323179721832
      vertex -1.8241590378994285e-16 -0.9930259585380554 -0.42558255791664124
    endloop
  endfacet
  facet normal 0.1565580294938803 0.3779644843731435 -0.9124869489223049
    outer loop
      vertex -0.48938411474227905 -0.48938411474227905 -0.3009323179721832
      vertex -1.2713554256703222e-16 -0.6920936703681946 -0.3009323179721832
      vertex -1.8241590378994285e-16 -0.9930259585380554 -0.42558255791664124
    endloop
  endfacet
  facet normal -0.156558023570966 0.37796448473242855 -0.9124869497896956
    outer loop
      vertex -1.8241590378994285e-16 -0.9930259585380554 -0.42558255791664124
      vertex -1.2713554256703222e-16 -0.6920936703681946 -0.3009323179721832
      vertex 0.7021753787994385 -0.7021753787994385 -0.42558255791664124
    endloop
  endfacet
  facet normal -0.15655802460772478 0.3779644725769218 -0.912486954646792
    outer loop
      vertex -1.2713554256703222e-16 -0.6920936703681946 -0.3009323179721832
      vertex 0.48938411474227905 -0.48938411474227905 -0.3009323179721832
      vertex 0.7021753787994385 -0.7021753787994385 -0.42558255791664124
    endloop
  endfacet
  facet normal -0.3779644765110015 0.15655802016553932 -0.9124869537794011
    outer loop
      vertex 0.7021753787994385 -0.7021753787994385 -0.42558255791664124
      vertex 0.48938411474227905 -0.48938411474227905 -0.3009323179721832
      vertex 0.9930259585380554 -2.4322122269977687e-16 -0.42558255791664124
    endloop
  endfacet
  facet normal -0.37796448437314345 0.1565580294938803 -0.9124869489223049
    outer loop
      vertex 0.48938411474227905 -0.48938411474227905 -0.3009323179721832
      vertex 0.6920936703681946 -1.6951405675604296e-16 -0.3009323179721832
      vertex 0.9930259585380554 -2.4322122269977687e-16 -0.42558255791664124
    endloop
  endfacet
  facet normal 0.37796442113497614 0.15655801860261429 -0.9124869769850559
    outer loop
      vertex 1.293958306312561 0 -0.3009323179721832
      vertex 0.9930259585380554 0 -0.42558255791664124
      vertex 0.9149666428565979 0.9149666428565979 -0.3009323179721832
    endloop
  endfacet
  facet normal 0.37796447651100157 0.1565580201655393 -0.9124869537794013
    outer loop
      vertex 0.9930259585380554 0 -0.42558255791664124
      vertex 0.7021753787994385 0.7021753787994385 -0.42558255791664124
      vertex 0.9149666428565979 0.9149666428565979 -0.3009323179721832
    endloop
  endfacet
  facet normal 0.1565580358035487 0.37796446266169753 -0.9124869568329123
    outer loop
      vertex 0.9149666428565979 0.9149666428565979 -0.3009323179721832
      vertex 0.7021753787994385 0.7021753787994385 -0.42558255791664124
      vertex 7.92320905434328e-17 1.293958306312561 -0.3009323179721832
    endloop
  endfacet
  facet normal 0.15655799775193702 0.3779644223997817 -0.912486980038567
    outer loop
      vertex 0.7021753787994385 0.7021753787994385 -0.42558255791664124
      vertex 6.080530567494422e-17 0.9930259585380554 -0.42558255791664124
      vertex 7.92320905434328e-17 1.293958306312561 -0.3009323179721832
    endloop
  endfacet
  facet normal -0.15655801860261429 0.37796442113497614 -0.9124869769850559
    outer loop
      vertex 7.92320905434328e-17 1.293958306312561 -0.3009323179721832
      vertex 6.080530567494422e-17 0.9930259585380554 -0.42558255791664124
      vertex -0.9149666428565979 0.9149666428565979 -0.3009323179721832
    endloop
  endfacet
  facet normal -0.1565580201655393 0.3779644765110016 -0.9124869537794014
    outer loop
      vertex 6.080530567494422e-17 0.9930259585380554 -0.42558255791664124
      vertex -0.7021753787994385 0.7021753787994385 -0.42558255791664124
      vertex -0.9149666428565979 0.9149666428565979 -0.3009323179721832
    endloop
  endfacet
  facet normal -0.37796446266169753 0.1565580358035487 -0.9124869568329123
    outer loop
      vertex -0.9149666428565979 0.9149666428565979 -0.3009323179721832
      vertex -0.7021753787994385 0.7021753787994385 -0.42558255791664124
      vertex -1.293958306312561 1.584641810868656e-16 -0.3009323179721832
    endloop
  endfacet
  facet normal -0.3779644223997817 0.15655799775193702 -0.912486980038567
    outer loop
      vertex -0.7021753787994385 0.7021753787994385 -0.42558255791664124
      vertex -0.9930259585380554 1.2161061134988843e-16 -0.42558255791664124
      vertex -1.293958306312561 1.584641810868656e-16 -0.3009323179721832
    endloop
  endfacet
  facet normal -0.37796442113497614 -0.15655801860261429 -0.9124869769850559
    outer loop
      vertex -1.293958306312561 1.584641810868656e-16 -0.3009323179721832
      vertex -0.9930259585380554 1.2161061134988843e-16 -0.42558255791664124
      vertex -0.9149666428565979 -0.9149666428565979 -0.3009323179721832
    endloop
  endfacet
  facet normal -0.3779644765110016 -0.1565580201655393 -0.9124869537794014
    outer loop
      vertex -0.9930259585380554 1.2161061134988843e-16 -0.42558255791664124
      vertex -0.7021753787994385 -0.7021753787994385 -0.42558255791664124
      vertex -0.9149666428565979 -0.9149666428565979 -0.3009323179721832
    endloop
  endfacet
  facet normal -0.15655803580354874 -0.37796446266169753 -0.9124869568329123
    outer loop
      vertex -0.9149666428565979 -0.9149666428565979 -0.3009323179721832
      vertex -0.7021753787994385 -0.7021753787994385 -0.42558255791664124
      vertex -2.376962914826331e-16 -1.293958306312561 -0.3009323179721832
    endloop
  endfacet
  facet normal -0.15655799775193702 -0.3779644223997816 -0.912486980038567
    outer loop
      vertex -0.7021753787994385 -0.7021753787994385 -0.42558255791664124
      vertex -1.8241590378994285e-16 -0.9930259585380554 -0.42558255791664124
      vertex -2.376962914826331e-16 -1.293958306312561 -0.3009323179721832
    endloop
  endfacet
  facet normal 0.15655801860261429 -0.3779644211349762 -0.9124869769850559
    outer loop
      vertex -2.376962914826331e-16 -1.293958306312561 -0.3009323179721832
      vertex -1.8241590378994285e-16 -0.9930259585380554 -0.42558255791664124
      vertex 0.9149666428565979 -0.9149666428565979 -0.3009323179721832
    endloop
  endfacet
  facet normal 0.15655802016553924 -0.3779644765110016 -0.9124869537794013
    outer loop
      vertex -1.8241590378994285e-16 -0.9930259585380554 -0.42558255791664124
      vertex 0.7021753787994385 -0.7021753787994385 -0.42558255791664124
      vertex 0.9149666428565979 -0.9149666428565979 -0.3009323179721832
    endloop
  endfacet
  facet normal 0.37796446266169753 -0.15655803580354877 -0.9124869568329121
    outer loop
      vertex 0.9149666428565979 -0.9149666428565979 -0.3009323179721832
      vertex 0.7021753787994385 -0.7021753787994385 -0.42558255791664124
      vertex 1.293958306312561 -3.169283621737312e-16 -0.3009323179721832
    endloop
  endfacet
  facet normal 0.3779644223997816 -0.15655799775193702 -0.912486980038567
    outer loop
      vertex 0.7021753787994385 -0.7021753787994385 -0.42558255791664124
      vertex 0.9930259585380554 -2.4322122269977687e-16 -0.42558255791664124
      vertex 1.293958306312561 -3.169283621737312e-16 -0.3009323179721832
    endloop
  endfacet
  facet normal 0.8628561951216381 0.3574068064449053 -0.3574067168465974
    outer loop
      vertex 1.418608546257019 0 -1.0423766119923731e-16
      vertex 1.293958306312561 0 -0.3009323179721832
      vertex 1.0031076669692993 1.0031076669692993 -1.0423766119923731e-16
    endloop
  endfacet
  facet normal 0.8628561967495147 0.35740680590105106 -0.3574067134604097
    outer loop
      vertex 1.293958306312561 0 -0.3009323179721832
      vertex 0.9149666428565979 0.9149666428565979 -0.3009323179721832
      vertex 1.0031076669692993 1.0031076669692993 -1.0423766119923731e-16
    endloop
  endfacet
  facet normal 0.3574068069180131 0.8628561962638212 -0.3574067136160146
    outer loop
      vertex 1.0031076669692993 1.0031076669692993 -1.0423766119923731e-16
      vertex 0.9149666428565979 0.9149666428565979 -0.3009323179721832
      vertex 8.68647176660311e-17 1.418608546257019 -1.0423766119923731e-16
    endloop
  endfacet
  facet normal 0.35740680538236747 0.862856195497302 -0.35740671700220245
    outer loop
      vertex 0.9149666428565979 0.9149666428565979 -0.3009323179721832
      vertex 7.92320905434328e-17 1.293958306312561 -0.3009323179721832
      vertex 8.68647176660311e-17 1.418608546257019 -1.0423766119923731e-16
    endloop
  endfacet
  facet normal -0.3574068064449053 0.8628561951216381 -0.3574067168465974
    outer loop
      vertex 8.68647176660311e-17 1.418608546257019 -1.0423766119923731e-16
      vertex 7.92320905434328e-17 1.293958306312561 -0.3009323179721832
      vertex -1.0031076669692993 1.0031076669692993 -1.0423766119923731e-16
    endloop
  endfacet
  facet normal -0.35740680590105095 0.8628561967495145 -0.3574067134604096
    outer loop
      vertex 7.92320905434328e-17 1.293958306312561 -0.3009323179721832
      vertex -0.9149666428565979 0.9149666428565979 -0.3009323179721832
      vertex -1.0031076669692993 1.0031076669692993 -1.0423766119923731e-16
    endloop
  endfacet
  facet normal -0.8628561962638212 0.35740680691801313 -0.35740671361601467
    outer loop
      vertex -1.0031076669692993 1.0031076669692993 -1.0423766119923731e-16
      vertex -0.9149666428565979 0.9149666428565979 -0.3009323179721832
      vertex -1.418608546257019 1.737294353320622e-16 -1.0423766119923731e-16
    endloop
  endfacet
  facet normal -0.862856195497302 0.35740680538236747 -0.35740671700220245
    outer loop
      vertex -0.9149666428565979 0.9149666428565979 -0.3009323179721832
      vertex -1.293958306312561 1.584641810868656e-16 -0.3009323179721832
      vertex -1.418608546257019 1.737294353320622e-16 -1.0423766119923731e-16
    endloop
  endfacet
  facet normal -0.862856195121638 -0.3574068064449052 -0.35740671684659736
    outer loop
      vertex -1.418608546257019 1.737294353320622e-16 -1.0423766119923731e-16
      vertex -1.293958306312561 1.584641810868656e-16 -0.3009323179721832
      vertex -1.0031076669692993 -1.0031076669692993 -1.0423766119923731e-16
    endloop
  endfacet
  facet normal -0.8628561967495145 -0.35740680590105095 -0.3574067134604096
    outer loop
      vertex -1.293958306312561 1.584641810868656e-16 -0.3009323179721832
      vertex -0.9149666428565979 -0.9149666428565979 -0.3009323179721832
      vertex -1.0031076669692993 -1.0031076669692993 -1.0423766119923731e-16
    endloop
  endfacet
  facet normal -0.35740680691801313 -0.8628561962638212 -0.35740671361601467
    outer loop
      vertex -1.0031076669692993 -1.0031076669692993 -1.0423766119923731e-16
      vertex -0.9149666428565979 -0.9149666428565979 -0.3009323179721832
      vertex -2.605941596155382e-16 -1.418608546257019 -1.0423766119923731e-16
    endloop
  endfacet
  facet normal -0.3574068053823675 -0.862856195497302 -0.3574067170022025
    outer loop
      vertex -0.9149666428565979 -0.9149666428565979 -0.3009323179721832
      vertex -2.376962914826331e-16 -1.293958306312561 -0.3009323179721832
      vertex -2.605941596155382e-16 -1.418608546257019 -1.0423766119923731e-16
    endloop
  endfacet
  facet normal 0.3574068064449052 -0.862856195121638 -0.35740671684659736
    outer loop
      vertex -2.605941596155382e-16 -1.418608546257019 -1.0423766119923731e-16
      vertex -2.376962914826331e-16 -1.293958306312561 -0.3009323179721832
      vertex 1.0031076669692993 -1.0031076669692993 -1.0423766119923731e-16
    endloop
  endfacet
  facet normal 0.35740680590105095 -0.8628561967495145 -0.3574067134604096
    outer loop
      vertex -2.376962914826331e-16 -1.293958306312561 -0.3009323179721832
      vertex 0.9149666428565979 -0.9149666428565979 -0.3009323179721832
      vertex 1.0031076669692993 -1.0031076669692993 -1.0423766119923731e-16
    endloop
  endfacet
  facet normal 0.8628561962638213 -0.35740680691801324 -0.3574067136160147
    outer loop
      vertex 1.0031076669692993 -1.0031076669692993 -1.0423766119923731e-16
      vertex 0.9149666428565979 -0.9149666428565979 -0.3009323179721832
      vertex 1.418608546257019 -3.474588706641244e-16 -1.0423766119923731e-16
    endloop
  endfacet
  facet normal 0.8628561954973019 -0.3574068053823676 -0.3574067170022025
    outer loop
      vertex 0.9149666428565979 -0.9149666428565979 -0.3009323179721832
      vertex 1.293958306312561 -3.169283621737312e-16 -0.3009323179721832
      vertex 1.418608546257019 -3.474588706641244e-16 -1.0423766119923731e-16
    endloop
  endfacet
endsolid shape
