<?xml version="1.0" encoding="UTF-8"?>
<svg width="1227" height="599" viewBox="0 0 1227 599" fill="none" xmlns="http://www.w3.org/2000/svg">
<path stroke="black" stroke-width="0.1500" d="
M 807.000000 512.500000
A 16.500000 16.500000 0 0 1 774.000000 512.500000
M 807.000000 509.500000
A 16.500000 16.500000 0 0 1 774.000000 509.500000
M 807.000000 505.000000
A 16.000000 16.000000 0 0 1 775.000000 505.000000
M 807.000000 502.000000
A 16.000000 16.000000 0 0 1 775.000000 502.000000
M 806.000000 497.500000
A 15.500000 15.500000 0 0 1 775.000000 497.500000
M 806.000000 494.500000
A 15.500000 15.500000 0 0 1 775.000000 494.500000
M 807.000000 490.500000
A 15.500000 15.500000 0 0 1 776.000000 490.500000
M 806.000000 486.000000
A 15.000000 15.000000 0 0 1 776.000000 486.000000
M 806.000000 483.000000
A 15.000000 15.000000 0 0 1 776.000000 483.000000
M 807.000000 479.000000
A 15.000000 15.000000 0 0 1 777.000000 479.000000
M 806.000000 475.500000
A 14.500000 14.500000 0 0 1 777.000000 475.500000
M 806.000000 471.500000
A 14.500000 14.500000 0 0 1 777.000000 471.500000
M 806.000000 468.500000
A 14.500000 14.500000 0 0 1 777.000000 468.500000
M 806.000000 464.000000
A 14.000000 14.000000 0 0 1 778.000000 464.000000
M 806.000000 461.000000
A 14.000000 14.000000 0 0 1 778.000000 461.000000
M 806.000000 457.000000
A 14.000000 14.000000 0 0 1 778.000000 457.000000
M 805.000000 453.500000
A 13.500000 13.500000 0 0 1 778.000000 453.500000
M 806.000000 449.500000
A 13.500000 13.500000 0 0 1 779.000000 449.500000
M 806.000000 446.500000
A 13.500000 13.500000 0 0 1 779.000000 446.500000
M 805.000000 442.000000
A 13.000000 13.000000 0 0 1 779.000000 442.000000
M 805.000000 439.000000
A 13.000000 13.000000 0 0 1 779.000000 439.000000
M 806.000000 435.000000
A 13.000000 13.000000 0 0 1 780.000000 435.000000
M 805.000000 431.500000
A 12.500000 12.500000 0 0 1 780.000000 431.500000
M 805.000000 427.500000
A 12.500000 12.500000 0 0 1 780.000000 427.500000
M 806.000000 424.500000
A 12.500000 12.500000 0 0 1 781.000000 424.500000
M 805.000000 420.000000
A 12.000000 12.000000 0 0 1 781.000000 420.000000
M 805.000000 416.000000
A 12.000000 12.000000 0 0 1 781.000000 416.000000
M 805.000000 413.000000
A 12.000000 12.000000 0 0 1 781.000000 413.000000
M 805.000000 408.500000
A 11.500000 11.500000 0 0 1 782.000000 408.500000
M 805.000000 405.500000
A 11.500000 11.500000 0 0 1 782.000000 405.500000
M 805.000000 401.500000
A 11.500000 11.500000 0 0 1 782.000000 401.500000
M 804.000000 398.000000
A 11.000000 11.000000 0 0 1 782.000000 398.000000
M 805.000000 394.000000
A 11.000000 11.000000 0 0 1 783.000000 394.000000
M 805.000000 391.000000
A 11.000000 11.000000 0 0 1 783.000000 391.000000
M 804.000000 386.500000
A 10.500000 10.500000 0 0 1 783.000000 386.500000
M 804.000000 383.500000
A 10.500000 10.500000 0 0 1 783.000000 383.500000
M 805.000000 379.500000
A 10.500000 10.500000 0 0 1 784.000000 379.500000
M 804.000000 376.000000
A 10.000000 10.000000 0 0 1 784.000000 376.000000
M 804.000000 372.000000
A 10.000000 10.000000 0 0 1 784.000000 372.000000
M 804.000000 368.500000
A 9.500000 9.500000 0 0 1 785.000000 368.500000
M 804.000000 364.500000
A 9.500000 9.500000 0 0 1 785.000000 364.500000
M 804.000000 361.500000
A 9.500000 9.500000 0 0 1 785.000000 361.500000
M 803.000000 357.000000
A 9.000000 9.000000 0 0 1 785.000000 357.000000
M 804.000000 354.000000
A 9.000000 9.000000 0 0 1 786.000000 354.000000
M 804.000000 350.000000
A 9.000000 9.000000 0 0 1 786.000000 350.000000
M 803.000000 346.500000
A 8.500000 8.500000 0 0 1 786.000000 346.500000
M 803.000000 342.500000
A 8.500000 8.500000 0 0 1 786.000000 342.500000
M 804.000000 338.500000
A 8.500000 8.500000 0 0 1 787.000000 338.500000
M 803.000000 335.000000
A 8.000000 8.000000 0 0 1 787.000000 335.000000
M 803.000000 331.000000
A 8.000000 8.000000 0 0 1 787.000000 331.000000
M 803.000000 328.000000
A 8.000000 8.000000 0 0 1 787.000000 328.000000
M 803.000000 323.500000
A 7.500000 7.500000 0 0 1 788.000000 323.500000
M 803.000000 320.500000
A 7.500000 7.500000 0 0 1 788.000000 320.500000
M 803.000000 316.500000
A 7.500000 7.500000 0 0 1 788.000000 316.500000
M 802.000000 313.000000
A 7.000000 7.000000 0 0 1 788.000000 313.000000
M 803.000000 309.000000
A 7.000000 7.000000 0 0 1 789.000000 309.000000
M 803.000000 306.000000
A 7.000000 7.000000 0 0 1 789.000000 306.000000
M 802.000000 301.500000
A 6.500000 6.500000 0 0 1 789.000000 301.500000
M 803.000000 298.500000
A 6.500000 6.500000 0 0 1 790.000000 298.500000
M 803.000000 294.500000
A 6.500000 6.500000 0 0 1 790.000000 294.500000
M 802.000000 291.000000
A 6.000000 6.000000 0 0 1 790.000000 291.000000
M 802.000000 287.000000
A 6.000000 6.000000 0 0 1 790.000000 287.000000
M 803.000000 284.000000
A 6.000000 6.000000 0 0 1 791.000000 284.000000
M 802.000000 279.500000
A 5.500000 5.500000 0 0 1 791.000000 279.500000
M 802.000000 276.500000
A 5.500000 5.500000 0 0 1 791.000000 276.500000
M 802.000000 272.500000
A 5.500000 5.500000 0 0 1 791.000000 272.500000
M 802.000000 268.000000
A 5.000000 5.000000 0 0 1 792.000000 268.000000
M 802.000000 265.000000
A 5.000000 5.000000 0 0 1 792.000000 265.000000
M 802.000000 261.000000
A 5.000000 5.000000 0 0 1 792.000000 261.000000
M 801.000000 257.500000
A 4.500000 4.500000 0 0 1 792.000000 257.500000
M 802.000000 253.500000
A 4.500000 4.500000 0 0 1 793.000000 253.500000
M 802.000000 250.500000
A 4.500000 4.500000 0 0 1 793.000000 250.500000
M 801.000000 246.000000
A 4.000000 4.000000 0 0 1 793.000000 246.000000
M 802.000000 243.000000
A 4.000000 4.000000 0 0 1 794.000000 243.000000
M 801.000000 238.500000
A 3.500000 3.500000 0 0 1 794.000000 238.500000
M 801.000000 235.500000
A 3.500000 3.500000 0 0 1 794.000000 235.500000
M 801.000000 231.500000
A 3.500000 3.500000 0 0 1 794.000000 231.500000
M 801.000000 228.000000
A 3.000000 3.000000 0 0 1 795.000000 228.000000
M 801.000000 224.000000
A 3.000000 3.000000 0 0 1 795.000000 224.000000
M 801.000000 221.000000
A 3.000000 3.000000 0 0 1 795.000000 221.000000
M 803.000000 222.500000
A 2.500000 2.500000 0 0 1 798.000000 222.500000
M 804.000000 224.000000
A 2.000000 2.000000 0 0 1 800.000000 224.000000
M 806.000000 225.500000
A 1.500000 1.500000 0 0 1 803.000000 225.500000
M 808.000000 227.000000
A 1.000000 1.000000 0 0 1 806.000000 227.000000
M 809.000000 228.500000
A 0.500000 0.500000 0 0 1 808.000000 228.500000
M 810.000000 229.500000
A 0.500000 0.500000 0 0 1 811.000000 229.500000
M 812.000000 231.000000
A 1.000000 1.000000 0 0 1 814.000000 231.000000
M 813.000000 232.500000
A 1.500000 1.500000 0 0 1 816.000000 232.500000
M 815.000000 234.000000
A 2.000000 2.000000 0 0 1 819.000000 234.000000
M 816.000000 235.500000
A 2.500000 2.500000 0 0 1 821.000000 235.500000
M 818.000000 237.000000
A 3.000000 3.000000 0 0 1 824.000000 237.000000
M 819.000000 238.500000
A 3.500000 3.500000 0 0 1 826.000000 238.500000
M 821.000000 239.000000
A 4.000000 4.000000 0 0 1 829.000000 239.000000
M 823.000000 240.500000
A 4.500000 4.500000 0 0 1 832.000000 240.500000
M 824.000000 242.000000
A 5.000000 5.000000 0 0 1 834.000000 242.000000
M 826.000000 243.500000
A 5.500000 5.500000 0 0 1 837.000000 243.500000
M 827.000000 245.000000
A 6.000000 6.000000 0 0 1 839.000000 245.000000
M 829.000000 246.500000
A 6.500000 6.500000 0 0 1 842.000000 246.500000
M 830.000000 248.000000
A 7.000000 7.000000 0 0 1 844.000000 248.000000
M 832.000000 249.500000
A 7.500000 7.500000 0 0 1 847.000000 249.500000
M 833.000000 251.000000
A 8.000000 8.000000 0 0 1 849.000000 251.000000
M 835.000000 252.500000
A 8.500000 8.500000 0 0 1 852.000000 252.500000
M 836.000000 254.000000
A 9.000000 9.000000 0 0 1 854.000000 254.000000
M 838.000000 255.500000
A 9.500000 9.500000 0 0 1 857.000000 255.500000
M 840.000000 257.500000
A 10.500000 10.500000 0 0 1 861.000000 257.500000
M 841.000000 259.000000
A 11.000000 11.000000 0 0 1 863.000000 259.000000
M 843.000000 259.500000
A 11.500000 11.500000 0 0 1 866.000000 259.500000
M 844.000000 261.000000
A 12.000000 12.000000 0 0 1 868.000000 261.000000
M 846.000000 262.500000
A 12.500000 12.500000 0 0 1 871.000000 262.500000
M 847.000000 264.000000
A 13.000000 13.000000 0 0 1 873.000000 264.000000
M 849.000000 265.500000
A 13.500000 13.500000 0 0 1 876.000000 265.500000
M 850.000000 267.000000
A 14.000000 14.000000 0 0 1 878.000000 267.000000
M 852.000000 268.500000
A 14.500000 14.500000 0 0 1 881.000000 268.500000
M 853.000000 270.000000
A 15.000000 15.000000 0 0 1 883.000000 270.000000
M 855.000000 271.500000
A 15.500000 15.500000 0 0 1 886.000000 271.500000
M 857.000000 273.000000
A 16.000000 16.000000 0 0 1 889.000000 273.000000
M 858.000000 274.500000
A 16.500000 16.500000 0 0 1 891.000000 274.500000
M 860.000000 276.000000
A 17.000000 17.000000 0 0 1 894.000000 276.000000
M 861.000000 277.500000
A 17.500000 17.500000 0 0 1 896.000000 277.500000
M 863.000000 279.000000
A 18.000000 18.000000 0 0 1 899.000000 279.000000
M 864.000000 279.500000
A 18.500000 18.500000 0 0 1 901.000000 279.500000
M 866.000000 281.000000
A 19.000000 19.000000 0 0 1 904.000000 281.000000
M 867.000000 282.500000
A 19.500000 19.500000 0 0 1 906.000000 282.500000
M 869.000000 284.000000
A 20.000000 20.000000 0 0 1 909.000000 284.000000
M 871.000000 286.000000
A 21.000000 21.000000 0 0 1 913.000000 286.000000
M 872.000000 287.500000
A 21.500000 21.500000 0 0 1 915.000000 287.500000
M 874.000000 289.000000
A 22.000000 22.000000 0 0 1 918.000000 289.000000
M 875.000000 290.500000
A 22.500000 22.500000 0 0 1 920.000000 290.500000
M 877.000000 292.000000
A 23.000000 23.000000 0 0 1 923.000000 292.000000
M 878.000000 293.500000
A 23.500000 23.500000 0 0 1 925.000000 293.500000
M 880.000000 295.000000
A 24.000000 24.000000 0 0 1 928.000000 295.000000
M 881.000000 296.500000
A 24.500000 24.500000 0 0 1 930.000000 296.500000
M 883.000000 298.000000
A 25.000000 25.000000 0 0 1 933.000000 298.000000
M 884.000000 299.500000
A 25.500000 25.500000 0 0 1 935.000000 299.500000
M 886.000000 300.000000
A 26.000000 26.000000 0 0 1 938.000000 300.000000
M 888.000000 301.500000
A 26.500000 26.500000 0 0 1 941.000000 301.500000
M 889.000000 303.000000
A 27.000000 27.000000 0 0 1 943.000000 303.000000
M 891.000000 304.500000
A 27.500000 27.500000 0 0 1 946.000000 304.500000
M 892.000000 306.000000
A 28.000000 28.000000 0 0 1 948.000000 306.000000
M 894.000000 307.500000
A 28.500000 28.500000 0 0 1 951.000000 307.500000
M 895.000000 309.000000
A 29.000000 29.000000 0 0 1 953.000000 309.000000
M 897.000000 310.500000
A 29.500000 29.500000 0 0 1 956.000000 310.500000
M 898.000000 312.000000
A 30.000000 30.000000 0 0 1 958.000000 312.000000
M 900.000000 313.500000
A 30.500000 30.500000 0 0 1 961.000000 313.500000
M 901.000000 315.500000
A 31.500000 31.500000 0 0 1 964.000000 315.500000
M 903.000000 317.000000
A 32.000000 32.000000 0 0 1 967.000000 317.000000
M 905.000000 318.500000
A 32.500000 32.500000 0 0 1 970.000000 318.500000
M 906.000000 320.000000
A 33.000000 33.000000 0 0 1 972.000000 320.000000
M 908.000000 320.500000
A 33.500000 33.500000 0 0 1 975.000000 320.500000
M 909.000000 322.000000
A 34.000000 34.000000 0 0 1 977.000000 322.000000
M 911.000000 323.500000
A 34.500000 34.500000 0 0 1 980.000000 323.500000
M 912.000000 325.000000
A 35.000000 35.000000 0 0 1 982.000000 325.000000
M 914.000000 326.500000
A 35.500000 35.500000 0 0 1 985.000000 326.500000
M 915.000000 328.000000
A 36.000000 36.000000 0 0 1 987.000000 328.000000
M 917.000000 329.500000
A 36.500000 36.500000 0 0 1 990.000000 329.500000
M 918.000000 331.000000
A 37.000000 37.000000 0 0 1 992.000000 331.000000
M 920.000000 332.500000
A 37.500000 37.500000 0 0 1 995.000000 332.500000
M 922.000000 334.000000
A 38.000000 38.000000 0 0 1 998.000000 334.000000
M 923.000000 335.500000
A 38.500000 38.500000 0 0 1 1000.000000 335.500000
M 932.000000 599.000000
A 28.000000 28.000000 0 0 1 988.000000 599.000000
M 932.000000 595.000000
A 28.000000 28.000000 0 0 1 988.000000 595.000000
M 932.000000 592.000000
A 28.000000 28.000000 0 0 1 988.000000 592.000000
M 932.000000 588.500000
A 28.500000 28.500000 0 0 1 989.000000 588.500000
M 932.000000 585.500000
A 28.500000 28.500000 0 0 1 989.000000 585.500000
M 932.000000 581.500000
A 28.500000 28.500000 0 0 1 989.000000 581.500000
M 932.000000 578.500000
A 28.500000 28.500000 0 0 1 989.000000 578.500000
M 932.000000 576.000000
A 29.000000 29.000000 0 0 1 990.000000 576.000000
M 931.000000 572.000000
A 29.000000 29.000000 0 0 1 989.000000 572.000000
M 931.000000 569.000000
A 29.000000 29.000000 0 0 1 989.000000 569.000000
M 931.000000 565.000000
A 29.000000 29.000000 0 0 1 989.000000 565.000000
M 931.000000 562.500000
A 29.500000 29.500000 0 0 1 990.000000 562.500000
M 931.000000 558.500000
A 29.500000 29.500000 0 0 1 990.000000 558.500000
M 931.000000 555.500000
A 29.500000 29.500000 0 0 1 990.000000 555.500000
M 931.000000 552.000000
A 30.000000 30.000000 0 0 1 991.000000 552.000000
M 931.000000 549.000000
A 30.000000 30.000000 0 0 1 991.000000 549.000000
M 931.000000 545.000000
A 30.000000 30.000000 0 0 1 991.000000 545.000000
M 930.000000 542.000000
A 30.000000 30.000000 0 0 1 990.000000 542.000000
M 930.000000 538.500000
A 30.500000 30.500000 0 0 1 991.000000 538.500000
M 930.000000 535.500000
A 30.500000 30.500000 0 0 1 991.000000 535.500000
M 930.000000 531.500000
A 30.500000 30.500000 0 0 1 991.000000 531.500000
M 930.000000 528.500000
A 30.500000 30.500000 0 0 1 991.000000 528.500000
M 930.000000 525.000000
A 31.000000 31.000000 0 0 1 992.000000 525.000000
M 930.000000 522.000000
A 31.000000 31.000000 0 0 1 992.000000 522.000000
M 930.000000 519.000000
A 31.000000 31.000000 0 0 1 992.000000 519.000000
M 929.000000 515.500000
A 31.500000 31.500000 0 0 1 992.000000 515.500000
M 929.000000 512.500000
A 31.500000 31.500000 0 0 1 992.000000 512.500000
M 929.000000 508.500000
A 31.500000 31.500000 0 0 1 992.000000 508.500000
M 929.000000 505.500000
A 31.500000 31.500000 0 0 1 992.000000 505.500000
M 929.000000 502.000000
A 32.000000 32.000000 0 0 1 993.000000 502.000000
M 929.000000 499.000000
A 32.000000 32.000000 0 0 1 993.000000 499.000000
M 929.000000 495.000000
A 32.000000 32.000000 0 0 1 993.000000 495.000000
M 929.000000 492.000000
A 32.000000 32.000000 0 0 1 993.000000 492.000000
M 929.000000 488.500000
A 32.500000 32.500000 0 0 1 994.000000 488.500000
M 928.000000 485.500000
A 32.500000 32.500000 0 0 1 993.000000 485.500000
M 928.000000 481.500000
A 32.500000 32.500000 0 0 1 993.000000 481.500000
M 928.000000 479.000000
A 33.000000 33.000000 0 0 1 994.000000 479.000000
M 928.000000 475.000000
A 33.000000 33.000000 0 0 1 994.000000 475.000000
M 928.000000 472.000000
A 33.000000 33.000000 0 0 1 994.000000 472.000000
M 928.000000 469.000000
A 33.000000 33.000000 0 0 1 994.000000 469.000000
M 928.000000 465.500000
A 33.500000 33.500000 0 0 1 995.000000 465.500000
M 928.000000 462.500000
A 33.500000 33.500000 0 0 1 995.000000 462.500000
M 927.000000 458.500000
A 33.500000 33.500000 0 0 1 994.000000 458.500000
M 927.000000 455.500000
A 33.500000 33.500000 0 0 1 994.000000 455.500000
M 927.000000 452.000000
A 34.000000 34.000000 0 0 1 995.000000 452.000000
M 927.000000 449.000000
A 34.000000 34.000000 0 0 1 995.000000 449.000000
M 927.000000 445.000000
A 34.000000 34.000000 0 0 1 995.000000 445.000000
M 927.000000 442.500000
A 34.500000 34.500000 0 0 1 996.000000 442.500000
M 927.000000 438.500000
A 34.500000 34.500000 0 0 1 996.000000 438.500000
M 927.000000 435.500000
A 34.500000 34.500000 0 0 1 996.000000 435.500000
M 927.000000 431.500000
A 34.500000 34.500000 0 0 1 996.000000 431.500000
M 926.000000 429.000000
A 35.000000 35.000000 0 0 1 996.000000 429.000000
M 926.000000 425.000000
A 35.000000 35.000000 0 0 1 996.000000 425.000000
M 926.000000 422.000000
A 35.000000 35.000000 0 0 1 996.000000 422.000000
M 926.000000 418.000000
A 35.000000 35.000000 0 0 1 996.000000 418.000000
M 926.000000 415.500000
A 35.500000 35.500000 0 0 1 997.000000 415.500000
M 926.000000 412.500000
A 35.500000 35.500000 0 0 1 997.000000 412.500000
M 926.000000 408.500000
A 35.500000 35.500000 0 0 1 997.000000 408.500000
M 926.000000 406.000000
A 36.000000 36.000000 0 0 1 998.000000 406.000000
M 925.000000 402.000000
A 36.000000 36.000000 0 0 1 997.000000 402.000000
M 925.000000 399.000000
A 36.000000 36.000000 0 0 1 997.000000 399.000000
M 925.000000 395.000000
A 36.000000 36.000000 0 0 1 997.000000 395.000000
M 925.000000 392.500000
A 36.500000 36.500000 0 0 1 998.000000 392.500000
M 925.000000 388.500000
A 36.500000 36.500000 0 0 1 998.000000 388.500000
M 925.000000 385.500000
A 36.500000 36.500000 0 0 1 998.000000 385.500000
M 925.000000 381.500000
A 36.500000 36.500000 0 0 1 998.000000 381.500000
M 925.000000 379.000000
A 37.000000 37.000000 0 0 1 999.000000 379.000000
M 925.000000 375.000000
A 37.000000 37.000000 0 0 1 999.000000 375.000000
M 924.000000 372.000000
A 37.000000 37.000000 0 0 1 998.000000 372.000000
M 924.000000 368.500000
A 37.500000 37.500000 0 0 1 999.000000 368.500000
M 924.000000 365.500000
A 37.500000 37.500000 0 0 1 999.000000 365.500000
M 924.000000 362.500000
A 37.500000 37.500000 0 0 1 999.000000 362.500000
M 924.000000 358.500000
A 37.500000 37.500000 0 0 1 999.000000 358.500000
M 924.000000 356.000000
A 38.000000 38.000000 0 0 1 1000.000000 356.000000
M 924.000000 352.000000
A 38.000000 38.000000 0 0 1 1000.000000 352.000000
M 924.000000 349.000000
A 38.000000 38.000000 0 0 1 1000.000000 349.000000
M 923.000000 345.000000
A 38.000000 38.000000 0 0 1 999.000000 345.000000
M 923.000000 342.500000
A 38.500000 38.500000 0 0 1 1000.000000 342.500000
M 923.000000 338.500000
A 38.500000 38.500000 0 0 1 1000.000000 338.500000
M 809.000000 514.000000
A 16.000000 16.000000 0 0 1 777.000000 514.000000
M 811.000000 514.500000
A 15.500000 15.500000 0 0 1 780.000000 514.500000
M 811.000000 515.500000
A 14.500000 14.500000 0 0 1 782.000000 515.500000
M 813.000000 517.000000
A 14.000000 14.000000 0 0 1 785.000000 517.000000
M 815.000000 517.500000
A 13.500000 13.500000 0 0 1 788.000000 517.500000
M 816.000000 519.000000
A 13.000000 13.000000 0 0 1 790.000000 519.000000
M 818.000000 520.500000
A 12.500000 12.500000 0 0 1 793.000000 520.500000
M 820.000000 521.000000
A 12.000000 12.000000 0 0 1 796.000000 521.000000
M 822.000000 522.500000
A 11.500000 11.500000 0 0 1 799.000000 522.500000
M 823.000000 524.000000
A 11.000000 11.000000 0 0 1 801.000000 524.000000
M 825.000000 524.500000
A 10.500000 10.500000 0 0 1 804.000000 524.500000
M 826.000000 525.500000
A 9.500000 9.500000 0 0 1 807.000000 525.500000
M 827.000000 527.000000
A 9.000000 9.000000 0 0 1 809.000000 527.000000
M 829.000000 527.500000
A 8.500000 8.500000 0 0 1 812.000000 527.500000
M 831.000000 529.000000
A 8.000000 8.000000 0 0 1 815.000000 529.000000
M 832.000000 530.500000
A 7.500000 7.500000 0 0 1 817.000000 530.500000
M 834.000000 531.000000
A 7.000000 7.000000 0 0 1 820.000000 531.000000
M 836.000000 532.500000
A 6.500000 6.500000 0 0 1 823.000000 532.500000
M 838.000000 533.000000
A 6.000000 6.000000 0 0 1 826.000000 533.000000
M 838.000000 534.000000
A 5.000000 5.000000 0 0 1 828.000000 534.000000
M 840.000000 535.500000
A 4.500000 4.500000 0 0 1 831.000000 535.500000
M 842.000000 536.000000
A 4.000000 4.000000 0 0 1 834.000000 536.000000
M 843.000000 537.500000
A 3.500000 3.500000 0 0 1 836.000000 537.500000
M 845.000000 539.000000
A 3.000000 3.000000 0 0 1 839.000000 539.000000
M 847.000000 539.500000
A 2.500000 2.500000 0 0 1 842.000000 539.500000
M 849.000000 541.000000
A 2.000000 2.000000 0 0 1 845.000000 541.000000
M 850.000000 542.500000
A 1.500000 1.500000 0 0 1 847.000000 542.500000
M 851.000000 542.500000
A 0.500000 0.500000 0 0 1 850.000000 542.500000
M 854.000000 544.500000
A 0.500000 0.500000 0 0 1 853.000000 544.500000
M 855.000000 545.500000
A 0.500000 0.500000 0 0 1 856.000000 545.500000
M 856.000000 546.000000
A 1.000000 1.000000 0 0 1 858.000000 546.000000
M 858.000000 547.500000
A 1.500000 1.500000 0 0 1 861.000000 547.500000
M 859.000000 548.000000
A 2.000000 2.000000 0 0 1 863.000000 548.000000
M 861.000000 549.500000
A 2.500000 2.500000 0 0 1 866.000000 549.500000
M 863.000000 551.000000
A 3.000000 3.000000 0 0 1 869.000000 551.000000
M 864.000000 552.000000
A 4.000000 4.000000 0 0 1 872.000000 552.000000
M 866.000000 553.500000
A 4.500000 4.500000 0 0 1 875.000000 553.500000
M 867.000000 554.000000
A 5.000000 5.000000 0 0 1 877.000000 554.000000
M 869.000000 555.500000
A 5.500000 5.500000 0 0 1 880.000000 555.500000
M 870.000000 556.000000
A 6.000000 6.000000 0 0 1 882.000000 556.000000
M 872.000000 557.500000
A 6.500000 6.500000 0 0 1 885.000000 557.500000
M 874.000000 558.000000
A 7.000000 7.000000 0 0 1 888.000000 558.000000
M 875.000000 559.500000
A 7.500000 7.500000 0 0 1 890.000000 559.500000
M 877.000000 560.500000
A 8.500000 8.500000 0 0 1 894.000000 560.500000
M 878.000000 562.000000
A 9.000000 9.000000 0 0 1 896.000000 562.000000
M 880.000000 562.500000
A 9.500000 9.500000 0 0 1 899.000000 562.500000
M 882.000000 564.000000
A 10.000000 10.000000 0 0 1 902.000000 564.000000
M 883.000000 564.500000
A 10.500000 10.500000 0 0 1 904.000000 564.500000
M 885.000000 566.000000
A 11.000000 11.000000 0 0 1 907.000000 566.000000
M 886.000000 566.500000
A 11.500000 11.500000 0 0 1 909.000000 566.500000
M 888.000000 568.000000
A 12.000000 12.000000 0 0 1 912.000000 568.000000
M 890.000000 569.500000
A 12.500000 12.500000 0 0 1 915.000000 569.500000
M 891.000000 570.500000
A 13.500000 13.500000 0 0 1 918.000000 570.500000
M 893.000000 572.000000
A 14.000000 14.000000 0 0 1 921.000000 572.000000
M 894.000000 572.500000
A 14.500000 14.500000 0 0 1 923.000000 572.500000
M 896.000000 574.000000
A 15.000000 15.000000 0 0 1 926.000000 574.000000
M 897.000000 574.500000
A 15.500000 15.500000 0 0 1 928.000000 574.500000
M 899.000000 576.000000
A 16.000000 16.000000 0 0 1 931.000000 576.000000
M 901.000000 576.500000
A 16.500000 16.500000 0 0 1 934.000000 576.500000
M 902.000000 578.000000
A 17.000000 17.000000 0 0 1 936.000000 578.000000
M 904.000000 579.000000
A 18.000000 18.000000 0 0 1 940.000000 579.000000
M 905.000000 580.500000
A 18.500000 18.500000 0 0 1 942.000000 580.500000
M 907.000000 581.000000
A 19.000000 19.000000 0 0 1 945.000000 581.000000
M 909.000000 582.500000
A 19.500000 19.500000 0 0 1 948.000000 582.500000
M 910.000000 583.000000
A 20.000000 20.000000 0 0 1 950.000000 583.000000
M 912.000000 584.500000
A 20.500000 20.500000 0 0 1 953.000000 584.500000
M 913.000000 585.000000
A 21.000000 21.000000 0 0 1 955.000000 585.000000
M 915.000000 586.500000
A 21.500000 21.500000 0 0 1 958.000000 586.500000
M 917.000000 587.500000
A 22.500000 22.500000 0 0 1 962.000000 587.500000
M 918.000000 589.000000
A 23.000000 23.000000 0 0 1 964.000000 589.000000
M 920.000000 590.500000
A 23.500000 23.500000 0 0 1 967.000000 590.500000
M 921.000000 591.000000
A 24.000000 24.000000 0 0 1 969.000000 591.000000
M 923.000000 592.500000
A 24.500000 24.500000 0 0 1 972.000000 592.500000
M 924.000000 593.000000
A 25.000000 25.000000 0 0 1 974.000000 593.000000
M 926.000000 594.500000
A 25.500000 25.500000 0 0 1 977.000000 594.500000
M 928.000000 595.000000
A 26.000000 26.000000 0 0 1 980.000000 595.000000
M 929.000000 597.000000
A 27.000000 27.000000 0 0 1 983.000000 597.000000
M 931.000000 597.500000
A 27.500000 27.500000 0 0 1 986.000000 597.500000
M 927.000000 334.500000
A 38.500000 38.500000 0 0 1 1004.000000 334.500000
M 930.000000 334.000000
A 38.000000 38.000000 0 0 1 1006.000000 334.000000
M 934.000000 332.500000
A 37.500000 37.500000 0 0 1 1009.000000 332.500000
M 937.000000 332.500000
A 37.500000 37.500000 0 0 1 1012.000000 332.500000
M 940.000000 331.000000
A 37.000000 37.000000 0 0 1 1014.000000 331.000000
M 944.000000 331.000000
A 37.000000 37.000000 0 0 1 1018.000000 331.000000
M 947.000000 329.500000
A 36.500000 36.500000 0 0 1 1020.000000 329.500000
M 951.000000 329.000000
A 36.000000 36.000000 0 0 1 1023.000000 329.000000
M 954.000000 328.000000
A 36.000000 36.000000 0 0 1 1026.000000 328.000000
M 958.000000 327.500000
A 35.500000 35.500000 0 0 1 1029.000000 327.500000
M 961.000000 326.500000
A 35.500000 35.500000 0 0 1 1032.000000 326.500000
M 965.000000 325.000000
A 35.000000 35.000000 0 0 1 1035.000000 325.000000
M 968.000000 325.000000
A 35.000000 35.000000 0 0 1 1038.000000 325.000000
M 972.000000 323.500000
A 34.500000 34.500000 0 0 1 1041.000000 323.500000
M 975.000000 323.000000
A 34.000000 34.000000 0 0 1 1043.000000 323.000000
M 979.000000 322.000000
A 34.000000 34.000000 0 0 1 1047.000000 322.000000
M 982.000000 321.500000
A 33.500000 33.500000 0 0 1 1049.000000 321.500000
M 986.000000 320.500000
A 33.500000 33.500000 0 0 1 1053.000000 320.500000
M 989.000000 320.000000
A 33.000000 33.000000 0 0 1 1055.000000 320.000000
M 992.000000 318.500000
A 32.500000 32.500000 0 0 1 1057.000000 318.500000
M 996.000000 318.500000
A 32.500000 32.500000 0 0 1 1061.000000 318.500000
M 999.000000 317.000000
A 32.000000 32.000000 0 0 1 1063.000000 317.000000
M 1003.000000 317.000000
A 32.000000 32.000000 0 0 1 1067.000000 317.000000
M 1006.000000 315.500000
A 31.500000 31.500000 0 0 1 1069.000000 315.500000
M 1010.000000 315.000000
A 31.000000 31.000000 0 0 1 1072.000000 315.000000
M 1013.000000 314.000000
A 31.000000 31.000000 0 0 1 1075.000000 314.000000
M 1017.000000 313.500000
A 30.500000 30.500000 0 0 1 1078.000000 313.500000
M 1020.000000 312.500000
A 30.500000 30.500000 0 0 1 1081.000000 312.500000
M 1024.000000 312.000000
A 30.000000 30.000000 0 0 1 1084.000000 312.000000
M 1027.000000 310.500000
A 29.500000 29.500000 0 0 1 1086.000000 310.500000
M 1031.000000 309.500000
A 29.500000 29.500000 0 0 1 1090.000000 309.500000
M 1034.000000 309.000000
A 29.000000 29.000000 0 0 1 1092.000000 309.000000
M 1038.000000 308.000000
A 29.000000 29.000000 0 0 1 1096.000000 308.000000
M 1041.000000 307.500000
A 28.500000 28.500000 0 0 1 1098.000000 307.500000
M 1044.000000 306.000000
A 28.000000 28.000000 0 0 1 1100.000000 306.000000
M 1048.000000 306.000000
A 28.000000 28.000000 0 0 1 1104.000000 306.000000
M 1051.000000 304.500000
A 27.500000 27.500000 0 0 1 1106.000000 304.500000
M 1055.000000 304.500000
A 27.500000 27.500000 0 0 1 1110.000000 304.500000
M 1058.000000 303.000000
A 27.000000 27.000000 0 0 1 1112.000000 303.000000
M 1062.000000 302.500000
A 26.500000 26.500000 0 0 1 1115.000000 302.500000
M 1065.000000 301.500000
A 26.500000 26.500000 0 0 1 1118.000000 301.500000
M 1069.000000 301.000000
A 26.000000 26.000000 0 0 1 1121.000000 301.000000
M 1072.000000 300.000000
A 26.000000 26.000000 0 0 1 1124.000000 300.000000
M 1076.000000 299.500000
A 25.500000 25.500000 0 0 1 1127.000000 299.500000
M 1079.000000 298.000000
A 25.000000 25.000000 0 0 1 1129.000000 298.000000
M 1083.000000 298.000000
A 25.000000 25.000000 0 0 1 1133.000000 298.000000
M 1086.000000 296.500000
A 24.500000 24.500000 0 0 1 1135.000000 296.500000
M 1090.000000 296.500000
A 24.500000 24.500000 0 0 1 1139.000000 296.500000
M 1093.000000 295.000000
A 24.000000 24.000000 0 0 1 1141.000000 295.000000
M 1096.000000 294.000000
A 24.000000 24.000000 0 0 1 1144.000000 294.000000
M 1100.000000 293.500000
A 23.500000 23.500000 0 0 1 1147.000000 293.500000
M 1103.000000 292.000000
A 23.000000 23.000000 0 0 1 1149.000000 292.000000
M 1107.000000 292.000000
A 23.000000 23.000000 0 0 1 1153.000000 292.000000
M 1110.000000 290.500000
A 22.500000 22.500000 0 0 1 1155.000000 290.500000
M 1114.000000 290.500000
A 22.500000 22.500000 0 0 1 1159.000000 290.500000
M 1117.000000 289.000000
A 22.000000 22.000000 0 0 1 1161.000000 289.000000
M 1121.000000 288.500000
A 21.500000 21.500000 0 0 1 1164.000000 288.500000
M 1124.000000 287.500000
A 21.500000 21.500000 0 0 1 1167.000000 287.500000
M 1128.000000 287.000000
A 21.000000 21.000000 0 0 1 1170.000000 287.000000
M 1131.000000 286.000000
A 21.000000 21.000000 0 0 1 1173.000000 286.000000
M 1135.000000 285.500000
A 20.500000 20.500000 0 0 1 1176.000000 285.500000
M 1138.000000 284.000000
A 20.000000 20.000000 0 0 1 1178.000000 284.000000
M 1142.000000 284.000000
A 20.000000 20.000000 0 0 1 1182.000000 284.000000
M 1145.000000 282.500000
A 19.500000 19.500000 0 0 1 1184.000000 282.500000
M 1148.000000 282.500000
A 19.500000 19.500000 0 0 1 1187.000000 282.500000
M 1152.000000 281.000000
A 19.000000 19.000000 0 0 1 1190.000000 281.000000
M 1155.000000 280.500000
A 18.500000 18.500000 0 0 1 1192.000000 280.500000
M 1159.000000 279.500000
A 18.500000 18.500000 0 0 1 1196.000000 279.500000
M 1162.000000 279.000000
A 18.000000 18.000000 0 0 1 1198.000000 279.000000
M 1166.000000 278.000000
A 18.000000 18.000000 0 0 1 1202.000000 278.000000
M 1169.000000 276.500000
A 17.500000 17.500000 0 0 1 1204.000000 276.500000
M 1173.000000 276.000000
A 17.000000 17.000000 0 0 1 1207.000000 276.000000
M 1176.000000 275.000000
A 17.000000 17.000000 0 0 1 1210.000000 275.000000
M 1180.000000 274.500000
A 16.500000 16.500000 0 0 1 1213.000000 274.500000
M 1183.000000 273.500000
A 16.500000 16.500000 0 0 1 1216.000000 273.500000
M 1187.000000 273.000000
A 16.000000 16.000000 0 0 1 1219.000000 273.000000
M 1190.000000 271.500000
A 15.500000 15.500000 0 0 1 1221.000000 271.500000
M 1194.000000 271.500000
A 15.500000 15.500000 0 0 1 1225.000000 271.500000
M 1197.000000 270.000000
A 15.000000 15.000000 0 0 1 1227.000000 270.000000
M 1197.000000 274.000000
A 15.000000 15.000000 0 0 1 1227.000000 274.000000
M 1197.000000 278.000000
A 15.000000 15.000000 0 0 1 1227.000000 278.000000
M 1198.000000 280.500000
A 14.500000 14.500000 0 0 1 1227.000000 280.500000
M 1198.000000 284.500000
A 14.500000 14.500000 0 0 1 1227.000000 284.500000
M 1198.000000 288.500000
A 14.500000 14.500000 0 0 1 1227.000000 288.500000
M 1198.000000 291.000000
A 14.000000 14.000000 0 0 1 1226.000000 291.000000
M 1199.000000 295.000000
A 14.000000 14.000000 0 0 1 1227.000000 295.000000
M 1199.000000 299.000000
A 14.000000 14.000000 0 0 1 1227.000000 299.000000
M 1199.000000 302.500000
A 13.500000 13.500000 0 0 1 1226.000000 302.500000
M 1199.000000 305.500000
A 13.500000 13.500000 0 0 1 1226.000000 305.500000
M 1200.000000 309.500000
A 13.500000 13.500000 0 0 1 1227.000000 309.500000
M 1200.000000 313.500000
A 13.500000 13.500000 0 0 1 1227.000000 313.500000
M 1200.000000 316.000000
A 13.000000 13.000000 0 0 1 1226.000000 316.000000
M 1200.000000 320.000000
A 13.000000 13.000000 0 0 1 1226.000000 320.000000
M 1201.000000 324.000000
A 13.000000 13.000000 0 0 1 1227.000000 324.000000
M 1201.000000 326.500000
A 12.500000 12.500000 0 0 1 1226.000000 326.500000
M 1201.000000 330.500000
A 12.500000 12.500000 0 0 1 1226.000000 330.500000
M 1201.000000 334.500000
A 12.500000 12.500000 0 0 1 1226.000000 334.500000
M 1202.000000 337.000000
A 12.000000 12.000000 0 0 1 1226.000000 337.000000
M 1202.000000 341.000000
A 12.000000 12.000000 0 0 1 1226.000000 341.000000
M 1202.000000 345.000000
A 12.000000 12.000000 0 0 1 1226.000000 345.000000
M 1202.000000 348.500000
A 11.500000 11.500000 0 0 1 1225.000000 348.500000
M 1203.000000 351.500000
A 11.500000 11.500000 0 0 1 1226.000000 351.500000
M 1203.000000 355.500000
A 11.500000 11.500000 0 0 1 1226.000000 355.500000
M 1203.000000 359.000000
A 11.000000 11.000000 0 0 1 1225.000000 359.000000
M 1203.000000 362.000000
A 11.000000 11.000000 0 0 1 1225.000000 362.000000
M 1204.000000 366.000000
A 11.000000 11.000000 0 0 1 1226.000000 366.000000
M 1204.000000 370.000000
A 11.000000 11.000000 0 0 1 1226.000000 370.000000
M 1204.000000 372.500000
A 10.500000 10.500000 0 0 1 1225.000000 372.500000
M 1204.000000 376.500000
A 10.500000 10.500000 0 0 1 1225.000000 376.500000
M 1204.000000 380.500000
A 10.500000 10.500000 0 0 1 1225.000000 380.500000
M 1205.000000 383.000000
A 10.000000 10.000000 0 0 1 1225.000000 383.000000
M 1205.000000 387.000000
A 10.000000 10.000000 0 0 1 1225.000000 387.000000
M 1205.000000 391.000000
A 10.000000 10.000000 0 0 1 1225.000000 391.000000
M 1205.000000 394.500000
A 9.500000 9.500000 0 0 1 1224.000000 394.500000
M 1206.000000 397.500000
A 9.500000 9.500000 0 0 1 1225.000000 397.500000
M 1206.000000 401.500000
A 9.500000 9.500000 0 0 1 1225.000000 401.500000
M 1206.000000 405.000000
A 9.000000 9.000000 0 0 1 1224.000000 405.000000
M 1206.000000 408.000000
A 9.000000 9.000000 0 0 1 1224.000000 408.000000
M 1207.000000 412.000000
A 9.000000 9.000000 0 0 1 1225.000000 412.000000
M 1207.000000 416.000000
A 9.000000 9.000000 0 0 1 1225.000000 416.000000
M 1207.000000 418.500000
A 8.500000 8.500000 0 0 1 1224.000000 418.500000
M 1207.000000 422.500000
A 8.500000 8.500000 0 0 1 1224.000000 422.500000
M 1208.000000 426.500000
A 8.500000 8.500000 0 0 1 1225.000000 426.500000
M 1208.000000 430.000000
A 8.000000 8.000000 0 0 1 1224.000000 430.000000
M 1208.000000 433.000000
A 8.000000 8.000000 0 0 1 1224.000000 433.000000
M 1208.000000 437.000000
A 8.000000 8.000000 0 0 1 1224.000000 437.000000
M 1209.000000 440.500000
A 7.500000 7.500000 0 0 1 1224.000000 440.500000
M 1209.000000 443.500000
A 7.500000 7.500000 0 0 1 1224.000000 443.500000
M 1209.000000 447.500000
A 7.500000 7.500000 0 0 1 1224.000000 447.500000
M 1209.000000 451.000000
A 7.000000 7.000000 0 0 1 1223.000000 451.000000
M 1210.000000 454.000000
A 7.000000 7.000000 0 0 1 1224.000000 454.000000
M 1210.000000 458.000000
A 7.000000 7.000000 0 0 1 1224.000000 458.000000
M 1210.000000 461.500000
A 6.500000 6.500000 0 0 1 1223.000000 461.500000
M 1210.000000 464.500000
A 6.500000 6.500000 0 0 1 1223.000000 464.500000
M 1210.000000 468.500000
A 6.500000 6.500000 0 0 1 1223.000000 468.500000
M 1211.000000 472.500000
A 6.500000 6.500000 0 0 1 1224.000000 472.500000
M 1211.000000 476.000000
A 6.000000 6.000000 0 0 1 1223.000000 476.000000
M 1211.000000 479.000000
A 6.000000 6.000000 0 0 1 1223.000000 479.000000
M 1211.000000 483.000000
A 6.000000 6.000000 0 0 1 1223.000000 483.000000
M 1212.000000 486.500000
A 5.500000 5.500000 0 0 1 1223.000000 486.500000
M 1212.000000 489.500000
A 5.500000 5.500000 0 0 1 1223.000000 489.500000
M 1212.000000 493.500000
A 5.500000 5.500000 0 0 1 1223.000000 493.500000
M 1212.000000 497.000000
A 5.000000 5.000000 0 0 1 1222.000000 497.000000
M 1213.000000 500.000000
A 5.000000 5.000000 0 0 1 1223.000000 500.000000
M 1213.000000 504.000000
A 5.000000 5.000000 0 0 1 1223.000000 504.000000
M 1213.000000 507.500000
A 4.500000 4.500000 0 0 1 1222.000000 507.500000
M 1213.000000 511.500000
A 4.500000 4.500000 0 0 1 1222.000000 511.500000
M 1214.000000 514.500000
A 4.500000 4.500000 0 0 1 1223.000000 514.500000
M 1214.000000 518.000000
A 4.000000 4.000000 0 0 1 1222.000000 518.000000
M 1214.000000 522.000000
A 4.000000 4.000000 0 0 1 1222.000000 522.000000
M 1214.000000 525.000000
A 4.000000 4.000000 0 0 1 1222.000000 525.000000
M 1215.000000 529.000000
A 4.000000 4.000000 0 0 1 1223.000000 529.000000
M 1215.000000 532.500000
A 3.500000 3.500000 0 0 1 1222.000000 532.500000
M 1215.000000 535.500000
A 3.500000 3.500000 0 0 1 1222.000000 535.500000
M 1215.000000 539.500000
A 3.500000 3.500000 0 0 1 1222.000000 539.500000
M 1216.000000 543.000000
A 3.000000 3.000000 0 0 1 1222.000000 543.000000
M 1216.000000 546.000000
A 3.000000 3.000000 0 0 1 1222.000000 546.000000
M 1216.000000 550.000000
A 3.000000 3.000000 0 0 1 1222.000000 550.000000
M 936.000000 597.500000
A 27.500000 27.500000 0 0 1 991.000000 597.500000
M 940.000000 597.000000
A 27.000000 27.000000 0 0 1 994.000000 597.000000
M 943.000000 597.000000
A 27.000000 27.000000 0 0 1 997.000000 597.000000
M 947.000000 596.500000
A 26.500000 26.500000 0 0 1 1000.000000 596.500000
M 950.000000 595.500000
A 26.500000 26.500000 0 0 1 1003.000000 595.500000
M 954.000000 595.000000
A 26.000000 26.000000 0 0 1 1006.000000 595.000000
M 958.000000 594.500000
A 25.500000 25.500000 0 0 1 1009.000000 594.500000
M 961.000000 593.500000
A 25.500000 25.500000 0 0 1 1012.000000 593.500000
M 965.000000 593.000000
A 25.000000 25.000000 0 0 1 1015.000000 593.000000
M 968.000000 592.500000
A 24.500000 24.500000 0 0 1 1017.000000 592.500000
M 972.000000 592.500000
A 24.500000 24.500000 0 0 1 1021.000000 592.500000
M 975.000000 591.000000
A 24.000000 24.000000 0 0 1 1023.000000 591.000000
M 979.000000 591.000000
A 24.000000 24.000000 0 0 1 1027.000000 591.000000
M 983.000000 590.500000
A 23.500000 23.500000 0 0 1 1030.000000 590.500000
M 986.000000 589.000000
A 23.000000 23.000000 0 0 1 1032.000000 589.000000
M 990.000000 589.000000
A 23.000000 23.000000 0 0 1 1036.000000 589.000000
M 993.000000 588.500000
A 22.500000 22.500000 0 0 1 1038.000000 588.500000
M 997.000000 587.000000
A 22.000000 22.000000 0 0 1 1041.000000 587.000000
M 1001.000000 587.000000
A 22.000000 22.000000 0 0 1 1045.000000 587.000000
M 1004.000000 586.500000
A 21.500000 21.500000 0 0 1 1047.000000 586.500000
M 1008.000000 586.000000
A 21.000000 21.000000 0 0 1 1050.000000 586.000000
M 1011.000000 585.000000
A 21.000000 21.000000 0 0 1 1053.000000 585.000000
M 1015.000000 584.500000
A 20.500000 20.500000 0 0 1 1056.000000 584.500000
M 1019.000000 584.500000
A 20.500000 20.500000 0 0 1 1060.000000 584.500000
M 1022.000000 583.000000
A 20.000000 20.000000 0 0 1 1062.000000 583.000000
M 1026.000000 582.500000
A 19.500000 19.500000 0 0 1 1065.000000 582.500000
M 1029.000000 582.500000
A 19.500000 19.500000 0 0 1 1068.000000 582.500000
M 1033.000000 581.000000
A 19.000000 19.000000 0 0 1 1071.000000 581.000000
M 1037.000000 580.500000
A 18.500000 18.500000 0 0 1 1074.000000 580.500000
M 1040.000000 580.500000
A 18.500000 18.500000 0 0 1 1077.000000 580.500000
M 1044.000000 580.000000
A 18.000000 18.000000 0 0 1 1080.000000 580.000000
M 1047.000000 578.500000
A 17.500000 17.500000 0 0 1 1082.000000 578.500000
M 1051.000000 578.500000
A 17.500000 17.500000 0 0 1 1086.000000 578.500000
M 1054.000000 578.000000
A 17.000000 17.000000 0 0 1 1088.000000 578.000000
M 1058.000000 577.000000
A 17.000000 17.000000 0 0 1 1092.000000 577.000000
M 1062.000000 576.500000
A 16.500000 16.500000 0 0 1 1095.000000 576.500000
M 1065.000000 576.000000
A 16.000000 16.000000 0 0 1 1097.000000 576.000000
M 1069.000000 575.000000
A 16.000000 16.000000 0 0 1 1101.000000 575.000000
M 1072.000000 574.500000
A 15.500000 15.500000 0 0 1 1103.000000 574.500000
M 1076.000000 574.000000
A 15.000000 15.000000 0 0 1 1106.000000 574.000000
M 1080.000000 574.000000
A 15.000000 15.000000 0 0 1 1110.000000 574.000000
M 1083.000000 572.500000
A 14.500000 14.500000 0 0 1 1112.000000 572.500000
M 1087.000000 572.000000
A 14.000000 14.000000 0 0 1 1115.000000 572.000000
M 1090.000000 572.000000
A 14.000000 14.000000 0 0 1 1118.000000 572.000000
M 1094.000000 570.500000
A 13.500000 13.500000 0 0 1 1121.000000 570.500000
M 1098.000000 570.500000
A 13.500000 13.500000 0 0 1 1125.000000 570.500000
M 1101.000000 570.000000
A 13.000000 13.000000 0 0 1 1127.000000 570.000000
M 1105.000000 568.500000
A 12.500000 12.500000 0 0 1 1130.000000 568.500000
M 1108.000000 568.500000
A 12.500000 12.500000 0 0 1 1133.000000 568.500000
M 1112.000000 568.000000
A 12.000000 12.000000 0 0 1 1136.000000 568.000000
M 1115.000000 567.500000
A 11.500000 11.500000 0 0 1 1138.000000 567.500000
M 1119.000000 566.500000
A 11.500000 11.500000 0 0 1 1142.000000 566.500000
M 1123.000000 566.000000
A 11.000000 11.000000 0 0 1 1145.000000 566.000000
M 1126.000000 566.000000
A 11.000000 11.000000 0 0 1 1148.000000 566.000000
M 1130.000000 564.500000
A 10.500000 10.500000 0 0 1 1151.000000 564.500000
M 1133.000000 564.000000
A 10.000000 10.000000 0 0 1 1153.000000 564.000000
M 1137.000000 564.000000
A 10.000000 10.000000 0 0 1 1157.000000 564.000000
M 1141.000000 562.500000
A 9.500000 9.500000 0 0 1 1160.000000 562.500000
M 1144.000000 562.000000
A 9.000000 9.000000 0 0 1 1162.000000 562.000000
M 1148.000000 562.000000
A 9.000000 9.000000 0 0 1 1166.000000 562.000000
M 1151.000000 561.500000
A 8.500000 8.500000 0 0 1 1168.000000 561.500000
M 1155.000000 560.000000
A 8.000000 8.000000 0 0 1 1171.000000 560.000000
M 1159.000000 560.000000
A 8.000000 8.000000 0 0 1 1175.000000 560.000000
M 1162.000000 559.500000
A 7.500000 7.500000 0 0 1 1177.000000 559.500000
M 1166.000000 558.500000
A 7.500000 7.500000 0 0 1 1181.000000 558.500000
M 1169.000000 558.000000
A 7.000000 7.000000 0 0 1 1183.000000 558.000000
M 1173.000000 557.500000
A 6.500000 6.500000 0 0 1 1186.000000 557.500000
M 1177.000000 556.500000
A 6.500000 6.500000 0 0 1 1190.000000 556.500000
M 1180.000000 556.000000
A 6.000000 6.000000 0 0 1 1192.000000 556.000000
M 1184.000000 555.500000
A 5.500000 5.500000 0 0 1 1195.000000 555.500000
M 1187.000000 555.500000
A 5.500000 5.500000 0 0 1 1198.000000 555.500000
M 1191.000000 554.000000
A 5.000000 5.000000 0 0 1 1201.000000 554.000000
M 1194.000000 553.500000
A 4.500000 4.500000 0 0 1 1203.000000 553.500000
M 1198.000000 553.500000
A 4.500000 4.500000 0 0 1 1207.000000 553.500000
M 1202.000000 552.000000
A 4.000000 4.000000 0 0 1 1210.000000 552.000000
M 1205.000000 552.000000
A 4.000000 4.000000 0 0 1 1213.000000 552.000000
M 1209.000000 551.500000
A 3.500000 3.500000 0 0 1 1216.000000 551.500000
M 1212.000000 550.000000
A 3.000000 3.000000 0 0 1 1218.000000 550.000000
M 1101.000000 138.500000
A 32.500000 32.500000 0 0 1 1036.000000 138.500000
M 1102.000000 140.000000
A 32.000000 32.000000 0 0 1 1038.000000 140.000000
M 1103.000000 141.500000
A 31.500000 31.500000 0 0 1 1040.000000 141.500000
M 1105.000000 143.000000
A 31.000000 31.000000 0 0 1 1043.000000 143.000000
M 1105.000000 145.000000
A 30.000000 30.000000 0 0 1 1045.000000 145.000000
M 1107.000000 146.500000
A 29.500000 29.500000 0 0 1 1048.000000 146.500000
M 1108.000000 148.000000
A 29.000000 29.000000 0 0 1 1050.000000 148.000000
M 1110.000000 150.500000
A 28.500000 28.500000 0 0 1 1053.000000 150.500000
M 1111.000000 152.000000
A 28.000000 28.000000 0 0 1 1055.000000 152.000000
M 1111.000000 153.000000
A 27.000000 27.000000 0 0 1 1057.000000 153.000000
M 1113.000000 154.500000
A 26.500000 26.500000 0 0 1 1060.000000 154.500000
M 1114.000000 157.000000
A 26.000000 26.000000 0 0 1 1062.000000 157.000000
M 1116.000000 158.500000
A 25.500000 25.500000 0 0 1 1065.000000 158.500000
M 1117.000000 160.000000
A 25.000000 25.000000 0 0 1 1067.000000 160.000000
M 1118.000000 162.000000
A 24.000000 24.000000 0 0 1 1070.000000 162.000000
M 1119.000000 163.500000
A 23.500000 23.500000 0 0 1 1072.000000 163.500000
M 1120.000000 165.000000
A 23.000000 23.000000 0 0 1 1074.000000 165.000000
M 1122.000000 166.500000
A 22.500000 22.500000 0 0 1 1077.000000 166.500000
M 1122.000000 168.500000
A 21.500000 21.500000 0 0 1 1079.000000 168.500000
M 1124.000000 170.000000
A 21.000000 21.000000 0 0 1 1082.000000 170.000000
M 1125.000000 171.500000
A 20.500000 20.500000 0 0 1 1084.000000 171.500000
M 1127.000000 173.000000
A 20.000000 20.000000 0 0 1 1087.000000 173.000000
M 1128.000000 175.500000
A 19.500000 19.500000 0 0 1 1089.000000 175.500000
M 1128.000000 176.500000
A 18.500000 18.500000 0 0 1 1091.000000 176.500000
M 1130.000000 178.000000
A 18.000000 18.000000 0 0 1 1094.000000 178.000000
M 1131.000000 180.500000
A 17.500000 17.500000 0 0 1 1096.000000 180.500000
M 1133.000000 182.000000
A 17.000000 17.000000 0 0 1 1099.000000 182.000000
M 1134.000000 183.500000
A 16.500000 16.500000 0 0 1 1101.000000 183.500000
M 1135.000000 184.500000
A 15.500000 15.500000 0 0 1 1104.000000 184.500000
M 1136.000000 187.000000
A 15.000000 15.000000 0 0 1 1106.000000 187.000000
M 1137.000000 188.500000
A 14.500000 14.500000 0 0 1 1108.000000 188.500000
M 1139.000000 190.000000
A 14.000000 14.000000 0 0 1 1111.000000 190.000000
M 1140.000000 192.500000
A 13.500000 13.500000 0 0 1 1113.000000 192.500000
M 1141.000000 193.500000
A 12.500000 12.500000 0 0 1 1116.000000 193.500000
M 1142.000000 195.000000
A 12.000000 12.000000 0 0 1 1118.000000 195.000000
M 1144.000000 196.500000
A 11.500000 11.500000 0 0 1 1121.000000 196.500000
M 1145.000000 199.000000
A 11.000000 11.000000 0 0 1 1123.000000 199.000000
M 1146.000000 200.500000
A 10.500000 10.500000 0 0 1 1125.000000 200.500000
M 1147.000000 201.500000
A 9.500000 9.500000 0 0 1 1128.000000 201.500000
M 1148.000000 203.000000
A 9.000000 9.000000 0 0 1 1130.000000 203.000000
M 1150.000000 205.500000
A 8.500000 8.500000 0 0 1 1133.000000 205.500000
M 1151.000000 207.000000
A 8.000000 8.000000 0 0 1 1135.000000 207.000000
M 1151.000000 208.000000
A 7.000000 7.000000 0 0 1 1137.000000 208.000000
M 1153.000000 210.500000
A 6.500000 6.500000 0 0 1 1140.000000 210.500000
M 1154.000000 212.000000
A 6.000000 6.000000 0 0 1 1142.000000 212.000000
M 1156.000000 213.500000
A 5.500000 5.500000 0 0 1 1145.000000 213.500000
M 1157.000000 215.000000
A 5.000000 5.000000 0 0 1 1147.000000 215.000000
M 1158.000000 217.000000
A 4.000000 4.000000 0 0 1 1150.000000 217.000000
M 1159.000000 218.500000
A 3.500000 3.500000 0 0 1 1152.000000 218.500000
M 1160.000000 220.000000
A 3.000000 3.000000 0 0 1 1154.000000 220.000000
M 1162.000000 221.500000
A 2.500000 2.500000 0 0 1 1157.000000 221.500000
M 1163.000000 224.000000
A 2.000000 2.000000 0 0 1 1159.000000 224.000000
M 1164.000000 225.000000
A 1.000000 1.000000 0 0 1 1162.000000 225.000000
M 1165.000000 226.500000
A 0.500000 0.500000 0 0 1 1164.000000 226.500000
M 1167.000000 229.500000
A 0.500000 0.500000 0 0 1 1168.000000 229.500000
M 1168.000000 230.500000
A 0.500000 0.500000 0 0 1 1169.000000 230.500000
M 1169.000000 232.000000
A 1.000000 1.000000 0 0 1 1171.000000 232.000000
M 1170.000000 234.000000
A 2.000000 2.000000 0 0 1 1174.000000 234.000000
M 1171.000000 235.500000
A 2.500000 2.500000 0 0 1 1176.000000 235.500000
M 1173.000000 237.000000
A 3.000000 3.000000 0 0 1 1179.000000 237.000000
M 1174.000000 238.500000
A 3.500000 3.500000 0 0 1 1181.000000 238.500000
M 1175.000000 240.500000
A 4.500000 4.500000 0 0 1 1184.000000 240.500000
M 1176.000000 242.000000
A 5.000000 5.000000 0 0 1 1186.000000 242.000000
M 1178.000000 243.500000
A 5.500000 5.500000 0 0 1 1189.000000 243.500000
M 1179.000000 245.000000
A 6.000000 6.000000 0 0 1 1191.000000 245.000000
M 1180.000000 246.500000
A 6.500000 6.500000 0 0 1 1193.000000 246.500000
M 1181.000000 248.500000
A 7.500000 7.500000 0 0 1 1196.000000 248.500000
M 1182.000000 250.000000
A 8.000000 8.000000 0 0 1 1198.000000 250.000000
M 1184.000000 252.500000
A 8.500000 8.500000 0 0 1 1201.000000 252.500000
M 1185.000000 254.000000
A 9.000000 9.000000 0 0 1 1203.000000 254.000000
M 1186.000000 255.500000
A 9.500000 9.500000 0 0 1 1205.000000 255.500000
M 1187.000000 257.500000
A 10.500000 10.500000 0 0 1 1208.000000 257.500000
M 1188.000000 259.000000
A 11.000000 11.000000 0 0 1 1210.000000 259.000000
M 1190.000000 260.500000
A 11.500000 11.500000 0 0 1 1213.000000 260.500000
M 1191.000000 262.000000
A 12.000000 12.000000 0 0 1 1215.000000 262.000000
M 1192.000000 263.500000
A 12.500000 12.500000 0 0 1 1217.000000 263.500000
M 1193.000000 265.500000
A 13.500000 13.500000 0 0 1 1220.000000 265.500000
M 1195.000000 267.000000
A 14.000000 14.000000 0 0 1 1223.000000 267.000000
M 1196.000000 268.500000
A 14.500000 14.500000 0 0 1 1225.000000 268.500000
M 1101.000000 142.000000
A 33.000000 33.000000 0 0 1 1035.000000 142.000000
M 1101.000000 146.000000
A 33.000000 33.000000 0 0 1 1035.000000 146.000000
M 1101.000000 150.000000
A 33.000000 33.000000 0 0 1 1035.000000 150.000000
M 1102.000000 154.500000
A 33.500000 33.500000 0 0 1 1035.000000 154.500000
M 1102.000000 157.500000
A 33.500000 33.500000 0 0 1 1035.000000 157.500000
M 1103.000000 162.000000
A 34.000000 34.000000 0 0 1 1035.000000 162.000000
M 1102.000000 166.000000
A 34.000000 34.000000 0 0 1 1034.000000 166.000000
M 1102.000000 170.000000
A 34.000000 34.000000 0 0 1 1034.000000 170.000000
M 1103.000000 173.500000
A 34.500000 34.500000 0 0 1 1034.000000 173.500000
M 1103.000000 177.500000
A 34.500000 34.500000 0 0 1 1034.000000 177.500000
M 1104.000000 182.000000
A 35.000000 35.000000 0 0 1 1034.000000 182.000000
M 1104.000000 186.000000
A 35.000000 35.000000 0 0 1 1034.000000 186.000000
M 1103.000000 189.000000
A 35.000000 35.000000 0 0 1 1033.000000 189.000000
M 1104.000000 193.500000
A 35.500000 35.500000 0 0 1 1033.000000 193.500000
M 1104.000000 197.500000
A 35.500000 35.500000 0 0 1 1033.000000 197.500000
M 1105.000000 202.000000
A 36.000000 36.000000 0 0 1 1033.000000 202.000000
M 1105.000000 205.000000
A 36.000000 36.000000 0 0 1 1033.000000 205.000000
M 1104.000000 209.000000
A 36.000000 36.000000 0 0 1 1032.000000 209.000000
M 1105.000000 213.500000
A 36.500000 36.500000 0 0 1 1032.000000 213.500000
M 1105.000000 217.500000
A 36.500000 36.500000 0 0 1 1032.000000 217.500000
M 1106.000000 221.000000
A 37.000000 37.000000 0 0 1 1032.000000 221.000000
M 1106.000000 225.000000
A 37.000000 37.000000 0 0 1 1032.000000 225.000000
M 1106.000000 229.000000
A 37.000000 37.000000 0 0 1 1032.000000 229.000000
M 1106.000000 233.500000
A 37.500000 37.500000 0 0 1 1031.000000 233.500000
M 1106.000000 236.500000
A 37.500000 37.500000 0 0 1 1031.000000 236.500000
M 1107.000000 241.000000
A 38.000000 38.000000 0 0 1 1031.000000 241.000000
M 1107.000000 245.000000
A 38.000000 38.000000 0 0 1 1031.000000 245.000000
M 1107.000000 249.000000
A 38.000000 38.000000 0 0 1 1031.000000 249.000000
M 1108.000000 252.500000
A 38.500000 38.500000 0 0 1 1031.000000 252.500000
M 1107.000000 256.500000
A 38.500000 38.500000 0 0 1 1030.000000 256.500000
M 1108.000000 261.000000
A 39.000000 39.000000 0 0 1 1030.000000 261.000000
M 1108.000000 265.000000
A 39.000000 39.000000 0 0 1 1030.000000 265.000000
M 1108.000000 268.000000
A 39.000000 39.000000 0 0 1 1030.000000 268.000000
M 1109.000000 272.500000
A 39.500000 39.500000 0 0 1 1030.000000 272.500000
M 1109.000000 276.500000
A 39.500000 39.500000 0 0 1 1030.000000 276.500000
M 1109.000000 281.000000
A 40.000000 40.000000 0 0 1 1029.000000 281.000000
M 1109.000000 285.000000
A 40.000000 40.000000 0 0 1 1029.000000 285.000000
M 1109.000000 288.000000
A 40.000000 40.000000 0 0 1 1029.000000 288.000000
M 1110.000000 292.500000
A 40.500000 40.500000 0 0 1 1029.000000 292.500000
M 1110.000000 296.500000
A 40.500000 40.500000 0 0 1 1029.000000 296.500000
M 1111.000000 301.000000
A 41.000000 41.000000 0 0 1 1029.000000 301.000000
M 1110.000000 304.000000
A 41.000000 41.000000 0 0 1 1028.000000 304.000000
M 1110.000000 308.000000
A 41.000000 41.000000 0 0 1 1028.000000 308.000000
M 1111.000000 312.500000
A 41.500000 41.500000 0 0 1 1028.000000 312.500000
M 1111.000000 316.500000
A 41.500000 41.500000 0 0 1 1028.000000 316.500000
M 1112.000000 320.000000
A 42.000000 42.000000 0 0 1 1028.000000 320.000000
M 1112.000000 324.000000
A 42.000000 42.000000 0 0 1 1028.000000 324.000000
M 1111.000000 328.000000
A 42.000000 42.000000 0 0 1 1027.000000 328.000000
M 1112.000000 332.500000
A 42.500000 42.500000 0 0 1 1027.000000 332.500000
M 1112.000000 335.500000
A 42.500000 42.500000 0 0 1 1027.000000 335.500000
M 1113.000000 340.000000
A 43.000000 43.000000 0 0 1 1027.000000 340.000000
M 1113.000000 344.000000
A 43.000000 43.000000 0 0 1 1027.000000 344.000000
M 1112.000000 348.000000
A 43.000000 43.000000 0 0 1 1026.000000 348.000000
M 1113.000000 351.500000
A 43.500000 43.500000 0 0 1 1026.000000 351.500000
M 1113.000000 355.500000
A 43.500000 43.500000 0 0 1 1026.000000 355.500000
M 1114.000000 360.000000
A 44.000000 44.000000 0 0 1 1026.000000 360.000000
M 1114.000000 364.000000
A 44.000000 44.000000 0 0 1 1026.000000 364.000000
M 1114.000000 367.000000
A 44.000000 44.000000 0 0 1 1026.000000 367.000000
M 1114.000000 371.500000
A 44.500000 44.500000 0 0 1 1025.000000 371.500000
M 1114.000000 375.500000
A 44.500000 44.500000 0 0 1 1025.000000 375.500000
M 1115.000000 380.000000
A 45.000000 45.000000 0 0 1 1025.000000 380.000000
M 1115.000000 383.000000
A 45.000000 45.000000 0 0 1 1025.000000 383.000000
M 1115.000000 387.000000
A 45.000000 45.000000 0 0 1 1025.000000 387.000000
M 1116.000000 391.500000
A 45.500000 45.500000 0 0 1 1025.000000 391.500000
M 1115.000000 395.500000
A 45.500000 45.500000 0 0 1 1024.000000 395.500000
M 1116.000000 399.000000
A 46.000000 46.000000 0 0 1 1024.000000 399.000000
M 1116.000000 403.000000
A 46.000000 46.000000 0 0 1 1024.000000 403.000000
M 1116.000000 407.000000
A 46.000000 46.000000 0 0 1 1024.000000 407.000000
M 1117.000000 411.500000
A 46.500000 46.500000 0 0 1 1024.000000 411.500000
M 1117.000000 414.500000
A 46.500000 46.500000 0 0 1 1024.000000 414.500000
M 1117.000000 419.000000
A 47.000000 47.000000 0 0 1 1023.000000 419.000000
M 1117.000000 423.000000
A 47.000000 47.000000 0 0 1 1023.000000 423.000000
M 1117.000000 427.000000
A 47.000000 47.000000 0 0 1 1023.000000 427.000000
M 1118.000000 430.500000
A 47.500000 47.500000 0 0 1 1023.000000 430.500000
M 1118.000000 434.500000
A 47.500000 47.500000 0 0 1 1023.000000 434.500000
M 1119.000000 439.000000
A 48.000000 48.000000 0 0 1 1023.000000 439.000000
M 1118.000000 443.000000
A 48.000000 48.000000 0 0 1 1022.000000 443.000000
M 1118.000000 446.000000
A 48.000000 48.000000 0 0 1 1022.000000 446.000000
M 1119.000000 450.500000
A 48.500000 48.500000 0 0 1 1022.000000 450.500000
M 1120.000000 451.500000
A 47.500000 47.500000 0 0 1 1025.000000 451.500000
M 1121.000000 453.000000
A 47.000000 47.000000 0 0 1 1027.000000 453.000000
M 1123.000000 454.500000
A 46.500000 46.500000 0 0 1 1030.000000 454.500000
M 1124.000000 456.000000
A 46.000000 46.000000 0 0 1 1032.000000 456.000000
M 1125.000000 457.000000
A 45.000000 45.000000 0 0 1 1035.000000 457.000000
M 1126.000000 458.500000
A 44.500000 44.500000 0 0 1 1037.000000 458.500000
M 1128.000000 459.000000
A 44.000000 44.000000 0 0 1 1040.000000 459.000000
M 1128.000000 460.000000
A 43.000000 43.000000 0 0 1 1042.000000 460.000000
M 1130.000000 461.500000
A 42.500000 42.500000 0 0 1 1045.000000 461.500000
M 1131.000000 463.000000
A 42.000000 42.000000 0 0 1 1047.000000 463.000000
M 1132.000000 464.000000
A 41.000000 41.000000 0 0 1 1050.000000 464.000000
M 1133.000000 465.500000
A 40.500000 40.500000 0 0 1 1052.000000 465.500000
M 1135.000000 467.000000
A 40.000000 40.000000 0 0 1 1055.000000 467.000000
M 1136.000000 468.500000
A 39.500000 39.500000 0 0 1 1057.000000 468.500000
M 1137.000000 469.500000
A 38.500000 38.500000 0 0 1 1060.000000 469.500000
M 1138.000000 471.000000
A 38.000000 38.000000 0 0 1 1062.000000 471.000000
M 1140.000000 472.500000
A 37.500000 37.500000 0 0 1 1065.000000 472.500000
M 1141.000000 472.500000
A 36.500000 36.500000 0 0 1 1068.000000 472.500000
M 1142.000000 474.000000
A 36.000000 36.000000 0 0 1 1070.000000 474.000000
M 1144.000000 475.500000
A 35.500000 35.500000 0 0 1 1073.000000 475.500000
M 1144.000000 476.500000
A 34.500000 34.500000 0 0 1 1075.000000 476.500000
M 1146.000000 478.000000
A 34.000000 34.000000 0 0 1 1078.000000 478.000000
M 1147.000000 479.500000
A 33.500000 33.500000 0 0 1 1080.000000 479.500000
M 1149.000000 481.000000
A 33.000000 33.000000 0 0 1 1083.000000 481.000000
M 1149.000000 482.000000
A 32.000000 32.000000 0 0 1 1085.000000 482.000000
M 1151.000000 483.500000
A 31.500000 31.500000 0 0 1 1088.000000 483.500000
M 1152.000000 485.000000
A 31.000000 31.000000 0 0 1 1090.000000 485.000000
M 1153.000000 486.000000
A 30.000000 30.000000 0 0 1 1093.000000 486.000000
M 1154.000000 486.500000
A 29.500000 29.500000 0 0 1 1095.000000 486.500000
M 1156.000000 488.000000
A 29.000000 29.000000 0 0 1 1098.000000 488.000000
M 1157.000000 489.500000
A 28.500000 28.500000 0 0 1 1100.000000 489.500000
M 1158.000000 490.500000
A 27.500000 27.500000 0 0 1 1103.000000 490.500000
M 1159.000000 492.000000
A 27.000000 27.000000 0 0 1 1105.000000 492.000000
M 1161.000000 493.500000
A 26.500000 26.500000 0 0 1 1108.000000 493.500000
M 1161.000000 494.500000
A 25.500000 25.500000 0 0 1 1110.000000 494.500000
M 1163.000000 496.000000
A 25.000000 25.000000 0 0 1 1113.000000 496.000000
M 1165.000000 497.500000
A 24.500000 24.500000 0 0 1 1116.000000 497.500000
M 1165.000000 498.500000
A 23.500000 23.500000 0 0 1 1118.000000 498.500000
M 1167.000000 500.000000
A 23.000000 23.000000 0 0 1 1121.000000 500.000000
M 1168.000000 500.500000
A 22.500000 22.500000 0 0 1 1123.000000 500.500000
M 1170.000000 502.000000
A 22.000000 22.000000 0 0 1 1126.000000 502.000000
M 1170.000000 503.000000
A 21.000000 21.000000 0 0 1 1128.000000 503.000000
M 1172.000000 504.500000
A 20.500000 20.500000 0 0 1 1131.000000 504.500000
M 1173.000000 506.000000
A 20.000000 20.000000 0 0 1 1133.000000 506.000000
M 1174.000000 507.000000
A 19.000000 19.000000 0 0 1 1136.000000 507.000000
M 1175.000000 508.500000
A 18.500000 18.500000 0 0 1 1138.000000 508.500000
M 1177.000000 510.000000
A 18.000000 18.000000 0 0 1 1141.000000 510.000000
M 1178.000000 511.500000
A 17.500000 17.500000 0 0 1 1143.000000 511.500000
M 1179.000000 512.500000
A 16.500000 16.500000 0 0 1 1146.000000 512.500000
M 1180.000000 514.000000
A 16.000000 16.000000 0 0 1 1148.000000 514.000000
M 1182.000000 514.500000
A 15.500000 15.500000 0 0 1 1151.000000 514.500000
M 1182.000000 515.500000
A 14.500000 14.500000 0 0 1 1153.000000 515.500000
M 1184.000000 517.000000
A 14.000000 14.000000 0 0 1 1156.000000 517.000000
M 1186.000000 518.500000
A 13.500000 13.500000 0 0 1 1159.000000 518.500000
M 1186.000000 519.500000
A 12.500000 12.500000 0 0 1 1161.000000 519.500000
M 1188.000000 521.000000
A 12.000000 12.000000 0 0 1 1164.000000 521.000000
M 1189.000000 522.500000
A 11.500000 11.500000 0 0 1 1166.000000 522.500000
M 1191.000000 524.000000
A 11.000000 11.000000 0 0 1 1169.000000 524.000000
M 1191.000000 525.000000
A 10.000000 10.000000 0 0 1 1171.000000 525.000000
M 1193.000000 526.500000
A 9.500000 9.500000 0 0 1 1174.000000 526.500000
M 1194.000000 527.000000
A 9.000000 9.000000 0 0 1 1176.000000 527.000000
M 1195.000000 528.000000
A 8.000000 8.000000 0 0 1 1179.000000 528.000000
M 1196.000000 529.500000
A 7.500000 7.500000 0 0 1 1181.000000 529.500000
M 1198.000000 531.000000
A 7.000000 7.000000 0 0 1 1184.000000 531.000000
M 1198.000000 532.000000
A 6.000000 6.000000 0 0 1 1186.000000 532.000000
M 1200.000000 533.500000
A 5.500000 5.500000 0 0 1 1189.000000 533.500000
M 1201.000000 535.000000
A 5.000000 5.000000 0 0 1 1191.000000 535.000000
M 1203.000000 536.500000
A 4.500000 4.500000 0 0 1 1194.000000 536.500000
M 1203.000000 537.500000
A 3.500000 3.500000 0 0 1 1196.000000 537.500000
M 1205.000000 539.000000
A 3.000000 3.000000 0 0 1 1199.000000 539.000000
M 1206.000000 540.500000
A 2.500000 2.500000 0 0 1 1201.000000 540.500000
M 1207.000000 540.500000
A 1.500000 1.500000 0 0 1 1204.000000 540.500000
M 1209.000000 542.000000
A 1.000000 1.000000 0 0 1 1207.000000 542.000000
M 1210.000000 543.500000
A 0.500000 0.500000 0 0 1 1209.000000 543.500000
M 1211.000000 545.500000
A 0.500000 0.500000 0 0 1 1212.000000 545.500000
M 1212.000000 546.000000
A 1.000000 1.000000 0 0 1 1214.000000 546.000000
M 1214.000000 547.500000
A 1.500000 1.500000 0 0 1 1217.000000 547.500000
M 1215.000000 549.000000
A 2.000000 2.000000 0 0 1 1219.000000 549.000000
M 805.000000 219.500000
A 3.500000 3.500000 0 0 1 798.000000 219.500000
M 808.000000 218.500000
A 3.500000 3.500000 0 0 1 801.000000 218.500000
M 812.000000 217.000000
A 4.000000 4.000000 0 0 1 804.000000 217.000000
M 816.000000 216.500000
A 4.500000 4.500000 0 0 1 807.000000 216.500000
M 820.000000 216.000000
A 5.000000 5.000000 0 0 1 810.000000 216.000000
M 823.000000 214.000000
A 5.000000 5.000000 0 0 1 813.000000 214.000000
M 827.000000 213.500000
A 5.500000 5.500000 0 0 1 816.000000 213.500000
M 831.000000 212.000000
A 6.000000 6.000000 0 0 1 819.000000 212.000000
M 836.000000 211.500000
A 6.500000 6.500000 0 0 1 823.000000 211.500000
M 839.000000 209.500000
A 6.500000 6.500000 0 0 1 826.000000 209.500000
M 843.000000 209.000000
A 7.000000 7.000000 0 0 1 829.000000 209.000000
M 847.000000 208.500000
A 7.500000 7.500000 0 0 1 832.000000 208.500000
M 851.000000 207.000000
A 8.000000 8.000000 0 0 1 835.000000 207.000000
M 854.000000 206.000000
A 8.000000 8.000000 0 0 1 838.000000 206.000000
M 858.000000 204.500000
A 8.500000 8.500000 0 0 1 841.000000 204.500000
M 862.000000 204.000000
A 9.000000 9.000000 0 0 1 844.000000 204.000000
M 866.000000 203.500000
A 9.500000 9.500000 0 0 1 847.000000 203.500000
M 869.000000 201.500000
A 9.500000 9.500000 0 0 1 850.000000 201.500000
M 873.000000 201.000000
A 10.000000 10.000000 0 0 1 853.000000 201.000000
M 877.000000 199.500000
A 10.500000 10.500000 0 0 1 856.000000 199.500000
M 881.000000 199.000000
A 11.000000 11.000000 0 0 1 859.000000 199.000000
M 884.000000 197.000000
A 11.000000 11.000000 0 0 1 862.000000 197.000000
M 888.000000 196.500000
A 11.500000 11.500000 0 0 1 865.000000 196.500000
M 892.000000 196.000000
A 12.000000 12.000000 0 0 1 868.000000 196.000000
M 896.000000 194.500000
A 12.500000 12.500000 0 0 1 871.000000 194.500000
M 899.000000 193.500000
A 12.500000 12.500000 0 0 1 874.000000 193.500000
M 903.000000 192.000000
A 13.000000 13.000000 0 0 1 877.000000 192.000000
M 907.000000 191.500000
A 13.500000 13.500000 0 0 1 880.000000 191.500000
M 911.000000 191.000000
A 14.000000 14.000000 0 0 1 883.000000 191.000000
M 914.000000 189.000000
A 14.000000 14.000000 0 0 1 886.000000 189.000000
M 918.000000 188.500000
A 14.500000 14.500000 0 0 1 889.000000 188.500000
M 923.000000 187.000000
A 15.000000 15.000000 0 0 1 893.000000 187.000000
M 927.000000 186.500000
A 15.500000 15.500000 0 0 1 896.000000 186.500000
M 930.000000 184.500000
A 15.500000 15.500000 0 0 1 899.000000 184.500000
M 934.000000 184.000000
A 16.000000 16.000000 0 0 1 902.000000 184.000000
M 938.000000 183.500000
A 16.500000 16.500000 0 0 1 905.000000 183.500000
M 942.000000 182.000000
A 17.000000 17.000000 0 0 1 908.000000 182.000000
M 945.000000 181.000000
A 17.000000 17.000000 0 0 1 911.000000 181.000000
M 949.000000 179.500000
A 17.500000 17.500000 0 0 1 914.000000 179.500000
M 953.000000 179.000000
A 18.000000 18.000000 0 0 1 917.000000 179.000000
M 957.000000 178.500000
A 18.500000 18.500000 0 0 1 920.000000 178.500000
M 960.000000 176.500000
A 18.500000 18.500000 0 0 1 923.000000 176.500000
M 964.000000 176.000000
A 19.000000 19.000000 0 0 1 926.000000 176.000000
M 968.000000 174.500000
A 19.500000 19.500000 0 0 1 929.000000 174.500000
M 972.000000 174.000000
A 20.000000 20.000000 0 0 1 932.000000 174.000000
M 975.000000 172.000000
A 20.000000 20.000000 0 0 1 935.000000 172.000000
M 979.000000 171.500000
A 20.500000 20.500000 0 0 1 938.000000 171.500000
M 983.000000 171.000000
A 21.000000 21.000000 0 0 1 941.000000 171.000000
M 987.000000 169.500000
A 21.500000 21.500000 0 0 1 944.000000 169.500000
M 990.000000 168.500000
A 21.500000 21.500000 0 0 1 947.000000 168.500000
M 994.000000 167.000000
A 22.000000 22.000000 0 0 1 950.000000 167.000000
M 998.000000 166.500000
A 22.500000 22.500000 0 0 1 953.000000 166.500000
M 1002.000000 166.000000
A 23.000000 23.000000 0 0 1 956.000000 166.000000
M 1005.000000 164.000000
A 23.000000 23.000000 0 0 1 959.000000 164.000000
M 1010.000000 163.500000
A 23.500000 23.500000 0 0 1 963.000000 163.500000
M 1014.000000 162.000000
A 24.000000 24.000000 0 0 1 966.000000 162.000000
M 1018.000000 161.500000
A 24.500000 24.500000 0 0 1 969.000000 161.500000
M 1021.000000 159.500000
A 24.500000 24.500000 0 0 1 972.000000 159.500000
M 1025.000000 159.000000
A 25.000000 25.000000 0 0 1 975.000000 159.000000
M 1029.000000 158.500000
A 25.500000 25.500000 0 0 1 978.000000 158.500000
M 1033.000000 157.000000
A 26.000000 26.000000 0 0 1 981.000000 157.000000
M 1036.000000 156.000000
A 26.000000 26.000000 0 0 1 984.000000 156.000000
M 1040.000000 154.500000
A 26.500000 26.500000 0 0 1 987.000000 154.500000
M 1044.000000 154.000000
A 27.000000 27.000000 0 0 1 990.000000 154.000000
M 1048.000000 153.500000
A 27.500000 27.500000 0 0 1 993.000000 153.500000
M 1051.000000 151.500000
A 27.500000 27.500000 0 0 1 996.000000 151.500000
M 1055.000000 151.000000
A 28.000000 28.000000 0 0 1 999.000000 151.000000
M 1059.000000 149.500000
A 28.500000 28.500000 0 0 1 1002.000000 149.500000
M 1063.000000 149.000000
A 29.000000 29.000000 0 0 1 1005.000000 149.000000
M 1066.000000 147.000000
A 29.000000 29.000000 0 0 1 1008.000000 147.000000
M 1070.000000 146.500000
A 29.500000 29.500000 0 0 1 1011.000000 146.500000
M 1074.000000 146.000000
A 30.000000 30.000000 0 0 1 1014.000000 146.000000
M 1078.000000 144.500000
A 30.500000 30.500000 0 0 1 1017.000000 144.500000
M 1081.000000 143.500000
A 30.500000 30.500000 0 0 1 1020.000000 143.500000
M 1085.000000 142.000000
A 31.000000 31.000000 0 0 1 1023.000000 142.000000
M 1089.000000 141.500000
A 31.500000 31.500000 0 0 1 1026.000000 141.500000
M 1093.000000 141.000000
A 32.000000 32.000000 0 0 1 1029.000000 141.000000
M 1097.000000 139.000000
A 32.000000 32.000000 0 0 1 1033.000000 139.000000
M 811.000000 512.000000
A 17.000000 17.000000 0 0 1 777.000000 512.000000
M 814.000000 511.000000
A 17.000000 17.000000 0 0 1 780.000000 511.000000
M 819.000000 510.500000
A 17.500000 17.500000 0 0 1 784.000000 510.500000
M 823.000000 509.000000
A 18.000000 18.000000 0 0 1 787.000000 509.000000
M 827.000000 508.500000
A 18.500000 18.500000 0 0 1 790.000000 508.500000
M 831.000000 508.000000
A 19.000000 19.000000 0 0 1 793.000000 508.000000
M 835.000000 507.500000
A 19.500000 19.500000 0 0 1 796.000000 507.500000
M 838.000000 506.500000
A 19.500000 19.500000 0 0 1 799.000000 506.500000
M 842.000000 505.000000
A 20.000000 20.000000 0 0 1 802.000000 505.000000
M 847.000000 504.500000
A 20.500000 20.500000 0 0 1 806.000000 504.500000
M 851.000000 504.000000
A 21.000000 21.000000 0 0 1 809.000000 504.000000
M 855.000000 503.500000
A 21.500000 21.500000 0 0 1 812.000000 503.500000
M 858.000000 502.500000
A 21.500000 21.500000 0 0 1 815.000000 502.500000
M 862.000000 501.000000
A 22.000000 22.000000 0 0 1 818.000000 501.000000
M 866.000000 500.500000
A 22.500000 22.500000 0 0 1 821.000000 500.500000
M 870.000000 500.000000
A 23.000000 23.000000 0 0 1 824.000000 500.000000
M 874.000000 499.500000
A 23.500000 23.500000 0 0 1 827.000000 499.500000
M 878.000000 498.500000
A 23.500000 23.500000 0 0 1 831.000000 498.500000
M 882.000000 498.000000
A 24.000000 24.000000 0 0 1 834.000000 498.000000
M 886.000000 496.500000
A 24.500000 24.500000 0 0 1 837.000000 496.500000
M 890.000000 496.000000
A 25.000000 25.000000 0 0 1 840.000000 496.000000
M 894.000000 495.500000
A 25.500000 25.500000 0 0 1 843.000000 495.500000
M 897.000000 494.500000
A 25.500000 25.500000 0 0 1 846.000000 494.500000
M 901.000000 494.000000
A 26.000000 26.000000 0 0 1 849.000000 494.000000
M 906.000000 492.500000
A 26.500000 26.500000 0 0 1 853.000000 492.500000
M 910.000000 492.000000
A 27.000000 27.000000 0 0 1 856.000000 492.000000
M 914.000000 491.500000
A 27.500000 27.500000 0 0 1 859.000000 491.500000
M 917.000000 490.500000
A 27.500000 27.500000 0 0 1 862.000000 490.500000
M 921.000000 490.000000
A 28.000000 28.000000 0 0 1 865.000000 490.000000
M 925.000000 488.500000
A 28.500000 28.500000 0 0 1 868.000000 488.500000
M 929.000000 488.000000
A 29.000000 29.000000 0 0 1 871.000000 488.000000
M 934.000000 487.500000
A 29.500000 29.500000 0 0 1 875.000000 487.500000
M 938.000000 487.000000
A 30.000000 30.000000 0 0 1 878.000000 487.000000
M 941.000000 486.000000
A 30.000000 30.000000 0 0 1 881.000000 486.000000
M 945.000000 484.500000
A 30.500000 30.500000 0 0 1 884.000000 484.500000
M 949.000000 484.000000
A 31.000000 31.000000 0 0 1 887.000000 484.000000
M 953.000000 483.500000
A 31.500000 31.500000 0 0 1 890.000000 483.500000
M 957.000000 483.000000
A 32.000000 32.000000 0 0 1 893.000000 483.000000
M 961.000000 482.000000
A 32.000000 32.000000 0 0 1 897.000000 482.000000
M 965.000000 481.500000
A 32.500000 32.500000 0 0 1 900.000000 481.500000
M 969.000000 480.000000
A 33.000000 33.000000 0 0 1 903.000000 480.000000
M 973.000000 479.500000
A 33.500000 33.500000 0 0 1 906.000000 479.500000
M 977.000000 479.000000
A 34.000000 34.000000 0 0 1 909.000000 479.000000
M 980.000000 478.000000
A 34.000000 34.000000 0 0 1 912.000000 478.000000
M 984.000000 477.500000
A 34.500000 34.500000 0 0 1 915.000000 477.500000
M 988.000000 476.000000
A 35.000000 35.000000 0 0 1 918.000000 476.000000
M 993.000000 475.500000
A 35.500000 35.500000 0 0 1 922.000000 475.500000
M 997.000000 475.000000
A 36.000000 36.000000 0 0 1 925.000000 475.000000
M 1000.000000 474.000000
A 36.000000 36.000000 0 0 1 928.000000 474.000000
M 1004.000000 473.500000
A 36.500000 36.500000 0 0 1 931.000000 473.500000
M 1008.000000 472.000000
A 37.000000 37.000000 0 0 1 934.000000 472.000000
M 1012.000000 471.500000
A 37.500000 37.500000 0 0 1 937.000000 471.500000
M 1016.000000 471.000000
A 38.000000 38.000000 0 0 1 940.000000 471.000000
M 1021.000000 470.500000
A 38.500000 38.500000 0 0 1 944.000000 470.500000
M 1024.000000 469.500000
A 38.500000 38.500000 0 0 1 947.000000 469.500000
M 1028.000000 468.000000
A 39.000000 39.000000 0 0 1 950.000000 468.000000
M 1032.000000 467.500000
A 39.500000 39.500000 0 0 1 953.000000 467.500000
M 1036.000000 467.000000
A 40.000000 40.000000 0 0 1 956.000000 467.000000
M 1040.000000 466.500000
A 40.500000 40.500000 0 0 1 959.000000 466.500000
M 1043.000000 465.500000
A 40.500000 40.500000 0 0 1 962.000000 465.500000
M 1048.000000 465.000000
A 41.000000 41.000000 0 0 1 966.000000 465.000000
M 1052.000000 463.500000
A 41.500000 41.500000 0 0 1 969.000000 463.500000
M 1056.000000 463.000000
A 42.000000 42.000000 0 0 1 972.000000 463.000000
M 1060.000000 462.500000
A 42.500000 42.500000 0 0 1 975.000000 462.500000
M 1063.000000 461.500000
A 42.500000 42.500000 0 0 1 978.000000 461.500000
M 1067.000000 461.000000
A 43.000000 43.000000 0 0 1 981.000000 461.000000
M 1071.000000 459.500000
A 43.500000 43.500000 0 0 1 984.000000 459.500000
M 1076.000000 459.000000
A 44.000000 44.000000 0 0 1 988.000000 459.000000
M 1080.000000 458.500000
A 44.500000 44.500000 0 0 1 991.000000 458.500000
M 1083.000000 457.500000
A 44.500000 44.500000 0 0 1 994.000000 457.500000
M 1087.000000 457.000000
A 45.000000 45.000000 0 0 1 997.000000 457.000000
M 1091.000000 455.500000
A 45.500000 45.500000 0 0 1 1000.000000 455.500000
M 1095.000000 455.000000
A 46.000000 46.000000 0 0 1 1003.000000 455.000000
M 1099.000000 454.500000
A 46.500000 46.500000 0 0 1 1006.000000 454.500000
M 1102.000000 453.500000
A 46.500000 46.500000 0 0 1 1009.000000 453.500000
M 1107.000000 453.000000
A 47.000000 47.000000 0 0 1 1013.000000 453.000000
M 1111.000000 451.500000
A 47.500000 47.500000 0 0 1 1016.000000 451.500000
M 1115.000000 451.000000
A 48.000000 48.000000 0 0 1 1019.000000 451.000000
"/>
</svg>