<?xml version="1.0" encoding="UTF-8"?>
<svg width="859" height="475" viewBox="0 0 859 475" fill="none" xmlns="http://www.w3.org/2000/svg">
<path stroke="black" stroke-width="0.0500" d="
M 447.000000 312.500000
A 27.500000 27.500000 0 0 1 392.000000 312.500000
M 446.000000 308.000000
A 26.000000 26.000000 0 0 1 394.000000 308.000000
M 446.000000 303.500000
A 24.500000 24.500000 0 0 1 397.000000 303.500000
M 445.000000 299.000000
A 23.000000 23.000000 0 0 1 399.000000 299.000000
M 444.000000 293.000000
A 21.000000 21.000000 0 0 1 402.000000 293.000000
M 443.000000 288.500000
A 19.500000 19.500000 0 0 1 404.000000 288.500000
M 443.000000 284.000000
A 18.000000 18.000000 0 0 1 407.000000 284.000000
M 442.000000 279.500000
A 16.500000 16.500000 0 0 1 409.000000 279.500000
M 442.000000 274.000000
A 15.000000 15.000000 0 0 1 412.000000 274.000000
M 441.000000 269.500000
A 13.500000 13.500000 0 0 1 414.000000 269.500000
M 440.000000 264.500000
A 11.500000 11.500000 0 0 1 417.000000 264.500000
M 439.000000 260.000000
A 10.000000 10.000000 0 0 1 419.000000 260.000000
M 438.000000 254.500000
A 8.500000 8.500000 0 0 1 421.000000 254.500000
M 438.000000 250.000000
A 7.000000 7.000000 0 0 1 424.000000 250.000000
M 437.000000 245.500000
A 5.500000 5.500000 0 0 1 426.000000 245.500000
M 437.000000 240.000000
A 4.000000 4.000000 0 0 1 429.000000 240.000000
M 436.000000 235.500000
A 2.500000 2.500000 0 0 1 431.000000 235.500000
M 435.000000 230.500000
A 0.500000 0.500000 0 0 1 434.000000 230.500000
M 435.000000 226.000000
A 1.000000 1.000000 0 0 1 437.000000 226.000000
M 434.000000 221.500000
A 2.500000 2.500000 0 0 1 439.000000 221.500000
M 433.000000 216.000000
A 4.000000 4.000000 0 0 1 441.000000 216.000000
M 432.000000 211.500000
A 5.500000 5.500000 0 0 1 443.000000 211.500000
M 432.000000 206.000000
A 7.000000 7.000000 0 0 1 446.000000 206.000000
M 431.000000 201.500000
A 8.500000 8.500000 0 0 1 448.000000 201.500000
M 430.000000 197.500000
A 10.500000 10.500000 0 0 1 451.000000 197.500000
M 430.000000 192.000000
A 12.000000 12.000000 0 0 1 454.000000 192.000000
M 429.000000 187.500000
A 13.500000 13.500000 0 0 1 456.000000 187.500000
M 428.000000 182.000000
A 15.000000 15.000000 0 0 1 458.000000 182.000000
M 428.000000 177.500000
A 16.500000 16.500000 0 0 1 461.000000 177.500000
M 427.000000 173.000000
A 18.000000 18.000000 0 0 1 463.000000 173.000000
M 426.000000 168.000000
A 20.000000 20.000000 0 0 1 466.000000 168.000000
M 426.000000 163.500000
A 21.500000 21.500000 0 0 1 469.000000 163.500000
M 430.000000 168.500000
A 22.500000 22.500000 0 0 1 475.000000 168.500000
M 435.000000 173.500000
A 23.500000 23.500000 0 0 1 482.000000 173.500000
M 440.000000 178.000000
A 24.000000 24.000000 0 0 1 488.000000 178.000000
M 444.000000 183.000000
A 25.000000 25.000000 0 0 1 494.000000 183.000000
M 449.000000 188.000000
A 26.000000 26.000000 0 0 1 501.000000 188.000000
M 454.000000 193.000000
A 27.000000 27.000000 0 0 1 508.000000 193.000000
M 458.000000 198.000000
A 28.000000 28.000000 0 0 1 514.000000 198.000000
M 463.000000 203.000000
A 29.000000 29.000000 0 0 1 521.000000 203.000000
M 468.000000 208.000000
A 30.000000 30.000000 0 0 1 528.000000 208.000000
M 472.000000 214.000000
A 31.000000 31.000000 0 0 1 534.000000 214.000000
M 477.000000 219.000000
A 32.000000 32.000000 0 0 1 541.000000 219.000000
M 482.000000 224.000000
A 33.000000 33.000000 0 0 1 548.000000 224.000000
M 487.000000 228.500000
A 33.500000 33.500000 0 0 1 554.000000 228.500000
M 491.000000 233.500000
A 34.500000 34.500000 0 0 1 560.000000 233.500000
M 496.000000 238.500000
A 35.500000 35.500000 0 0 1 567.000000 238.500000
M 501.000000 243.500000
A 36.500000 36.500000 0 0 1 574.000000 243.500000
M 505.000000 248.500000
A 37.500000 37.500000 0 0 1 580.000000 248.500000
M 510.000000 253.500000
A 38.500000 38.500000 0 0 1 587.000000 253.500000
M 515.000000 258.500000
A 39.500000 39.500000 0 0 1 594.000000 258.500000
M 519.000000 263.500000
A 40.500000 40.500000 0 0 1 600.000000 263.500000
M 524.000000 269.500000
A 41.500000 41.500000 0 0 1 607.000000 269.500000
M 529.000000 274.500000
A 42.500000 42.500000 0 0 1 614.000000 274.500000
M 533.000000 279.500000
A 43.500000 43.500000 0 0 1 620.000000 279.500000
M 538.000000 284.000000
A 44.000000 44.000000 0 0 1 626.000000 284.000000
M 543.000000 289.000000
A 45.000000 45.000000 0 0 1 633.000000 289.000000
M 548.000000 294.000000
A 46.000000 46.000000 0 0 1 640.000000 294.000000
M 552.000000 299.000000
A 47.000000 47.000000 0 0 1 646.000000 299.000000
M 557.000000 304.000000
A 48.000000 48.000000 0 0 1 653.000000 304.000000
M 562.000000 309.000000
A 49.000000 49.000000 0 0 1 660.000000 309.000000
M 566.000000 314.000000
A 50.000000 50.000000 0 0 1 666.000000 314.000000
M 571.000000 319.000000
A 51.000000 51.000000 0 0 1 673.000000 319.000000
M 610.000000 475.000000
A 11.000000 11.000000 0 0 1 632.000000 475.000000
M 609.000000 469.500000
A 12.500000 12.500000 0 0 1 634.000000 469.500000
M 607.000000 464.500000
A 13.500000 13.500000 0 0 1 634.000000 464.500000
M 606.000000 460.000000
A 15.000000 15.000000 0 0 1 636.000000 460.000000
M 605.000000 454.500000
A 16.500000 16.500000 0 0 1 638.000000 454.500000
M 604.000000 449.500000
A 17.500000 17.500000 0 0 1 639.000000 449.500000
M 602.000000 445.000000
A 19.000000 19.000000 0 0 1 640.000000 445.000000
M 601.000000 440.000000
A 20.000000 20.000000 0 0 1 641.000000 440.000000
M 600.000000 434.500000
A 21.500000 21.500000 0 0 1 643.000000 434.500000
M 599.000000 429.500000
A 22.500000 22.500000 0 0 1 644.000000 429.500000
M 597.000000 425.000000
A 24.000000 24.000000 0 0 1 645.000000 425.000000
M 596.000000 419.500000
A 25.500000 25.500000 0 0 1 647.000000 419.500000
M 595.000000 414.500000
A 26.500000 26.500000 0 0 1 648.000000 414.500000
M 594.000000 410.000000
A 28.000000 28.000000 0 0 1 650.000000 410.000000
M 592.000000 404.000000
A 29.000000 29.000000 0 0 1 650.000000 404.000000
M 591.000000 399.500000
A 30.500000 30.500000 0 0 1 652.000000 399.500000
M 590.000000 394.500000
A 31.500000 31.500000 0 0 1 653.000000 394.500000
M 589.000000 390.000000
A 33.000000 33.000000 0 0 1 655.000000 390.000000
M 587.000000 384.000000
A 34.000000 34.000000 0 0 1 655.000000 384.000000
M 586.000000 379.500000
A 35.500000 35.500000 0 0 1 657.000000 379.500000
M 585.000000 375.000000
A 37.000000 37.000000 0 0 1 659.000000 375.000000
M 583.000000 369.000000
A 38.000000 38.000000 0 0 1 659.000000 369.000000
M 582.000000 364.500000
A 39.500000 39.500000 0 0 1 661.000000 364.500000
M 581.000000 359.500000
A 40.500000 40.500000 0 0 1 662.000000 359.500000
M 580.000000 355.000000
A 42.000000 42.000000 0 0 1 664.000000 355.000000
M 578.000000 349.000000
A 43.000000 43.000000 0 0 1 664.000000 349.000000
M 577.000000 344.500000
A 44.500000 44.500000 0 0 1 666.000000 344.500000
M 576.000000 340.000000
A 46.000000 46.000000 0 0 1 668.000000 340.000000
M 575.000000 334.000000
A 47.000000 47.000000 0 0 1 669.000000 334.000000
M 573.000000 329.500000
A 48.500000 48.500000 0 0 1 670.000000 329.500000
M 572.000000 324.500000
A 49.500000 49.500000 0 0 1 671.000000 324.500000
M 453.000000 318.500000
A 26.500000 26.500000 0 0 1 400.000000 318.500000
M 457.000000 323.000000
A 25.000000 25.000000 0 0 1 407.000000 323.000000
M 463.000000 329.000000
A 24.000000 24.000000 0 0 1 415.000000 329.000000
M 468.000000 333.500000
A 22.500000 22.500000 0 0 1 423.000000 333.500000
M 474.000000 339.500000
A 21.500000 21.500000 0 0 1 431.000000 339.500000
M 478.000000 344.000000
A 20.000000 20.000000 0 0 1 438.000000 344.000000
M 484.000000 350.000000
A 19.000000 19.000000 0 0 1 446.000000 350.000000
M 489.000000 354.500000
A 17.500000 17.500000 0 0 1 454.000000 354.500000
M 495.000000 360.500000
A 16.500000 16.500000 0 0 1 462.000000 360.500000
M 499.000000 365.000000
A 15.000000 15.000000 0 0 1 469.000000 365.000000
M 505.000000 371.000000
A 14.000000 14.000000 0 0 1 477.000000 371.000000
M 510.000000 375.500000
A 12.500000 12.500000 0 0 1 485.000000 375.500000
M 516.000000 380.500000
A 11.500000 11.500000 0 0 1 493.000000 380.500000
M 520.000000 386.000000
A 10.000000 10.000000 0 0 1 500.000000 386.000000
M 526.000000 391.000000
A 9.000000 9.000000 0 0 1 508.000000 391.000000
M 531.000000 396.500000
A 7.500000 7.500000 0 0 1 516.000000 396.500000
M 537.000000 401.500000
A 6.500000 6.500000 0 0 1 524.000000 401.500000
M 541.000000 407.000000
A 5.000000 5.000000 0 0 1 531.000000 407.000000
M 547.000000 412.000000
A 4.000000 4.000000 0 0 1 539.000000 412.000000
M 552.000000 417.500000
A 2.500000 2.500000 0 0 1 547.000000 417.500000
M 558.000000 422.500000
A 1.500000 1.500000 0 0 1 555.000000 422.500000
M 563.000000 428.500000
A 0.500000 0.500000 0 0 1 562.000000 428.500000
M 568.000000 433.000000
A 1.000000 1.000000 0 0 1 570.000000 433.000000
M 573.000000 438.500000
A 2.500000 2.500000 0 0 1 578.000000 438.500000
M 578.000000 443.500000
A 3.500000 3.500000 0 0 1 585.000000 443.500000
M 584.000000 449.000000
A 5.000000 5.000000 0 0 1 594.000000 449.000000
M 589.000000 454.000000
A 6.000000 6.000000 0 0 1 601.000000 454.000000
M 594.000000 459.500000
A 7.500000 7.500000 0 0 1 609.000000 459.500000
M 599.000000 464.500000
A 8.500000 8.500000 0 0 1 616.000000 464.500000
M 605.000000 470.000000
A 10.000000 10.000000 0 0 1 625.000000 470.000000
M 578.000000 315.000000
A 50.000000 50.000000 0 0 1 678.000000 315.000000
M 585.000000 310.000000
A 49.000000 49.000000 0 0 1 683.000000 310.000000
M 592.000000 305.000000
A 48.000000 48.000000 0 0 1 688.000000 305.000000
M 598.000000 300.500000
A 47.500000 47.500000 0 0 1 693.000000 300.500000
M 605.000000 296.500000
A 46.500000 46.500000 0 0 1 698.000000 296.500000
M 612.000000 291.500000
A 45.500000 45.500000 0 0 1 703.000000 291.500000
M 619.000000 286.500000
A 44.500000 44.500000 0 0 1 708.000000 286.500000
M 626.000000 282.000000
A 44.000000 44.000000 0 0 1 714.000000 282.000000
M 633.000000 278.000000
A 43.000000 43.000000 0 0 1 719.000000 278.000000
M 640.000000 273.000000
A 42.000000 42.000000 0 0 1 724.000000 273.000000
M 647.000000 268.000000
A 41.000000 41.000000 0 0 1 729.000000 268.000000
M 653.000000 263.500000
A 40.500000 40.500000 0 0 1 734.000000 263.500000
M 660.000000 259.500000
A 39.500000 39.500000 0 0 1 739.000000 259.500000
M 667.000000 254.500000
A 38.500000 38.500000 0 0 1 744.000000 254.500000
M 674.000000 249.500000
A 37.500000 37.500000 0 0 1 749.000000 249.500000
M 681.000000 245.000000
A 37.000000 37.000000 0 0 1 755.000000 245.000000
M 688.000000 240.000000
A 36.000000 36.000000 0 0 1 760.000000 240.000000
M 695.000000 236.000000
A 35.000000 35.000000 0 0 1 765.000000 236.000000
M 702.000000 231.000000
A 34.000000 34.000000 0 0 1 770.000000 231.000000
M 708.000000 226.500000
A 33.500000 33.500000 0 0 1 775.000000 226.500000
M 715.000000 221.500000
A 32.500000 32.500000 0 0 1 780.000000 221.500000
M 722.000000 217.500000
A 31.500000 31.500000 0 0 1 785.000000 217.500000
M 729.000000 212.500000
A 30.500000 30.500000 0 0 1 790.000000 212.500000
M 736.000000 208.000000
A 30.000000 30.000000 0 0 1 796.000000 208.000000
M 743.000000 203.000000
A 29.000000 29.000000 0 0 1 801.000000 203.000000
M 750.000000 199.000000
A 28.000000 28.000000 0 0 1 806.000000 199.000000
M 757.000000 194.000000
A 27.000000 27.000000 0 0 1 811.000000 194.000000
M 763.000000 189.500000
A 26.500000 26.500000 0 0 1 816.000000 189.500000
M 770.000000 184.500000
A 25.500000 25.500000 0 0 1 821.000000 184.500000
M 777.000000 179.500000
A 24.500000 24.500000 0 0 1 826.000000 179.500000
M 784.000000 175.500000
A 23.500000 23.500000 0 0 1 831.000000 175.500000
M 786.000000 180.000000
A 22.000000 22.000000 0 0 1 830.000000 180.000000
M 789.000000 185.500000
A 20.500000 20.500000 0 0 1 830.000000 185.500000
M 791.000000 190.000000
A 19.000000 19.000000 0 0 1 829.000000 190.000000
M 794.000000 194.500000
A 17.500000 17.500000 0 0 1 829.000000 194.500000
M 796.000000 200.000000
A 16.000000 16.000000 0 0 1 828.000000 200.000000
M 799.000000 204.500000
A 14.500000 14.500000 0 0 1 828.000000 204.500000
M 801.000000 210.000000
A 13.000000 13.000000 0 0 1 827.000000 210.000000
M 803.000000 214.500000
A 11.500000 11.500000 0 0 1 826.000000 214.500000
M 806.000000 218.500000
A 9.500000 9.500000 0 0 1 825.000000 218.500000
M 808.000000 224.000000
A 8.000000 8.000000 0 0 1 824.000000 224.000000
M 811.000000 228.500000
A 6.500000 6.500000 0 0 1 824.000000 228.500000
M 813.000000 234.000000
A 5.000000 5.000000 0 0 1 823.000000 234.000000
M 816.000000 238.500000
A 3.500000 3.500000 0 0 1 823.000000 238.500000
M 818.000000 243.000000
A 2.000000 2.000000 0 0 1 822.000000 243.000000
M 820.000000 248.500000
A 0.500000 0.500000 0 0 1 821.000000 248.500000
M 823.000000 253.000000
A 1.000000 1.000000 0 0 1 821.000000 253.000000
M 825.000000 257.500000
A 2.500000 2.500000 0 0 1 820.000000 257.500000
M 827.000000 263.000000
A 4.000000 4.000000 0 0 1 819.000000 263.000000
M 831.000000 268.000000
A 6.000000 6.000000 0 0 1 819.000000 268.000000
M 833.000000 272.500000
A 7.500000 7.500000 0 0 1 818.000000 272.500000
M 835.000000 277.000000
A 9.000000 9.000000 0 0 1 817.000000 277.000000
M 838.000000 282.500000
A 10.500000 10.500000 0 0 1 817.000000 282.500000
M 840.000000 287.000000
A 12.000000 12.000000 0 0 1 816.000000 287.000000
M 842.000000 291.500000
A 13.500000 13.500000 0 0 1 815.000000 291.500000
M 845.000000 297.000000
A 15.000000 15.000000 0 0 1 815.000000 297.000000
M 847.000000 301.500000
A 16.500000 16.500000 0 0 1 814.000000 301.500000
M 849.000000 306.000000
A 18.000000 18.000000 0 0 1 813.000000 306.000000
M 853.000000 312.000000
A 20.000000 20.000000 0 0 1 813.000000 312.000000
M 855.000000 316.500000
A 21.500000 21.500000 0 0 1 812.000000 316.500000
M 857.000000 321.000000
A 23.000000 23.000000 0 0 1 811.000000 321.000000
M 859.000000 325.500000
A 24.500000 24.500000 0 0 1 810.000000 325.500000
M 618.000000 470.000000
A 10.000000 10.000000 0 0 1 638.000000 470.000000
M 626.000000 465.000000
A 9.000000 9.000000 0 0 1 644.000000 465.000000
M 634.000000 460.500000
A 7.500000 7.500000 0 0 1 649.000000 460.500000
M 642.000000 455.500000
A 6.500000 6.500000 0 0 1 655.000000 455.500000
M 650.000000 450.500000
A 5.500000 5.500000 0 0 1 661.000000 450.500000
M 658.000000 446.500000
A 4.500000 4.500000 0 0 1 667.000000 446.500000
M 666.000000 441.000000
A 3.000000 3.000000 0 0 1 672.000000 441.000000
M 674.000000 436.000000
A 2.000000 2.000000 0 0 1 678.000000 436.000000
M 682.000000 432.000000
A 1.000000 1.000000 0 0 1 684.000000 432.000000
M 691.000000 426.500000
A 0.500000 0.500000 0 0 1 690.000000 426.500000
M 698.000000 421.500000
A 1.500000 1.500000 0 0 1 695.000000 421.500000
M 706.000000 417.500000
A 2.500000 2.500000 0 0 1 701.000000 417.500000
M 714.000000 412.500000
A 3.500000 3.500000 0 0 1 707.000000 412.500000
M 723.000000 408.000000
A 5.000000 5.000000 0 0 1 713.000000 408.000000
M 730.000000 403.000000
A 6.000000 6.000000 0 0 1 718.000000 403.000000
M 738.000000 398.000000
A 7.000000 7.000000 0 0 1 724.000000 398.000000
M 747.000000 393.500000
A 8.500000 8.500000 0 0 1 730.000000 393.500000
M 755.000000 388.500000
A 9.500000 9.500000 0 0 1 736.000000 388.500000
M 762.000000 383.500000
A 10.500000 10.500000 0 0 1 741.000000 383.500000
M 771.000000 379.000000
A 12.000000 12.000000 0 0 1 747.000000 379.000000
M 779.000000 374.000000
A 13.000000 13.000000 0 0 1 753.000000 374.000000
M 787.000000 369.000000
A 14.000000 14.000000 0 0 1 759.000000 369.000000
M 794.000000 364.000000
A 15.000000 15.000000 0 0 1 764.000000 364.000000
M 803.000000 359.500000
A 16.500000 16.500000 0 0 1 770.000000 359.500000
M 811.000000 354.500000
A 17.500000 17.500000 0 0 1 776.000000 354.500000
M 819.000000 349.500000
A 18.500000 18.500000 0 0 1 782.000000 349.500000
M 827.000000 345.000000
A 20.000000 20.000000 0 0 1 787.000000 345.000000
M 835.000000 340.000000
A 21.000000 21.000000 0 0 1 793.000000 340.000000
M 843.000000 335.000000
A 22.000000 22.000000 0 0 1 799.000000 335.000000
M 852.000000 330.500000
A 23.500000 23.500000 0 0 1 805.000000 330.500000
M 648.000000 -12.000000
A 12.000000 12.000000 0 0 1 624.000000 -12.000000
M 652.000000 -6.000000
A 11.000000 11.000000 0 0 1 630.000000 -6.000000
M 656.000000 -0.500000
A 9.500000 9.500000 0 0 1 637.000000 -0.500000
M 661.000000 5.500000
A 8.500000 8.500000 0 0 1 644.000000 5.500000
M 665.000000 11.500000
A 7.500000 7.500000 0 0 1 650.000000 11.500000
M 669.000000 17.000000
A 6.000000 6.000000 0 0 1 657.000000 17.000000
M 674.000000 23.000000
A 5.000000 5.000000 0 0 1 664.000000 23.000000
M 678.000000 29.000000
A 4.000000 4.000000 0 0 1 670.000000 29.000000
M 683.000000 36.000000
A 3.000000 3.000000 0 0 1 677.000000 36.000000
M 687.000000 41.500000
A 1.500000 1.500000 0 0 1 684.000000 41.500000
M 692.000000 47.500000
A 0.500000 0.500000 0 0 1 691.000000 47.500000
M 696.000000 53.500000
A 0.500000 0.500000 0 0 1 697.000000 53.500000
M 700.000000 60.000000
A 2.000000 2.000000 0 0 1 704.000000 60.000000
M 705.000000 66.000000
A 3.000000 3.000000 0 0 1 711.000000 66.000000
M 709.000000 72.000000
A 4.000000 4.000000 0 0 1 717.000000 72.000000
M 714.000000 78.500000
A 5.500000 5.500000 0 0 1 725.000000 78.500000
M 718.000000 84.500000
A 6.500000 6.500000 0 0 1 731.000000 84.500000
M 722.000000 90.500000
A 7.500000 7.500000 0 0 1 737.000000 90.500000
M 727.000000 96.500000
A 8.500000 8.500000 0 0 1 744.000000 96.500000
M 731.000000 102.000000
A 10.000000 10.000000 0 0 1 751.000000 102.000000
M 736.000000 108.000000
A 11.000000 11.000000 0 0 1 758.000000 108.000000
M 740.000000 114.000000
A 12.000000 12.000000 0 0 1 764.000000 114.000000
M 744.000000 120.500000
A 13.500000 13.500000 0 0 1 771.000000 120.500000
M 749.000000 126.500000
A 14.500000 14.500000 0 0 1 778.000000 126.500000
M 753.000000 132.500000
A 15.500000 15.500000 0 0 1 784.000000 132.500000
M 758.000000 139.000000
A 17.000000 17.000000 0 0 1 792.000000 139.000000
M 762.000000 145.000000
A 18.000000 18.000000 0 0 1 798.000000 145.000000
M 766.000000 151.000000
A 19.000000 19.000000 0 0 1 804.000000 151.000000
M 771.000000 157.000000
A 20.000000 20.000000 0 0 1 811.000000 157.000000
M 775.000000 163.500000
A 21.500000 21.500000 0 0 1 818.000000 163.500000
M 780.000000 169.500000
A 22.500000 22.500000 0 0 1 825.000000 169.500000
M 650.000000 -8.000000
A 14.000000 14.000000 0 0 1 622.000000 -8.000000
M 652.000000 -3.000000
A 16.000000 16.000000 0 0 1 620.000000 -3.000000
M 654.000000 1.000000
A 18.000000 18.000000 0 0 1 618.000000 1.000000
M 656.000000 6.000000
A 20.000000 20.000000 0 0 1 616.000000 6.000000
M 657.000000 9.500000
A 21.500000 21.500000 0 0 1 614.000000 9.500000
M 659.000000 14.500000
A 23.500000 23.500000 0 0 1 612.000000 14.500000
M 661.000000 18.500000
A 25.500000 25.500000 0 0 1 610.000000 18.500000
M 663.000000 23.500000
A 27.500000 27.500000 0 0 1 608.000000 23.500000
M 665.000000 27.500000
A 29.500000 29.500000 0 0 1 606.000000 27.500000
M 667.000000 31.500000
A 31.500000 31.500000 0 0 1 604.000000 31.500000
M 670.000000 35.500000
A 33.500000 33.500000 0 0 1 603.000000 35.500000
M 672.000000 40.500000
A 35.500000 35.500000 0 0 1 601.000000 40.500000
M 674.000000 44.500000
A 37.500000 37.500000 0 0 1 599.000000 44.500000
M 676.000000 49.500000
A 39.500000 39.500000 0 0 1 597.000000 49.500000
M 677.000000 53.000000
A 41.000000 41.000000 0 0 1 595.000000 53.000000
M 679.000000 58.000000
A 43.000000 43.000000 0 0 1 593.000000 58.000000
M 681.000000 62.000000
A 45.000000 45.000000 0 0 1 591.000000 62.000000
M 683.000000 67.000000
A 47.000000 47.000000 0 0 1 589.000000 67.000000
M 685.000000 71.000000
A 49.000000 49.000000 0 0 1 587.000000 71.000000
M 687.000000 76.000000
A 51.000000 51.000000 0 0 1 585.000000 76.000000
M 689.000000 80.000000
A 53.000000 53.000000 0 0 1 583.000000 80.000000
M 692.000000 85.000000
A 55.000000 55.000000 0 0 1 582.000000 85.000000
M 694.000000 89.000000
A 57.000000 57.000000 0 0 1 580.000000 89.000000
M 696.000000 94.000000
A 59.000000 59.000000 0 0 1 578.000000 94.000000
M 697.000000 97.500000
A 60.500000 60.500000 0 0 1 576.000000 97.500000
M 699.000000 102.500000
A 62.500000 62.500000 0 0 1 574.000000 102.500000
M 701.000000 106.500000
A 64.500000 64.500000 0 0 1 572.000000 106.500000
M 703.000000 111.500000
A 66.500000 66.500000 0 0 1 570.000000 111.500000
M 705.000000 115.500000
A 68.500000 68.500000 0 0 1 568.000000 115.500000
M 707.000000 120.500000
A 70.500000 70.500000 0 0 1 566.000000 120.500000
M 709.000000 124.500000
A 72.500000 72.500000 0 0 1 564.000000 124.500000
M 714.000000 131.000000
A 71.000000 71.000000 0 0 1 572.000000 131.000000
M 719.000000 137.500000
A 69.500000 69.500000 0 0 1 580.000000 137.500000
M 724.000000 144.000000
A 68.000000 68.000000 0 0 1 588.000000 144.000000
M 729.000000 150.500000
A 66.500000 66.500000 0 0 1 596.000000 150.500000
M 733.000000 156.500000
A 64.500000 64.500000 0 0 1 604.000000 156.500000
M 738.000000 163.000000
A 63.000000 63.000000 0 0 1 612.000000 163.000000
M 743.000000 169.500000
A 61.500000 61.500000 0 0 1 620.000000 169.500000
M 748.000000 176.000000
A 60.000000 60.000000 0 0 1 628.000000 176.000000
M 753.000000 182.500000
A 58.500000 58.500000 0 0 1 636.000000 182.500000
M 758.000000 190.000000
A 57.000000 57.000000 0 0 1 644.000000 190.000000
M 763.000000 196.500000
A 55.500000 55.500000 0 0 1 652.000000 196.500000
M 768.000000 203.000000
A 54.000000 54.000000 0 0 1 660.000000 203.000000
M 773.000000 209.500000
A 52.500000 52.500000 0 0 1 668.000000 209.500000
M 778.000000 216.000000
A 51.000000 51.000000 0 0 1 676.000000 216.000000
M 781.000000 222.000000
A 49.000000 49.000000 0 0 1 683.000000 222.000000
M 786.000000 228.500000
A 47.500000 47.500000 0 0 1 691.000000 228.500000
M 791.000000 235.000000
A 46.000000 46.000000 0 0 1 699.000000 235.000000
M 796.000000 241.500000
A 44.500000 44.500000 0 0 1 707.000000 241.500000
M 801.000000 248.000000
A 43.000000 43.000000 0 0 1 715.000000 248.000000
M 806.000000 254.500000
A 41.500000 41.500000 0 0 1 723.000000 254.500000
M 811.000000 261.000000
A 40.000000 40.000000 0 0 1 731.000000 261.000000
M 816.000000 267.500000
A 38.500000 38.500000 0 0 1 739.000000 267.500000
M 821.000000 274.000000
A 37.000000 37.000000 0 0 1 747.000000 274.000000
M 826.000000 280.500000
A 35.500000 35.500000 0 0 1 755.000000 280.500000
M 830.000000 286.500000
A 33.500000 33.500000 0 0 1 763.000000 286.500000
M 835.000000 293.000000
A 32.000000 32.000000 0 0 1 771.000000 293.000000
M 840.000000 299.500000
A 30.500000 30.500000 0 0 1 779.000000 299.500000
M 845.000000 306.000000
A 29.000000 29.000000 0 0 1 787.000000 306.000000
M 850.000000 312.500000
A 27.500000 27.500000 0 0 1 795.000000 312.500000
M 855.000000 319.000000
A 26.000000 26.000000 0 0 1 803.000000 319.000000
M 433.000000 157.500000
A 20.500000 20.500000 0 0 1 474.000000 157.500000
M 440.000000 151.000000
A 19.000000 19.000000 0 0 1 478.000000 151.000000
M 447.000000 146.000000
A 18.000000 18.000000 0 0 1 483.000000 146.000000
M 454.000000 140.000000
A 17.000000 17.000000 0 0 1 488.000000 140.000000
M 461.000000 135.000000
A 16.000000 16.000000 0 0 1 493.000000 135.000000
M 469.000000 129.000000
A 15.000000 15.000000 0 0 1 499.000000 129.000000
M 476.000000 123.000000
A 14.000000 14.000000 0 0 1 504.000000 123.000000
M 483.000000 118.000000
A 13.000000 13.000000 0 0 1 509.000000 118.000000
M 490.000000 111.500000
A 11.500000 11.500000 0 0 1 513.000000 111.500000
M 497.000000 106.500000
A 10.500000 10.500000 0 0 1 518.000000 106.500000
M 504.000000 100.500000
A 9.500000 9.500000 0 0 1 523.000000 100.500000
M 511.000000 94.500000
A 8.500000 8.500000 0 0 1 528.000000 94.500000
M 519.000000 89.500000
A 7.500000 7.500000 0 0 1 534.000000 89.500000
M 526.000000 83.500000
A 6.500000 6.500000 0 0 1 539.000000 83.500000
M 533.000000 77.000000
A 5.000000 5.000000 0 0 1 543.000000 77.000000
M 540.000000 72.000000
A 4.000000 4.000000 0 0 1 548.000000 72.000000
M 547.000000 66.000000
A 3.000000 3.000000 0 0 1 553.000000 66.000000
M 554.000000 61.000000
A 2.000000 2.000000 0 0 1 558.000000 61.000000
M 562.000000 55.000000
A 1.000000 1.000000 0 0 1 564.000000 55.000000
M 569.000000 49.500000
A 0.500000 0.500000 0 0 1 568.000000 49.500000
M 575.000000 43.000000
A 1.000000 1.000000 0 0 1 573.000000 43.000000
M 583.000000 38.500000
A 2.500000 2.500000 0 0 1 578.000000 38.500000
M 590.000000 32.500000
A 3.500000 3.500000 0 0 1 583.000000 32.500000
M 597.000000 26.500000
A 4.500000 4.500000 0 0 1 588.000000 26.500000
M 605.000000 20.500000
A 5.500000 5.500000 0 0 1 594.000000 20.500000
M 612.000000 15.500000
A 6.500000 6.500000 0 0 1 599.000000 15.500000
M 619.000000 9.500000
A 7.500000 7.500000 0 0 1 604.000000 9.500000
M 626.000000 4.500000
A 8.500000 8.500000 0 0 1 609.000000 4.500000
M 634.000000 -1.000000
A 10.000000 10.000000 0 0 1 614.000000 -1.000000
M 641.000000 -6.000000
A 11.000000 11.000000 0 0 1 619.000000 -6.000000
M 455.000000 307.000000
A 29.000000 29.000000 0 0 1 397.000000 307.000000
M 464.000000 300.500000
A 30.500000 30.500000 0 0 1 403.000000 300.500000
M 473.000000 295.000000
A 32.000000 32.000000 0 0 1 409.000000 295.000000
M 481.000000 288.500000
A 33.500000 33.500000 0 0 1 414.000000 288.500000
M 490.000000 283.000000
A 35.000000 35.000000 0 0 1 420.000000 283.000000
M 497.000000 276.000000
A 36.000000 36.000000 0 0 1 425.000000 276.000000
M 506.000000 270.500000
A 37.500000 37.500000 0 0 1 431.000000 270.500000
M 514.000000 264.000000
A 39.000000 39.000000 0 0 1 436.000000 264.000000
M 523.000000 258.500000
A 40.500000 40.500000 0 0 1 442.000000 258.500000
M 531.000000 252.000000
A 42.000000 42.000000 0 0 1 447.000000 252.000000
M 540.000000 246.500000
A 43.500000 43.500000 0 0 1 453.000000 246.500000
M 549.000000 240.000000
A 45.000000 45.000000 0 0 1 459.000000 240.000000
M 557.000000 234.500000
A 46.500000 46.500000 0 0 1 464.000000 234.500000
M 566.000000 228.000000
A 48.000000 48.000000 0 0 1 470.000000 228.000000
M 574.000000 221.500000
A 49.500000 49.500000 0 0 1 475.000000 221.500000
M 582.000000 215.500000
A 50.500000 50.500000 0 0 1 481.000000 215.500000
M 590.000000 209.000000
A 52.000000 52.000000 0 0 1 486.000000 209.000000
M 599.000000 203.500000
A 53.500000 53.500000 0 0 1 492.000000 203.500000
M 608.000000 197.000000
A 55.000000 55.000000 0 0 1 498.000000 197.000000
M 616.000000 191.500000
A 56.500000 56.500000 0 0 1 503.000000 191.500000
M 625.000000 185.000000
A 58.000000 58.000000 0 0 1 509.000000 185.000000
M 633.000000 179.500000
A 59.500000 59.500000 0 0 1 514.000000 179.500000
M 642.000000 173.000000
A 61.000000 61.000000 0 0 1 520.000000 173.000000
M 650.000000 167.500000
A 62.500000 62.500000 0 0 1 525.000000 167.500000
M 659.000000 161.000000
A 64.000000 64.000000 0 0 1 531.000000 161.000000
M 667.000000 155.000000
A 65.000000 65.000000 0 0 1 537.000000 155.000000
M 675.000000 148.500000
A 66.500000 66.500000 0 0 1 542.000000 148.500000
M 684.000000 143.000000
A 68.000000 68.000000 0 0 1 548.000000 143.000000
M 692.000000 136.500000
A 69.500000 69.500000 0 0 1 553.000000 136.500000
M 701.000000 131.000000
A 71.000000 71.000000 0 0 1 559.000000 131.000000
"/>
</svg>