<?xml version="1.0" encoding="UTF-8"?>
<svg width="819" height="404" viewBox="0 0 819 404" fill="none" xmlns="http://www.w3.org/2000/svg">
<path stroke="black" stroke-width="0.1500" d="
M 627.000000 195.500000
A 37.500000 37.500000 0 0 1 702.000000 195.500000
M 628.000000 202.500000
A 37.500000 37.500000 0 0 1 703.000000 202.500000
M 628.000000 209.000000
A 37.000000 37.000000 0 0 1 702.000000 209.000000
M 628.000000 216.000000
A 37.000000 37.000000 0 0 1 702.000000 216.000000
M 629.000000 222.500000
A 36.500000 36.500000 0 0 1 702.000000 222.500000
M 629.000000 229.500000
A 36.500000 36.500000 0 0 1 702.000000 229.500000
M 629.000000 236.000000
A 36.000000 36.000000 0 0 1 701.000000 236.000000
M 629.000000 243.000000
A 36.000000 36.000000 0 0 1 701.000000 243.000000
M 630.000000 249.500000
A 35.500000 35.500000 0 0 1 701.000000 249.500000
M 630.000000 256.500000
A 35.500000 35.500000 0 0 1 701.000000 256.500000
M 630.000000 263.000000
A 35.000000 35.000000 0 0 1 700.000000 263.000000
M 630.000000 270.000000
A 35.000000 35.000000 0 0 1 700.000000 270.000000
M 631.000000 276.500000
A 34.500000 34.500000 0 0 1 700.000000 276.500000
M 631.000000 283.500000
A 34.500000 34.500000 0 0 1 700.000000 283.500000
M 631.000000 290.000000
A 34.000000 34.000000 0 0 1 699.000000 290.000000
M 632.000000 297.000000
A 34.000000 34.000000 0 0 1 700.000000 297.000000
M 632.000000 303.500000
A 33.500000 33.500000 0 0 1 699.000000 303.500000
M 632.000000 310.500000
A 33.500000 33.500000 0 0 1 699.000000 310.500000
M 632.000000 317.000000
A 33.000000 33.000000 0 0 1 698.000000 317.000000
M 633.000000 324.000000
A 33.000000 33.000000 0 0 1 699.000000 324.000000
M 633.000000 330.500000
A 32.500000 32.500000 0 0 1 698.000000 330.500000
M 633.000000 336.500000
A 32.500000 32.500000 0 0 1 698.000000 336.500000
M 634.000000 343.000000
A 32.000000 32.000000 0 0 1 698.000000 343.000000
M 634.000000 350.000000
A 32.000000 32.000000 0 0 1 698.000000 350.000000
M 634.000000 356.500000
A 31.500000 31.500000 0 0 1 697.000000 356.500000
M 634.000000 363.500000
A 31.500000 31.500000 0 0 1 697.000000 363.500000
M 635.000000 370.000000
A 31.000000 31.000000 0 0 1 697.000000 370.000000
M 635.000000 377.000000
A 31.000000 31.000000 0 0 1 697.000000 377.000000
M 635.000000 383.500000
A 30.500000 30.500000 0 0 1 696.000000 383.500000
M 636.000000 390.500000
A 30.500000 30.500000 0 0 1 697.000000 390.500000
M 636.000000 397.000000
A 30.000000 30.000000 0 0 1 696.000000 397.000000
M 636.000000 404.000000
A 30.000000 30.000000 0 0 1 696.000000 404.000000
M 633.000000 193.000000
A 36.000000 36.000000 0 0 1 705.000000 193.000000
M 639.000000 190.000000
A 35.000000 35.000000 0 0 1 709.000000 190.000000
M 644.000000 187.500000
A 33.500000 33.500000 0 0 1 711.000000 187.500000
M 650.000000 184.000000
A 32.000000 32.000000 0 0 1 714.000000 184.000000
M 656.000000 180.500000
A 30.500000 30.500000 0 0 1 717.000000 180.500000
M 661.000000 178.500000
A 29.500000 29.500000 0 0 1 720.000000 178.500000
M 667.000000 175.000000
A 28.000000 28.000000 0 0 1 723.000000 175.000000
M 673.000000 172.500000
A 26.500000 26.500000 0 0 1 726.000000 172.500000
M 679.000000 169.500000
A 25.500000 25.500000 0 0 1 730.000000 169.500000
M 684.000000 166.000000
A 24.000000 24.000000 0 0 1 732.000000 166.000000
M 690.000000 163.500000
A 22.500000 22.500000 0 0 1 735.000000 163.500000
M 696.000000 160.000000
A 21.000000 21.000000 0 0 1 738.000000 160.000000
M 701.000000 158.000000
A 20.000000 20.000000 0 0 1 741.000000 158.000000
M 707.000000 154.500000
A 18.500000 18.500000 0 0 1 744.000000 154.500000
M 713.000000 152.000000
A 17.000000 17.000000 0 0 1 747.000000 152.000000
M 718.000000 148.500000
A 15.500000 15.500000 0 0 1 749.000000 148.500000
M 724.000000 145.500000
A 14.500000 14.500000 0 0 1 753.000000 145.500000
M 730.000000 143.000000
A 13.000000 13.000000 0 0 1 756.000000 143.000000
M 735.000000 139.500000
A 11.500000 11.500000 0 0 1 758.000000 139.500000
M 741.000000 137.500000
A 10.500000 10.500000 0 0 1 762.000000 137.500000
M 747.000000 134.000000
A 9.000000 9.000000 0 0 1 765.000000 134.000000
M 752.000000 130.500000
A 7.500000 7.500000 0 0 1 767.000000 130.500000
M 758.000000 128.000000
A 6.000000 6.000000 0 0 1 770.000000 128.000000
M 805.000000 135.000000
A 6.000000 6.000000 0 0 1 793.000000 135.000000
M 806.000000 142.500000
A 6.500000 6.500000 0 0 1 793.000000 142.500000
M 806.000000 150.500000
A 6.500000 6.500000 0 0 1 793.000000 150.500000
M 807.000000 158.000000
A 7.000000 7.000000 0 0 1 793.000000 158.000000
M 808.000000 166.500000
A 7.500000 7.500000 0 0 1 793.000000 166.500000
M 808.000000 173.500000
A 7.500000 7.500000 0 0 1 793.000000 173.500000
M 809.000000 181.000000
A 8.000000 8.000000 0 0 1 793.000000 181.000000
M 809.000000 189.500000
A 8.500000 8.500000 0 0 1 792.000000 189.500000
M 809.000000 196.500000
A 8.500000 8.500000 0 0 1 792.000000 196.500000
M 810.000000 204.000000
A 9.000000 9.000000 0 0 1 792.000000 204.000000
M 811.000000 212.500000
A 9.500000 9.500000 0 0 1 792.000000 212.500000
M 811.000000 219.500000
A 9.500000 9.500000 0 0 1 792.000000 219.500000
M 812.000000 227.000000
A 10.000000 10.000000 0 0 1 792.000000 227.000000
M 812.000000 235.500000
A 10.500000 10.500000 0 0 1 791.000000 235.500000
M 812.000000 242.500000
A 10.500000 10.500000 0 0 1 791.000000 242.500000
M 813.000000 251.000000
A 11.000000 11.000000 0 0 1 791.000000 251.000000
M 814.000000 258.500000
A 11.500000 11.500000 0 0 1 791.000000 258.500000
M 814.000000 265.500000
A 11.500000 11.500000 0 0 1 791.000000 265.500000
M 815.000000 274.000000
A 12.000000 12.000000 0 0 1 791.000000 274.000000
M 816.000000 281.500000
A 12.500000 12.500000 0 0 1 791.000000 281.500000
M 815.000000 288.500000
A 12.500000 12.500000 0 0 1 790.000000 288.500000
M 816.000000 297.000000
A 13.000000 13.000000 0 0 1 790.000000 297.000000
M 817.000000 304.500000
A 13.500000 13.500000 0 0 1 790.000000 304.500000
M 817.000000 312.500000
A 13.500000 13.500000 0 0 1 790.000000 312.500000
M 818.000000 320.000000
A 14.000000 14.000000 0 0 1 790.000000 320.000000
M 819.000000 327.500000
A 14.500000 14.500000 0 0 1 790.000000 327.500000
M 819.000000 335.500000
A 14.500000 14.500000 0 0 1 790.000000 335.500000
M 819.000000 343.000000
A 15.000000 15.000000 0 0 1 789.000000 343.000000
M 642.000000 402.500000
A 28.500000 28.500000 0 0 1 699.000000 402.500000
M 648.000000 400.000000
A 27.000000 27.000000 0 0 1 702.000000 400.000000
M 654.000000 398.500000
A 25.500000 25.500000 0 0 1 705.000000 398.500000
M 660.000000 396.000000
A 24.000000 24.000000 0 0 1 708.000000 396.000000
M 666.000000 393.500000
A 22.500000 22.500000 0 0 1 711.000000 393.500000
M 672.000000 392.000000
A 21.000000 21.000000 0 0 1 714.000000 392.000000
M 677.000000 390.000000
A 20.000000 20.000000 0 0 1 717.000000 390.000000
M 683.000000 388.500000
A 18.500000 18.500000 0 0 1 720.000000 388.500000
M 689.000000 386.000000
A 17.000000 17.000000 0 0 1 723.000000 386.000000
M 695.000000 384.500000
A 15.500000 15.500000 0 0 1 726.000000 384.500000
M 701.000000 382.000000
A 14.000000 14.000000 0 0 1 729.000000 382.000000
M 707.000000 380.500000
A 12.500000 12.500000 0 0 1 732.000000 380.500000
M 713.000000 378.000000
A 11.000000 11.000000 0 0 1 735.000000 378.000000
M 719.000000 376.500000
A 9.500000 9.500000 0 0 1 738.000000 376.500000
M 725.000000 374.000000
A 8.000000 8.000000 0 0 1 741.000000 374.000000
M 731.000000 372.500000
A 6.500000 6.500000 0 0 1 744.000000 372.500000
M 784.000000 355.500000
A 6.500000 6.500000 0 0 1 771.000000 355.500000
M 790.000000 353.000000
A 8.000000 8.000000 0 0 1 774.000000 353.000000
M 795.000000 351.000000
A 9.000000 9.000000 0 0 1 777.000000 351.000000
M 801.000000 348.500000
A 10.500000 10.500000 0 0 1 780.000000 348.500000
M 807.000000 347.000000
A 12.000000 12.000000 0 0 1 783.000000 347.000000
M 813.000000 344.500000
A 13.500000 13.500000 0 0 1 786.000000 344.500000
M 618.000000 35.000000
A 37.000000 37.000000 0 0 1 544.000000 35.000000
M 624.000000 36.000000
A 36.000000 36.000000 0 0 1 552.000000 36.000000
M 630.000000 39.000000
A 35.000000 35.000000 0 0 1 560.000000 39.000000
M 636.000000 41.000000
A 34.000000 34.000000 0 0 1 568.000000 41.000000
M 642.000000 43.000000
A 33.000000 33.000000 0 0 1 576.000000 43.000000
M 648.000000 45.000000
A 32.000000 32.000000 0 0 1 584.000000 45.000000
M 654.000000 48.000000
A 31.000000 31.000000 0 0 1 592.000000 48.000000
M 660.000000 50.000000
A 30.000000 30.000000 0 0 1 600.000000 50.000000
M 666.000000 52.000000
A 29.000000 29.000000 0 0 1 608.000000 52.000000
M 671.000000 54.500000
A 27.500000 27.500000 0 0 1 616.000000 54.500000
M 677.000000 56.500000
A 26.500000 26.500000 0 0 1 624.000000 56.500000
M 684.000000 58.500000
A 25.500000 25.500000 0 0 1 633.000000 58.500000
M 690.000000 61.500000
A 24.500000 24.500000 0 0 1 641.000000 61.500000
M 696.000000 63.500000
A 23.500000 23.500000 0 0 1 649.000000 63.500000
M 702.000000 65.500000
A 22.500000 22.500000 0 0 1 657.000000 65.500000
M 708.000000 68.500000
A 21.500000 21.500000 0 0 1 665.000000 68.500000
M 714.000000 70.500000
A 20.500000 20.500000 0 0 1 673.000000 70.500000
M 720.000000 72.500000
A 19.500000 19.500000 0 0 1 681.000000 72.500000
M 726.000000 74.500000
A 18.500000 18.500000 0 0 1 689.000000 74.500000
M 732.000000 77.500000
A 17.500000 17.500000 0 0 1 697.000000 77.500000
M 737.000000 79.000000
A 16.000000 16.000000 0 0 1 705.000000 79.000000
M 743.000000 81.000000
A 15.000000 15.000000 0 0 1 713.000000 81.000000
M 749.000000 84.000000
A 14.000000 14.000000 0 0 1 721.000000 84.000000
M 755.000000 86.000000
A 13.000000 13.000000 0 0 1 729.000000 86.000000
M 761.000000 88.000000
A 12.000000 12.000000 0 0 1 737.000000 88.000000
M 768.000000 91.000000
A 11.000000 11.000000 0 0 1 746.000000 91.000000
M 774.000000 93.000000
A 10.000000 10.000000 0 0 1 754.000000 93.000000
M 780.000000 95.000000
A 9.000000 9.000000 0 0 1 762.000000 95.000000
M 786.000000 98.000000
A 8.000000 8.000000 0 0 1 770.000000 98.000000
M 792.000000 100.000000
A 7.000000 7.000000 0 0 1 778.000000 100.000000
M 798.000000 102.000000
A 6.000000 6.000000 0 0 1 786.000000 102.000000
M 628.000000 295.500000
A 49.500000 49.500000 0 0 1 529.000000 295.500000
M 629.000000 287.500000
A 49.500000 49.500000 0 0 1 530.000000 287.500000
M 628.000000 279.000000
A 49.000000 49.000000 0 0 1 530.000000 279.000000
M 628.000000 270.500000
A 48.500000 48.500000 0 0 1 531.000000 270.500000
M 627.000000 262.000000
A 48.000000 48.000000 0 0 1 531.000000 262.000000
M 627.000000 253.500000
A 47.500000 47.500000 0 0 1 532.000000 253.500000
M 627.000000 245.500000
A 47.500000 47.500000 0 0 1 532.000000 245.500000
M 627.000000 237.000000
A 47.000000 47.000000 0 0 1 533.000000 237.000000
M 626.000000 228.500000
A 46.500000 46.500000 0 0 1 533.000000 228.500000
M 626.000000 220.000000
A 46.000000 46.000000 0 0 1 534.000000 220.000000
M 625.000000 211.500000
A 45.500000 45.500000 0 0 1 534.000000 211.500000
M 625.000000 203.500000
A 45.500000 45.500000 0 0 1 534.000000 203.500000
M 625.000000 195.000000
A 45.000000 45.000000 0 0 1 535.000000 195.000000
M 624.000000 186.500000
A 44.500000 44.500000 0 0 1 535.000000 186.500000
M 624.000000 178.000000
A 44.000000 44.000000 0 0 1 536.000000 178.000000
M 623.000000 169.500000
A 43.500000 43.500000 0 0 1 536.000000 169.500000
M 623.000000 161.000000
A 43.000000 43.000000 0 0 1 537.000000 161.000000
M 623.000000 153.000000
A 43.000000 43.000000 0 0 1 537.000000 153.000000
M 623.000000 143.500000
A 42.500000 42.500000 0 0 1 538.000000 143.500000
M 622.000000 135.000000
A 42.000000 42.000000 0 0 1 538.000000 135.000000
M 622.000000 126.500000
A 41.500000 41.500000 0 0 1 539.000000 126.500000
M 621.000000 118.000000
A 41.000000 41.000000 0 0 1 539.000000 118.000000
M 622.000000 110.000000
A 41.000000 41.000000 0 0 1 540.000000 110.000000
M 621.000000 101.500000
A 40.500000 40.500000 0 0 1 540.000000 101.500000
M 620.000000 93.000000
A 40.000000 40.000000 0 0 1 540.000000 93.000000
M 620.000000 84.500000
A 39.500000 39.500000 0 0 1 541.000000 84.500000
M 619.000000 76.000000
A 39.000000 39.000000 0 0 1 541.000000 76.000000
M 620.000000 68.000000
A 39.000000 39.000000 0 0 1 542.000000 68.000000
M 619.000000 59.500000
A 38.500000 38.500000 0 0 1 542.000000 59.500000
M 619.000000 51.000000
A 38.000000 38.000000 0 0 1 543.000000 51.000000
M 618.000000 42.500000
A 37.500000 37.500000 0 0 1 543.000000 42.500000
M 635.000000 297.500000
A 48.500000 48.500000 0 0 1 538.000000 297.500000
M 641.000000 299.500000
A 47.500000 47.500000 0 0 1 546.000000 299.500000
M 648.000000 300.500000
A 46.500000 46.500000 0 0 1 555.000000 300.500000
M 654.000000 302.500000
A 45.500000 45.500000 0 0 1 563.000000 302.500000
M 659.000000 303.000000
A 44.000000 44.000000 0 0 1 571.000000 303.000000
M 666.000000 305.000000
A 43.000000 43.000000 0 0 1 580.000000 305.000000
M 672.000000 307.000000
A 42.000000 42.000000 0 0 1 588.000000 307.000000
M 678.000000 308.000000
A 41.000000 41.000000 0 0 1 596.000000 308.000000
M 684.000000 309.500000
A 39.500000 39.500000 0 0 1 605.000000 309.500000
M 690.000000 311.500000
A 38.500000 38.500000 0 0 1 613.000000 311.500000
M 697.000000 312.500000
A 37.500000 37.500000 0 0 1 622.000000 312.500000
M 703.000000 314.500000
A 36.500000 36.500000 0 0 1 630.000000 314.500000
M 708.000000 316.000000
A 35.000000 35.000000 0 0 1 638.000000 316.000000
M 715.000000 317.000000
A 34.000000 34.000000 0 0 1 647.000000 317.000000
M 721.000000 319.000000
A 33.000000 33.000000 0 0 1 655.000000 319.000000
M 728.000000 320.000000
A 32.000000 32.000000 0 0 1 664.000000 320.000000
M 733.000000 321.500000
A 30.500000 30.500000 0 0 1 672.000000 321.500000
M 739.000000 323.500000
A 29.500000 29.500000 0 0 1 680.000000 323.500000
M 746.000000 324.500000
A 28.500000 28.500000 0 0 1 689.000000 324.500000
M 752.000000 326.500000
A 27.500000 27.500000 0 0 1 697.000000 326.500000
M 758.000000 328.000000
A 26.000000 26.000000 0 0 1 706.000000 328.000000
M 764.000000 329.000000
A 25.000000 25.000000 0 0 1 714.000000 329.000000
M 770.000000 331.000000
A 24.000000 24.000000 0 0 1 722.000000 331.000000
M 777.000000 333.000000
A 23.000000 23.000000 0 0 1 731.000000 333.000000
M 783.000000 334.000000
A 22.000000 22.000000 0 0 1 739.000000 334.000000
M 788.000000 335.500000
A 20.500000 20.500000 0 0 1 747.000000 335.500000
M 795.000000 336.500000
A 19.500000 19.500000 0 0 1 756.000000 336.500000
M 801.000000 338.500000
A 18.500000 18.500000 0 0 1 764.000000 338.500000
M 808.000000 340.500000
A 17.500000 17.500000 0 0 1 773.000000 340.500000
M 813.000000 341.000000
A 16.000000 16.000000 0 0 1 781.000000 341.000000
M 454.000000 144.500000
A 13.500000 13.500000 0 0 1 481.000000 144.500000
M 459.000000 141.000000
A 12.000000 12.000000 0 0 1 483.000000 141.000000
M 464.000000 137.500000
A 10.500000 10.500000 0 0 1 485.000000 137.500000
M 470.000000 134.000000
A 9.000000 9.000000 0 0 1 488.000000 134.000000
M 475.000000 130.000000
A 7.000000 7.000000 0 0 1 489.000000 130.000000
M 517.000000 102.000000
A 6.000000 6.000000 0 0 1 505.000000 102.000000
M 522.000000 97.500000
A 7.500000 7.500000 0 0 1 507.000000 97.500000
M 528.000000 94.500000
A 9.500000 9.500000 0 0 1 509.000000 94.500000
M 533.000000 91.000000
A 11.000000 11.000000 0 0 1 511.000000 91.000000
M 538.000000 87.500000
A 12.500000 12.500000 0 0 1 513.000000 87.500000
M 543.000000 84.000000
A 14.000000 14.000000 0 0 1 515.000000 84.000000
M 549.000000 80.000000
A 16.000000 16.000000 0 0 1 517.000000 80.000000
M 554.000000 76.500000
A 17.500000 17.500000 0 0 1 519.000000 76.500000
M 559.000000 73.000000
A 19.000000 19.000000 0 0 1 521.000000 73.000000
M 565.000000 70.000000
A 21.000000 21.000000 0 0 1 523.000000 70.000000
M 570.000000 66.500000
A 22.500000 22.500000 0 0 1 525.000000 66.500000
M 575.000000 62.000000
A 24.000000 24.000000 0 0 1 527.000000 62.000000
M 581.000000 58.500000
A 25.500000 25.500000 0 0 1 530.000000 58.500000
M 587.000000 55.500000
A 27.500000 27.500000 0 0 1 532.000000 55.500000
M 592.000000 52.000000
A 29.000000 29.000000 0 0 1 534.000000 52.000000
M 597.000000 48.500000
A 30.500000 30.500000 0 0 1 536.000000 48.500000
M 602.000000 44.000000
A 32.000000 32.000000 0 0 1 538.000000 44.000000
M 608.000000 41.000000
A 34.000000 34.000000 0 0 1 540.000000 41.000000
M 613.000000 37.500000
A 35.500000 35.500000 0 0 1 542.000000 37.500000
M 457.000000 341.000000
A 6.000000 6.000000 0 0 1 469.000000 341.000000
M 457.000000 333.000000
A 6.000000 6.000000 0 0 1 469.000000 333.000000
M 457.000000 326.500000
A 6.500000 6.500000 0 0 1 470.000000 326.500000
M 457.000000 318.500000
A 6.500000 6.500000 0 0 1 470.000000 318.500000
M 457.000000 312.000000
A 7.000000 7.000000 0 0 1 471.000000 312.000000
M 457.000000 304.000000
A 7.000000 7.000000 0 0 1 471.000000 304.000000
M 456.000000 296.500000
A 7.500000 7.500000 0 0 1 471.000000 296.500000
M 456.000000 290.000000
A 8.000000 8.000000 0 0 1 472.000000 290.000000
M 456.000000 282.000000
A 8.000000 8.000000 0 0 1 472.000000 282.000000
M 456.000000 275.500000
A 8.500000 8.500000 0 0 1 473.000000 275.500000
M 456.000000 267.500000
A 8.500000 8.500000 0 0 1 473.000000 267.500000
M 456.000000 261.000000
A 9.000000 9.000000 0 0 1 474.000000 261.000000
M 456.000000 253.500000
A 9.500000 9.500000 0 0 1 475.000000 253.500000
M 456.000000 245.500000
A 9.500000 9.500000 0 0 1 475.000000 245.500000
M 455.000000 239.000000
A 10.000000 10.000000 0 0 1 475.000000 239.000000
M 455.000000 231.000000
A 10.000000 10.000000 0 0 1 475.000000 231.000000
M 455.000000 224.500000
A 10.500000 10.500000 0 0 1 476.000000 224.500000
M 455.000000 217.000000
A 11.000000 11.000000 0 0 1 477.000000 217.000000
M 455.000000 210.000000
A 11.000000 11.000000 0 0 1 477.000000 210.000000
M 455.000000 202.500000
A 11.500000 11.500000 0 0 1 478.000000 202.500000
M 455.000000 195.500000
A 11.500000 11.500000 0 0 1 478.000000 195.500000
M 454.000000 188.000000
A 12.000000 12.000000 0 0 1 478.000000 188.000000
M 454.000000 180.000000
A 12.000000 12.000000 0 0 1 478.000000 180.000000
M 454.000000 173.500000
A 12.500000 12.500000 0 0 1 479.000000 173.500000
M 454.000000 166.000000
A 13.000000 13.000000 0 0 1 480.000000 166.000000
M 454.000000 159.000000
A 13.000000 13.000000 0 0 1 480.000000 159.000000
M 454.000000 151.500000
A 13.500000 13.500000 0 0 1 481.000000 151.500000
M 491.000000 355.000000
A 6.000000 6.000000 0 0 1 479.000000 355.000000
M 496.000000 352.500000
A 7.500000 7.500000 0 0 1 481.000000 352.500000
M 502.000000 350.500000
A 9.500000 9.500000 0 0 1 483.000000 350.500000
M 507.000000 348.000000
A 11.000000 11.000000 0 0 1 485.000000 348.000000
M 513.000000 346.000000
A 13.000000 13.000000 0 0 1 487.000000 346.000000
M 518.000000 343.500000
A 14.500000 14.500000 0 0 1 489.000000 343.500000
M 524.000000 341.500000
A 16.500000 16.500000 0 0 1 491.000000 341.500000
M 529.000000 339.000000
A 18.000000 18.000000 0 0 1 493.000000 339.000000
M 535.000000 336.000000
A 20.000000 20.000000 0 0 1 495.000000 336.000000
M 540.000000 333.500000
A 21.500000 21.500000 0 0 1 497.000000 333.500000
M 546.000000 331.500000
A 23.500000 23.500000 0 0 1 499.000000 331.500000
M 551.000000 329.000000
A 25.000000 25.000000 0 0 1 501.000000 329.000000
M 557.000000 327.000000
A 27.000000 27.000000 0 0 1 503.000000 327.000000
M 562.000000 324.500000
A 28.500000 28.500000 0 0 1 505.000000 324.500000
M 568.000000 322.500000
A 30.500000 30.500000 0 0 1 507.000000 322.500000
M 573.000000 320.000000
A 32.000000 32.000000 0 0 1 509.000000 320.000000
M 579.000000 317.000000
A 34.000000 34.000000 0 0 1 511.000000 317.000000
M 584.000000 314.500000
A 35.500000 35.500000 0 0 1 513.000000 314.500000
M 590.000000 312.500000
A 37.500000 37.500000 0 0 1 515.000000 312.500000
M 595.000000 310.000000
A 39.000000 39.000000 0 0 1 517.000000 310.000000
M 601.000000 308.000000
A 41.000000 41.000000 0 0 1 519.000000 308.000000
M 606.000000 305.500000
A 42.500000 42.500000 0 0 1 521.000000 305.500000
M 612.000000 303.500000
A 44.500000 44.500000 0 0 1 523.000000 303.500000
M 617.000000 301.000000
A 46.000000 46.000000 0 0 1 525.000000 301.000000
M 623.000000 298.000000
A 48.000000 48.000000 0 0 1 527.000000 298.000000
M 459.000000 145.500000
A 14.500000 14.500000 0 0 1 488.000000 145.500000
M 465.000000 147.000000
A 15.000000 15.000000 0 0 1 495.000000 147.000000
M 470.000000 149.000000
A 16.000000 16.000000 0 0 1 502.000000 149.000000
M 476.000000 151.000000
A 17.000000 17.000000 0 0 1 510.000000 151.000000
M 482.000000 152.500000
A 17.500000 17.500000 0 0 1 517.000000 152.500000
M 487.000000 154.500000
A 18.500000 18.500000 0 0 1 524.000000 154.500000
M 493.000000 156.000000
A 19.000000 19.000000 0 0 1 531.000000 156.000000
M 498.000000 158.000000
A 20.000000 20.000000 0 0 1 538.000000 158.000000
M 504.000000 159.500000
A 20.500000 20.500000 0 0 1 545.000000 159.500000
M 510.000000 161.500000
A 21.500000 21.500000 0 0 1 553.000000 161.500000
M 515.000000 162.000000
A 22.000000 22.000000 0 0 1 559.000000 162.000000
M 521.000000 164.000000
A 23.000000 23.000000 0 0 1 567.000000 164.000000
M 527.000000 165.500000
A 23.500000 23.500000 0 0 1 574.000000 165.500000
M 532.000000 167.500000
A 24.500000 24.500000 0 0 1 581.000000 167.500000
M 538.000000 169.000000
A 25.000000 25.000000 0 0 1 588.000000 169.000000
M 543.000000 171.000000
A 26.000000 26.000000 0 0 1 595.000000 171.000000
M 549.000000 173.000000
A 27.000000 27.000000 0 0 1 603.000000 173.000000
M 555.000000 174.500000
A 27.500000 27.500000 0 0 1 610.000000 174.500000
M 560.000000 176.500000
A 28.500000 28.500000 0 0 1 617.000000 176.500000
M 566.000000 178.000000
A 29.000000 29.000000 0 0 1 624.000000 178.000000
M 571.000000 179.000000
A 30.000000 30.000000 0 0 1 631.000000 179.000000
M 577.000000 180.500000
A 30.500000 30.500000 0 0 1 638.000000 180.500000
M 583.000000 182.500000
A 31.500000 31.500000 0 0 1 646.000000 182.500000
M 588.000000 184.000000
A 32.000000 32.000000 0 0 1 652.000000 184.000000
M 594.000000 186.000000
A 33.000000 33.000000 0 0 1 660.000000 186.000000
M 599.000000 187.500000
A 33.500000 33.500000 0 0 1 666.000000 187.500000
M 605.000000 189.500000
A 34.500000 34.500000 0 0 1 674.000000 189.500000
M 611.000000 191.000000
A 35.000000 35.000000 0 0 1 681.000000 191.000000
M 616.000000 193.000000
A 36.000000 36.000000 0 0 1 688.000000 193.000000
M 622.000000 195.000000
A 37.000000 37.000000 0 0 1 696.000000 195.000000
M 469.000000 372.000000
A 6.000000 6.000000 0 0 1 481.000000 372.000000
M 475.000000 373.000000
A 7.000000 7.000000 0 0 1 489.000000 373.000000
M 481.000000 374.000000
A 8.000000 8.000000 0 0 1 497.000000 374.000000
M 487.000000 375.500000
A 8.500000 8.500000 0 0 1 504.000000 375.500000
M 492.000000 376.500000
A 9.500000 9.500000 0 0 1 511.000000 376.500000
M 498.000000 377.500000
A 10.500000 10.500000 0 0 1 519.000000 377.500000
M 504.000000 378.000000
A 11.000000 11.000000 0 0 1 526.000000 378.000000
M 510.000000 380.000000
A 12.000000 12.000000 0 0 1 534.000000 380.000000
M 515.000000 381.000000
A 13.000000 13.000000 0 0 1 541.000000 381.000000
M 521.000000 381.500000
A 13.500000 13.500000 0 0 1 548.000000 381.500000
M 527.000000 383.500000
A 14.500000 14.500000 0 0 1 556.000000 383.500000
M 533.000000 384.000000
A 15.000000 15.000000 0 0 1 563.000000 384.000000
M 538.000000 385.000000
A 16.000000 16.000000 0 0 1 570.000000 385.000000
M 544.000000 386.000000
A 17.000000 17.000000 0 0 1 578.000000 386.000000
M 550.000000 387.500000
A 17.500000 17.500000 0 0 1 585.000000 387.500000
M 556.000000 388.500000
A 18.500000 18.500000 0 0 1 593.000000 388.500000
M 561.000000 389.500000
A 19.500000 19.500000 0 0 1 600.000000 389.500000
M 567.000000 391.000000
A 20.000000 20.000000 0 0 1 607.000000 391.000000
M 573.000000 392.000000
A 21.000000 21.000000 0 0 1 615.000000 392.000000
M 579.000000 392.500000
A 21.500000 21.500000 0 0 1 622.000000 392.500000
M 584.000000 393.500000
A 22.500000 22.500000 0 0 1 629.000000 393.500000
M 590.000000 395.500000
A 23.500000 23.500000 0 0 1 637.000000 395.500000
M 596.000000 396.000000
A 24.000000 24.000000 0 0 1 644.000000 396.000000
M 602.000000 397.000000
A 25.000000 25.000000 0 0 1 652.000000 397.000000
M 607.000000 399.000000
A 26.000000 26.000000 0 0 1 659.000000 399.000000
M 613.000000 399.500000
A 26.500000 26.500000 0 0 1 666.000000 399.500000
M 619.000000 400.500000
A 27.500000 27.500000 0 0 1 674.000000 400.500000
M 625.000000 401.500000
A 28.500000 28.500000 0 0 1 682.000000 401.500000
M 630.000000 403.000000
A 29.000000 29.000000 0 0 1 688.000000 403.000000
"/>
</svg>