<?xml version="1.0" encoding="UTF-8"?>
<svg width="791" height="399" viewBox="0 0 791 399" fill="none" xmlns="http://www.w3.org/2000/svg">
<path stroke="black" stroke-width="0.1500" d="
M 740.000000 286.000000
A 15.000000 15.000000 0 0 1 770.000000 286.000000
M 741.000000 283.000000
A 14.000000 14.000000 0 0 1 769.000000 283.000000
M 743.000000 281.000000
A 13.000000 13.000000 0 0 1 769.000000 281.000000
M 744.000000 278.000000
A 12.000000 12.000000 0 0 1 768.000000 278.000000
M 746.000000 274.500000
A 10.500000 10.500000 0 0 1 767.000000 274.500000
M 748.000000 271.500000
A 9.500000 9.500000 0 0 1 767.000000 271.500000
M 749.000000 268.500000
A 8.500000 8.500000 0 0 1 766.000000 268.500000
M 751.000000 265.500000
A 7.500000 7.500000 0 0 1 766.000000 265.500000
M 753.000000 262.500000
A 6.500000 6.500000 0 0 1 766.000000 262.500000
M 754.000000 259.500000
A 5.500000 5.500000 0 0 1 765.000000 259.500000
M 756.000000 257.500000
A 4.500000 4.500000 0 0 1 765.000000 257.500000
M 758.000000 254.500000
A 3.500000 3.500000 0 0 1 765.000000 254.500000
M 759.000000 251.500000
A 2.500000 2.500000 0 0 1 764.000000 251.500000
M 761.000000 248.000000
A 1.000000 1.000000 0 0 1 763.000000 248.000000
M 763.000000 245.500000
A 0.500000 0.500000 0 0 1 764.000000 245.500000
M 765.000000 242.000000
A 1.000000 1.000000 0 0 1 763.000000 242.000000
M 766.000000 239.000000
A 2.000000 2.000000 0 0 1 762.000000 239.000000
M 768.000000 237.000000
A 3.000000 3.000000 0 0 1 762.000000 237.000000
M 769.000000 234.000000
A 4.000000 4.000000 0 0 1 761.000000 234.000000
M 771.000000 231.000000
A 5.000000 5.000000 0 0 1 761.000000 231.000000
M 772.000000 228.000000
A 6.000000 6.000000 0 0 1 760.000000 228.000000
M 774.000000 225.000000
A 7.000000 7.000000 0 0 1 760.000000 225.000000
M 776.000000 222.500000
A 8.500000 8.500000 0 0 1 759.000000 222.500000
M 778.000000 219.500000
A 9.500000 9.500000 0 0 1 759.000000 219.500000
M 779.000000 216.500000
A 10.500000 10.500000 0 0 1 758.000000 216.500000
M 781.000000 213.500000
A 11.500000 11.500000 0 0 1 758.000000 213.500000
M 782.000000 210.500000
A 12.500000 12.500000 0 0 1 757.000000 210.500000
M 784.000000 207.500000
A 13.500000 13.500000 0 0 1 757.000000 207.500000
M 786.000000 204.500000
A 14.500000 14.500000 0 0 1 757.000000 204.500000
M 787.000000 201.500000
A 15.500000 15.500000 0 0 1 756.000000 201.500000
M 789.000000 198.500000
A 16.500000 16.500000 0 0 1 756.000000 198.500000
M 791.000000 196.000000
A 18.000000 18.000000 0 0 1 755.000000 196.000000
M 648.000000 323.000000
A 26.000000 26.000000 0 0 1 596.000000 323.000000
M 653.000000 319.000000
A 26.000000 26.000000 0 0 1 601.000000 319.000000
M 657.000000 314.500000
A 25.500000 25.500000 0 0 1 606.000000 314.500000
M 662.000000 310.500000
A 25.500000 25.500000 0 0 1 611.000000 310.500000
M 666.000000 306.000000
A 25.000000 25.000000 0 0 1 616.000000 306.000000
M 671.000000 303.000000
A 25.000000 25.000000 0 0 1 621.000000 303.000000
M 676.000000 298.500000
A 24.500000 24.500000 0 0 1 627.000000 298.500000
M 681.000000 294.500000
A 24.500000 24.500000 0 0 1 632.000000 294.500000
M 685.000000 290.000000
A 24.000000 24.000000 0 0 1 637.000000 290.000000
M 689.000000 285.500000
A 23.500000 23.500000 0 0 1 642.000000 285.500000
M 694.000000 281.500000
A 23.500000 23.500000 0 0 1 647.000000 281.500000
M 698.000000 278.000000
A 23.000000 23.000000 0 0 1 652.000000 278.000000
M 703.000000 274.000000
A 23.000000 23.000000 0 0 1 657.000000 274.000000
M 708.000000 269.500000
A 22.500000 22.500000 0 0 1 663.000000 269.500000
M 713.000000 265.500000
A 22.500000 22.500000 0 0 1 668.000000 265.500000
M 717.000000 261.000000
A 22.000000 22.000000 0 0 1 673.000000 261.000000
M 722.000000 257.000000
A 22.000000 22.000000 0 0 1 678.000000 257.000000
M 726.000000 253.500000
A 21.500000 21.500000 0 0 1 683.000000 253.500000
M 731.000000 249.500000
A 21.500000 21.500000 0 0 1 688.000000 249.500000
M 735.000000 245.000000
A 21.000000 21.000000 0 0 1 693.000000 245.000000
M 740.000000 240.500000
A 20.500000 20.500000 0 0 1 699.000000 240.500000
M 745.000000 236.500000
A 20.500000 20.500000 0 0 1 704.000000 236.500000
M 749.000000 232.000000
A 20.000000 20.000000 0 0 1 709.000000 232.000000
M 754.000000 229.000000
A 20.000000 20.000000 0 0 1 714.000000 229.000000
M 758.000000 224.500000
A 19.500000 19.500000 0 0 1 719.000000 224.500000
M 763.000000 220.500000
A 19.500000 19.500000 0 0 1 724.000000 220.500000
M 767.000000 216.000000
A 19.000000 19.000000 0 0 1 729.000000 216.000000
M 773.000000 212.000000
A 19.000000 19.000000 0 0 1 735.000000 212.000000
M 777.000000 207.500000
A 18.500000 18.500000 0 0 1 740.000000 207.500000
M 782.000000 203.500000
A 18.500000 18.500000 0 0 1 745.000000 203.500000
M 786.000000 200.000000
A 18.000000 18.000000 0 0 1 750.000000 200.000000
M 647.000000 325.000000
A 25.000000 25.000000 0 0 1 597.000000 325.000000
M 646.000000 328.000000
A 24.000000 24.000000 0 0 1 598.000000 328.000000
M 645.000000 331.000000
A 23.000000 23.000000 0 0 1 599.000000 331.000000
M 643.000000 332.500000
A 21.500000 21.500000 0 0 1 600.000000 332.500000
M 642.000000 335.500000
A 20.500000 20.500000 0 0 1 601.000000 335.500000
M 642.000000 337.500000
A 19.500000 19.500000 0 0 1 603.000000 337.500000
M 641.000000 340.500000
A 18.500000 18.500000 0 0 1 604.000000 340.500000
M 639.000000 343.000000
A 17.000000 17.000000 0 0 1 605.000000 343.000000
M 638.000000 345.000000
A 16.000000 16.000000 0 0 1 606.000000 345.000000
M 637.000000 348.000000
A 15.000000 15.000000 0 0 1 607.000000 348.000000
M 636.000000 350.000000
A 14.000000 14.000000 0 0 1 608.000000 350.000000
M 634.000000 352.500000
A 12.500000 12.500000 0 0 1 609.000000 352.500000
M 634.000000 354.500000
A 11.500000 11.500000 0 0 1 611.000000 354.500000
M 633.000000 357.500000
A 10.500000 10.500000 0 0 1 612.000000 357.500000
M 632.000000 360.500000
A 9.500000 9.500000 0 0 1 613.000000 360.500000
M 631.000000 362.500000
A 8.500000 8.500000 0 0 1 614.000000 362.500000
M 629.000000 365.000000
A 7.000000 7.000000 0 0 1 615.000000 365.000000
M 628.000000 367.000000
A 6.000000 6.000000 0 0 1 616.000000 367.000000
M 627.000000 370.000000
A 5.000000 5.000000 0 0 1 617.000000 370.000000
M 627.000000 373.000000
A 4.000000 4.000000 0 0 1 619.000000 373.000000
M 625.000000 374.500000
A 2.500000 2.500000 0 0 1 620.000000 374.500000
M 624.000000 377.500000
A 1.500000 1.500000 0 0 1 621.000000 377.500000
M 623.000000 379.500000
A 0.500000 0.500000 0 0 1 622.000000 379.500000
M 622.000000 382.500000
A 0.500000 0.500000 0 0 1 623.000000 382.500000
M 621.000000 385.000000
A 2.000000 2.000000 0 0 1 625.000000 385.000000
M 620.000000 387.000000
A 3.000000 3.000000 0 0 1 626.000000 387.000000
M 618.000000 390.000000
A 4.000000 4.000000 0 0 1 626.000000 390.000000
M 617.000000 392.000000
A 5.000000 5.000000 0 0 1 627.000000 392.000000
M 616.000000 394.500000
A 6.500000 6.500000 0 0 1 629.000000 394.500000
M 615.000000 397.500000
A 7.500000 7.500000 0 0 1 630.000000 397.500000
M 614.000000 399.500000
A 8.500000 8.500000 0 0 1 631.000000 399.500000
M 618.000000 396.000000
A 9.000000 9.000000 0 0 1 636.000000 396.000000
M 622.000000 392.000000
A 9.000000 9.000000 0 0 1 640.000000 392.000000
M 626.000000 388.000000
A 9.000000 9.000000 0 0 1 644.000000 388.000000
M 630.000000 385.500000
A 9.500000 9.500000 0 0 1 649.000000 385.500000
M 634.000000 381.500000
A 9.500000 9.500000 0 0 1 653.000000 381.500000
M 638.000000 378.000000
A 10.000000 10.000000 0 0 1 658.000000 378.000000
M 642.000000 374.000000
A 10.000000 10.000000 0 0 1 662.000000 374.000000
M 646.000000 370.000000
A 10.000000 10.000000 0 0 1 666.000000 370.000000
M 651.000000 366.500000
A 10.500000 10.500000 0 0 1 672.000000 366.500000
M 655.000000 362.500000
A 10.500000 10.500000 0 0 1 676.000000 362.500000
M 659.000000 360.000000
A 11.000000 11.000000 0 0 1 681.000000 360.000000
M 663.000000 356.000000
A 11.000000 11.000000 0 0 1 685.000000 356.000000
M 667.000000 352.000000
A 11.000000 11.000000 0 0 1 689.000000 352.000000
M 671.000000 348.500000
A 11.500000 11.500000 0 0 1 694.000000 348.500000
M 675.000000 344.500000
A 11.500000 11.500000 0 0 1 698.000000 344.500000
M 679.000000 341.000000
A 12.000000 12.000000 0 0 1 703.000000 341.000000
M 683.000000 337.000000
A 12.000000 12.000000 0 0 1 707.000000 337.000000
M 687.000000 333.500000
A 12.500000 12.500000 0 0 1 712.000000 333.500000
M 691.000000 330.500000
A 12.500000 12.500000 0 0 1 716.000000 330.500000
M 695.000000 326.500000
A 12.500000 12.500000 0 0 1 720.000000 326.500000
M 699.000000 323.000000
A 13.000000 13.000000 0 0 1 725.000000 323.000000
M 703.000000 319.000000
A 13.000000 13.000000 0 0 1 729.000000 319.000000
M 707.000000 315.500000
A 13.500000 13.500000 0 0 1 734.000000 315.500000
M 711.000000 311.500000
A 13.500000 13.500000 0 0 1 738.000000 311.500000
M 715.000000 307.500000
A 13.500000 13.500000 0 0 1 742.000000 307.500000
M 719.000000 305.000000
A 14.000000 14.000000 0 0 1 747.000000 305.000000
M 723.000000 301.000000
A 14.000000 14.000000 0 0 1 751.000000 301.000000
M 727.000000 297.500000
A 14.500000 14.500000 0 0 1 756.000000 297.500000
M 731.000000 293.500000
A 14.500000 14.500000 0 0 1 760.000000 293.500000
M 735.000000 289.500000
A 14.500000 14.500000 0 0 1 764.000000 289.500000
M 500.000000 185.000000
A 17.000000 17.000000 0 0 1 466.000000 185.000000
M 506.000000 189.500000
A 17.500000 17.500000 0 0 1 471.000000 189.500000
M 510.000000 193.500000
A 17.500000 17.500000 0 0 1 475.000000 193.500000
M 515.000000 198.000000
A 18.000000 18.000000 0 0 1 479.000000 198.000000
M 519.000000 203.000000
A 18.000000 18.000000 0 0 1 483.000000 203.000000
M 524.000000 207.500000
A 18.500000 18.500000 0 0 1 487.000000 207.500000
M 529.000000 212.000000
A 19.000000 19.000000 0 0 1 491.000000 212.000000
M 534.000000 216.000000
A 19.000000 19.000000 0 0 1 496.000000 216.000000
M 539.000000 220.500000
A 19.500000 19.500000 0 0 1 500.000000 220.500000
M 543.000000 224.500000
A 19.500000 19.500000 0 0 1 504.000000 224.500000
M 548.000000 230.000000
A 20.000000 20.000000 0 0 1 508.000000 230.000000
M 553.000000 234.500000
A 20.500000 20.500000 0 0 1 512.000000 234.500000
M 557.000000 238.500000
A 20.500000 20.500000 0 0 1 516.000000 238.500000
M 563.000000 243.000000
A 21.000000 21.000000 0 0 1 521.000000 243.000000
M 567.000000 247.000000
A 21.000000 21.000000 0 0 1 525.000000 247.000000
M 572.000000 251.500000
A 21.500000 21.500000 0 0 1 529.000000 251.500000
M 577.000000 256.000000
A 22.000000 22.000000 0 0 1 533.000000 256.000000
M 581.000000 261.000000
A 22.000000 22.000000 0 0 1 537.000000 261.000000
M 586.000000 265.500000
A 22.500000 22.500000 0 0 1 541.000000 265.500000
M 591.000000 269.500000
A 22.500000 22.500000 0 0 1 546.000000 269.500000
M 596.000000 274.000000
A 23.000000 23.000000 0 0 1 550.000000 274.000000
M 600.000000 278.000000
A 23.000000 23.000000 0 0 1 554.000000 278.000000
M 605.000000 282.500000
A 23.500000 23.500000 0 0 1 558.000000 282.500000
M 610.000000 288.000000
A 24.000000 24.000000 0 0 1 562.000000 288.000000
M 614.000000 292.000000
A 24.000000 24.000000 0 0 1 566.000000 292.000000
M 620.000000 296.500000
A 24.500000 24.500000 0 0 1 571.000000 296.500000
M 624.000000 300.500000
A 24.500000 24.500000 0 0 1 575.000000 300.500000
M 629.000000 305.000000
A 25.000000 25.000000 0 0 1 579.000000 305.000000
M 634.000000 309.500000
A 25.500000 25.500000 0 0 1 583.000000 309.500000
M 638.000000 313.500000
A 25.500000 25.500000 0 0 1 587.000000 313.500000
M 644.000000 319.000000
A 26.000000 26.000000 0 0 1 592.000000 319.000000
M 500.000000 188.000000
A 16.000000 16.000000 0 0 1 468.000000 188.000000
M 500.000000 191.000000
A 15.000000 15.000000 0 0 1 470.000000 191.000000
M 499.000000 194.000000
A 14.000000 14.000000 0 0 1 471.000000 194.000000
M 499.000000 197.000000
A 13.000000 13.000000 0 0 1 473.000000 197.000000
M 499.000000 200.000000
A 12.000000 12.000000 0 0 1 475.000000 200.000000
M 498.000000 203.000000
A 11.000000 11.000000 0 0 1 476.000000 203.000000
M 497.000000 205.500000
A 9.500000 9.500000 0 0 1 478.000000 205.500000
M 497.000000 208.500000
A 8.500000 8.500000 0 0 1 480.000000 208.500000
M 496.000000 211.500000
A 7.500000 7.500000 0 0 1 481.000000 211.500000
M 496.000000 214.500000
A 6.500000 6.500000 0 0 1 483.000000 214.500000
M 495.000000 217.500000
A 5.500000 5.500000 0 0 1 484.000000 217.500000
M 495.000000 220.500000
A 4.500000 4.500000 0 0 1 486.000000 220.500000
M 495.000000 223.500000
A 3.500000 3.500000 0 0 1 488.000000 223.500000
M 494.000000 226.500000
A 2.500000 2.500000 0 0 1 489.000000 226.500000
M 494.000000 229.500000
A 1.500000 1.500000 0 0 1 491.000000 229.500000
M 494.000000 232.500000
A 0.500000 0.500000 0 0 1 493.000000 232.500000
M 493.000000 236.000000
A 1.000000 1.000000 0 0 1 495.000000 236.000000
M 492.000000 239.000000
A 2.000000 2.000000 0 0 1 496.000000 239.000000
M 492.000000 241.000000
A 3.000000 3.000000 0 0 1 498.000000 241.000000
M 491.000000 244.000000
A 4.000000 4.000000 0 0 1 499.000000 244.000000
M 491.000000 247.000000
A 5.000000 5.000000 0 0 1 501.000000 247.000000
M 490.000000 250.000000
A 6.000000 6.000000 0 0 1 502.000000 250.000000
M 490.000000 253.000000
A 7.000000 7.000000 0 0 1 504.000000 253.000000
M 490.000000 256.000000
A 8.000000 8.000000 0 0 1 506.000000 256.000000
M 489.000000 259.000000
A 9.000000 9.000000 0 0 1 507.000000 259.000000
M 489.000000 262.000000
A 10.000000 10.000000 0 0 1 509.000000 262.000000
M 488.000000 265.500000
A 11.500000 11.500000 0 0 1 511.000000 265.500000
M 488.000000 268.500000
A 12.500000 12.500000 0 0 1 513.000000 268.500000
M 487.000000 271.500000
A 13.500000 13.500000 0 0 1 514.000000 271.500000
M 487.000000 273.500000
A 14.500000 14.500000 0 0 1 516.000000 273.500000
M 486.000000 276.500000
A 15.500000 15.500000 0 0 1 517.000000 276.500000
M 490.000000 281.000000
A 15.000000 15.000000 0 0 1 520.000000 281.000000
M 495.000000 285.000000
A 15.000000 15.000000 0 0 1 525.000000 285.000000
M 499.000000 289.000000
A 15.000000 15.000000 0 0 1 529.000000 289.000000
M 503.000000 292.500000
A 14.500000 14.500000 0 0 1 532.000000 292.500000
M 507.000000 296.500000
A 14.500000 14.500000 0 0 1 536.000000 296.500000
M 511.000000 300.000000
A 14.000000 14.000000 0 0 1 539.000000 300.000000
M 515.000000 305.000000
A 14.000000 14.000000 0 0 1 543.000000 305.000000
M 519.000000 308.500000
A 13.500000 13.500000 0 0 1 546.000000 308.500000
M 523.000000 312.500000
A 13.500000 13.500000 0 0 1 550.000000 312.500000
M 528.000000 316.000000
A 13.000000 13.000000 0 0 1 554.000000 316.000000
M 532.000000 320.000000
A 13.000000 13.000000 0 0 1 558.000000 320.000000
M 536.000000 325.000000
A 13.000000 13.000000 0 0 1 562.000000 325.000000
M 540.000000 328.500000
A 12.500000 12.500000 0 0 1 565.000000 328.500000
M 544.000000 332.500000
A 12.500000 12.500000 0 0 1 569.000000 332.500000
M 548.000000 336.000000
A 12.000000 12.000000 0 0 1 572.000000 336.000000
M 552.000000 340.000000
A 12.000000 12.000000 0 0 1 576.000000 340.000000
M 556.000000 343.500000
A 11.500000 11.500000 0 0 1 579.000000 343.500000
M 561.000000 348.500000
A 11.500000 11.500000 0 0 1 584.000000 348.500000
M 565.000000 352.000000
A 11.000000 11.000000 0 0 1 587.000000 352.000000
M 569.000000 356.000000
A 11.000000 11.000000 0 0 1 591.000000 356.000000
M 573.000000 360.000000
A 11.000000 11.000000 0 0 1 595.000000 360.000000
M 577.000000 363.500000
A 10.500000 10.500000 0 0 1 598.000000 363.500000
M 581.000000 368.500000
A 10.500000 10.500000 0 0 1 602.000000 368.500000
M 585.000000 372.000000
A 10.000000 10.000000 0 0 1 605.000000 372.000000
M 589.000000 376.000000
A 10.000000 10.000000 0 0 1 609.000000 376.000000
M 594.000000 379.500000
A 9.500000 9.500000 0 0 1 613.000000 379.500000
M 598.000000 383.500000
A 9.500000 9.500000 0 0 1 617.000000 383.500000
M 602.000000 387.000000
A 9.000000 9.000000 0 0 1 620.000000 387.000000
M 606.000000 392.000000
A 9.000000 9.000000 0 0 1 624.000000 392.000000
M 610.000000 396.000000
A 9.000000 9.000000 0 0 1 628.000000 396.000000
M 505.000000 181.000000
A 17.000000 17.000000 0 0 1 471.000000 181.000000
M 510.000000 177.500000
A 16.500000 16.500000 0 0 1 477.000000 177.500000
M 515.000000 173.500000
A 16.500000 16.500000 0 0 1 482.000000 173.500000
M 519.000000 170.000000
A 16.000000 16.000000 0 0 1 487.000000 170.000000
M 524.000000 166.000000
A 16.000000 16.000000 0 0 1 492.000000 166.000000
M 528.000000 161.500000
A 15.500000 15.500000 0 0 1 497.000000 161.500000
M 533.000000 158.500000
A 15.500000 15.500000 0 0 1 502.000000 158.500000
M 537.000000 154.000000
A 15.000000 15.000000 0 0 1 507.000000 154.000000
M 542.000000 151.000000
A 15.000000 15.000000 0 0 1 512.000000 151.000000
M 546.000000 146.500000
A 14.500000 14.500000 0 0 1 517.000000 146.500000
M 552.000000 143.500000
A 14.500000 14.500000 0 0 1 523.000000 143.500000
M 556.000000 139.000000
A 14.000000 14.000000 0 0 1 528.000000 139.000000
M 561.000000 135.000000
A 14.000000 14.000000 0 0 1 533.000000 135.000000
M 565.000000 131.500000
A 13.500000 13.500000 0 0 1 538.000000 131.500000
M 570.000000 127.500000
A 13.500000 13.500000 0 0 1 543.000000 127.500000
M 574.000000 124.000000
A 13.000000 13.000000 0 0 1 548.000000 124.000000
M 579.000000 120.000000
A 13.000000 13.000000 0 0 1 553.000000 120.000000
M 583.000000 115.500000
A 12.500000 12.500000 0 0 1 558.000000 115.500000
M 587.000000 112.000000
A 12.000000 12.000000 0 0 1 563.000000 112.000000
M 592.000000 108.000000
A 12.000000 12.000000 0 0 1 568.000000 108.000000
M 597.000000 104.500000
A 11.500000 11.500000 0 0 1 574.000000 104.500000
M 602.000000 100.500000
A 11.500000 11.500000 0 0 1 579.000000 100.500000
M 606.000000 97.000000
A 11.000000 11.000000 0 0 1 584.000000 97.000000
M 611.000000 93.000000
A 11.000000 11.000000 0 0 1 589.000000 93.000000
M 615.000000 88.500000
A 10.500000 10.500000 0 0 1 594.000000 88.500000
M 620.000000 85.500000
A 10.500000 10.500000 0 0 1 599.000000 85.500000
M 624.000000 81.000000
A 10.000000 10.000000 0 0 1 604.000000 81.000000
M 629.000000 78.000000
A 10.000000 10.000000 0 0 1 609.000000 78.000000
M 633.000000 73.500000
A 9.500000 9.500000 0 0 1 614.000000 73.500000
M 638.000000 69.500000
A 9.500000 9.500000 0 0 1 619.000000 69.500000
M 643.000000 66.000000
A 9.000000 9.000000 0 0 1 625.000000 66.000000
M 612.000000 170.500000
A 21.500000 21.500000 0 0 1 655.000000 170.500000
M 613.000000 166.500000
A 20.500000 20.500000 0 0 1 654.000000 166.500000
M 614.000000 163.500000
A 19.500000 19.500000 0 0 1 653.000000 163.500000
M 615.000000 160.500000
A 18.500000 18.500000 0 0 1 652.000000 160.500000
M 616.000000 156.500000
A 17.500000 17.500000 0 0 1 651.000000 156.500000
M 617.000000 153.500000
A 16.500000 16.500000 0 0 1 650.000000 153.500000
M 618.000000 149.500000
A 15.500000 15.500000 0 0 1 649.000000 149.500000
M 619.000000 146.500000
A 14.500000 14.500000 0 0 1 648.000000 146.500000
M 620.000000 143.500000
A 13.500000 13.500000 0 0 1 647.000000 143.500000
M 621.000000 139.500000
A 12.500000 12.500000 0 0 1 646.000000 139.500000
M 622.000000 136.500000
A 11.500000 11.500000 0 0 1 645.000000 136.500000
M 623.000000 133.500000
A 10.500000 10.500000 0 0 1 644.000000 133.500000
M 624.000000 129.500000
A 9.500000 9.500000 0 0 1 643.000000 129.500000
M 625.000000 126.500000
A 8.500000 8.500000 0 0 1 642.000000 126.500000
M 626.000000 123.500000
A 7.500000 7.500000 0 0 1 641.000000 123.500000
M 627.000000 119.500000
A 6.500000 6.500000 0 0 1 640.000000 119.500000
M 628.000000 116.500000
A 5.500000 5.500000 0 0 1 639.000000 116.500000
M 629.000000 112.500000
A 4.500000 4.500000 0 0 1 638.000000 112.500000
M 630.000000 109.500000
A 3.500000 3.500000 0 0 1 637.000000 109.500000
M 631.000000 106.500000
A 2.500000 2.500000 0 0 1 636.000000 106.500000
M 632.000000 102.500000
A 1.500000 1.500000 0 0 1 635.000000 102.500000
M 633.000000 99.500000
A 0.500000 0.500000 0 0 1 634.000000 99.500000
M 634.000000 96.500000
A 0.500000 0.500000 0 0 1 633.000000 96.500000
M 635.000000 93.500000
A 1.500000 1.500000 0 0 1 632.000000 93.500000
M 636.000000 89.500000
A 2.500000 2.500000 0 0 1 631.000000 89.500000
M 637.000000 86.500000
A 3.500000 3.500000 0 0 1 630.000000 86.500000
M 638.000000 83.500000
A 4.500000 4.500000 0 0 1 629.000000 83.500000
M 638.000000 79.000000
A 5.000000 5.000000 0 0 1 628.000000 79.000000
M 639.000000 76.000000
A 6.000000 6.000000 0 0 1 627.000000 76.000000
M 640.000000 73.000000
A 7.000000 7.000000 0 0 1 626.000000 73.000000
M 642.000000 69.000000
A 8.000000 8.000000 0 0 1 626.000000 69.000000
M 490.000000 273.500000
A 15.500000 15.500000 0 0 1 521.000000 273.500000
M 494.000000 270.000000
A 16.000000 16.000000 0 0 1 526.000000 270.000000
M 498.000000 266.000000
A 16.000000 16.000000 0 0 1 530.000000 266.000000
M 503.000000 263.000000
A 16.000000 16.000000 0 0 1 535.000000 263.000000
M 507.000000 259.500000
A 16.500000 16.500000 0 0 1 540.000000 259.500000
M 511.000000 256.500000
A 16.500000 16.500000 0 0 1 544.000000 256.500000
M 515.000000 253.000000
A 17.000000 17.000000 0 0 1 549.000000 253.000000
M 519.000000 249.000000
A 17.000000 17.000000 0 0 1 553.000000 249.000000
M 523.000000 246.000000
A 17.000000 17.000000 0 0 1 557.000000 246.000000
M 527.000000 242.500000
A 17.500000 17.500000 0 0 1 562.000000 242.500000
M 531.000000 238.500000
A 17.500000 17.500000 0 0 1 566.000000 238.500000
M 535.000000 236.000000
A 18.000000 18.000000 0 0 1 571.000000 236.000000
M 539.000000 232.000000
A 18.000000 18.000000 0 0 1 575.000000 232.000000
M 543.000000 228.000000
A 18.000000 18.000000 0 0 1 579.000000 228.000000
M 547.000000 225.500000
A 18.500000 18.500000 0 0 1 584.000000 225.500000
M 551.000000 221.500000
A 18.500000 18.500000 0 0 1 588.000000 221.500000
M 555.000000 219.000000
A 19.000000 19.000000 0 0 1 593.000000 219.000000
M 559.000000 215.000000
A 19.000000 19.000000 0 0 1 597.000000 215.000000
M 563.000000 211.000000
A 19.000000 19.000000 0 0 1 601.000000 211.000000
M 567.000000 208.500000
A 19.500000 19.500000 0 0 1 606.000000 208.500000
M 571.000000 204.500000
A 19.500000 19.500000 0 0 1 610.000000 204.500000
M 575.000000 200.500000
A 19.500000 19.500000 0 0 1 614.000000 200.500000
M 579.000000 198.000000
A 20.000000 20.000000 0 0 1 619.000000 198.000000
M 583.000000 194.000000
A 20.000000 20.000000 0 0 1 623.000000 194.000000
M 587.000000 190.500000
A 20.500000 20.500000 0 0 1 628.000000 190.500000
M 591.000000 187.500000
A 20.500000 20.500000 0 0 1 632.000000 187.500000
M 595.000000 183.500000
A 20.500000 20.500000 0 0 1 636.000000 183.500000
M 599.000000 181.000000
A 21.000000 21.000000 0 0 1 641.000000 181.000000
M 603.000000 177.000000
A 21.000000 21.000000 0 0 1 645.000000 177.000000
M 608.000000 173.500000
A 21.500000 21.500000 0 0 1 651.000000 173.500000
M 648.000000 70.500000
A 9.500000 9.500000 0 0 1 629.000000 70.500000
M 653.000000 75.000000
A 10.000000 10.000000 0 0 1 633.000000 75.000000
M 657.000000 79.000000
A 10.000000 10.000000 0 0 1 637.000000 79.000000
M 662.000000 82.500000
A 10.500000 10.500000 0 0 1 641.000000 82.500000
M 667.000000 86.500000
A 10.500000 10.500000 0 0 1 646.000000 86.500000
M 672.000000 91.000000
A 11.000000 11.000000 0 0 1 650.000000 91.000000
M 676.000000 95.000000
A 11.000000 11.000000 0 0 1 654.000000 95.000000
M 681.000000 99.500000
A 11.500000 11.500000 0 0 1 658.000000 99.500000
M 685.000000 103.500000
A 11.500000 11.500000 0 0 1 662.000000 103.500000
M 691.000000 108.000000
A 12.000000 12.000000 0 0 1 667.000000 108.000000
M 695.000000 112.000000
A 12.000000 12.000000 0 0 1 671.000000 112.000000
M 700.000000 116.500000
A 12.500000 12.500000 0 0 1 675.000000 116.500000
M 705.000000 121.000000
A 13.000000 13.000000 0 0 1 679.000000 121.000000
M 710.000000 124.000000
A 13.000000 13.000000 0 0 1 684.000000 124.000000
M 715.000000 128.500000
A 13.500000 13.500000 0 0 1 688.000000 128.500000
M 719.000000 132.500000
A 13.500000 13.500000 0 0 1 692.000000 132.500000
M 724.000000 137.000000
A 14.000000 14.000000 0 0 1 696.000000 137.000000
M 728.000000 141.000000
A 14.000000 14.000000 0 0 1 700.000000 141.000000
M 734.000000 145.500000
A 14.500000 14.500000 0 0 1 705.000000 145.500000
M 738.000000 149.500000
A 14.500000 14.500000 0 0 1 709.000000 149.500000
M 743.000000 154.000000
A 15.000000 15.000000 0 0 1 713.000000 154.000000
M 748.000000 158.500000
A 15.500000 15.500000 0 0 1 717.000000 158.500000
M 752.000000 162.500000
A 15.500000 15.500000 0 0 1 721.000000 162.500000
M 758.000000 166.000000
A 16.000000 16.000000 0 0 1 726.000000 166.000000
M 762.000000 170.000000
A 16.000000 16.000000 0 0 1 730.000000 170.000000
M 767.000000 174.500000
A 16.500000 16.500000 0 0 1 734.000000 174.500000
M 771.000000 178.500000
A 16.500000 16.500000 0 0 1 738.000000 178.500000
M 777.000000 183.000000
A 17.000000 17.000000 0 0 1 743.000000 183.000000
M 781.000000 187.000000
A 17.000000 17.000000 0 0 1 747.000000 187.000000
M 786.000000 191.500000
A 17.500000 17.500000 0 0 1 751.000000 191.500000
M 616.000000 174.500000
A 21.500000 21.500000 0 0 1 659.000000 174.500000
M 620.000000 178.000000
A 21.000000 21.000000 0 0 1 662.000000 178.000000
M 624.000000 182.000000
A 21.000000 21.000000 0 0 1 666.000000 182.000000
M 628.000000 184.500000
A 20.500000 20.500000 0 0 1 669.000000 184.500000
M 632.000000 188.500000
A 20.500000 20.500000 0 0 1 673.000000 188.500000
M 636.000000 192.000000
A 20.000000 20.000000 0 0 1 676.000000 192.000000
M 640.000000 196.000000
A 20.000000 20.000000 0 0 1 680.000000 196.000000
M 645.000000 200.000000
A 20.000000 20.000000 0 0 1 685.000000 200.000000
M 649.000000 203.500000
A 19.500000 19.500000 0 0 1 688.000000 203.500000
M 653.000000 207.500000
A 19.500000 19.500000 0 0 1 692.000000 207.500000
M 657.000000 211.000000
A 19.000000 19.000000 0 0 1 695.000000 211.000000
M 661.000000 215.000000
A 19.000000 19.000000 0 0 1 699.000000 215.000000
M 665.000000 218.500000
A 18.500000 18.500000 0 0 1 702.000000 218.500000
M 669.000000 222.500000
A 18.500000 18.500000 0 0 1 706.000000 222.500000
M 673.000000 226.500000
A 18.500000 18.500000 0 0 1 710.000000 226.500000
M 678.000000 230.000000
A 18.000000 18.000000 0 0 1 714.000000 230.000000
M 682.000000 234.000000
A 18.000000 18.000000 0 0 1 718.000000 234.000000
M 686.000000 237.500000
A 17.500000 17.500000 0 0 1 721.000000 237.500000
M 690.000000 241.500000
A 17.500000 17.500000 0 0 1 725.000000 241.500000
M 694.000000 245.000000
A 17.000000 17.000000 0 0 1 728.000000 245.000000
M 698.000000 249.000000
A 17.000000 17.000000 0 0 1 732.000000 249.000000
M 702.000000 253.000000
A 17.000000 17.000000 0 0 1 736.000000 253.000000
M 707.000000 256.500000
A 16.500000 16.500000 0 0 1 740.000000 256.500000
M 711.000000 260.500000
A 16.500000 16.500000 0 0 1 744.000000 260.500000
M 715.000000 264.000000
A 16.000000 16.000000 0 0 1 747.000000 264.000000
M 719.000000 268.000000
A 16.000000 16.000000 0 0 1 751.000000 268.000000
M 723.000000 271.000000
A 16.000000 16.000000 0 0 1 755.000000 271.000000
M 727.000000 274.500000
A 15.500000 15.500000 0 0 1 758.000000 274.500000
M 731.000000 278.500000
A 15.500000 15.500000 0 0 1 762.000000 278.500000
M 735.000000 282.000000
A 15.000000 15.000000 0 0 1 765.000000 282.000000
"/>
</svg>