<?xml version="1.0" encoding="UTF-8"?>
<svg width="936" height="592" viewBox="0 0 936 592" fill="none" xmlns="http://www.w3.org/2000/svg">
<path stroke="black" stroke-width="0.1500" d="
M 873.000000 295.500000
A 31.500000 31.500000 0 0 1 936.000000 295.500000
M 875.000000 289.000000
A 30.000000 30.000000 0 0 1 935.000000 289.000000
M 876.000000 284.000000
A 29.000000 29.000000 0 0 1 934.000000 284.000000
M 877.000000 278.000000
A 28.000000 28.000000 0 0 1 933.000000 278.000000
M 879.000000 273.000000
A 27.000000 27.000000 0 0 1 933.000000 273.000000
M 880.000000 267.000000
A 26.000000 26.000000 0 0 1 932.000000 267.000000
M 881.000000 261.500000
A 24.500000 24.500000 0 0 1 930.000000 261.500000
M 883.000000 255.500000
A 23.500000 23.500000 0 0 1 930.000000 255.500000
M 884.000000 250.500000
A 22.500000 22.500000 0 0 1 929.000000 250.500000
M 885.000000 244.500000
A 21.500000 21.500000 0 0 1 928.000000 244.500000
M 886.000000 239.000000
A 20.000000 20.000000 0 0 1 926.000000 239.000000
M 888.000000 233.000000
A 19.000000 19.000000 0 0 1 926.000000 233.000000
M 889.000000 228.000000
A 18.000000 18.000000 0 0 1 925.000000 228.000000
M 890.000000 222.000000
A 17.000000 17.000000 0 0 1 924.000000 222.000000
M 892.000000 217.000000
A 16.000000 16.000000 0 0 1 924.000000 217.000000
M 893.000000 210.500000
A 14.500000 14.500000 0 0 1 922.000000 210.500000
M 894.000000 205.500000
A 13.500000 13.500000 0 0 1 921.000000 205.500000
M 896.000000 199.500000
A 12.500000 12.500000 0 0 1 921.000000 199.500000
M 897.000000 194.500000
A 11.500000 11.500000 0 0 1 920.000000 194.500000
M 898.000000 188.000000
A 10.000000 10.000000 0 0 1 918.000000 188.000000
M 900.000000 183.000000
A 9.000000 9.000000 0 0 1 918.000000 183.000000
M 901.000000 177.000000
A 8.000000 8.000000 0 0 1 917.000000 177.000000
M 902.000000 172.000000
A 7.000000 7.000000 0 0 1 916.000000 172.000000
M 918.000000 104.500000
A 6.500000 6.500000 0 0 1 905.000000 104.500000
M 919.000000 98.500000
A 7.500000 7.500000 0 0 1 904.000000 98.500000
M 920.000000 92.500000
A 8.500000 8.500000 0 0 1 903.000000 92.500000
M 922.000000 88.000000
A 10.000000 10.000000 0 0 1 902.000000 88.000000
M 923.000000 82.000000
A 11.000000 11.000000 0 0 1 901.000000 82.000000
M 924.000000 76.000000
A 12.000000 12.000000 0 0 1 900.000000 76.000000
M 925.000000 71.000000
A 13.000000 13.000000 0 0 1 899.000000 71.000000
M 927.000000 65.500000
A 14.500000 14.500000 0 0 1 898.000000 65.500000
M 928.000000 59.500000
A 15.500000 15.500000 0 0 1 897.000000 59.500000
M 929.000000 53.500000
A 16.500000 16.500000 0 0 1 896.000000 53.500000
M 930.000000 48.500000
A 17.500000 17.500000 0 0 1 895.000000 48.500000
M 932.000000 42.500000
A 18.500000 18.500000 0 0 1 895.000000 42.500000
M 934.000000 37.000000
A 20.000000 20.000000 0 0 1 894.000000 37.000000
M 766.000000 339.500000
A 46.500000 46.500000 0 0 1 673.000000 339.500000
M 769.000000 333.000000
A 46.000000 46.000000 0 0 1 677.000000 333.000000
M 773.000000 326.500000
A 45.500000 45.500000 0 0 1 682.000000 326.500000
M 777.000000 320.000000
A 45.000000 45.000000 0 0 1 687.000000 320.000000
M 781.000000 313.500000
A 44.500000 44.500000 0 0 1 692.000000 313.500000
M 784.000000 306.500000
A 43.500000 43.500000 0 0 1 697.000000 306.500000
M 787.000000 300.000000
A 43.000000 43.000000 0 0 1 701.000000 300.000000
M 791.000000 293.500000
A 42.500000 42.500000 0 0 1 706.000000 293.500000
M 795.000000 287.000000
A 42.000000 42.000000 0 0 1 711.000000 287.000000
M 799.000000 280.500000
A 41.500000 41.500000 0 0 1 716.000000 280.500000
M 803.000000 274.000000
A 41.000000 41.000000 0 0 1 721.000000 274.000000
M 805.000000 267.000000
A 40.000000 40.000000 0 0 1 725.000000 267.000000
M 809.000000 260.500000
A 39.500000 39.500000 0 0 1 730.000000 260.500000
M 813.000000 254.000000
A 39.000000 39.000000 0 0 1 735.000000 254.000000
M 817.000000 247.500000
A 38.500000 38.500000 0 0 1 740.000000 247.500000
M 821.000000 241.000000
A 38.000000 38.000000 0 0 1 745.000000 241.000000
M 824.000000 234.500000
A 37.500000 37.500000 0 0 1 749.000000 234.500000
M 827.000000 227.500000
A 36.500000 36.500000 0 0 1 754.000000 227.500000
M 831.000000 221.000000
A 36.000000 36.000000 0 0 1 759.000000 221.000000
M 835.000000 214.500000
A 35.500000 35.500000 0 0 1 764.000000 214.500000
M 839.000000 208.000000
A 35.000000 35.000000 0 0 1 769.000000 208.000000
M 842.000000 201.500000
A 34.500000 34.500000 0 0 1 773.000000 201.500000
M 846.000000 195.000000
A 34.000000 34.000000 0 0 1 778.000000 195.000000
M 850.000000 188.500000
A 33.500000 33.500000 0 0 1 783.000000 188.500000
M 853.000000 181.500000
A 32.500000 32.500000 0 0 1 788.000000 181.500000
M 857.000000 175.000000
A 32.000000 32.000000 0 0 1 793.000000 175.000000
M 860.000000 168.500000
A 31.500000 31.500000 0 0 1 797.000000 168.500000
M 864.000000 162.000000
A 31.000000 31.000000 0 0 1 802.000000 162.000000
M 868.000000 155.500000
A 30.500000 30.500000 0 0 1 807.000000 155.500000
M 872.000000 149.000000
A 30.000000 30.000000 0 0 1 812.000000 149.000000
M 875.000000 142.000000
A 29.000000 29.000000 0 0 1 817.000000 142.000000
M 879.000000 135.500000
A 28.500000 28.500000 0 0 1 822.000000 135.500000
M 882.000000 129.000000
A 28.000000 28.000000 0 0 1 826.000000 129.000000
M 886.000000 122.500000
A 27.500000 27.500000 0 0 1 831.000000 122.500000
M 890.000000 116.000000
A 27.000000 27.000000 0 0 1 836.000000 116.000000
M 894.000000 109.500000
A 26.500000 26.500000 0 0 1 841.000000 109.500000
M 897.000000 102.500000
A 25.500000 25.500000 0 0 1 846.000000 102.500000
M 900.000000 96.000000
A 25.000000 25.000000 0 0 1 850.000000 96.000000
M 904.000000 89.500000
A 24.500000 24.500000 0 0 1 855.000000 89.500000
M 908.000000 83.000000
A 24.000000 24.000000 0 0 1 860.000000 83.000000
M 912.000000 76.500000
A 23.500000 23.500000 0 0 1 865.000000 76.500000
M 916.000000 70.000000
A 23.000000 23.000000 0 0 1 870.000000 70.000000
M 918.000000 63.000000
A 22.000000 22.000000 0 0 1 874.000000 63.000000
M 922.000000 56.500000
A 21.500000 21.500000 0 0 1 879.000000 56.500000
M 926.000000 50.000000
A 21.000000 21.000000 0 0 1 884.000000 50.000000
M 930.000000 43.500000
A 20.500000 20.500000 0 0 1 889.000000 43.500000
M 710.000000 592.000000
A 6.000000 6.000000 0 0 1 722.000000 592.000000
M 724.000000 531.500000
A 6.500000 6.500000 0 0 1 711.000000 531.500000
M 724.000000 526.500000
A 7.500000 7.500000 0 0 1 709.000000 526.500000
M 726.000000 521.000000
A 9.000000 9.000000 0 0 1 708.000000 521.000000
M 727.000000 515.000000
A 10.000000 10.000000 0 0 1 707.000000 515.000000
M 728.000000 510.000000
A 11.000000 11.000000 0 0 1 706.000000 510.000000
M 729.000000 504.000000
A 12.000000 12.000000 0 0 1 705.000000 504.000000
M 731.000000 499.500000
A 13.500000 13.500000 0 0 1 704.000000 499.500000
M 732.000000 493.500000
A 14.500000 14.500000 0 0 1 703.000000 493.500000
M 733.000000 487.500000
A 15.500000 15.500000 0 0 1 702.000000 487.500000
M 735.000000 483.000000
A 17.000000 17.000000 0 0 1 701.000000 483.000000
M 736.000000 477.000000
A 18.000000 18.000000 0 0 1 700.000000 477.000000
M 737.000000 471.000000
A 19.000000 19.000000 0 0 1 699.000000 471.000000
M 738.000000 466.000000
A 20.000000 20.000000 0 0 1 698.000000 466.000000
M 739.000000 460.500000
A 21.500000 21.500000 0 0 1 696.000000 460.500000
M 740.000000 454.500000
A 22.500000 22.500000 0 0 1 695.000000 454.500000
M 741.000000 449.500000
A 23.500000 23.500000 0 0 1 694.000000 449.500000
M 743.000000 444.000000
A 25.000000 25.000000 0 0 1 693.000000 444.000000
M 744.000000 438.000000
A 26.000000 26.000000 0 0 1 692.000000 438.000000
M 745.000000 433.000000
A 27.000000 27.000000 0 0 1 691.000000 433.000000
M 747.000000 427.500000
A 28.500000 28.500000 0 0 1 690.000000 427.500000
M 748.000000 421.500000
A 29.500000 29.500000 0 0 1 689.000000 421.500000
M 749.000000 416.500000
A 30.500000 30.500000 0 0 1 688.000000 416.500000
M 750.000000 410.500000
A 31.500000 31.500000 0 0 1 687.000000 410.500000
M 752.000000 406.000000
A 33.000000 33.000000 0 0 1 686.000000 406.000000
M 752.000000 400.000000
A 34.000000 34.000000 0 0 1 684.000000 400.000000
M 753.000000 394.000000
A 35.000000 35.000000 0 0 1 683.000000 394.000000
M 755.000000 389.500000
A 36.500000 36.500000 0 0 1 682.000000 389.500000
M 756.000000 383.500000
A 37.500000 37.500000 0 0 1 681.000000 383.500000
M 757.000000 377.500000
A 38.500000 38.500000 0 0 1 680.000000 377.500000
M 759.000000 373.000000
A 40.000000 40.000000 0 0 1 679.000000 373.000000
M 760.000000 367.000000
A 41.000000 41.000000 0 0 1 678.000000 367.000000
M 761.000000 361.000000
A 42.000000 42.000000 0 0 1 677.000000 361.000000
M 762.000000 356.000000
A 43.000000 43.000000 0 0 1 676.000000 356.000000
M 764.000000 350.500000
A 44.500000 44.500000 0 0 1 675.000000 350.500000
M 765.000000 344.500000
A 45.500000 45.500000 0 0 1 674.000000 344.500000
M 714.000000 585.500000
A 6.500000 6.500000 0 0 1 727.000000 585.500000
M 717.000000 579.500000
A 7.500000 7.500000 0 0 1 732.000000 579.500000
M 721.000000 573.000000
A 8.000000 8.000000 0 0 1 737.000000 573.000000
M 724.000000 566.500000
A 8.500000 8.500000 0 0 1 741.000000 566.500000
M 728.000000 560.000000
A 9.000000 9.000000 0 0 1 746.000000 560.000000
M 731.000000 553.500000
A 9.500000 9.500000 0 0 1 750.000000 553.500000
M 735.000000 547.000000
A 10.000000 10.000000 0 0 1 755.000000 547.000000
M 739.000000 540.500000
A 10.500000 10.500000 0 0 1 760.000000 540.500000
M 742.000000 534.000000
A 11.000000 11.000000 0 0 1 764.000000 534.000000
M 746.000000 527.500000
A 11.500000 11.500000 0 0 1 769.000000 527.500000
M 749.000000 521.000000
A 12.000000 12.000000 0 0 1 773.000000 521.000000
M 753.000000 514.500000
A 12.500000 12.500000 0 0 1 778.000000 514.500000
M 756.000000 508.500000
A 13.500000 13.500000 0 0 1 783.000000 508.500000
M 760.000000 502.000000
A 14.000000 14.000000 0 0 1 788.000000 502.000000
M 763.000000 495.500000
A 14.500000 14.500000 0 0 1 792.000000 495.500000
M 767.000000 489.000000
A 15.000000 15.000000 0 0 1 797.000000 489.000000
M 771.000000 482.500000
A 15.500000 15.500000 0 0 1 802.000000 482.500000
M 774.000000 476.000000
A 16.000000 16.000000 0 0 1 806.000000 476.000000
M 778.000000 469.500000
A 16.500000 16.500000 0 0 1 811.000000 469.500000
M 781.000000 463.000000
A 17.000000 17.000000 0 0 1 815.000000 463.000000
M 785.000000 456.500000
A 17.500000 17.500000 0 0 1 820.000000 456.500000
M 788.000000 450.000000
A 18.000000 18.000000 0 0 1 824.000000 450.000000
M 792.000000 444.000000
A 19.000000 19.000000 0 0 1 830.000000 444.000000
M 795.000000 437.500000
A 19.500000 19.500000 0 0 1 834.000000 437.500000
M 799.000000 431.000000
A 20.000000 20.000000 0 0 1 839.000000 431.000000
M 802.000000 424.500000
A 20.500000 20.500000 0 0 1 843.000000 424.500000
M 806.000000 418.000000
A 21.000000 21.000000 0 0 1 848.000000 418.000000
M 810.000000 411.500000
A 21.500000 21.500000 0 0 1 853.000000 411.500000
M 813.000000 405.000000
A 22.000000 22.000000 0 0 1 857.000000 405.000000
M 817.000000 398.500000
A 22.500000 22.500000 0 0 1 862.000000 398.500000
M 820.000000 392.000000
A 23.000000 23.000000 0 0 1 866.000000 392.000000
M 824.000000 385.500000
A 23.500000 23.500000 0 0 1 871.000000 385.500000
M 827.000000 379.000000
A 24.000000 24.000000 0 0 1 875.000000 379.000000
M 831.000000 373.000000
A 25.000000 25.000000 0 0 1 881.000000 373.000000
M 834.000000 366.500000
A 25.500000 25.500000 0 0 1 885.000000 366.500000
M 838.000000 360.000000
A 26.000000 26.000000 0 0 1 890.000000 360.000000
M 842.000000 353.500000
A 26.500000 26.500000 0 0 1 895.000000 353.500000
M 845.000000 347.000000
A 27.000000 27.000000 0 0 1 899.000000 347.000000
M 849.000000 340.500000
A 27.500000 27.500000 0 0 1 904.000000 340.500000
M 852.000000 334.000000
A 28.000000 28.000000 0 0 1 908.000000 334.000000
M 856.000000 327.500000
A 28.500000 28.500000 0 0 1 913.000000 327.500000
M 859.000000 321.000000
A 29.000000 29.000000 0 0 1 917.000000 321.000000
M 863.000000 314.500000
A 29.500000 29.500000 0 0 1 922.000000 314.500000
M 866.000000 308.000000
A 30.000000 30.000000 0 0 1 926.000000 308.000000
M 870.000000 302.000000
A 31.000000 31.000000 0 0 1 932.000000 302.000000
M 373.000000 180.500000
A 32.500000 32.500000 0 0 1 308.000000 180.500000
M 382.000000 184.000000
A 33.000000 33.000000 0 0 1 316.000000 184.000000
M 390.000000 187.000000
A 33.000000 33.000000 0 0 1 324.000000 187.000000
M 399.000000 190.500000
A 33.500000 33.500000 0 0 1 332.000000 190.500000
M 408.000000 195.000000
A 34.000000 34.000000 0 0 1 340.000000 195.000000
M 415.000000 198.000000
A 34.000000 34.000000 0 0 1 347.000000 198.000000
M 424.000000 201.500000
A 34.500000 34.500000 0 0 1 355.000000 201.500000
M 432.000000 204.500000
A 34.500000 34.500000 0 0 1 363.000000 204.500000
M 441.000000 208.000000
A 35.000000 35.000000 0 0 1 371.000000 208.000000
M 450.000000 211.500000
A 35.500000 35.500000 0 0 1 379.000000 211.500000
M 458.000000 214.500000
A 35.500000 35.500000 0 0 1 387.000000 214.500000
M 467.000000 219.000000
A 36.000000 36.000000 0 0 1 395.000000 219.000000
M 475.000000 222.000000
A 36.000000 36.000000 0 0 1 403.000000 222.000000
M 484.000000 225.500000
A 36.500000 36.500000 0 0 1 411.000000 225.500000
M 493.000000 229.000000
A 37.000000 37.000000 0 0 1 419.000000 229.000000
M 501.000000 232.000000
A 37.000000 37.000000 0 0 1 427.000000 232.000000
M 510.000000 235.500000
A 37.500000 37.500000 0 0 1 435.000000 235.500000
M 519.000000 240.000000
A 38.000000 38.000000 0 0 1 443.000000 240.000000
M 527.000000 243.000000
A 38.000000 38.000000 0 0 1 451.000000 243.000000
M 535.000000 246.500000
A 38.500000 38.500000 0 0 1 458.000000 246.500000
M 543.000000 249.500000
A 38.500000 38.500000 0 0 1 466.000000 249.500000
M 552.000000 253.000000
A 39.000000 39.000000 0 0 1 474.000000 253.000000
M 561.000000 256.500000
A 39.500000 39.500000 0 0 1 482.000000 256.500000
M 569.000000 259.500000
A 39.500000 39.500000 0 0 1 490.000000 259.500000
M 578.000000 264.000000
A 40.000000 40.000000 0 0 1 498.000000 264.000000
M 586.000000 267.000000
A 40.000000 40.000000 0 0 1 506.000000 267.000000
M 595.000000 270.500000
A 40.500000 40.500000 0 0 1 514.000000 270.500000
M 604.000000 274.000000
A 41.000000 41.000000 0 0 1 522.000000 274.000000
M 612.000000 277.000000
A 41.000000 41.000000 0 0 1 530.000000 277.000000
M 621.000000 280.500000
A 41.500000 41.500000 0 0 1 538.000000 280.500000
M 629.000000 283.500000
A 41.500000 41.500000 0 0 1 546.000000 283.500000
M 638.000000 288.000000
A 42.000000 42.000000 0 0 1 554.000000 288.000000
M 647.000000 291.500000
A 42.500000 42.500000 0 0 1 562.000000 291.500000
M 654.000000 294.500000
A 42.500000 42.500000 0 0 1 569.000000 294.500000
M 663.000000 298.000000
A 43.000000 43.000000 0 0 1 577.000000 298.000000
M 672.000000 301.500000
A 43.500000 43.500000 0 0 1 585.000000 301.500000
M 680.000000 304.500000
A 43.500000 43.500000 0 0 1 593.000000 304.500000
M 689.000000 308.000000
A 44.000000 44.000000 0 0 1 601.000000 308.000000
M 697.000000 312.000000
A 44.000000 44.000000 0 0 1 609.000000 312.000000
M 706.000000 315.500000
A 44.500000 44.500000 0 0 1 617.000000 315.500000
M 715.000000 319.000000
A 45.000000 45.000000 0 0 1 625.000000 319.000000
M 723.000000 322.000000
A 45.000000 45.000000 0 0 1 633.000000 322.000000
M 732.000000 325.500000
A 45.500000 45.500000 0 0 1 641.000000 325.500000
M 740.000000 328.500000
A 45.500000 45.500000 0 0 1 649.000000 328.500000
M 749.000000 333.000000
A 46.000000 46.000000 0 0 1 657.000000 333.000000
M 758.000000 336.500000
A 46.500000 46.500000 0 0 1 665.000000 336.500000
M 372.000000 186.500000
A 31.500000 31.500000 0 0 1 309.000000 186.500000
M 371.000000 191.500000
A 30.500000 30.500000 0 0 1 310.000000 191.500000
M 370.000000 197.000000
A 29.000000 29.000000 0 0 1 312.000000 197.000000
M 369.000000 203.000000
A 28.000000 28.000000 0 0 1 313.000000 203.000000
M 368.000000 208.000000
A 27.000000 27.000000 0 0 1 314.000000 208.000000
M 368.000000 214.000000
A 26.000000 26.000000 0 0 1 316.000000 214.000000
M 366.000000 219.500000
A 24.500000 24.500000 0 0 1 317.000000 219.500000
M 365.000000 224.500000
A 23.500000 23.500000 0 0 1 318.000000 224.500000
M 365.000000 230.500000
A 22.500000 22.500000 0 0 1 320.000000 230.500000
M 364.000000 236.500000
A 21.500000 21.500000 0 0 1 321.000000 236.500000
M 362.000000 242.000000
A 20.000000 20.000000 0 0 1 322.000000 242.000000
M 362.000000 247.000000
A 19.000000 19.000000 0 0 1 324.000000 247.000000
M 361.000000 253.000000
A 18.000000 18.000000 0 0 1 325.000000 253.000000
M 360.000000 259.000000
A 17.000000 17.000000 0 0 1 326.000000 259.000000
M 359.000000 263.500000
A 15.500000 15.500000 0 0 1 328.000000 263.500000
M 358.000000 269.500000
A 14.500000 14.500000 0 0 1 329.000000 269.500000
M 357.000000 275.500000
A 13.500000 13.500000 0 0 1 330.000000 275.500000
M 356.000000 280.000000
A 12.000000 12.000000 0 0 1 332.000000 280.000000
M 355.000000 286.000000
A 11.000000 11.000000 0 0 1 333.000000 286.000000
M 354.000000 292.000000
A 10.000000 10.000000 0 0 1 334.000000 292.000000
M 354.000000 297.000000
A 9.000000 9.000000 0 0 1 336.000000 297.000000
M 352.000000 302.500000
A 7.500000 7.500000 0 0 1 337.000000 302.500000
M 351.000000 308.500000
A 6.500000 6.500000 0 0 1 338.000000 308.500000
M 341.000000 370.000000
A 6.000000 6.000000 0 0 1 353.000000 370.000000
M 340.000000 375.000000
A 7.000000 7.000000 0 0 1 354.000000 375.000000
M 339.000000 381.000000
A 8.000000 8.000000 0 0 1 355.000000 381.000000
M 338.000000 386.000000
A 9.000000 9.000000 0 0 1 356.000000 386.000000
M 337.000000 391.500000
A 10.500000 10.500000 0 0 1 358.000000 391.500000
M 336.000000 397.500000
A 11.500000 11.500000 0 0 1 359.000000 397.500000
M 335.000000 402.500000
A 12.500000 12.500000 0 0 1 360.000000 402.500000
M 334.000000 408.500000
A 13.500000 13.500000 0 0 1 361.000000 408.500000
M 334.000000 414.000000
A 15.000000 15.000000 0 0 1 364.000000 414.000000
M 333.000000 420.000000
A 16.000000 16.000000 0 0 1 365.000000 420.000000
M 332.000000 425.000000
A 17.000000 17.000000 0 0 1 366.000000 425.000000
M 331.000000 430.500000
A 18.500000 18.500000 0 0 1 368.000000 430.500000
M 330.000000 436.500000
A 19.500000 19.500000 0 0 1 369.000000 436.500000
M 338.000000 440.000000
A 19.000000 19.000000 0 0 1 376.000000 440.000000
M 346.000000 443.000000
A 19.000000 19.000000 0 0 1 384.000000 443.000000
M 355.000000 446.500000
A 18.500000 18.500000 0 0 1 392.000000 446.500000
M 363.000000 450.000000
A 18.000000 18.000000 0 0 1 399.000000 450.000000
M 371.000000 453.000000
A 18.000000 18.000000 0 0 1 407.000000 453.000000
M 379.000000 456.500000
A 17.500000 17.500000 0 0 1 414.000000 456.500000
M 388.000000 460.500000
A 17.500000 17.500000 0 0 1 423.000000 460.500000
M 396.000000 463.000000
A 17.000000 17.000000 0 0 1 430.000000 463.000000
M 404.000000 467.000000
A 17.000000 17.000000 0 0 1 438.000000 467.000000
M 412.000000 470.500000
A 16.500000 16.500000 0 0 1 445.000000 470.500000
M 421.000000 473.000000
A 16.000000 16.000000 0 0 1 453.000000 473.000000
M 429.000000 477.000000
A 16.000000 16.000000 0 0 1 461.000000 477.000000
M 437.000000 480.500000
A 15.500000 15.500000 0 0 1 468.000000 480.500000
M 446.000000 483.500000
A 15.500000 15.500000 0 0 1 477.000000 483.500000
M 454.000000 487.000000
A 15.000000 15.000000 0 0 1 484.000000 487.000000
M 462.000000 491.000000
A 15.000000 15.000000 0 0 1 492.000000 491.000000
M 470.000000 493.500000
A 14.500000 14.500000 0 0 1 499.000000 493.500000
M 479.000000 497.000000
A 14.000000 14.000000 0 0 1 507.000000 497.000000
M 487.000000 501.000000
A 14.000000 14.000000 0 0 1 515.000000 501.000000
M 495.000000 503.500000
A 13.500000 13.500000 0 0 1 522.000000 503.500000
M 503.000000 507.500000
A 13.500000 13.500000 0 0 1 530.000000 507.500000
M 512.000000 511.000000
A 13.000000 13.000000 0 0 1 538.000000 511.000000
M 520.000000 514.000000
A 13.000000 13.000000 0 0 1 546.000000 514.000000
M 528.000000 517.500000
A 12.500000 12.500000 0 0 1 553.000000 517.500000
M 537.000000 521.000000
A 12.000000 12.000000 0 0 1 561.000000 521.000000
M 545.000000 525.000000
A 12.000000 12.000000 0 0 1 569.000000 525.000000
M 553.000000 527.500000
A 11.500000 11.500000 0 0 1 576.000000 527.500000
M 561.000000 531.500000
A 11.500000 11.500000 0 0 1 584.000000 531.500000
M 570.000000 535.000000
A 11.000000 11.000000 0 0 1 592.000000 535.000000
M 578.000000 538.000000
A 11.000000 11.000000 0 0 1 600.000000 538.000000
M 586.000000 541.500000
A 10.500000 10.500000 0 0 1 607.000000 541.500000
M 594.000000 545.000000
A 10.000000 10.000000 0 0 1 614.000000 545.000000
M 603.000000 548.000000
A 10.000000 10.000000 0 0 1 623.000000 548.000000
M 611.000000 551.500000
A 9.500000 9.500000 0 0 1 630.000000 551.500000
M 619.000000 555.500000
A 9.500000 9.500000 0 0 1 638.000000 555.500000
M 627.000000 558.000000
A 9.000000 9.000000 0 0 1 645.000000 558.000000
M 636.000000 561.500000
A 8.500000 8.500000 0 0 1 653.000000 561.500000
M 644.000000 565.500000
A 8.500000 8.500000 0 0 1 661.000000 565.500000
M 652.000000 568.000000
A 8.000000 8.000000 0 0 1 668.000000 568.000000
M 661.000000 572.000000
A 8.000000 8.000000 0 0 1 677.000000 572.000000
M 669.000000 575.500000
A 7.500000 7.500000 0 0 1 684.000000 575.500000
M 677.000000 578.500000
A 7.500000 7.500000 0 0 1 692.000000 578.500000
M 685.000000 582.000000
A 7.000000 7.000000 0 0 1 699.000000 582.000000
M 694.000000 585.500000
A 6.500000 6.500000 0 0 1 707.000000 585.500000
M 702.000000 588.500000
A 6.500000 6.500000 0 0 1 715.000000 588.500000
M 377.000000 174.000000
A 32.000000 32.000000 0 0 1 313.000000 174.000000
M 381.000000 167.500000
A 31.500000 31.500000 0 0 1 318.000000 167.500000
M 384.000000 161.000000
A 31.000000 31.000000 0 0 1 322.000000 161.000000
M 388.000000 154.500000
A 30.500000 30.500000 0 0 1 327.000000 154.500000
M 391.000000 148.500000
A 29.500000 29.500000 0 0 1 332.000000 148.500000
M 395.000000 142.000000
A 29.000000 29.000000 0 0 1 337.000000 142.000000
M 399.000000 135.500000
A 28.500000 28.500000 0 0 1 342.000000 135.500000
M 403.000000 129.000000
A 28.000000 28.000000 0 0 1 347.000000 129.000000
M 407.000000 122.500000
A 27.500000 27.500000 0 0 1 352.000000 122.500000
M 411.000000 116.000000
A 27.000000 27.000000 0 0 1 357.000000 116.000000
M 415.000000 109.500000
A 26.500000 26.500000 0 0 1 362.000000 109.500000
M 418.000000 102.500000
A 25.500000 25.500000 0 0 1 367.000000 102.500000
M 421.000000 96.000000
A 25.000000 25.000000 0 0 1 371.000000 96.000000
M 425.000000 89.500000
A 24.500000 24.500000 0 0 1 376.000000 89.500000
M 429.000000 84.000000
A 24.000000 24.000000 0 0 1 381.000000 84.000000
M 433.000000 77.500000
A 23.500000 23.500000 0 0 1 386.000000 77.500000
M 437.000000 71.000000
A 23.000000 23.000000 0 0 1 391.000000 71.000000
M 441.000000 64.500000
A 22.500000 22.500000 0 0 1 396.000000 64.500000
M 444.000000 57.500000
A 21.500000 21.500000 0 0 1 401.000000 57.500000
M 448.000000 51.000000
A 21.000000 21.000000 0 0 1 406.000000 51.000000
M 452.000000 44.500000
A 20.500000 20.500000 0 0 1 411.000000 44.500000
M 455.000000 38.000000
A 20.000000 20.000000 0 0 1 415.000000 38.000000
M 459.000000 31.500000
A 19.500000 19.500000 0 0 1 420.000000 31.500000
M 463.000000 26.000000
A 19.000000 19.000000 0 0 1 425.000000 26.000000
M 466.000000 19.000000
A 18.000000 18.000000 0 0 1 430.000000 19.000000
M 470.000000 13.500000
A 17.500000 17.500000 0 0 1 435.000000 13.500000
M 474.000000 7.000000
A 17.000000 17.000000 0 0 1 440.000000 7.000000
M 478.000000 0.500000
A 16.500000 16.500000 0 0 1 445.000000 0.500000
M 482.000000 -6.000000
A 16.000000 16.000000 0 0 1 450.000000 -6.000000
M 486.000000 -12.500000
A 15.500000 15.500000 0 0 1 455.000000 -12.500000
M 489.000000 -19.000000
A 15.000000 15.000000 0 0 1 459.000000 -19.000000
M 492.000000 -26.000000
A 14.000000 14.000000 0 0 1 464.000000 -26.000000
M 496.000000 -32.500000
A 13.500000 13.500000 0 0 1 469.000000 -32.500000
M 500.000000 -38.000000
A 13.000000 13.000000 0 0 1 474.000000 -38.000000
M 504.000000 -44.500000
A 12.500000 12.500000 0 0 1 479.000000 -44.500000
M 508.000000 -51.000000
A 12.000000 12.000000 0 0 1 484.000000 -51.000000
M 512.000000 -57.500000
A 11.500000 11.500000 0 0 1 489.000000 -57.500000
M 516.000000 -64.000000
A 11.000000 11.000000 0 0 1 494.000000 -64.000000
M 519.000000 -71.000000
A 10.000000 10.000000 0 0 1 499.000000 -71.000000
M 522.000000 -77.500000
A 9.500000 9.500000 0 0 1 503.000000 -77.500000
M 526.000000 -84.000000
A 9.000000 9.000000 0 0 1 508.000000 -84.000000
M 530.000000 -90.500000
A 8.500000 8.500000 0 0 1 513.000000 -90.500000
M 534.000000 -96.000000
A 8.000000 8.000000 0 0 1 518.000000 -96.000000
M 538.000000 -102.500000
A 7.500000 7.500000 0 0 1 523.000000 -102.500000
M 542.000000 -109.000000
A 7.000000 7.000000 0 0 1 528.000000 -109.000000
M 545.000000 -116.000000
A 6.000000 6.000000 0 0 1 533.000000 -116.000000
M 534.000000 -53.000000
A 6.000000 6.000000 0 0 1 546.000000 -53.000000
M 533.000000 -48.000000
A 7.000000 7.000000 0 0 1 547.000000 -48.000000
M 532.000000 -42.000000
A 8.000000 8.000000 0 0 1 548.000000 -42.000000
M 531.000000 -37.000000
A 9.000000 9.000000 0 0 1 549.000000 -37.000000
M 530.000000 -31.000000
A 10.000000 10.000000 0 0 1 550.000000 -31.000000
M 529.000000 -25.500000
A 11.500000 11.500000 0 0 1 552.000000 -25.500000
M 528.000000 -19.500000
A 12.500000 12.500000 0 0 1 553.000000 -19.500000
M 527.000000 -13.500000
A 13.500000 13.500000 0 0 1 554.000000 -13.500000
M 525.000000 -8.500000
A 14.500000 14.500000 0 0 1 554.000000 -8.500000
M 524.000000 -2.500000
A 15.500000 15.500000 0 0 1 555.000000 -2.500000
M 523.000000 3.000000
A 17.000000 17.000000 0 0 1 557.000000 3.000000
M 522.000000 9.000000
A 18.000000 18.000000 0 0 1 558.000000 9.000000
M 521.000000 14.000000
A 19.000000 19.000000 0 0 1 559.000000 14.000000
M 520.000000 20.000000
A 20.000000 20.000000 0 0 1 560.000000 20.000000
M 519.000000 25.000000
A 21.000000 21.000000 0 0 1 561.000000 25.000000
M 518.000000 30.500000
A 22.500000 22.500000 0 0 1 563.000000 30.500000
M 517.000000 36.500000
A 23.500000 23.500000 0 0 1 564.000000 36.500000
M 516.000000 41.500000
A 24.500000 24.500000 0 0 1 565.000000 41.500000
M 515.000000 47.500000
A 25.500000 25.500000 0 0 1 566.000000 47.500000
M 514.000000 52.500000
A 26.500000 26.500000 0 0 1 567.000000 52.500000
M 513.000000 59.000000
A 28.000000 28.000000 0 0 1 569.000000 59.000000
M 512.000000 65.000000
A 29.000000 29.000000 0 0 1 570.000000 65.000000
M 511.000000 70.000000
A 30.000000 30.000000 0 0 1 571.000000 70.000000
M 510.000000 76.000000
A 31.000000 31.000000 0 0 1 572.000000 76.000000
M 509.000000 81.000000
A 32.000000 32.000000 0 0 1 573.000000 81.000000
M 508.000000 87.000000
A 33.000000 33.000000 0 0 1 574.000000 87.000000
M 507.000000 92.500000
A 34.500000 34.500000 0 0 1 576.000000 92.500000
M 506.000000 98.500000
A 35.500000 35.500000 0 0 1 577.000000 98.500000
M 505.000000 104.500000
A 36.500000 36.500000 0 0 1 578.000000 104.500000
M 504.000000 109.500000
A 37.500000 37.500000 0 0 1 579.000000 109.500000
M 503.000000 115.500000
A 38.500000 38.500000 0 0 1 580.000000 115.500000
M 502.000000 121.000000
A 40.000000 40.000000 0 0 1 582.000000 121.000000
M 501.000000 127.000000
A 41.000000 41.000000 0 0 1 583.000000 127.000000
M 500.000000 132.000000
A 42.000000 42.000000 0 0 1 584.000000 132.000000
M 499.000000 138.000000
A 43.000000 43.000000 0 0 1 585.000000 138.000000
M 497.000000 144.000000
A 44.000000 44.000000 0 0 1 585.000000 144.000000
M 333.000000 430.000000
A 20.000000 20.000000 0 0 1 373.000000 430.000000
M 337.000000 423.500000
A 20.500000 20.500000 0 0 1 378.000000 423.500000
M 341.000000 417.000000
A 21.000000 21.000000 0 0 1 383.000000 417.000000
M 344.000000 410.500000
A 21.500000 21.500000 0 0 1 387.000000 410.500000
M 348.000000 404.000000
A 22.000000 22.000000 0 0 1 392.000000 404.000000
M 352.000000 397.500000
A 22.500000 22.500000 0 0 1 397.000000 397.500000
M 355.000000 392.000000
A 23.000000 23.000000 0 0 1 401.000000 392.000000
M 359.000000 385.500000
A 23.500000 23.500000 0 0 1 406.000000 385.500000
M 363.000000 379.000000
A 24.000000 24.000000 0 0 1 411.000000 379.000000
M 366.000000 373.000000
A 25.000000 25.000000 0 0 1 416.000000 373.000000
M 370.000000 366.500000
A 25.500000 25.500000 0 0 1 421.000000 366.500000
M 374.000000 360.000000
A 26.000000 26.000000 0 0 1 426.000000 360.000000
M 377.000000 353.500000
A 26.500000 26.500000 0 0 1 430.000000 353.500000
M 381.000000 347.000000
A 27.000000 27.000000 0 0 1 435.000000 347.000000
M 384.000000 340.500000
A 27.500000 27.500000 0 0 1 439.000000 340.500000
M 388.000000 335.000000
A 28.000000 28.000000 0 0 1 444.000000 335.000000
M 392.000000 328.500000
A 28.500000 28.500000 0 0 1 449.000000 328.500000
M 395.000000 322.000000
A 29.000000 29.000000 0 0 1 453.000000 322.000000
M 399.000000 315.500000
A 29.500000 29.500000 0 0 1 458.000000 315.500000
M 403.000000 309.000000
A 30.000000 30.000000 0 0 1 463.000000 309.000000
M 406.000000 302.500000
A 30.500000 30.500000 0 0 1 467.000000 302.500000
M 410.000000 296.000000
A 31.000000 31.000000 0 0 1 472.000000 296.000000
M 414.000000 290.000000
A 32.000000 32.000000 0 0 1 478.000000 290.000000
M 417.000000 283.500000
A 32.500000 32.500000 0 0 1 482.000000 283.500000
M 421.000000 277.000000
A 33.000000 33.000000 0 0 1 487.000000 277.000000
M 425.000000 271.500000
A 33.500000 33.500000 0 0 1 492.000000 271.500000
M 428.000000 265.000000
A 34.000000 34.000000 0 0 1 496.000000 265.000000
M 432.000000 258.500000
A 34.500000 34.500000 0 0 1 501.000000 258.500000
M 435.000000 252.000000
A 35.000000 35.000000 0 0 1 505.000000 252.000000
M 439.000000 245.500000
A 35.500000 35.500000 0 0 1 510.000000 245.500000
M 443.000000 239.000000
A 36.000000 36.000000 0 0 1 515.000000 239.000000
M 446.000000 232.500000
A 36.500000 36.500000 0 0 1 519.000000 232.500000
M 450.000000 226.000000
A 37.000000 37.000000 0 0 1 524.000000 226.000000
M 454.000000 219.500000
A 37.500000 37.500000 0 0 1 529.000000 219.500000
M 457.000000 213.500000
A 38.500000 38.500000 0 0 1 534.000000 213.500000
M 461.000000 208.000000
A 39.000000 39.000000 0 0 1 539.000000 208.000000
M 465.000000 201.500000
A 39.500000 39.500000 0 0 1 544.000000 201.500000
M 468.000000 195.000000
A 40.000000 40.000000 0 0 1 548.000000 195.000000
M 472.000000 188.500000
A 40.500000 40.500000 0 0 1 553.000000 188.500000
M 476.000000 182.000000
A 41.000000 41.000000 0 0 1 558.000000 182.000000
M 479.000000 175.500000
A 41.500000 41.500000 0 0 1 562.000000 175.500000
M 483.000000 169.000000
A 42.000000 42.000000 0 0 1 567.000000 169.000000
M 487.000000 162.500000
A 42.500000 42.500000 0 0 1 572.000000 162.500000
M 490.000000 156.000000
A 43.000000 43.000000 0 0 1 576.000000 156.000000
M 494.000000 150.500000
A 43.500000 43.500000 0 0 1 581.000000 150.500000
M 554.000000 -112.500000
A 6.500000 6.500000 0 0 1 541.000000 -112.500000
M 562.000000 -109.000000
A 7.000000 7.000000 0 0 1 548.000000 -109.000000
M 570.000000 -106.000000
A 7.000000 7.000000 0 0 1 556.000000 -106.000000
M 579.000000 -102.500000
A 7.500000 7.500000 0 0 1 564.000000 -102.500000
M 587.000000 -99.500000
A 7.500000 7.500000 0 0 1 572.000000 -99.500000
M 596.000000 -96.000000
A 8.000000 8.000000 0 0 1 580.000000 -96.000000
M 605.000000 -92.500000
A 8.500000 8.500000 0 0 1 588.000000 -92.500000
M 613.000000 -89.500000
A 8.500000 8.500000 0 0 1 596.000000 -89.500000
M 621.000000 -86.000000
A 9.000000 9.000000 0 0 1 603.000000 -86.000000
M 629.000000 -83.000000
A 9.000000 9.000000 0 0 1 611.000000 -83.000000
M 638.000000 -79.500000
A 9.500000 9.500000 0 0 1 619.000000 -79.500000
M 647.000000 -76.000000
A 10.000000 10.000000 0 0 1 627.000000 -76.000000
M 655.000000 -72.000000
A 10.000000 10.000000 0 0 1 635.000000 -72.000000
M 664.000000 -68.500000
A 10.500000 10.500000 0 0 1 643.000000 -68.500000
M 671.000000 -65.500000
A 10.500000 10.500000 0 0 1 650.000000 -65.500000
M 680.000000 -62.000000
A 11.000000 11.000000 0 0 1 658.000000 -62.000000
M 688.000000 -59.000000
A 11.000000 11.000000 0 0 1 666.000000 -59.000000
M 697.000000 -55.500000
A 11.500000 11.500000 0 0 1 674.000000 -55.500000
M 706.000000 -52.000000
A 12.000000 12.000000 0 0 1 682.000000 -52.000000
M 714.000000 -49.000000
A 12.000000 12.000000 0 0 1 690.000000 -49.000000
M 723.000000 -45.500000
A 12.500000 12.500000 0 0 1 698.000000 -45.500000
M 730.000000 -42.500000
A 12.500000 12.500000 0 0 1 705.000000 -42.500000
M 739.000000 -39.000000
A 13.000000 13.000000 0 0 1 713.000000 -39.000000
M 748.000000 -35.500000
A 13.500000 13.500000 0 0 1 721.000000 -35.500000
M 756.000000 -32.500000
A 13.500000 13.500000 0 0 1 729.000000 -32.500000
M 765.000000 -29.000000
A 14.000000 14.000000 0 0 1 737.000000 -29.000000
M 773.000000 -26.000000
A 14.000000 14.000000 0 0 1 745.000000 -26.000000
M 781.000000 -22.500000
A 14.500000 14.500000 0 0 1 752.000000 -22.500000
M 790.000000 -19.000000
A 15.000000 15.000000 0 0 1 760.000000 -19.000000
M 798.000000 -16.000000
A 15.000000 15.000000 0 0 1 768.000000 -16.000000
M 807.000000 -12.500000
A 15.500000 15.500000 0 0 1 776.000000 -12.500000
M 815.000000 -8.500000
A 15.500000 15.500000 0 0 1 784.000000 -8.500000
M 824.000000 -5.000000
A 16.000000 16.000000 0 0 1 792.000000 -5.000000
M 832.000000 -1.500000
A 16.500000 16.500000 0 0 1 799.000000 -1.500000
M 840.000000 1.500000
A 16.500000 16.500000 0 0 1 807.000000 1.500000
M 849.000000 5.000000
A 17.000000 17.000000 0 0 1 815.000000 5.000000
M 857.000000 8.000000
A 17.000000 17.000000 0 0 1 823.000000 8.000000
M 866.000000 11.500000
A 17.500000 17.500000 0 0 1 831.000000 11.500000
M 875.000000 15.000000
A 18.000000 18.000000 0 0 1 839.000000 15.000000
M 883.000000 18.000000
A 18.000000 18.000000 0 0 1 847.000000 18.000000
M 891.000000 20.500000
A 18.500000 18.500000 0 0 1 854.000000 20.500000
M 899.000000 23.500000
A 18.500000 18.500000 0 0 1 862.000000 23.500000
M 908.000000 27.000000
A 19.000000 19.000000 0 0 1 870.000000 27.000000
M 917.000000 30.500000
A 19.500000 19.500000 0 0 1 878.000000 30.500000
M 925.000000 33.500000
A 19.500000 19.500000 0 0 1 886.000000 33.500000
M 506.000000 147.000000
A 44.000000 44.000000 0 0 1 594.000000 147.000000
M 514.000000 150.500000
A 43.500000 43.500000 0 0 1 601.000000 150.500000
M 522.000000 153.500000
A 43.500000 43.500000 0 0 1 609.000000 153.500000
M 530.000000 157.000000
A 43.000000 43.000000 0 0 1 616.000000 157.000000
M 538.000000 161.000000
A 43.000000 43.000000 0 0 1 624.000000 161.000000
M 547.000000 163.500000
A 42.500000 42.500000 0 0 1 632.000000 163.500000
M 555.000000 167.000000
A 42.000000 42.000000 0 0 1 639.000000 167.000000
M 563.000000 170.000000
A 42.000000 42.000000 0 0 1 647.000000 170.000000
M 571.000000 173.500000
A 41.500000 41.500000 0 0 1 654.000000 173.500000
M 579.000000 176.500000
A 41.500000 41.500000 0 0 1 662.000000 176.500000
M 587.000000 180.000000
A 41.000000 41.000000 0 0 1 669.000000 180.000000
M 596.000000 184.000000
A 41.000000 41.000000 0 0 1 678.000000 184.000000
M 604.000000 186.500000
A 40.500000 40.500000 0 0 1 685.000000 186.500000
M 612.000000 190.500000
A 40.500000 40.500000 0 0 1 693.000000 190.500000
M 620.000000 193.000000
A 40.000000 40.000000 0 0 1 700.000000 193.000000
M 628.000000 196.500000
A 39.500000 39.500000 0 0 1 707.000000 196.500000
M 636.000000 199.500000
A 39.500000 39.500000 0 0 1 715.000000 199.500000
M 645.000000 203.000000
A 39.000000 39.000000 0 0 1 723.000000 203.000000
M 653.000000 206.000000
A 39.000000 39.000000 0 0 1 731.000000 206.000000
M 661.000000 209.500000
A 38.500000 38.500000 0 0 1 738.000000 209.500000
M 669.000000 213.500000
A 38.500000 38.500000 0 0 1 746.000000 213.500000
M 677.000000 216.000000
A 38.000000 38.000000 0 0 1 753.000000 216.000000
M 685.000000 220.000000
A 38.000000 38.000000 0 0 1 761.000000 220.000000
M 694.000000 222.500000
A 37.500000 37.500000 0 0 1 769.000000 222.500000
M 702.000000 226.000000
A 37.000000 37.000000 0 0 1 776.000000 226.000000
M 710.000000 229.000000
A 37.000000 37.000000 0 0 1 784.000000 229.000000
M 718.000000 232.500000
A 36.500000 36.500000 0 0 1 791.000000 232.500000
M 726.000000 236.500000
A 36.500000 36.500000 0 0 1 799.000000 236.500000
M 735.000000 239.000000
A 36.000000 36.000000 0 0 1 807.000000 239.000000
M 743.000000 243.000000
A 36.000000 36.000000 0 0 1 815.000000 243.000000
M 751.000000 245.500000
A 35.500000 35.500000 0 0 1 822.000000 245.500000
M 759.000000 249.500000
A 35.500000 35.500000 0 0 1 830.000000 249.500000
M 767.000000 252.000000
A 35.000000 35.000000 0 0 1 837.000000 252.000000
M 775.000000 255.500000
A 34.500000 34.500000 0 0 1 844.000000 255.500000
M 784.000000 259.500000
A 34.500000 34.500000 0 0 1 853.000000 259.500000
M 792.000000 262.000000
A 34.000000 34.000000 0 0 1 860.000000 262.000000
M 800.000000 266.000000
A 34.000000 34.000000 0 0 1 868.000000 266.000000
M 808.000000 268.500000
A 33.500000 33.500000 0 0 1 875.000000 268.500000
M 816.000000 272.500000
A 33.500000 33.500000 0 0 1 883.000000 272.500000
M 824.000000 275.000000
A 33.000000 33.000000 0 0 1 890.000000 275.000000
M 833.000000 278.500000
A 32.500000 32.500000 0 0 1 898.000000 278.500000
M 841.000000 282.500000
A 32.500000 32.500000 0 0 1 906.000000 282.500000
M 849.000000 285.000000
A 32.000000 32.000000 0 0 1 913.000000 285.000000
M 857.000000 289.000000
A 32.000000 32.000000 0 0 1 921.000000 289.000000
M 865.000000 291.500000
A 31.500000 31.500000 0 0 1 928.000000 291.500000
"/>
</svg>